%TF.GenerationSoftware,KiCad,Pcbnew,(5.99.0-7833-g0d57f90982)*%
%TF.CreationDate,2021-09-05T20:23:01+02:00*%
%TF.ProjectId,sbc6526,73626336-3532-4362-9e6b-696361645f70,rev?*%
%TF.SameCoordinates,Original*%
%TF.FileFunction,Paste,Bot*%
%TF.FilePolarity,Positive*%
%FSLAX46Y46*%
G04 Gerber Fmt 4.6, Leading zero omitted, Abs format (unit mm)*
G04 Created by KiCad (PCBNEW (5.99.0-7833-g0d57f90982)) date 2021-09-05 20:23:01*
%MOMM*%
%LPD*%
G01*
G04 APERTURE LIST*
G04 Aperture macros list*
%AMRoundRect*
0 Rectangle with rounded corners*
0 $1 Rounding radius*
0 $2 $3 $4 $5 $6 $7 $8 $9 X,Y pos of 4 corners*
0 Add a 4 corners polygon primitive as box body*
4,1,4,$2,$3,$4,$5,$6,$7,$8,$9,$2,$3,0*
0 Add four circle primitives for the rounded corners*
1,1,$1+$1,$2,$3,0*
1,1,$1+$1,$4,$5,0*
1,1,$1+$1,$6,$7,0*
1,1,$1+$1,$8,$9,0*
0 Add four rect primitives between the rounded corners*
20,1,$1+$1,$2,$3,$4,$5,0*
20,1,$1+$1,$4,$5,$6,$7,0*
20,1,$1+$1,$6,$7,$8,$9,0*
20,1,$1+$1,$8,$9,$2,$3,0*%
G04 Aperture macros list end*
%ADD10RoundRect,0.250000X0.475000X-0.337500X0.475000X0.337500X-0.475000X0.337500X-0.475000X-0.337500X0*%
%ADD11RoundRect,0.249999X0.350001X0.450001X-0.350001X0.450001X-0.350001X-0.450001X0.350001X-0.450001X0*%
%ADD12RoundRect,0.249999X0.450001X-0.350001X0.450001X0.350001X-0.450001X0.350001X-0.450001X-0.350001X0*%
%ADD13RoundRect,0.249999X-0.350001X-0.450001X0.350001X-0.450001X0.350001X0.450001X-0.350001X0.450001X0*%
%ADD14RoundRect,0.249999X-0.450001X0.350001X-0.450001X-0.350001X0.450001X-0.350001X0.450001X0.350001X0*%
%ADD15RoundRect,0.250000X-0.475000X0.337500X-0.475000X-0.337500X0.475000X-0.337500X0.475000X0.337500X0*%
%ADD16RoundRect,0.250000X-0.337500X-0.475000X0.337500X-0.475000X0.337500X0.475000X-0.337500X0.475000X0*%
G04 APERTURE END LIST*
D10*
%TO.C,C1*%
X150964900Y-80324200D03*
X150964900Y-78249200D03*
%TD*%
%TO.C,C3*%
X128100000Y-117925000D03*
X128100000Y-115850000D03*
%TD*%
%TO.C,C11*%
X140800000Y-77050000D03*
X140800000Y-74975000D03*
%TD*%
D11*
%TO.C,R10*%
X143675000Y-61975000D03*
X141675000Y-61975000D03*
%TD*%
D12*
%TO.C,R11*%
X112875000Y-118250000D03*
X112875000Y-116250000D03*
%TD*%
D13*
%TO.C,R15*%
X183480000Y-127820000D03*
X185480000Y-127820000D03*
%TD*%
%TO.C,R16*%
X183810000Y-136340000D03*
X185810000Y-136340000D03*
%TD*%
%TO.C,R17*%
X193620000Y-136210000D03*
X195620000Y-136210000D03*
%TD*%
%TO.C,R18*%
X193640000Y-127680000D03*
X195640000Y-127680000D03*
%TD*%
D14*
%TO.C,R19*%
X150975000Y-71125000D03*
X150975000Y-73125000D03*
%TD*%
D10*
%TO.C,C2*%
X150950000Y-98525000D03*
X150950000Y-96450000D03*
%TD*%
%TO.C,C6*%
X139850000Y-137275000D03*
X139850000Y-135200000D03*
%TD*%
D15*
%TO.C,C5*%
X139850000Y-131112500D03*
X139850000Y-133187500D03*
%TD*%
D14*
%TO.C,R2*%
X110600000Y-137300000D03*
X110600000Y-139300000D03*
%TD*%
D13*
%TO.C,R5*%
X111200000Y-133600000D03*
X113200000Y-133600000D03*
%TD*%
%TO.C,R1*%
X106100000Y-138900000D03*
X108100000Y-138900000D03*
%TD*%
D14*
%TO.C,R6*%
X118600000Y-139500000D03*
X118600000Y-141500000D03*
%TD*%
D11*
%TO.C,R3*%
X115062000Y-139200000D03*
X113062000Y-139200000D03*
%TD*%
%TO.C,R7*%
X117800000Y-133600000D03*
X115800000Y-133600000D03*
%TD*%
D12*
%TO.C,R8*%
X103200000Y-133300000D03*
X103200000Y-131300000D03*
%TD*%
%TO.C,R9*%
X129000000Y-136100000D03*
X129000000Y-134100000D03*
%TD*%
D14*
%TO.C,R4*%
X103378000Y-139500000D03*
X103378000Y-141500000D03*
%TD*%
D16*
%TO.C,CEXT1*%
X174137500Y-59075000D03*
X176212500Y-59075000D03*
%TD*%
M02*
