%TF.GenerationSoftware,KiCad,Pcbnew,(5.99.0-7833-g0d57f90982)*%
%TF.CreationDate,2021-09-05T20:23:01+02:00*%
%TF.ProjectId,sbc6526,73626336-3532-4362-9e6b-696361645f70,rev?*%
%TF.SameCoordinates,Original*%
%TF.FileFunction,Paste,Top*%
%TF.FilePolarity,Positive*%
%FSLAX46Y46*%
G04 Gerber Fmt 4.6, Leading zero omitted, Abs format (unit mm)*
G04 Created by KiCad (PCBNEW (5.99.0-7833-g0d57f90982)) date 2021-09-05 20:23:01*
%MOMM*%
%LPD*%
G01*
G04 APERTURE LIST*
G04 Aperture macros list*
%AMRoundRect*
0 Rectangle with rounded corners*
0 $1 Rounding radius*
0 $2 $3 $4 $5 $6 $7 $8 $9 X,Y pos of 4 corners*
0 Add a 4 corners polygon primitive as box body*
4,1,4,$2,$3,$4,$5,$6,$7,$8,$9,$2,$3,0*
0 Add four circle primitives for the rounded corners*
1,1,$1+$1,$2,$3,0*
1,1,$1+$1,$4,$5,0*
1,1,$1+$1,$6,$7,0*
1,1,$1+$1,$8,$9,0*
0 Add four rect primitives between the rounded corners*
20,1,$1+$1,$2,$3,$4,$5,0*
20,1,$1+$1,$4,$5,$6,$7,0*
20,1,$1+$1,$6,$7,$8,$9,0*
20,1,$1+$1,$8,$9,$2,$3,0*%
G04 Aperture macros list end*
%ADD10RoundRect,0.250000X0.475000X-0.337500X0.475000X0.337500X-0.475000X0.337500X-0.475000X-0.337500X0*%
%ADD11RoundRect,0.250000X-0.337500X-0.475000X0.337500X-0.475000X0.337500X0.475000X-0.337500X0.475000X0*%
%ADD12RoundRect,0.250000X0.337500X0.475000X-0.337500X0.475000X-0.337500X-0.475000X0.337500X-0.475000X0*%
%ADD13RoundRect,0.249999X-0.350001X-0.450001X0.350001X-0.450001X0.350001X0.450001X-0.350001X0.450001X0*%
%ADD14RoundRect,0.249999X0.350001X0.450001X-0.350001X0.450001X-0.350001X-0.450001X0.350001X-0.450001X0*%
%ADD15RoundRect,0.150000X-0.150000X0.700000X-0.150000X-0.700000X0.150000X-0.700000X0.150000X0.700000X0*%
%ADD16RoundRect,0.150000X0.150000X-0.825000X0.150000X0.825000X-0.150000X0.825000X-0.150000X-0.825000X0*%
%ADD17RoundRect,0.150000X-0.150000X0.825000X-0.150000X-0.825000X0.150000X-0.825000X0.150000X0.825000X0*%
G04 APERTURE END LIST*
D10*
%TO.C,C4*%
X166200000Y-137100000D03*
X166200000Y-135025000D03*
%TD*%
%TO.C,C7*%
X176600000Y-126100000D03*
X176600000Y-124025000D03*
%TD*%
D11*
%TO.C,C8*%
X177472500Y-110885000D03*
X179547500Y-110885000D03*
%TD*%
D10*
%TO.C,C9*%
X154100000Y-147000000D03*
X154100000Y-144925000D03*
%TD*%
D12*
%TO.C,C12*%
X184500000Y-110875000D03*
X182425000Y-110875000D03*
%TD*%
D13*
%TO.C,R12*%
X177500000Y-113515000D03*
X179500000Y-113515000D03*
%TD*%
%TO.C,R13*%
X182425000Y-113525000D03*
X184425000Y-113525000D03*
%TD*%
D14*
%TO.C,R14*%
X184450000Y-107950000D03*
X182450000Y-107950000D03*
%TD*%
D15*
%TO.C,U4*%
X162695000Y-127700000D03*
X161425000Y-127700000D03*
X160155000Y-127700000D03*
X158885000Y-127700000D03*
X157615000Y-127700000D03*
X156345000Y-127700000D03*
X155075000Y-127700000D03*
X153805000Y-127700000D03*
X152535000Y-127700000D03*
X151265000Y-127700000D03*
X149995000Y-127700000D03*
X148725000Y-127700000D03*
X147455000Y-127700000D03*
X146185000Y-127700000D03*
X144915000Y-127700000D03*
X143645000Y-127700000D03*
X143645000Y-137100000D03*
X144915000Y-137100000D03*
X146185000Y-137100000D03*
X147455000Y-137100000D03*
X148725000Y-137100000D03*
X149995000Y-137100000D03*
X151265000Y-137100000D03*
X152535000Y-137100000D03*
X153805000Y-137100000D03*
X155075000Y-137100000D03*
X156345000Y-137100000D03*
X157615000Y-137100000D03*
X158885000Y-137100000D03*
X160155000Y-137100000D03*
X161425000Y-137100000D03*
X162695000Y-137100000D03*
%TD*%
D16*
%TO.C,U6*%
X177855000Y-98975000D03*
X179125000Y-98975000D03*
X180395000Y-98975000D03*
X181665000Y-98975000D03*
X182935000Y-98975000D03*
X184205000Y-98975000D03*
X185475000Y-98975000D03*
X186745000Y-98975000D03*
X186745000Y-94025000D03*
X185475000Y-94025000D03*
X184205000Y-94025000D03*
X182935000Y-94025000D03*
X181665000Y-94025000D03*
X180395000Y-94025000D03*
X179125000Y-94025000D03*
X177855000Y-94025000D03*
%TD*%
D17*
%TO.C,U10*%
X165445000Y-142025000D03*
X164175000Y-142025000D03*
X162905000Y-142025000D03*
X161635000Y-142025000D03*
X160365000Y-142025000D03*
X159095000Y-142025000D03*
X157825000Y-142025000D03*
X156555000Y-142025000D03*
X156555000Y-146975000D03*
X157825000Y-146975000D03*
X159095000Y-146975000D03*
X160365000Y-146975000D03*
X161635000Y-146975000D03*
X162905000Y-146975000D03*
X164175000Y-146975000D03*
X165445000Y-146975000D03*
%TD*%
%TO.C,U9*%
X151545000Y-142025000D03*
X150275000Y-142025000D03*
X149005000Y-142025000D03*
X147735000Y-142025000D03*
X146465000Y-142025000D03*
X145195000Y-142025000D03*
X143925000Y-142025000D03*
X142655000Y-142025000D03*
X142655000Y-146975000D03*
X143925000Y-146975000D03*
X145195000Y-146975000D03*
X146465000Y-146975000D03*
X147735000Y-146975000D03*
X149005000Y-146975000D03*
X150275000Y-146975000D03*
X151545000Y-146975000D03*
%TD*%
%TO.C,U7*%
X173950000Y-121145000D03*
X172680000Y-121145000D03*
X171410000Y-121145000D03*
X170140000Y-121145000D03*
X168870000Y-121145000D03*
X167600000Y-121145000D03*
X166330000Y-121145000D03*
X166330000Y-126095000D03*
X167600000Y-126095000D03*
X168870000Y-126095000D03*
X170140000Y-126095000D03*
X171410000Y-126095000D03*
X172680000Y-126095000D03*
X173950000Y-126095000D03*
%TD*%
%TO.C,U8*%
X173850000Y-108235000D03*
X172580000Y-108235000D03*
X171310000Y-108235000D03*
X170040000Y-108235000D03*
X168770000Y-108235000D03*
X167500000Y-108235000D03*
X166230000Y-108235000D03*
X166230000Y-113185000D03*
X167500000Y-113185000D03*
X168770000Y-113185000D03*
X170040000Y-113185000D03*
X171310000Y-113185000D03*
X172580000Y-113185000D03*
X173850000Y-113185000D03*
%TD*%
D10*
%TO.C,C10*%
X168500000Y-146975000D03*
X168500000Y-144900000D03*
%TD*%
D11*
%TO.C,C13*%
X177462500Y-107950000D03*
X179537500Y-107950000D03*
%TD*%
D16*
%TO.C,U5*%
X164955000Y-99075000D03*
X166225000Y-99075000D03*
X167495000Y-99075000D03*
X168765000Y-99075000D03*
X170035000Y-99075000D03*
X171305000Y-99075000D03*
X172575000Y-99075000D03*
X173845000Y-99075000D03*
X173845000Y-94125000D03*
X172575000Y-94125000D03*
X171305000Y-94125000D03*
X170035000Y-94125000D03*
X168765000Y-94125000D03*
X167495000Y-94125000D03*
X166225000Y-94125000D03*
X164955000Y-94125000D03*
%TD*%
M02*
