%TF.GenerationSoftware,KiCad,Pcbnew,(5.99.0-7833-g0d57f90982)*%
%TF.CreationDate,2021-09-05T20:23:01+02:00*%
%TF.ProjectId,sbc6526,73626336-3532-4362-9e6b-696361645f70,rev?*%
%TF.SameCoordinates,Original*%
%TF.FileFunction,Soldermask,Bot*%
%TF.FilePolarity,Negative*%
%FSLAX46Y46*%
G04 Gerber Fmt 4.6, Leading zero omitted, Abs format (unit mm)*
G04 Created by KiCad (PCBNEW (5.99.0-7833-g0d57f90982)) date 2021-09-05 20:23:01*
%MOMM*%
%LPD*%
G01*
G04 APERTURE LIST*
G04 Aperture macros list*
%AMRoundRect*
0 Rectangle with rounded corners*
0 $1 Rounding radius*
0 $2 $3 $4 $5 $6 $7 $8 $9 X,Y pos of 4 corners*
0 Add a 4 corners polygon primitive as box body*
4,1,4,$2,$3,$4,$5,$6,$7,$8,$9,$2,$3,0*
0 Add four circle primitives for the rounded corners*
1,1,$1+$1,$2,$3,0*
1,1,$1+$1,$4,$5,0*
1,1,$1+$1,$6,$7,0*
1,1,$1+$1,$8,$9,0*
0 Add four rect primitives between the rounded corners*
20,1,$1+$1,$2,$3,$4,$5,0*
20,1,$1+$1,$4,$5,$6,$7,0*
20,1,$1+$1,$6,$7,$8,$9,0*
20,1,$1+$1,$8,$9,$2,$3,0*%
G04 Aperture macros list end*
%ADD10C,1.440000*%
%ADD11R,1.600000X1.600000*%
%ADD12O,1.600000X1.600000*%
%ADD13C,1.600000*%
%ADD14C,1.524000*%
%ADD15R,1.700000X1.700000*%
%ADD16O,1.700000X1.700000*%
%ADD17C,1.400000*%
%ADD18O,1.400000X1.400000*%
%ADD19C,1.700000*%
%ADD20C,3.400000*%
%ADD21RoundRect,0.250000X0.475000X-0.337500X0.475000X0.337500X-0.475000X0.337500X-0.475000X-0.337500X0*%
%ADD22RoundRect,0.249999X0.350001X0.450001X-0.350001X0.450001X-0.350001X-0.450001X0.350001X-0.450001X0*%
%ADD23RoundRect,0.249999X0.450001X-0.350001X0.450001X0.350001X-0.450001X0.350001X-0.450001X-0.350001X0*%
%ADD24RoundRect,0.249999X-0.350001X-0.450001X0.350001X-0.450001X0.350001X0.450001X-0.350001X0.450001X0*%
%ADD25RoundRect,0.249999X-0.450001X0.350001X-0.450001X-0.350001X0.450001X-0.350001X0.450001X0.350001X0*%
%ADD26RoundRect,0.250000X-0.475000X0.337500X-0.475000X-0.337500X0.475000X-0.337500X0.475000X0.337500X0*%
%ADD27RoundRect,0.250000X-0.337500X-0.475000X0.337500X-0.475000X0.337500X0.475000X-0.337500X0.475000X0*%
G04 APERTURE END LIST*
D10*
%TO.C,P2*%
X185900000Y-54000000D03*
X183360000Y-54000000D03*
X180820000Y-54000000D03*
%TD*%
D11*
%TO.C,NANO1*%
X159500000Y-83200000D03*
D12*
X162040000Y-83200000D03*
X164580000Y-83200000D03*
X167120000Y-83200000D03*
X169660000Y-83200000D03*
X172200000Y-83200000D03*
X174740000Y-83200000D03*
X177280000Y-83200000D03*
X179820000Y-83200000D03*
X182360000Y-83200000D03*
X184900000Y-83200000D03*
X187440000Y-83200000D03*
X189980000Y-83200000D03*
X192520000Y-83200000D03*
X195060000Y-83200000D03*
X195060000Y-67960000D03*
X192520000Y-67960000D03*
X189980000Y-67960000D03*
X187440000Y-67960000D03*
X184900000Y-67960000D03*
X182360000Y-67960000D03*
X179820000Y-67960000D03*
X177280000Y-67960000D03*
X174740000Y-67960000D03*
X172200000Y-67960000D03*
X169660000Y-67960000D03*
X167120000Y-67960000D03*
X164580000Y-67960000D03*
X162040000Y-67960000D03*
X159500000Y-67960000D03*
%TD*%
D11*
%TO.C,U11*%
X140843000Y-72300000D03*
D12*
X138303000Y-72300000D03*
X135763000Y-72300000D03*
X133223000Y-72300000D03*
X130683000Y-72300000D03*
X128143000Y-72300000D03*
X125603000Y-72300000D03*
X123063000Y-72300000D03*
X120523000Y-72300000D03*
X117983000Y-72300000D03*
X117983000Y-79920000D03*
X120523000Y-79920000D03*
X123063000Y-79920000D03*
X125603000Y-79920000D03*
X128143000Y-79920000D03*
X130683000Y-79920000D03*
X133223000Y-79920000D03*
X135763000Y-79920000D03*
X138303000Y-79920000D03*
X140843000Y-79920000D03*
%TD*%
D10*
%TO.C,P1*%
X175133000Y-134112000D03*
X175133000Y-136652000D03*
X175133000Y-139192000D03*
%TD*%
D11*
%TO.C,C14*%
X196000000Y-92000000D03*
D13*
X193500000Y-92000000D03*
%TD*%
D11*
%TO.C,U3*%
X110325000Y-121690000D03*
D12*
X112865000Y-121690000D03*
X115405000Y-121690000D03*
X117945000Y-121690000D03*
X120485000Y-121690000D03*
X123025000Y-121690000D03*
X125565000Y-121690000D03*
X128105000Y-121690000D03*
X130645000Y-121690000D03*
X133185000Y-121690000D03*
X135725000Y-121690000D03*
X138265000Y-121690000D03*
X140805000Y-121690000D03*
X143345000Y-121690000D03*
X145885000Y-121690000D03*
X148425000Y-121690000D03*
X150965000Y-121690000D03*
X153505000Y-121690000D03*
X156045000Y-121690000D03*
X158585000Y-121690000D03*
X158585000Y-106450000D03*
X156045000Y-106450000D03*
X153505000Y-106450000D03*
X150965000Y-106450000D03*
X148425000Y-106450000D03*
X145885000Y-106450000D03*
X143345000Y-106450000D03*
X140805000Y-106450000D03*
X138265000Y-106450000D03*
X135725000Y-106450000D03*
X133185000Y-106450000D03*
X130645000Y-106450000D03*
X128105000Y-106450000D03*
X125565000Y-106450000D03*
X123025000Y-106450000D03*
X120485000Y-106450000D03*
X117945000Y-106450000D03*
X115405000Y-106450000D03*
X112865000Y-106450000D03*
X110325000Y-106450000D03*
%TD*%
D14*
%TO.C,LED1*%
X105570000Y-141440000D03*
X108110000Y-141440000D03*
X110650000Y-141440000D03*
X113190000Y-141440000D03*
X115730000Y-141440000D03*
X105570000Y-131280000D03*
X108110000Y-131280000D03*
X110650000Y-131280000D03*
X113190000Y-131280000D03*
X115730000Y-131280000D03*
X118270000Y-131280000D03*
%TD*%
D15*
%TO.C,J1*%
X106800000Y-53700000D03*
D16*
X106800000Y-56240000D03*
X109340000Y-53700000D03*
X109340000Y-56240000D03*
X111880000Y-53700000D03*
X111880000Y-56240000D03*
X114420000Y-53700000D03*
X114420000Y-56240000D03*
X116960000Y-53700000D03*
X116960000Y-56240000D03*
%TD*%
D17*
%TO.C,Y1*%
X137300000Y-131600000D03*
D18*
X137300000Y-136680000D03*
%TD*%
D11*
%TO.C,PIC1*%
X125200000Y-126300000D03*
D12*
X125200000Y-128840000D03*
X125200000Y-131380000D03*
X125200000Y-133920000D03*
X125200000Y-136460000D03*
X125200000Y-139000000D03*
X125200000Y-141540000D03*
X125200000Y-144080000D03*
X125200000Y-146620000D03*
X132820000Y-146620000D03*
X132820000Y-144080000D03*
X132820000Y-141540000D03*
X132820000Y-139000000D03*
X132820000Y-136460000D03*
X132820000Y-133920000D03*
X132820000Y-131380000D03*
X132820000Y-128840000D03*
X132820000Y-126300000D03*
%TD*%
D15*
%TO.C,EXT6526*%
X125900000Y-56300000D03*
D16*
X125900000Y-53760000D03*
X128440000Y-56300000D03*
X128440000Y-53760000D03*
X130980000Y-56300000D03*
X130980000Y-53760000D03*
X133520000Y-56300000D03*
X133520000Y-53760000D03*
X136060000Y-56300000D03*
X136060000Y-53760000D03*
X138600000Y-56300000D03*
X138600000Y-53760000D03*
X141140000Y-56300000D03*
X141140000Y-53760000D03*
X143680000Y-56300000D03*
X143680000Y-53760000D03*
X146220000Y-56300000D03*
X146220000Y-53760000D03*
X148760000Y-56300000D03*
X148760000Y-53760000D03*
X151300000Y-56300000D03*
X151300000Y-53760000D03*
X153840000Y-56300000D03*
X153840000Y-53760000D03*
X156380000Y-56300000D03*
X156380000Y-53760000D03*
X158920000Y-56300000D03*
X158920000Y-53760000D03*
X161460000Y-56300000D03*
X161460000Y-53760000D03*
X164000000Y-56300000D03*
X164000000Y-53760000D03*
X166540000Y-56300000D03*
X166540000Y-53760000D03*
X169080000Y-56300000D03*
X169080000Y-53760000D03*
X171620000Y-56300000D03*
X171620000Y-53760000D03*
X174160000Y-56300000D03*
X174160000Y-53760000D03*
%TD*%
D11*
%TO.C,U2*%
X102700000Y-101700000D03*
D12*
X105240000Y-101700000D03*
X107780000Y-101700000D03*
X110320000Y-101700000D03*
X112860000Y-101700000D03*
X115400000Y-101700000D03*
X117940000Y-101700000D03*
X120480000Y-101700000D03*
X123020000Y-101700000D03*
X125560000Y-101700000D03*
X128100000Y-101700000D03*
X130640000Y-101700000D03*
X133180000Y-101700000D03*
X135720000Y-101700000D03*
X138260000Y-101700000D03*
X140800000Y-101700000D03*
X143340000Y-101700000D03*
X145880000Y-101700000D03*
X148420000Y-101700000D03*
X150960000Y-101700000D03*
X150960000Y-86460000D03*
X148420000Y-86460000D03*
X145880000Y-86460000D03*
X143340000Y-86460000D03*
X140800000Y-86460000D03*
X138260000Y-86460000D03*
X135720000Y-86460000D03*
X133180000Y-86460000D03*
X130640000Y-86460000D03*
X128100000Y-86460000D03*
X125560000Y-86460000D03*
X123020000Y-86460000D03*
X120480000Y-86460000D03*
X117940000Y-86460000D03*
X115400000Y-86460000D03*
X112860000Y-86460000D03*
X110320000Y-86460000D03*
X107780000Y-86460000D03*
X105240000Y-86460000D03*
X102700000Y-86460000D03*
%TD*%
D19*
%TO.C,SW1*%
X181420000Y-125490000D03*
X187920000Y-125490000D03*
X181420000Y-129990000D03*
X187920000Y-129990000D03*
%TD*%
%TO.C,SW2*%
X181440000Y-134050000D03*
X187940000Y-134050000D03*
X181440000Y-138550000D03*
X187940000Y-138550000D03*
%TD*%
%TO.C,SW3*%
X191400000Y-133970000D03*
X197900000Y-133970000D03*
X191400000Y-138470000D03*
X197900000Y-138470000D03*
%TD*%
%TO.C,SW4*%
X191420000Y-125450000D03*
X197920000Y-125450000D03*
X191420000Y-129950000D03*
X197920000Y-129950000D03*
%TD*%
%TO.C,SW5*%
X197600000Y-56800000D03*
X191100000Y-56800000D03*
X197600000Y-52300000D03*
X191100000Y-52300000D03*
%TD*%
D20*
%TO.C,LCD1*%
X103425000Y-116925000D03*
X196425000Y-116925000D03*
X196425000Y-61925000D03*
X103425000Y-61925000D03*
D14*
X110935000Y-61965000D03*
X113475000Y-61965000D03*
X116015000Y-61965000D03*
X118555000Y-61965000D03*
X121095000Y-61965000D03*
X123635000Y-61965000D03*
X126175000Y-61965000D03*
X128715000Y-61965000D03*
X131255000Y-61965000D03*
X133795000Y-61965000D03*
X136335000Y-61965000D03*
X138875000Y-61965000D03*
%TD*%
D11*
%TO.C,U1*%
X102700000Y-83850000D03*
D12*
X105240000Y-83850000D03*
X107780000Y-83850000D03*
X110320000Y-83850000D03*
X112860000Y-83850000D03*
X115400000Y-83850000D03*
X117940000Y-83850000D03*
X120480000Y-83850000D03*
X123020000Y-83850000D03*
X125560000Y-83850000D03*
X128100000Y-83850000D03*
X130640000Y-83850000D03*
X133180000Y-83850000D03*
X135720000Y-83850000D03*
X138260000Y-83850000D03*
X140800000Y-83850000D03*
X143340000Y-83850000D03*
X145880000Y-83850000D03*
X148420000Y-83850000D03*
X150960000Y-83850000D03*
X150960000Y-68610000D03*
X148420000Y-68610000D03*
X145880000Y-68610000D03*
X143340000Y-68610000D03*
X140800000Y-68610000D03*
X138260000Y-68610000D03*
X135720000Y-68610000D03*
X133180000Y-68610000D03*
X130640000Y-68610000D03*
X128100000Y-68610000D03*
X125560000Y-68610000D03*
X123020000Y-68610000D03*
X120480000Y-68610000D03*
X117940000Y-68610000D03*
X115400000Y-68610000D03*
X112860000Y-68610000D03*
X110320000Y-68610000D03*
X107780000Y-68610000D03*
X105240000Y-68610000D03*
X102700000Y-68610000D03*
%TD*%
D20*
%TO.C,*%
X196425000Y-146050000D03*
%TD*%
%TO.C,*%
X103425000Y-146050000D03*
%TD*%
D21*
%TO.C,C1*%
X150964900Y-80324200D03*
X150964900Y-78249200D03*
%TD*%
%TO.C,C3*%
X128100000Y-117925000D03*
X128100000Y-115850000D03*
%TD*%
%TO.C,C11*%
X140800000Y-77050000D03*
X140800000Y-74975000D03*
%TD*%
D22*
%TO.C,R10*%
X143675000Y-61975000D03*
X141675000Y-61975000D03*
%TD*%
D23*
%TO.C,R11*%
X112875000Y-118250000D03*
X112875000Y-116250000D03*
%TD*%
D24*
%TO.C,R15*%
X183480000Y-127820000D03*
X185480000Y-127820000D03*
%TD*%
%TO.C,R16*%
X183810000Y-136340000D03*
X185810000Y-136340000D03*
%TD*%
%TO.C,R17*%
X193620000Y-136210000D03*
X195620000Y-136210000D03*
%TD*%
%TO.C,R18*%
X193640000Y-127680000D03*
X195640000Y-127680000D03*
%TD*%
D25*
%TO.C,R19*%
X150975000Y-71125000D03*
X150975000Y-73125000D03*
%TD*%
D21*
%TO.C,C2*%
X150950000Y-98525000D03*
X150950000Y-96450000D03*
%TD*%
%TO.C,C6*%
X139850000Y-137275000D03*
X139850000Y-135200000D03*
%TD*%
D26*
%TO.C,C5*%
X139850000Y-131112500D03*
X139850000Y-133187500D03*
%TD*%
D25*
%TO.C,R2*%
X110600000Y-137300000D03*
X110600000Y-139300000D03*
%TD*%
D24*
%TO.C,R5*%
X111200000Y-133600000D03*
X113200000Y-133600000D03*
%TD*%
%TO.C,R1*%
X106100000Y-138900000D03*
X108100000Y-138900000D03*
%TD*%
D25*
%TO.C,R6*%
X118600000Y-139500000D03*
X118600000Y-141500000D03*
%TD*%
D22*
%TO.C,R3*%
X115062000Y-139200000D03*
X113062000Y-139200000D03*
%TD*%
%TO.C,R7*%
X117800000Y-133600000D03*
X115800000Y-133600000D03*
%TD*%
D23*
%TO.C,R8*%
X103200000Y-133300000D03*
X103200000Y-131300000D03*
%TD*%
%TO.C,R9*%
X129000000Y-136100000D03*
X129000000Y-134100000D03*
%TD*%
D25*
%TO.C,R4*%
X103378000Y-139500000D03*
X103378000Y-141500000D03*
%TD*%
D27*
%TO.C,CEXT1*%
X174137500Y-59075000D03*
X176212500Y-59075000D03*
%TD*%
M02*
