%TF.GenerationSoftware,KiCad,Pcbnew,(5.99.0-7833-g0d57f90982)*%
%TF.CreationDate,2021-09-05T20:23:01+02:00*%
%TF.ProjectId,sbc6526,73626336-3532-4362-9e6b-696361645f70,rev?*%
%TF.SameCoordinates,Original*%
%TF.FileFunction,Legend,Top*%
%TF.FilePolarity,Positive*%
%FSLAX46Y46*%
G04 Gerber Fmt 4.6, Leading zero omitted, Abs format (unit mm)*
G04 Created by KiCad (PCBNEW (5.99.0-7833-g0d57f90982)) date 2021-09-05 20:23:01*
%MOMM*%
%LPD*%
G01*
G04 APERTURE LIST*
%ADD10C,0.150000*%
%ADD11C,0.120000*%
G04 APERTURE END LIST*
D10*
%TO.C,C4*%
X164877142Y-136229166D02*
X164924761Y-136276785D01*
X164972380Y-136419642D01*
X164972380Y-136514880D01*
X164924761Y-136657738D01*
X164829523Y-136752976D01*
X164734285Y-136800595D01*
X164543809Y-136848214D01*
X164400952Y-136848214D01*
X164210476Y-136800595D01*
X164115238Y-136752976D01*
X164020000Y-136657738D01*
X163972380Y-136514880D01*
X163972380Y-136419642D01*
X164020000Y-136276785D01*
X164067619Y-136229166D01*
X164305714Y-135372023D02*
X164972380Y-135372023D01*
X163924761Y-135610119D02*
X164639047Y-135848214D01*
X164639047Y-135229166D01*
%TO.C,C7*%
X175277142Y-125229166D02*
X175324761Y-125276785D01*
X175372380Y-125419642D01*
X175372380Y-125514880D01*
X175324761Y-125657738D01*
X175229523Y-125752976D01*
X175134285Y-125800595D01*
X174943809Y-125848214D01*
X174800952Y-125848214D01*
X174610476Y-125800595D01*
X174515238Y-125752976D01*
X174420000Y-125657738D01*
X174372380Y-125514880D01*
X174372380Y-125419642D01*
X174420000Y-125276785D01*
X174467619Y-125229166D01*
X174372380Y-124895833D02*
X174372380Y-124229166D01*
X175372380Y-124657738D01*
%TO.C,C8*%
X178343333Y-109562142D02*
X178295714Y-109609761D01*
X178152857Y-109657380D01*
X178057619Y-109657380D01*
X177914761Y-109609761D01*
X177819523Y-109514523D01*
X177771904Y-109419285D01*
X177724285Y-109228809D01*
X177724285Y-109085952D01*
X177771904Y-108895476D01*
X177819523Y-108800238D01*
X177914761Y-108705000D01*
X178057619Y-108657380D01*
X178152857Y-108657380D01*
X178295714Y-108705000D01*
X178343333Y-108752619D01*
X178914761Y-109085952D02*
X178819523Y-109038333D01*
X178771904Y-108990714D01*
X178724285Y-108895476D01*
X178724285Y-108847857D01*
X178771904Y-108752619D01*
X178819523Y-108705000D01*
X178914761Y-108657380D01*
X179105238Y-108657380D01*
X179200476Y-108705000D01*
X179248095Y-108752619D01*
X179295714Y-108847857D01*
X179295714Y-108895476D01*
X179248095Y-108990714D01*
X179200476Y-109038333D01*
X179105238Y-109085952D01*
X178914761Y-109085952D01*
X178819523Y-109133571D01*
X178771904Y-109181190D01*
X178724285Y-109276428D01*
X178724285Y-109466904D01*
X178771904Y-109562142D01*
X178819523Y-109609761D01*
X178914761Y-109657380D01*
X179105238Y-109657380D01*
X179200476Y-109609761D01*
X179248095Y-109562142D01*
X179295714Y-109466904D01*
X179295714Y-109276428D01*
X179248095Y-109181190D01*
X179200476Y-109133571D01*
X179105238Y-109085952D01*
%TO.C,C9*%
X152777142Y-146129166D02*
X152824761Y-146176785D01*
X152872380Y-146319642D01*
X152872380Y-146414880D01*
X152824761Y-146557738D01*
X152729523Y-146652976D01*
X152634285Y-146700595D01*
X152443809Y-146748214D01*
X152300952Y-146748214D01*
X152110476Y-146700595D01*
X152015238Y-146652976D01*
X151920000Y-146557738D01*
X151872380Y-146414880D01*
X151872380Y-146319642D01*
X151920000Y-146176785D01*
X151967619Y-146129166D01*
X152872380Y-145652976D02*
X152872380Y-145462500D01*
X152824761Y-145367261D01*
X152777142Y-145319642D01*
X152634285Y-145224404D01*
X152443809Y-145176785D01*
X152062857Y-145176785D01*
X151967619Y-145224404D01*
X151920000Y-145272023D01*
X151872380Y-145367261D01*
X151872380Y-145557738D01*
X151920000Y-145652976D01*
X151967619Y-145700595D01*
X152062857Y-145748214D01*
X152300952Y-145748214D01*
X152396190Y-145700595D01*
X152443809Y-145652976D01*
X152491428Y-145557738D01*
X152491428Y-145367261D01*
X152443809Y-145272023D01*
X152396190Y-145224404D01*
X152300952Y-145176785D01*
%TO.C,C12*%
X182819642Y-112912142D02*
X182772023Y-112959761D01*
X182629166Y-113007380D01*
X182533928Y-113007380D01*
X182391071Y-112959761D01*
X182295833Y-112864523D01*
X182248214Y-112769285D01*
X182200595Y-112578809D01*
X182200595Y-112435952D01*
X182248214Y-112245476D01*
X182295833Y-112150238D01*
X182391071Y-112055000D01*
X182533928Y-112007380D01*
X182629166Y-112007380D01*
X182772023Y-112055000D01*
X182819642Y-112102619D01*
X183772023Y-113007380D02*
X183200595Y-113007380D01*
X183486309Y-113007380D02*
X183486309Y-112007380D01*
X183391071Y-112150238D01*
X183295833Y-112245476D01*
X183200595Y-112293095D01*
X184152976Y-112102619D02*
X184200595Y-112055000D01*
X184295833Y-112007380D01*
X184533928Y-112007380D01*
X184629166Y-112055000D01*
X184676785Y-112102619D01*
X184724404Y-112197857D01*
X184724404Y-112293095D01*
X184676785Y-112435952D01*
X184105357Y-113007380D01*
X184724404Y-113007380D01*
%TO.C,P2*%
X182621904Y-50792380D02*
X182621904Y-49792380D01*
X183002857Y-49792380D01*
X183098095Y-49840000D01*
X183145714Y-49887619D01*
X183193333Y-49982857D01*
X183193333Y-50125714D01*
X183145714Y-50220952D01*
X183098095Y-50268571D01*
X183002857Y-50316190D01*
X182621904Y-50316190D01*
X183574285Y-49887619D02*
X183621904Y-49840000D01*
X183717142Y-49792380D01*
X183955238Y-49792380D01*
X184050476Y-49840000D01*
X184098095Y-49887619D01*
X184145714Y-49982857D01*
X184145714Y-50078095D01*
X184098095Y-50220952D01*
X183526666Y-50792380D01*
X184145714Y-50792380D01*
%TO.C,R12*%
X177857142Y-112317380D02*
X177523809Y-111841190D01*
X177285714Y-112317380D02*
X177285714Y-111317380D01*
X177666666Y-111317380D01*
X177761904Y-111365000D01*
X177809523Y-111412619D01*
X177857142Y-111507857D01*
X177857142Y-111650714D01*
X177809523Y-111745952D01*
X177761904Y-111793571D01*
X177666666Y-111841190D01*
X177285714Y-111841190D01*
X178809523Y-112317380D02*
X178238095Y-112317380D01*
X178523809Y-112317380D02*
X178523809Y-111317380D01*
X178428571Y-111460238D01*
X178333333Y-111555476D01*
X178238095Y-111603095D01*
X179190476Y-111412619D02*
X179238095Y-111365000D01*
X179333333Y-111317380D01*
X179571428Y-111317380D01*
X179666666Y-111365000D01*
X179714285Y-111412619D01*
X179761904Y-111507857D01*
X179761904Y-111603095D01*
X179714285Y-111745952D01*
X179142857Y-112317380D01*
X179761904Y-112317380D01*
%TO.C,R13*%
X182782142Y-112327380D02*
X182448809Y-111851190D01*
X182210714Y-112327380D02*
X182210714Y-111327380D01*
X182591666Y-111327380D01*
X182686904Y-111375000D01*
X182734523Y-111422619D01*
X182782142Y-111517857D01*
X182782142Y-111660714D01*
X182734523Y-111755952D01*
X182686904Y-111803571D01*
X182591666Y-111851190D01*
X182210714Y-111851190D01*
X183734523Y-112327380D02*
X183163095Y-112327380D01*
X183448809Y-112327380D02*
X183448809Y-111327380D01*
X183353571Y-111470238D01*
X183258333Y-111565476D01*
X183163095Y-111613095D01*
X184067857Y-111327380D02*
X184686904Y-111327380D01*
X184353571Y-111708333D01*
X184496428Y-111708333D01*
X184591666Y-111755952D01*
X184639285Y-111803571D01*
X184686904Y-111898809D01*
X184686904Y-112136904D01*
X184639285Y-112232142D01*
X184591666Y-112279761D01*
X184496428Y-112327380D01*
X184210714Y-112327380D01*
X184115476Y-112279761D01*
X184067857Y-112232142D01*
%TO.C,R14*%
X182807142Y-110052380D02*
X182473809Y-109576190D01*
X182235714Y-110052380D02*
X182235714Y-109052380D01*
X182616666Y-109052380D01*
X182711904Y-109100000D01*
X182759523Y-109147619D01*
X182807142Y-109242857D01*
X182807142Y-109385714D01*
X182759523Y-109480952D01*
X182711904Y-109528571D01*
X182616666Y-109576190D01*
X182235714Y-109576190D01*
X183759523Y-110052380D02*
X183188095Y-110052380D01*
X183473809Y-110052380D02*
X183473809Y-109052380D01*
X183378571Y-109195238D01*
X183283333Y-109290476D01*
X183188095Y-109338095D01*
X184616666Y-109385714D02*
X184616666Y-110052380D01*
X184378571Y-109004761D02*
X184140476Y-109719047D01*
X184759523Y-109719047D01*
%TO.C,U4*%
X164052380Y-133161904D02*
X164861904Y-133161904D01*
X164957142Y-133114285D01*
X165004761Y-133066666D01*
X165052380Y-132971428D01*
X165052380Y-132780952D01*
X165004761Y-132685714D01*
X164957142Y-132638095D01*
X164861904Y-132590476D01*
X164052380Y-132590476D01*
X164385714Y-131685714D02*
X165052380Y-131685714D01*
X164004761Y-131923809D02*
X164719047Y-132161904D01*
X164719047Y-131542857D01*
%TO.C,U6*%
X175852380Y-97261904D02*
X176661904Y-97261904D01*
X176757142Y-97214285D01*
X176804761Y-97166666D01*
X176852380Y-97071428D01*
X176852380Y-96880952D01*
X176804761Y-96785714D01*
X176757142Y-96738095D01*
X176661904Y-96690476D01*
X175852380Y-96690476D01*
X175852380Y-95785714D02*
X175852380Y-95976190D01*
X175900000Y-96071428D01*
X175947619Y-96119047D01*
X176090476Y-96214285D01*
X176280952Y-96261904D01*
X176661904Y-96261904D01*
X176757142Y-96214285D01*
X176804761Y-96166666D01*
X176852380Y-96071428D01*
X176852380Y-95880952D01*
X176804761Y-95785714D01*
X176757142Y-95738095D01*
X176661904Y-95690476D01*
X176423809Y-95690476D01*
X176328571Y-95738095D01*
X176280952Y-95785714D01*
X176233333Y-95880952D01*
X176233333Y-96071428D01*
X176280952Y-96166666D01*
X176328571Y-96214285D01*
X176423809Y-96261904D01*
%TO.C,U10*%
X166352380Y-145738095D02*
X167161904Y-145738095D01*
X167257142Y-145690476D01*
X167304761Y-145642857D01*
X167352380Y-145547619D01*
X167352380Y-145357142D01*
X167304761Y-145261904D01*
X167257142Y-145214285D01*
X167161904Y-145166666D01*
X166352380Y-145166666D01*
X167352380Y-144166666D02*
X167352380Y-144738095D01*
X167352380Y-144452380D02*
X166352380Y-144452380D01*
X166495238Y-144547619D01*
X166590476Y-144642857D01*
X166638095Y-144738095D01*
X166352380Y-143547619D02*
X166352380Y-143452380D01*
X166400000Y-143357142D01*
X166447619Y-143309523D01*
X166542857Y-143261904D01*
X166733333Y-143214285D01*
X166971428Y-143214285D01*
X167161904Y-143261904D01*
X167257142Y-143309523D01*
X167304761Y-143357142D01*
X167352380Y-143452380D01*
X167352380Y-143547619D01*
X167304761Y-143642857D01*
X167257142Y-143690476D01*
X167161904Y-143738095D01*
X166971428Y-143785714D01*
X166733333Y-143785714D01*
X166542857Y-143738095D01*
X166447619Y-143690476D01*
X166400000Y-143642857D01*
X166352380Y-143547619D01*
%TO.C,NANO1*%
X154872380Y-77818095D02*
X153872380Y-77818095D01*
X154872380Y-77246666D01*
X153872380Y-77246666D01*
X154586666Y-76818095D02*
X154586666Y-76341904D01*
X154872380Y-76913333D02*
X153872380Y-76580000D01*
X154872380Y-76246666D01*
X154872380Y-75913333D02*
X153872380Y-75913333D01*
X154872380Y-75341904D01*
X153872380Y-75341904D01*
X153872380Y-74675238D02*
X153872380Y-74484761D01*
X153920000Y-74389523D01*
X154015238Y-74294285D01*
X154205714Y-74246666D01*
X154539047Y-74246666D01*
X154729523Y-74294285D01*
X154824761Y-74389523D01*
X154872380Y-74484761D01*
X154872380Y-74675238D01*
X154824761Y-74770476D01*
X154729523Y-74865714D01*
X154539047Y-74913333D01*
X154205714Y-74913333D01*
X154015238Y-74865714D01*
X153920000Y-74770476D01*
X153872380Y-74675238D01*
X154872380Y-73294285D02*
X154872380Y-73865714D01*
X154872380Y-73580000D02*
X153872380Y-73580000D01*
X154015238Y-73675238D01*
X154110476Y-73770476D01*
X154158095Y-73865714D01*
%TO.C,U11*%
X142625380Y-77348095D02*
X143434904Y-77348095D01*
X143530142Y-77300476D01*
X143577761Y-77252857D01*
X143625380Y-77157619D01*
X143625380Y-76967142D01*
X143577761Y-76871904D01*
X143530142Y-76824285D01*
X143434904Y-76776666D01*
X142625380Y-76776666D01*
X143625380Y-75776666D02*
X143625380Y-76348095D01*
X143625380Y-76062380D02*
X142625380Y-76062380D01*
X142768238Y-76157619D01*
X142863476Y-76252857D01*
X142911095Y-76348095D01*
X143625380Y-74824285D02*
X143625380Y-75395714D01*
X143625380Y-75110000D02*
X142625380Y-75110000D01*
X142768238Y-75205238D01*
X142863476Y-75300476D01*
X142911095Y-75395714D01*
%TO.C,U9*%
X152452380Y-145261904D02*
X153261904Y-145261904D01*
X153357142Y-145214285D01*
X153404761Y-145166666D01*
X153452380Y-145071428D01*
X153452380Y-144880952D01*
X153404761Y-144785714D01*
X153357142Y-144738095D01*
X153261904Y-144690476D01*
X152452380Y-144690476D01*
X153452380Y-144166666D02*
X153452380Y-143976190D01*
X153404761Y-143880952D01*
X153357142Y-143833333D01*
X153214285Y-143738095D01*
X153023809Y-143690476D01*
X152642857Y-143690476D01*
X152547619Y-143738095D01*
X152500000Y-143785714D01*
X152452380Y-143880952D01*
X152452380Y-144071428D01*
X152500000Y-144166666D01*
X152547619Y-144214285D01*
X152642857Y-144261904D01*
X152880952Y-144261904D01*
X152976190Y-144214285D01*
X153023809Y-144166666D01*
X153071428Y-144071428D01*
X153071428Y-143880952D01*
X153023809Y-143785714D01*
X152976190Y-143738095D01*
X152880952Y-143690476D01*
%TO.C,U7*%
X174872380Y-124381904D02*
X175681904Y-124381904D01*
X175777142Y-124334285D01*
X175824761Y-124286666D01*
X175872380Y-124191428D01*
X175872380Y-124000952D01*
X175824761Y-123905714D01*
X175777142Y-123858095D01*
X175681904Y-123810476D01*
X174872380Y-123810476D01*
X174872380Y-123429523D02*
X174872380Y-122762857D01*
X175872380Y-123191428D01*
%TO.C,U8*%
X174772380Y-111471904D02*
X175581904Y-111471904D01*
X175677142Y-111424285D01*
X175724761Y-111376666D01*
X175772380Y-111281428D01*
X175772380Y-111090952D01*
X175724761Y-110995714D01*
X175677142Y-110948095D01*
X175581904Y-110900476D01*
X174772380Y-110900476D01*
X175200952Y-110281428D02*
X175153333Y-110376666D01*
X175105714Y-110424285D01*
X175010476Y-110471904D01*
X174962857Y-110471904D01*
X174867619Y-110424285D01*
X174820000Y-110376666D01*
X174772380Y-110281428D01*
X174772380Y-110090952D01*
X174820000Y-109995714D01*
X174867619Y-109948095D01*
X174962857Y-109900476D01*
X175010476Y-109900476D01*
X175105714Y-109948095D01*
X175153333Y-109995714D01*
X175200952Y-110090952D01*
X175200952Y-110281428D01*
X175248571Y-110376666D01*
X175296190Y-110424285D01*
X175391428Y-110471904D01*
X175581904Y-110471904D01*
X175677142Y-110424285D01*
X175724761Y-110376666D01*
X175772380Y-110281428D01*
X175772380Y-110090952D01*
X175724761Y-109995714D01*
X175677142Y-109948095D01*
X175581904Y-109900476D01*
X175391428Y-109900476D01*
X175296190Y-109948095D01*
X175248571Y-109995714D01*
X175200952Y-110090952D01*
%TO.C,P1*%
X171925380Y-137390095D02*
X170925380Y-137390095D01*
X170925380Y-137009142D01*
X170973000Y-136913904D01*
X171020619Y-136866285D01*
X171115857Y-136818666D01*
X171258714Y-136818666D01*
X171353952Y-136866285D01*
X171401571Y-136913904D01*
X171449190Y-137009142D01*
X171449190Y-137390095D01*
X171925380Y-135866285D02*
X171925380Y-136437714D01*
X171925380Y-136152000D02*
X170925380Y-136152000D01*
X171068238Y-136247238D01*
X171163476Y-136342476D01*
X171211095Y-136437714D01*
%TO.C,C14*%
X194107142Y-96757142D02*
X194059523Y-96804761D01*
X193916666Y-96852380D01*
X193821428Y-96852380D01*
X193678571Y-96804761D01*
X193583333Y-96709523D01*
X193535714Y-96614285D01*
X193488095Y-96423809D01*
X193488095Y-96280952D01*
X193535714Y-96090476D01*
X193583333Y-95995238D01*
X193678571Y-95900000D01*
X193821428Y-95852380D01*
X193916666Y-95852380D01*
X194059523Y-95900000D01*
X194107142Y-95947619D01*
X195059523Y-96852380D02*
X194488095Y-96852380D01*
X194773809Y-96852380D02*
X194773809Y-95852380D01*
X194678571Y-95995238D01*
X194583333Y-96090476D01*
X194488095Y-96138095D01*
X195916666Y-96185714D02*
X195916666Y-96852380D01*
X195678571Y-95804761D02*
X195440476Y-96519047D01*
X196059523Y-96519047D01*
%TO.C,U3*%
X107447380Y-114831904D02*
X108256904Y-114831904D01*
X108352142Y-114784285D01*
X108399761Y-114736666D01*
X108447380Y-114641428D01*
X108447380Y-114450952D01*
X108399761Y-114355714D01*
X108352142Y-114308095D01*
X108256904Y-114260476D01*
X107447380Y-114260476D01*
X107447380Y-113879523D02*
X107447380Y-113260476D01*
X107828333Y-113593809D01*
X107828333Y-113450952D01*
X107875952Y-113355714D01*
X107923571Y-113308095D01*
X108018809Y-113260476D01*
X108256904Y-113260476D01*
X108352142Y-113308095D01*
X108399761Y-113355714D01*
X108447380Y-113450952D01*
X108447380Y-113736666D01*
X108399761Y-113831904D01*
X108352142Y-113879523D01*
%TO.C,LED1*%
X111980952Y-128502380D02*
X111504761Y-128502380D01*
X111504761Y-127502380D01*
X112314285Y-127978571D02*
X112647619Y-127978571D01*
X112790476Y-128502380D02*
X112314285Y-128502380D01*
X112314285Y-127502380D01*
X112790476Y-127502380D01*
X113219047Y-128502380D02*
X113219047Y-127502380D01*
X113457142Y-127502380D01*
X113600000Y-127550000D01*
X113695238Y-127645238D01*
X113742857Y-127740476D01*
X113790476Y-127930952D01*
X113790476Y-128073809D01*
X113742857Y-128264285D01*
X113695238Y-128359523D01*
X113600000Y-128454761D01*
X113457142Y-128502380D01*
X113219047Y-128502380D01*
X114742857Y-128502380D02*
X114171428Y-128502380D01*
X114457142Y-128502380D02*
X114457142Y-127502380D01*
X114361904Y-127645238D01*
X114266666Y-127740476D01*
X114171428Y-127788095D01*
%TO.C,J1*%
X103482380Y-55303333D02*
X104196666Y-55303333D01*
X104339523Y-55350952D01*
X104434761Y-55446190D01*
X104482380Y-55589047D01*
X104482380Y-55684285D01*
X104482380Y-54303333D02*
X104482380Y-54874761D01*
X104482380Y-54589047D02*
X103482380Y-54589047D01*
X103625238Y-54684285D01*
X103720476Y-54779523D01*
X103768095Y-54874761D01*
%TO.C,C10*%
X167177142Y-146580357D02*
X167224761Y-146627976D01*
X167272380Y-146770833D01*
X167272380Y-146866071D01*
X167224761Y-147008928D01*
X167129523Y-147104166D01*
X167034285Y-147151785D01*
X166843809Y-147199404D01*
X166700952Y-147199404D01*
X166510476Y-147151785D01*
X166415238Y-147104166D01*
X166320000Y-147008928D01*
X166272380Y-146866071D01*
X166272380Y-146770833D01*
X166320000Y-146627976D01*
X166367619Y-146580357D01*
X167272380Y-145627976D02*
X167272380Y-146199404D01*
X167272380Y-145913690D02*
X166272380Y-145913690D01*
X166415238Y-146008928D01*
X166510476Y-146104166D01*
X166558095Y-146199404D01*
X166272380Y-145008928D02*
X166272380Y-144913690D01*
X166320000Y-144818452D01*
X166367619Y-144770833D01*
X166462857Y-144723214D01*
X166653333Y-144675595D01*
X166891428Y-144675595D01*
X167081904Y-144723214D01*
X167177142Y-144770833D01*
X167224761Y-144818452D01*
X167272380Y-144913690D01*
X167272380Y-145008928D01*
X167224761Y-145104166D01*
X167177142Y-145151785D01*
X167081904Y-145199404D01*
X166891428Y-145247023D01*
X166653333Y-145247023D01*
X166462857Y-145199404D01*
X166367619Y-145151785D01*
X166320000Y-145104166D01*
X166272380Y-145008928D01*
%TO.C,Y1*%
X139196190Y-134616190D02*
X139672380Y-134616190D01*
X138672380Y-134949523D02*
X139196190Y-134616190D01*
X138672380Y-134282857D01*
X139672380Y-133425714D02*
X139672380Y-133997142D01*
X139672380Y-133711428D02*
X138672380Y-133711428D01*
X138815238Y-133806666D01*
X138910476Y-133901904D01*
X138958095Y-133997142D01*
%TO.C,PIC1*%
X127533809Y-124422380D02*
X127533809Y-123422380D01*
X127914761Y-123422380D01*
X128010000Y-123470000D01*
X128057619Y-123517619D01*
X128105238Y-123612857D01*
X128105238Y-123755714D01*
X128057619Y-123850952D01*
X128010000Y-123898571D01*
X127914761Y-123946190D01*
X127533809Y-123946190D01*
X128533809Y-124422380D02*
X128533809Y-123422380D01*
X129581428Y-124327142D02*
X129533809Y-124374761D01*
X129390952Y-124422380D01*
X129295714Y-124422380D01*
X129152857Y-124374761D01*
X129057619Y-124279523D01*
X129010000Y-124184285D01*
X128962380Y-123993809D01*
X128962380Y-123850952D01*
X129010000Y-123660476D01*
X129057619Y-123565238D01*
X129152857Y-123470000D01*
X129295714Y-123422380D01*
X129390952Y-123422380D01*
X129533809Y-123470000D01*
X129581428Y-123517619D01*
X130533809Y-124422380D02*
X129962380Y-124422380D01*
X130248095Y-124422380D02*
X130248095Y-123422380D01*
X130152857Y-123565238D01*
X130057619Y-123660476D01*
X129962380Y-123708095D01*
%TO.C,C13*%
X176887142Y-106057142D02*
X176839523Y-106104761D01*
X176696666Y-106152380D01*
X176601428Y-106152380D01*
X176458571Y-106104761D01*
X176363333Y-106009523D01*
X176315714Y-105914285D01*
X176268095Y-105723809D01*
X176268095Y-105580952D01*
X176315714Y-105390476D01*
X176363333Y-105295238D01*
X176458571Y-105200000D01*
X176601428Y-105152380D01*
X176696666Y-105152380D01*
X176839523Y-105200000D01*
X176887142Y-105247619D01*
X177839523Y-106152380D02*
X177268095Y-106152380D01*
X177553809Y-106152380D02*
X177553809Y-105152380D01*
X177458571Y-105295238D01*
X177363333Y-105390476D01*
X177268095Y-105438095D01*
X178172857Y-105152380D02*
X178791904Y-105152380D01*
X178458571Y-105533333D01*
X178601428Y-105533333D01*
X178696666Y-105580952D01*
X178744285Y-105628571D01*
X178791904Y-105723809D01*
X178791904Y-105961904D01*
X178744285Y-106057142D01*
X178696666Y-106104761D01*
X178601428Y-106152380D01*
X178315714Y-106152380D01*
X178220476Y-106104761D01*
X178172857Y-106057142D01*
%TO.C,EXT6526*%
X123498571Y-58006190D02*
X123498571Y-57672857D01*
X124022380Y-57530000D02*
X124022380Y-58006190D01*
X123022380Y-58006190D01*
X123022380Y-57530000D01*
X123022380Y-57196666D02*
X124022380Y-56530000D01*
X123022380Y-56530000D02*
X124022380Y-57196666D01*
X123022380Y-56291904D02*
X123022380Y-55720476D01*
X124022380Y-56006190D02*
X123022380Y-56006190D01*
X123022380Y-54958571D02*
X123022380Y-55149047D01*
X123070000Y-55244285D01*
X123117619Y-55291904D01*
X123260476Y-55387142D01*
X123450952Y-55434761D01*
X123831904Y-55434761D01*
X123927142Y-55387142D01*
X123974761Y-55339523D01*
X124022380Y-55244285D01*
X124022380Y-55053809D01*
X123974761Y-54958571D01*
X123927142Y-54910952D01*
X123831904Y-54863333D01*
X123593809Y-54863333D01*
X123498571Y-54910952D01*
X123450952Y-54958571D01*
X123403333Y-55053809D01*
X123403333Y-55244285D01*
X123450952Y-55339523D01*
X123498571Y-55387142D01*
X123593809Y-55434761D01*
X123022380Y-53958571D02*
X123022380Y-54434761D01*
X123498571Y-54482380D01*
X123450952Y-54434761D01*
X123403333Y-54339523D01*
X123403333Y-54101428D01*
X123450952Y-54006190D01*
X123498571Y-53958571D01*
X123593809Y-53910952D01*
X123831904Y-53910952D01*
X123927142Y-53958571D01*
X123974761Y-54006190D01*
X124022380Y-54101428D01*
X124022380Y-54339523D01*
X123974761Y-54434761D01*
X123927142Y-54482380D01*
X123117619Y-53530000D02*
X123070000Y-53482380D01*
X123022380Y-53387142D01*
X123022380Y-53149047D01*
X123070000Y-53053809D01*
X123117619Y-53006190D01*
X123212857Y-52958571D01*
X123308095Y-52958571D01*
X123450952Y-53006190D01*
X124022380Y-53577619D01*
X124022380Y-52958571D01*
X123022380Y-52101428D02*
X123022380Y-52291904D01*
X123070000Y-52387142D01*
X123117619Y-52434761D01*
X123260476Y-52530000D01*
X123450952Y-52577619D01*
X123831904Y-52577619D01*
X123927142Y-52530000D01*
X123974761Y-52482380D01*
X124022380Y-52387142D01*
X124022380Y-52196666D01*
X123974761Y-52101428D01*
X123927142Y-52053809D01*
X123831904Y-52006190D01*
X123593809Y-52006190D01*
X123498571Y-52053809D01*
X123450952Y-52101428D01*
X123403333Y-52196666D01*
X123403333Y-52387142D01*
X123450952Y-52482380D01*
X123498571Y-52530000D01*
X123593809Y-52577619D01*
%TO.C,U2*%
X99822380Y-94841904D02*
X100631904Y-94841904D01*
X100727142Y-94794285D01*
X100774761Y-94746666D01*
X100822380Y-94651428D01*
X100822380Y-94460952D01*
X100774761Y-94365714D01*
X100727142Y-94318095D01*
X100631904Y-94270476D01*
X99822380Y-94270476D01*
X99917619Y-93841904D02*
X99870000Y-93794285D01*
X99822380Y-93699047D01*
X99822380Y-93460952D01*
X99870000Y-93365714D01*
X99917619Y-93318095D01*
X100012857Y-93270476D01*
X100108095Y-93270476D01*
X100250952Y-93318095D01*
X100822380Y-93889523D01*
X100822380Y-93270476D01*
%TO.C,SW1*%
X183486666Y-122134761D02*
X183629523Y-122182380D01*
X183867619Y-122182380D01*
X183962857Y-122134761D01*
X184010476Y-122087142D01*
X184058095Y-121991904D01*
X184058095Y-121896666D01*
X184010476Y-121801428D01*
X183962857Y-121753809D01*
X183867619Y-121706190D01*
X183677142Y-121658571D01*
X183581904Y-121610952D01*
X183534285Y-121563333D01*
X183486666Y-121468095D01*
X183486666Y-121372857D01*
X183534285Y-121277619D01*
X183581904Y-121230000D01*
X183677142Y-121182380D01*
X183915238Y-121182380D01*
X184058095Y-121230000D01*
X184391428Y-121182380D02*
X184629523Y-122182380D01*
X184820000Y-121468095D01*
X185010476Y-122182380D01*
X185248571Y-121182380D01*
X186153333Y-122182380D02*
X185581904Y-122182380D01*
X185867619Y-122182380D02*
X185867619Y-121182380D01*
X185772380Y-121325238D01*
X185677142Y-121420476D01*
X185581904Y-121468095D01*
%TO.C,SW2*%
X183486666Y-142324761D02*
X183629523Y-142372380D01*
X183867619Y-142372380D01*
X183962857Y-142324761D01*
X184010476Y-142277142D01*
X184058095Y-142181904D01*
X184058095Y-142086666D01*
X184010476Y-141991428D01*
X183962857Y-141943809D01*
X183867619Y-141896190D01*
X183677142Y-141848571D01*
X183581904Y-141800952D01*
X183534285Y-141753333D01*
X183486666Y-141658095D01*
X183486666Y-141562857D01*
X183534285Y-141467619D01*
X183581904Y-141420000D01*
X183677142Y-141372380D01*
X183915238Y-141372380D01*
X184058095Y-141420000D01*
X184391428Y-141372380D02*
X184629523Y-142372380D01*
X184820000Y-141658095D01*
X185010476Y-142372380D01*
X185248571Y-141372380D01*
X185581904Y-141467619D02*
X185629523Y-141420000D01*
X185724761Y-141372380D01*
X185962857Y-141372380D01*
X186058095Y-141420000D01*
X186105714Y-141467619D01*
X186153333Y-141562857D01*
X186153333Y-141658095D01*
X186105714Y-141800952D01*
X185534285Y-142372380D01*
X186153333Y-142372380D01*
%TO.C,SW3*%
X193306666Y-142374761D02*
X193449523Y-142422380D01*
X193687619Y-142422380D01*
X193782857Y-142374761D01*
X193830476Y-142327142D01*
X193878095Y-142231904D01*
X193878095Y-142136666D01*
X193830476Y-142041428D01*
X193782857Y-141993809D01*
X193687619Y-141946190D01*
X193497142Y-141898571D01*
X193401904Y-141850952D01*
X193354285Y-141803333D01*
X193306666Y-141708095D01*
X193306666Y-141612857D01*
X193354285Y-141517619D01*
X193401904Y-141470000D01*
X193497142Y-141422380D01*
X193735238Y-141422380D01*
X193878095Y-141470000D01*
X194211428Y-141422380D02*
X194449523Y-142422380D01*
X194640000Y-141708095D01*
X194830476Y-142422380D01*
X195068571Y-141422380D01*
X195354285Y-141422380D02*
X195973333Y-141422380D01*
X195640000Y-141803333D01*
X195782857Y-141803333D01*
X195878095Y-141850952D01*
X195925714Y-141898571D01*
X195973333Y-141993809D01*
X195973333Y-142231904D01*
X195925714Y-142327142D01*
X195878095Y-142374761D01*
X195782857Y-142422380D01*
X195497142Y-142422380D01*
X195401904Y-142374761D01*
X195354285Y-142327142D01*
%TO.C,SW4*%
X193356666Y-122234761D02*
X193499523Y-122282380D01*
X193737619Y-122282380D01*
X193832857Y-122234761D01*
X193880476Y-122187142D01*
X193928095Y-122091904D01*
X193928095Y-121996666D01*
X193880476Y-121901428D01*
X193832857Y-121853809D01*
X193737619Y-121806190D01*
X193547142Y-121758571D01*
X193451904Y-121710952D01*
X193404285Y-121663333D01*
X193356666Y-121568095D01*
X193356666Y-121472857D01*
X193404285Y-121377619D01*
X193451904Y-121330000D01*
X193547142Y-121282380D01*
X193785238Y-121282380D01*
X193928095Y-121330000D01*
X194261428Y-121282380D02*
X194499523Y-122282380D01*
X194690000Y-121568095D01*
X194880476Y-122282380D01*
X195118571Y-121282380D01*
X195928095Y-121615714D02*
X195928095Y-122282380D01*
X195690000Y-121234761D02*
X195451904Y-121949047D01*
X196070952Y-121949047D01*
%TO.C,SW5*%
X193016666Y-59254761D02*
X193159523Y-59302380D01*
X193397619Y-59302380D01*
X193492857Y-59254761D01*
X193540476Y-59207142D01*
X193588095Y-59111904D01*
X193588095Y-59016666D01*
X193540476Y-58921428D01*
X193492857Y-58873809D01*
X193397619Y-58826190D01*
X193207142Y-58778571D01*
X193111904Y-58730952D01*
X193064285Y-58683333D01*
X193016666Y-58588095D01*
X193016666Y-58492857D01*
X193064285Y-58397619D01*
X193111904Y-58350000D01*
X193207142Y-58302380D01*
X193445238Y-58302380D01*
X193588095Y-58350000D01*
X193921428Y-58302380D02*
X194159523Y-59302380D01*
X194350000Y-58588095D01*
X194540476Y-59302380D01*
X194778571Y-58302380D01*
X195635714Y-58302380D02*
X195159523Y-58302380D01*
X195111904Y-58778571D01*
X195159523Y-58730952D01*
X195254761Y-58683333D01*
X195492857Y-58683333D01*
X195588095Y-58730952D01*
X195635714Y-58778571D01*
X195683333Y-58873809D01*
X195683333Y-59111904D01*
X195635714Y-59207142D01*
X195588095Y-59254761D01*
X195492857Y-59302380D01*
X195254761Y-59302380D01*
X195159523Y-59254761D01*
X195111904Y-59207142D01*
%TO.C,LCD1*%
X177968333Y-68287380D02*
X177492142Y-68287380D01*
X177492142Y-67287380D01*
X178873095Y-68192142D02*
X178825476Y-68239761D01*
X178682619Y-68287380D01*
X178587380Y-68287380D01*
X178444523Y-68239761D01*
X178349285Y-68144523D01*
X178301666Y-68049285D01*
X178254047Y-67858809D01*
X178254047Y-67715952D01*
X178301666Y-67525476D01*
X178349285Y-67430238D01*
X178444523Y-67335000D01*
X178587380Y-67287380D01*
X178682619Y-67287380D01*
X178825476Y-67335000D01*
X178873095Y-67382619D01*
X179301666Y-68287380D02*
X179301666Y-67287380D01*
X179539761Y-67287380D01*
X179682619Y-67335000D01*
X179777857Y-67430238D01*
X179825476Y-67525476D01*
X179873095Y-67715952D01*
X179873095Y-67858809D01*
X179825476Y-68049285D01*
X179777857Y-68144523D01*
X179682619Y-68239761D01*
X179539761Y-68287380D01*
X179301666Y-68287380D01*
X180825476Y-68287380D02*
X180254047Y-68287380D01*
X180539761Y-68287380D02*
X180539761Y-67287380D01*
X180444523Y-67430238D01*
X180349285Y-67525476D01*
X180254047Y-67573095D01*
%TO.C,U1*%
X99822380Y-76991904D02*
X100631904Y-76991904D01*
X100727142Y-76944285D01*
X100774761Y-76896666D01*
X100822380Y-76801428D01*
X100822380Y-76610952D01*
X100774761Y-76515714D01*
X100727142Y-76468095D01*
X100631904Y-76420476D01*
X99822380Y-76420476D01*
X100822380Y-75420476D02*
X100822380Y-75991904D01*
X100822380Y-75706190D02*
X99822380Y-75706190D01*
X99965238Y-75801428D01*
X100060476Y-75896666D01*
X100108095Y-75991904D01*
%TO.C,U5*%
X162952380Y-97361904D02*
X163761904Y-97361904D01*
X163857142Y-97314285D01*
X163904761Y-97266666D01*
X163952380Y-97171428D01*
X163952380Y-96980952D01*
X163904761Y-96885714D01*
X163857142Y-96838095D01*
X163761904Y-96790476D01*
X162952380Y-96790476D01*
X162952380Y-95838095D02*
X162952380Y-96314285D01*
X163428571Y-96361904D01*
X163380952Y-96314285D01*
X163333333Y-96219047D01*
X163333333Y-95980952D01*
X163380952Y-95885714D01*
X163428571Y-95838095D01*
X163523809Y-95790476D01*
X163761904Y-95790476D01*
X163857142Y-95838095D01*
X163904761Y-95885714D01*
X163952380Y-95980952D01*
X163952380Y-96219047D01*
X163904761Y-96314285D01*
X163857142Y-96361904D01*
%TO.C,*%
D11*
%TO.C,C4*%
X166935000Y-136323752D02*
X166935000Y-135801248D01*
X165465000Y-136323752D02*
X165465000Y-135801248D01*
%TO.C,C7*%
X175865000Y-125323752D02*
X175865000Y-124801248D01*
X177335000Y-125323752D02*
X177335000Y-124801248D01*
%TO.C,C8*%
X178248748Y-110150000D02*
X178771252Y-110150000D01*
X178248748Y-111620000D02*
X178771252Y-111620000D01*
%TO.C,C9*%
X153365000Y-146223752D02*
X153365000Y-145701248D01*
X154835000Y-146223752D02*
X154835000Y-145701248D01*
%TO.C,C12*%
X183723752Y-110140000D02*
X183201248Y-110140000D01*
X183723752Y-111610000D02*
X183201248Y-111610000D01*
%TO.C,P2*%
X178475000Y-56540000D02*
X188245000Y-56540000D01*
X188245000Y-51470000D02*
X188245000Y-56540000D01*
X178475000Y-51470000D02*
X188245000Y-51470000D01*
X178475000Y-51470000D02*
X178475000Y-56540000D01*
%TO.C,R12*%
X178272936Y-114250000D02*
X178727064Y-114250000D01*
X178272936Y-112780000D02*
X178727064Y-112780000D01*
%TO.C,R13*%
X183197936Y-112790000D02*
X183652064Y-112790000D01*
X183197936Y-114260000D02*
X183652064Y-114260000D01*
%TO.C,R14*%
X183677064Y-108685000D02*
X183222936Y-108685000D01*
X183677064Y-107215000D02*
X183222936Y-107215000D01*
%TO.C,U4*%
X142585000Y-132400000D02*
X142585000Y-127210000D01*
X142585000Y-127210000D02*
X143085000Y-127210000D01*
X163755000Y-132400000D02*
X163755000Y-127210000D01*
X163255000Y-127210000D02*
X163255000Y-126850000D01*
X142585000Y-137590000D02*
X143085000Y-137590000D01*
X163755000Y-132400000D02*
X163755000Y-137590000D01*
X163755000Y-127210000D02*
X163255000Y-127210000D01*
X142585000Y-132400000D02*
X142585000Y-137590000D01*
X163755000Y-137590000D02*
X163255000Y-137590000D01*
%TO.C,U6*%
X177240000Y-96500000D02*
X177240000Y-94550000D01*
X187360000Y-96500000D02*
X187360000Y-98450000D01*
X177240000Y-96500000D02*
X177240000Y-99950000D01*
X187360000Y-96500000D02*
X187360000Y-94550000D01*
%TO.C,U10*%
X166060000Y-144500000D02*
X166060000Y-141050000D01*
X155940000Y-144500000D02*
X155940000Y-142550000D01*
X166060000Y-144500000D02*
X166060000Y-146450000D01*
X155940000Y-144500000D02*
X155940000Y-146450000D01*
%TO.C,NANO1*%
X199000000Y-84600000D02*
X199000000Y-66560000D01*
X158230000Y-81930000D02*
X158230000Y-84600000D01*
X158230000Y-69230000D02*
X196330000Y-69230000D01*
X158230000Y-69230000D02*
X158230000Y-66560000D01*
X160770000Y-84600000D02*
X199000000Y-84600000D01*
X196330000Y-69230000D02*
X196330000Y-66560000D01*
X196330000Y-81930000D02*
X196330000Y-84600000D01*
X155560000Y-84600000D02*
X158230000Y-84600000D01*
X155560000Y-66560000D02*
X155560000Y-84600000D01*
X160770000Y-81930000D02*
X158230000Y-81930000D01*
X160770000Y-81930000D02*
X160770000Y-84600000D01*
X199000000Y-66560000D02*
X155560000Y-66560000D01*
X160770000Y-81930000D02*
X196330000Y-81930000D01*
%TO.C,U11*%
X116653000Y-78760000D02*
X142173000Y-78760000D01*
X142173000Y-78760000D02*
X142173000Y-77110000D01*
X142173000Y-75110000D02*
X142173000Y-73460000D01*
X116653000Y-73460000D02*
X116653000Y-78760000D01*
X142173000Y-73460000D02*
X116653000Y-73460000D01*
X142173000Y-77110000D02*
G75*
G02*
X142173000Y-75110000I0J1000000D01*
G01*
%TO.C,U9*%
X152160000Y-144500000D02*
X152160000Y-146450000D01*
X142040000Y-144500000D02*
X142040000Y-146450000D01*
X152160000Y-144500000D02*
X152160000Y-141050000D01*
X142040000Y-144500000D02*
X142040000Y-142550000D01*
%TO.C,U7*%
X174575000Y-123620000D02*
X174575000Y-120170000D01*
X165705000Y-123620000D02*
X165705000Y-121670000D01*
X165705000Y-123620000D02*
X165705000Y-125570000D01*
X174575000Y-123620000D02*
X174575000Y-125570000D01*
%TO.C,U8*%
X165605000Y-110710000D02*
X165605000Y-108760000D01*
X174475000Y-110710000D02*
X174475000Y-107260000D01*
X174475000Y-110710000D02*
X174475000Y-112660000D01*
X165605000Y-110710000D02*
X165605000Y-112660000D01*
%TO.C,P1*%
X172603000Y-131767000D02*
X177673000Y-131767000D01*
X177673000Y-141537000D02*
X177673000Y-131767000D01*
X172603000Y-141537000D02*
X172603000Y-131767000D01*
X172603000Y-141537000D02*
X177673000Y-141537000D01*
%TO.C,C14*%
X192629000Y-94450000D02*
X192629000Y-93040000D01*
X193069000Y-94766000D02*
X193069000Y-93040000D01*
X194310000Y-95201000D02*
X194310000Y-93040000D01*
X193109000Y-94790000D02*
X193109000Y-93040000D01*
X194710000Y-95230000D02*
X194710000Y-88770000D01*
X193069000Y-90960000D02*
X193069000Y-89234000D01*
X191949000Y-93650000D02*
X191949000Y-90350000D01*
X193229000Y-90960000D02*
X193229000Y-89144000D01*
X193869000Y-95110000D02*
X193869000Y-93040000D01*
X193309000Y-90960000D02*
X193309000Y-89104000D01*
X194190000Y-95182000D02*
X194190000Y-93040000D01*
X194350000Y-90960000D02*
X194350000Y-88794000D01*
X193469000Y-90960000D02*
X193469000Y-89030000D01*
X193309000Y-94896000D02*
X193309000Y-93040000D01*
X193789000Y-95086000D02*
X193789000Y-93040000D01*
X191989000Y-93714000D02*
X191989000Y-90286000D01*
X192789000Y-90960000D02*
X192789000Y-89422000D01*
X193549000Y-95002000D02*
X193549000Y-93040000D01*
X192709000Y-94516000D02*
X192709000Y-93040000D01*
X193709000Y-95061000D02*
X193709000Y-93040000D01*
X197935241Y-94154000D02*
X197935241Y-93524000D01*
X193829000Y-90960000D02*
X193829000Y-88902000D01*
X193749000Y-95074000D02*
X193749000Y-93040000D01*
X193549000Y-90960000D02*
X193549000Y-88998000D01*
X191509000Y-92402000D02*
X191509000Y-91598000D01*
X194070000Y-95159000D02*
X194070000Y-93040000D01*
X194110000Y-90960000D02*
X194110000Y-88833000D01*
X194110000Y-95167000D02*
X194110000Y-93040000D01*
X194390000Y-95211000D02*
X194390000Y-93040000D01*
X192029000Y-93776000D02*
X192029000Y-90224000D01*
X193709000Y-90960000D02*
X193709000Y-88939000D01*
X194029000Y-90960000D02*
X194029000Y-88850000D01*
X192309000Y-94137000D02*
X192309000Y-89863000D01*
X193349000Y-90960000D02*
X193349000Y-89084000D01*
X192349000Y-94182000D02*
X192349000Y-89818000D01*
X191829000Y-93432000D02*
X191829000Y-90568000D01*
X192829000Y-94607000D02*
X192829000Y-93040000D01*
X193229000Y-94856000D02*
X193229000Y-93040000D01*
X192229000Y-94044000D02*
X192229000Y-89956000D01*
X193589000Y-95018000D02*
X193589000Y-93040000D01*
X191549000Y-92633000D02*
X191549000Y-91367000D01*
X192589000Y-90960000D02*
X192589000Y-89584000D01*
X194310000Y-90960000D02*
X194310000Y-88799000D01*
X194590000Y-95227000D02*
X194590000Y-88773000D01*
X194070000Y-90960000D02*
X194070000Y-88841000D01*
X194510000Y-95222000D02*
X194510000Y-93040000D01*
X192509000Y-90960000D02*
X192509000Y-89657000D01*
X194150000Y-95175000D02*
X194150000Y-93040000D01*
X193389000Y-94934000D02*
X193389000Y-93040000D01*
X192429000Y-94265000D02*
X192429000Y-89735000D01*
X193149000Y-90960000D02*
X193149000Y-89188000D01*
X193629000Y-95033000D02*
X193629000Y-93040000D01*
X192589000Y-94416000D02*
X192589000Y-93040000D01*
X193029000Y-90960000D02*
X193029000Y-89258000D01*
X194470000Y-95218000D02*
X194470000Y-93040000D01*
X192509000Y-94343000D02*
X192509000Y-93040000D01*
X192469000Y-90960000D02*
X192469000Y-89695000D01*
X192749000Y-94548000D02*
X192749000Y-93040000D01*
X193469000Y-94970000D02*
X193469000Y-93040000D01*
X194550000Y-95224000D02*
X194550000Y-88776000D01*
X193869000Y-90960000D02*
X193869000Y-88890000D01*
X194430000Y-90960000D02*
X194430000Y-88785000D01*
X193189000Y-90960000D02*
X193189000Y-89166000D01*
X193269000Y-94876000D02*
X193269000Y-93040000D01*
X193749000Y-90960000D02*
X193749000Y-88926000D01*
X193149000Y-94812000D02*
X193149000Y-93040000D01*
X192869000Y-90960000D02*
X192869000Y-89364000D01*
X193429000Y-90960000D02*
X193429000Y-89048000D01*
X194190000Y-90960000D02*
X194190000Y-88818000D01*
X192749000Y-90960000D02*
X192749000Y-89452000D01*
X192149000Y-93944000D02*
X192149000Y-90056000D01*
X193949000Y-90960000D02*
X193949000Y-88869000D01*
X192549000Y-90960000D02*
X192549000Y-89620000D01*
X193429000Y-94952000D02*
X193429000Y-93040000D01*
X193909000Y-90960000D02*
X193909000Y-88879000D01*
X192549000Y-94380000D02*
X192549000Y-93040000D01*
X193829000Y-95098000D02*
X193829000Y-93040000D01*
X193269000Y-90960000D02*
X193269000Y-89124000D01*
X193789000Y-90960000D02*
X193789000Y-88914000D01*
X191589000Y-92802000D02*
X191589000Y-91198000D01*
X193629000Y-90960000D02*
X193629000Y-88967000D01*
X192469000Y-94305000D02*
X192469000Y-93040000D01*
X193509000Y-90960000D02*
X193509000Y-89014000D01*
X193109000Y-90960000D02*
X193109000Y-89210000D01*
X193989000Y-95141000D02*
X193989000Y-93040000D01*
X194630000Y-95228000D02*
X194630000Y-88772000D01*
X193669000Y-95047000D02*
X193669000Y-93040000D01*
X192989000Y-94716000D02*
X192989000Y-93040000D01*
X194350000Y-95206000D02*
X194350000Y-93040000D01*
X191789000Y-93350000D02*
X191789000Y-90650000D01*
X192069000Y-93834000D02*
X192069000Y-90166000D01*
X194430000Y-95215000D02*
X194430000Y-93040000D01*
X194670000Y-95230000D02*
X194670000Y-88770000D01*
X193189000Y-94834000D02*
X193189000Y-93040000D01*
X193909000Y-95121000D02*
X193909000Y-93040000D01*
X192269000Y-94092000D02*
X192269000Y-89908000D01*
X192909000Y-90960000D02*
X192909000Y-89336000D01*
X192189000Y-93995000D02*
X192189000Y-90005000D01*
X194510000Y-90960000D02*
X194510000Y-88778000D01*
X193949000Y-95131000D02*
X193949000Y-93040000D01*
X192389000Y-94224000D02*
X192389000Y-89776000D01*
X193669000Y-90960000D02*
X193669000Y-88953000D01*
X192949000Y-94690000D02*
X192949000Y-93040000D01*
X193349000Y-94916000D02*
X193349000Y-93040000D01*
X191629000Y-92940000D02*
X191629000Y-91060000D01*
X192629000Y-90960000D02*
X192629000Y-89550000D01*
X194150000Y-90960000D02*
X194150000Y-88825000D01*
X192709000Y-90960000D02*
X192709000Y-89484000D01*
X193389000Y-90960000D02*
X193389000Y-89066000D01*
X194470000Y-90960000D02*
X194470000Y-88782000D01*
X191749000Y-93262000D02*
X191749000Y-90738000D01*
X191909000Y-93581000D02*
X191909000Y-90419000D01*
X192109000Y-93890000D02*
X192109000Y-90110000D01*
X194230000Y-90960000D02*
X194230000Y-88811000D01*
X193989000Y-90960000D02*
X193989000Y-88859000D01*
X198250241Y-93839000D02*
X197620241Y-93839000D01*
X191709000Y-93165000D02*
X191709000Y-90835000D01*
X191869000Y-93509000D02*
X191869000Y-90491000D01*
X191669000Y-93059000D02*
X191669000Y-90941000D01*
X192829000Y-90960000D02*
X192829000Y-89393000D01*
X194390000Y-90960000D02*
X194390000Y-88789000D01*
X192909000Y-94664000D02*
X192909000Y-93040000D01*
X194750000Y-95230000D02*
X194750000Y-88770000D01*
X192869000Y-94636000D02*
X192869000Y-93040000D01*
X192789000Y-94578000D02*
X192789000Y-93040000D01*
X194270000Y-90960000D02*
X194270000Y-88805000D01*
X194270000Y-95195000D02*
X194270000Y-93040000D01*
X192949000Y-90960000D02*
X192949000Y-89310000D01*
X193029000Y-94742000D02*
X193029000Y-93040000D01*
X193509000Y-94986000D02*
X193509000Y-93040000D01*
X192669000Y-90960000D02*
X192669000Y-89516000D01*
X193589000Y-90960000D02*
X193589000Y-88982000D01*
X194029000Y-95150000D02*
X194029000Y-93040000D01*
X192989000Y-90960000D02*
X192989000Y-89284000D01*
X194230000Y-95189000D02*
X194230000Y-93040000D01*
X192669000Y-94484000D02*
X192669000Y-93040000D01*
X198020000Y-92000000D02*
G75*
G03*
X198020000Y-92000000I-3270000J0D01*
G01*
%TO.C,U3*%
X159915000Y-120530000D02*
X159915000Y-107610000D01*
X108995000Y-107610000D02*
X108995000Y-113070000D01*
X159915000Y-107610000D02*
X108995000Y-107610000D01*
X108995000Y-120530000D02*
X159915000Y-120530000D01*
X108995000Y-115070000D02*
X108995000Y-120530000D01*
X108995000Y-113070000D02*
G75*
G02*
X108995000Y-115070000I0J-1000000D01*
G01*
%TO.C,LED1*%
X123100000Y-143300000D02*
X123100000Y-129300000D01*
X100600000Y-143300000D02*
X123100000Y-143300000D01*
X123100000Y-129300000D02*
X100600000Y-129300000D01*
X100600000Y-129300000D02*
X100600000Y-143300000D01*
%TO.C,J1*%
X105470000Y-53700000D02*
X105470000Y-52370000D01*
X105470000Y-57570000D02*
X105470000Y-54970000D01*
X105470000Y-52370000D02*
X106800000Y-52370000D01*
X105470000Y-54970000D02*
X108070000Y-54970000D01*
X108070000Y-54970000D02*
X108070000Y-52370000D01*
X108070000Y-52370000D02*
X118290000Y-52370000D01*
X118290000Y-57570000D02*
X118290000Y-52370000D01*
X105470000Y-57570000D02*
X118290000Y-57570000D01*
%TO.C,C10*%
X167765000Y-146198752D02*
X167765000Y-145676248D01*
X169235000Y-146198752D02*
X169235000Y-145676248D01*
%TO.C,Y1*%
X136380000Y-132220000D02*
X136380000Y-136060000D01*
X138220000Y-132220000D02*
X138220000Y-136060000D01*
%TO.C,PIC1*%
X131660000Y-147950000D02*
X131660000Y-124970000D01*
X126360000Y-147950000D02*
X131660000Y-147950000D01*
X126360000Y-124970000D02*
X126360000Y-147950000D01*
X131660000Y-124970000D02*
X130010000Y-124970000D01*
X128010000Y-124970000D02*
X126360000Y-124970000D01*
X130010000Y-124970000D02*
G75*
G02*
X128010000Y-124970000I-1000000J0D01*
G01*
%TO.C,C13*%
X178238748Y-108685000D02*
X178761252Y-108685000D01*
X178238748Y-107215000D02*
X178761252Y-107215000D01*
%TO.C,EXT6526*%
X127170000Y-57630000D02*
X175490000Y-57630000D01*
X124570000Y-55030000D02*
X124570000Y-52430000D01*
X127170000Y-57630000D02*
X127170000Y-55030000D01*
X124570000Y-52430000D02*
X175490000Y-52430000D01*
X175490000Y-57630000D02*
X175490000Y-52430000D01*
X125900000Y-57630000D02*
X124570000Y-57630000D01*
X124570000Y-57630000D02*
X124570000Y-56300000D01*
X127170000Y-55030000D02*
X124570000Y-55030000D01*
%TO.C,U2*%
X101370000Y-100540000D02*
X152290000Y-100540000D01*
X152290000Y-100540000D02*
X152290000Y-87620000D01*
X101370000Y-87620000D02*
X101370000Y-93080000D01*
X152290000Y-87620000D02*
X101370000Y-87620000D01*
X101370000Y-95080000D02*
X101370000Y-100540000D01*
X101370000Y-93080000D02*
G75*
G02*
X101370000Y-95080000I0J-1000000D01*
G01*
%TO.C,SW1*%
X181700000Y-124620000D02*
X187640000Y-124620000D01*
X187790000Y-126400000D02*
X187790000Y-129080000D01*
X181550000Y-129080000D02*
X181550000Y-126400000D01*
X181700000Y-130860000D02*
X187640000Y-130860000D01*
X186084214Y-127740000D02*
G75*
G03*
X186084214Y-127740000I-1414214J0D01*
G01*
%TO.C,SW2*%
X181720000Y-139420000D02*
X187660000Y-139420000D01*
X181570000Y-137640000D02*
X181570000Y-134960000D01*
X187810000Y-134960000D02*
X187810000Y-137640000D01*
X181720000Y-133180000D02*
X187660000Y-133180000D01*
X186104214Y-136300000D02*
G75*
G03*
X186104214Y-136300000I-1414214J0D01*
G01*
%TO.C,SW3*%
X191680000Y-133100000D02*
X197620000Y-133100000D01*
X197770000Y-134880000D02*
X197770000Y-137560000D01*
X191680000Y-139340000D02*
X197620000Y-139340000D01*
X191530000Y-137560000D02*
X191530000Y-134880000D01*
X196064214Y-136220000D02*
G75*
G03*
X196064214Y-136220000I-1414214J0D01*
G01*
%TO.C,SW4*%
X191700000Y-130820000D02*
X197640000Y-130820000D01*
X191550000Y-129040000D02*
X191550000Y-126360000D01*
X191700000Y-124580000D02*
X197640000Y-124580000D01*
X197790000Y-126360000D02*
X197790000Y-129040000D01*
X196084214Y-127700000D02*
G75*
G03*
X196084214Y-127700000I-1414214J0D01*
G01*
%TO.C,SW5*%
X197320000Y-57670000D02*
X191380000Y-57670000D01*
X191230000Y-55890000D02*
X191230000Y-53210000D01*
X197470000Y-53210000D02*
X197470000Y-55890000D01*
X197320000Y-51430000D02*
X191380000Y-51430000D01*
X195764214Y-54550000D02*
G75*
G03*
X195764214Y-54550000I-1414214J0D01*
G01*
%TO.C,LCD1*%
X100925000Y-119425000D02*
X198925000Y-119425000D01*
X100925000Y-59425000D02*
X100925000Y-119425000D01*
X198925000Y-119425000D02*
X198925000Y-59425000D01*
X198925000Y-59425000D02*
X100925000Y-59425000D01*
%TO.C,U1*%
X152290000Y-82690000D02*
X152290000Y-69770000D01*
X152290000Y-69770000D02*
X101370000Y-69770000D01*
X101370000Y-69770000D02*
X101370000Y-75230000D01*
X101370000Y-77230000D02*
X101370000Y-82690000D01*
X101370000Y-82690000D02*
X152290000Y-82690000D01*
X101370000Y-75230000D02*
G75*
G02*
X101370000Y-77230000I0J-1000000D01*
G01*
%TO.C,U5*%
X174460000Y-96600000D02*
X174460000Y-98550000D01*
X164340000Y-96600000D02*
X164340000Y-94650000D01*
X174460000Y-96600000D02*
X174460000Y-94650000D01*
X164340000Y-96600000D02*
X164340000Y-100050000D01*
%TD*%
M02*
