%TF.GenerationSoftware,KiCad,Pcbnew,(5.99.0-7833-g0d57f90982)*%
%TF.CreationDate,2021-09-05T20:23:01+02:00*%
%TF.ProjectId,sbc6526,73626336-3532-4362-9e6b-696361645f70,rev?*%
%TF.SameCoordinates,Original*%
%TF.FileFunction,Copper,L4,Bot*%
%TF.FilePolarity,Positive*%
%FSLAX46Y46*%
G04 Gerber Fmt 4.6, Leading zero omitted, Abs format (unit mm)*
G04 Created by KiCad (PCBNEW (5.99.0-7833-g0d57f90982)) date 2021-09-05 20:23:01*
%MOMM*%
%LPD*%
G01*
G04 APERTURE LIST*
G04 Aperture macros list*
%AMRoundRect*
0 Rectangle with rounded corners*
0 $1 Rounding radius*
0 $2 $3 $4 $5 $6 $7 $8 $9 X,Y pos of 4 corners*
0 Add a 4 corners polygon primitive as box body*
4,1,4,$2,$3,$4,$5,$6,$7,$8,$9,$2,$3,0*
0 Add four circle primitives for the rounded corners*
1,1,$1+$1,$2,$3,0*
1,1,$1+$1,$4,$5,0*
1,1,$1+$1,$6,$7,0*
1,1,$1+$1,$8,$9,0*
0 Add four rect primitives between the rounded corners*
20,1,$1+$1,$2,$3,$4,$5,0*
20,1,$1+$1,$4,$5,$6,$7,0*
20,1,$1+$1,$6,$7,$8,$9,0*
20,1,$1+$1,$8,$9,$2,$3,0*%
G04 Aperture macros list end*
%TA.AperFunction,ComponentPad*%
%ADD10C,1.440000*%
%TD*%
%TA.AperFunction,ComponentPad*%
%ADD11R,1.600000X1.600000*%
%TD*%
%TA.AperFunction,ComponentPad*%
%ADD12O,1.600000X1.600000*%
%TD*%
%TA.AperFunction,ComponentPad*%
%ADD13C,1.600000*%
%TD*%
%TA.AperFunction,ComponentPad*%
%ADD14C,1.524000*%
%TD*%
%TA.AperFunction,ComponentPad*%
%ADD15R,1.700000X1.700000*%
%TD*%
%TA.AperFunction,ComponentPad*%
%ADD16O,1.700000X1.700000*%
%TD*%
%TA.AperFunction,ComponentPad*%
%ADD17C,1.400000*%
%TD*%
%TA.AperFunction,ComponentPad*%
%ADD18O,1.400000X1.400000*%
%TD*%
%TA.AperFunction,ComponentPad*%
%ADD19C,1.700000*%
%TD*%
%TA.AperFunction,ComponentPad*%
%ADD20C,3.400000*%
%TD*%
%TA.AperFunction,SMDPad,CuDef*%
%ADD21RoundRect,0.250000X0.475000X-0.337500X0.475000X0.337500X-0.475000X0.337500X-0.475000X-0.337500X0*%
%TD*%
%TA.AperFunction,SMDPad,CuDef*%
%ADD22RoundRect,0.249999X0.350001X0.450001X-0.350001X0.450001X-0.350001X-0.450001X0.350001X-0.450001X0*%
%TD*%
%TA.AperFunction,SMDPad,CuDef*%
%ADD23RoundRect,0.249999X0.450001X-0.350001X0.450001X0.350001X-0.450001X0.350001X-0.450001X-0.350001X0*%
%TD*%
%TA.AperFunction,SMDPad,CuDef*%
%ADD24RoundRect,0.249999X-0.350001X-0.450001X0.350001X-0.450001X0.350001X0.450001X-0.350001X0.450001X0*%
%TD*%
%TA.AperFunction,SMDPad,CuDef*%
%ADD25RoundRect,0.249999X-0.450001X0.350001X-0.450001X-0.350001X0.450001X-0.350001X0.450001X0.350001X0*%
%TD*%
%TA.AperFunction,SMDPad,CuDef*%
%ADD26RoundRect,0.250000X-0.475000X0.337500X-0.475000X-0.337500X0.475000X-0.337500X0.475000X0.337500X0*%
%TD*%
%TA.AperFunction,SMDPad,CuDef*%
%ADD27RoundRect,0.250000X-0.337500X-0.475000X0.337500X-0.475000X0.337500X0.475000X-0.337500X0.475000X0*%
%TD*%
%TA.AperFunction,ViaPad*%
%ADD28C,0.685800*%
%TD*%
%TA.AperFunction,Conductor*%
%ADD29C,0.762000*%
%TD*%
%TA.AperFunction,Conductor*%
%ADD30C,0.508000*%
%TD*%
%TA.AperFunction,Conductor*%
%ADD31C,0.127000*%
%TD*%
%TA.AperFunction,Conductor*%
%ADD32C,0.254000*%
%TD*%
G04 APERTURE END LIST*
D10*
%TO.P,P2,1*%
%TO.N,GND*%
X185900000Y-54000000D03*
%TO.P,P2,2*%
%TO.N,Net-(LCD1-Pad3)*%
X183360000Y-54000000D03*
%TO.P,P2,3*%
%TO.N,VCC*%
X180820000Y-54000000D03*
%TD*%
D11*
%TO.P,NANO1,1*%
%TO.N,Net-(NANO1-Pad1)*%
X159500000Y-83200000D03*
D12*
%TO.P,NANO1,2*%
%TO.N,Net-(NANO1-Pad2)*%
X162040000Y-83200000D03*
%TO.P,NANO1,3*%
%TO.N,Net-(NANO1-Pad3)*%
X164580000Y-83200000D03*
%TO.P,NANO1,4*%
%TO.N,GND*%
X167120000Y-83200000D03*
%TO.P,NANO1,5*%
%TO.N,/bootstrap/D7*%
X169660000Y-83200000D03*
%TO.P,NANO1,6*%
%TO.N,/bootstrap/D6*%
X172200000Y-83200000D03*
%TO.P,NANO1,7*%
%TO.N,/bootstrap/D5*%
X174740000Y-83200000D03*
%TO.P,NANO1,8*%
%TO.N,/bootstrap/D4*%
X177280000Y-83200000D03*
%TO.P,NANO1,9*%
%TO.N,/bootstrap/D3*%
X179820000Y-83200000D03*
%TO.P,NANO1,10*%
%TO.N,/bootstrap/D2*%
X182360000Y-83200000D03*
%TO.P,NANO1,11*%
%TO.N,/bootstrap/D1*%
X184900000Y-83200000D03*
%TO.P,NANO1,12*%
%TO.N,/bootstrap/D0*%
X187440000Y-83200000D03*
%TO.P,NANO1,13*%
%TO.N,/~CE*%
X189980000Y-83200000D03*
%TO.P,NANO1,14*%
%TO.N,/bootstrap/RESET*%
X192520000Y-83200000D03*
%TO.P,NANO1,15*%
%TO.N,/R~W*%
X195060000Y-83200000D03*
%TO.P,NANO1,16*%
%TO.N,/TOD*%
X195060000Y-67960000D03*
%TO.P,NANO1,17*%
%TO.N,Net-(NANO1-Pad17)*%
X192520000Y-67960000D03*
%TO.P,NANO1,18*%
%TO.N,Net-(NANO1-Pad18)*%
X189980000Y-67960000D03*
%TO.P,NANO1,19*%
%TO.N,/bootstrap/CLOCK*%
X187440000Y-67960000D03*
%TO.P,NANO1,20*%
%TO.N,/bootstrap/LATCH*%
X184900000Y-67960000D03*
%TO.P,NANO1,21*%
%TO.N,/bootstrap/BE*%
X182360000Y-67960000D03*
%TO.P,NANO1,22*%
%TO.N,Net-(NANO1-Pad22)*%
X179820000Y-67960000D03*
%TO.P,NANO1,23*%
%TO.N,/bootstrap/DS*%
X177280000Y-67960000D03*
%TO.P,NANO1,24*%
%TO.N,Net-(NANO1-Pad24)*%
X174740000Y-67960000D03*
%TO.P,NANO1,25*%
%TO.N,Net-(NANO1-Pad25)*%
X172200000Y-67960000D03*
%TO.P,NANO1,26*%
%TO.N,/TODENABLE*%
X169660000Y-67960000D03*
%TO.P,NANO1,27*%
%TO.N,VCC*%
X167120000Y-67960000D03*
%TO.P,NANO1,28*%
%TO.N,Net-(NANO1-Pad28)*%
X164580000Y-67960000D03*
%TO.P,NANO1,29*%
%TO.N,GND*%
X162040000Y-67960000D03*
%TO.P,NANO1,30*%
%TO.N,Net-(NANO1-Pad30)*%
X159500000Y-67960000D03*
%TD*%
D11*
%TO.P,U11,1*%
%TO.N,/R~W*%
X140843000Y-72300000D03*
D12*
%TO.P,U11,2*%
%TO.N,/peripherals/DB7*%
X138303000Y-72300000D03*
%TO.P,U11,3*%
%TO.N,/peripherals/DB6*%
X135763000Y-72300000D03*
%TO.P,U11,4*%
%TO.N,/peripherals/DB5*%
X133223000Y-72300000D03*
%TO.P,U11,5*%
%TO.N,/peripherals/DB4*%
X130683000Y-72300000D03*
%TO.P,U11,6*%
%TO.N,/peripherals/DB3*%
X128143000Y-72300000D03*
%TO.P,U11,7*%
%TO.N,/peripherals/DB2*%
X125603000Y-72300000D03*
%TO.P,U11,8*%
%TO.N,/peripherals/DB1*%
X123063000Y-72300000D03*
%TO.P,U11,9*%
%TO.N,/peripherals/DB0*%
X120523000Y-72300000D03*
%TO.P,U11,10*%
%TO.N,GND*%
X117983000Y-72300000D03*
%TO.P,U11,11*%
%TO.N,/bootstrap/D0*%
X117983000Y-79920000D03*
%TO.P,U11,12*%
%TO.N,/bootstrap/D1*%
X120523000Y-79920000D03*
%TO.P,U11,13*%
%TO.N,/bootstrap/D2*%
X123063000Y-79920000D03*
%TO.P,U11,14*%
%TO.N,/bootstrap/D3*%
X125603000Y-79920000D03*
%TO.P,U11,15*%
%TO.N,/bootstrap/D4*%
X128143000Y-79920000D03*
%TO.P,U11,16*%
%TO.N,/bootstrap/D5*%
X130683000Y-79920000D03*
%TO.P,U11,17*%
%TO.N,/bootstrap/D6*%
X133223000Y-79920000D03*
%TO.P,U11,18*%
%TO.N,/bootstrap/D7*%
X135763000Y-79920000D03*
%TO.P,U11,19*%
%TO.N,/memory/~CIA*%
X138303000Y-79920000D03*
%TO.P,U11,20*%
%TO.N,VCC*%
X140843000Y-79920000D03*
%TD*%
D10*
%TO.P,P1,1*%
%TO.N,Net-(C13-Pad1)*%
X175133000Y-134112000D03*
%TO.P,P1,2*%
%TO.N,Net-(P1-Pad2)*%
X175133000Y-136652000D03*
%TO.P,P1,3*%
%TO.N,Net-(P1-Pad3)*%
X175133000Y-139192000D03*
%TD*%
D11*
%TO.P,C14,1*%
%TO.N,VCC*%
X196000000Y-92000000D03*
D13*
%TO.P,C14,2*%
%TO.N,GND*%
X193500000Y-92000000D03*
%TD*%
D11*
%TO.P,U3,1*%
%TO.N,Net-(U3-Pad1)*%
X110325000Y-121690000D03*
D12*
%TO.P,U3,2*%
%TO.N,Net-(R11-Pad1)*%
X112865000Y-121690000D03*
%TO.P,U3,3*%
%TO.N,Net-(U3-Pad3)*%
X115405000Y-121690000D03*
%TO.P,U3,4*%
%TO.N,/~IRQ*%
X117945000Y-121690000D03*
%TO.P,U3,5*%
%TO.N,Net-(U3-Pad5)*%
X120485000Y-121690000D03*
%TO.P,U3,6*%
%TO.N,/~VIAIRQ*%
X123025000Y-121690000D03*
%TO.P,U3,7*%
%TO.N,Net-(U3-Pad7)*%
X125565000Y-121690000D03*
%TO.P,U3,8*%
%TO.N,VCC*%
X128105000Y-121690000D03*
%TO.P,U3,9*%
%TO.N,/bootstrap/A0*%
X130645000Y-121690000D03*
%TO.P,U3,10*%
%TO.N,/bootstrap/A1*%
X133185000Y-121690000D03*
%TO.P,U3,11*%
%TO.N,/bootstrap/A2*%
X135725000Y-121690000D03*
%TO.P,U3,12*%
%TO.N,/bootstrap/A3*%
X138265000Y-121690000D03*
%TO.P,U3,13*%
%TO.N,/bootstrap/A4*%
X140805000Y-121690000D03*
%TO.P,U3,14*%
%TO.N,/bootstrap/A5*%
X143345000Y-121690000D03*
%TO.P,U3,15*%
%TO.N,/bootstrap/A6*%
X145885000Y-121690000D03*
%TO.P,U3,16*%
%TO.N,/bootstrap/A7*%
X148425000Y-121690000D03*
%TO.P,U3,17*%
%TO.N,/bootstrap/A8*%
X150965000Y-121690000D03*
%TO.P,U3,18*%
%TO.N,/bootstrap/A9*%
X153505000Y-121690000D03*
%TO.P,U3,19*%
%TO.N,/bootstrap/A10*%
X156045000Y-121690000D03*
%TO.P,U3,20*%
%TO.N,/bootstrap/A11*%
X158585000Y-121690000D03*
%TO.P,U3,21*%
%TO.N,GND*%
X158585000Y-106450000D03*
%TO.P,U3,22*%
%TO.N,/bootstrap/A12*%
X156045000Y-106450000D03*
%TO.P,U3,23*%
%TO.N,/bootstrap/A13*%
X153505000Y-106450000D03*
%TO.P,U3,24*%
%TO.N,/bootstrap/A14*%
X150965000Y-106450000D03*
%TO.P,U3,25*%
%TO.N,/bootstrap/A15*%
X148425000Y-106450000D03*
%TO.P,U3,26*%
%TO.N,/bootstrap/D7*%
X145885000Y-106450000D03*
%TO.P,U3,27*%
%TO.N,/bootstrap/D6*%
X143345000Y-106450000D03*
%TO.P,U3,28*%
%TO.N,/bootstrap/D5*%
X140805000Y-106450000D03*
%TO.P,U3,29*%
%TO.N,/bootstrap/D4*%
X138265000Y-106450000D03*
%TO.P,U3,30*%
%TO.N,/bootstrap/D3*%
X135725000Y-106450000D03*
%TO.P,U3,31*%
%TO.N,/bootstrap/D2*%
X133185000Y-106450000D03*
%TO.P,U3,32*%
%TO.N,/bootstrap/D1*%
X130645000Y-106450000D03*
%TO.P,U3,33*%
%TO.N,/bootstrap/D0*%
X128105000Y-106450000D03*
%TO.P,U3,34*%
%TO.N,/R~W*%
X125565000Y-106450000D03*
%TO.P,U3,35*%
%TO.N,Net-(U3-Pad35)*%
X123025000Y-106450000D03*
%TO.P,U3,36*%
%TO.N,/bootstrap/BE*%
X120485000Y-106450000D03*
%TO.P,U3,37*%
%TO.N,/PHI2*%
X117945000Y-106450000D03*
%TO.P,U3,38*%
%TO.N,VCC*%
X115405000Y-106450000D03*
%TO.P,U3,39*%
%TO.N,Net-(U3-Pad39)*%
X112865000Y-106450000D03*
%TO.P,U3,40*%
%TO.N,/~RES*%
X110325000Y-106450000D03*
%TD*%
D14*
%TO.P,LED1,1*%
%TO.N,/clockmeter/E*%
X105570000Y-141440000D03*
%TO.P,LED1,2*%
%TO.N,/clockmeter/D*%
X108110000Y-141440000D03*
%TO.P,LED1,3*%
%TO.N,/clockmeter/DP*%
X110650000Y-141440000D03*
%TO.P,LED1,4*%
%TO.N,/clockmeter/C*%
X113190000Y-141440000D03*
%TO.P,LED1,5*%
%TO.N,/clockmeter/G*%
X115730000Y-141440000D03*
%TO.P,LED1,7*%
%TO.N,/clockmeter/B*%
X105570000Y-131280000D03*
%TO.P,LED1,8*%
%TO.N,/clockmeter/C3*%
X108110000Y-131280000D03*
%TO.P,LED1,9*%
%TO.N,/clockmeter/C2*%
X110650000Y-131280000D03*
%TO.P,LED1,10*%
%TO.N,/clockmeter/F*%
X113190000Y-131280000D03*
%TO.P,LED1,11*%
%TO.N,/clockmeter/A*%
X115730000Y-131280000D03*
%TO.P,LED1,12*%
%TO.N,/clockmeter/C1*%
X118270000Y-131280000D03*
%TD*%
D15*
%TO.P,J1,1*%
%TO.N,VCC*%
X106800000Y-53700000D03*
D16*
%TO.P,J1,2*%
%TO.N,/io/PB7*%
X106800000Y-56240000D03*
%TO.P,J1,3*%
%TO.N,/io/PB6*%
X109340000Y-53700000D03*
%TO.P,J1,4*%
%TO.N,/io/PB5*%
X109340000Y-56240000D03*
%TO.P,J1,5*%
%TO.N,/io/PB4*%
X111880000Y-53700000D03*
%TO.P,J1,6*%
%TO.N,/io/PB3*%
X111880000Y-56240000D03*
%TO.P,J1,7*%
%TO.N,/io/PB2*%
X114420000Y-53700000D03*
%TO.P,J1,8*%
%TO.N,/io/PB1*%
X114420000Y-56240000D03*
%TO.P,J1,9*%
%TO.N,/io/PB0*%
X116960000Y-53700000D03*
%TO.P,J1,10*%
%TO.N,GND*%
X116960000Y-56240000D03*
%TD*%
D17*
%TO.P,Y1,1*%
%TO.N,Net-(C5-Pad1)*%
X137300000Y-131600000D03*
D18*
%TO.P,Y1,2*%
%TO.N,Net-(C6-Pad1)*%
X137300000Y-136680000D03*
%TD*%
D11*
%TO.P,PIC1,1*%
%TO.N,/clockmeter/C2*%
X125200000Y-126300000D03*
D12*
%TO.P,PIC1,2*%
%TO.N,/clockmeter/C1*%
X125200000Y-128840000D03*
%TO.P,PIC1,3*%
%TO.N,/clock/~PHI2*%
X125200000Y-131380000D03*
%TO.P,PIC1,4*%
%TO.N,Net-(PIC1-Pad4)*%
X125200000Y-133920000D03*
%TO.P,PIC1,5*%
%TO.N,GND*%
X125200000Y-136460000D03*
%TO.P,PIC1,6*%
%TO.N,Net-(PIC1-Pad6)*%
X125200000Y-139000000D03*
%TO.P,PIC1,7*%
%TO.N,Net-(PIC1-Pad7)*%
X125200000Y-141540000D03*
%TO.P,PIC1,8*%
%TO.N,Net-(PIC1-Pad8)*%
X125200000Y-144080000D03*
%TO.P,PIC1,9*%
%TO.N,Net-(PIC1-Pad9)*%
X125200000Y-146620000D03*
%TO.P,PIC1,10*%
%TO.N,Net-(PIC1-Pad10)*%
X132820000Y-146620000D03*
%TO.P,PIC1,11*%
%TO.N,Net-(PIC1-Pad11)*%
X132820000Y-144080000D03*
%TO.P,PIC1,12*%
%TO.N,Net-(PIC1-Pad12)*%
X132820000Y-141540000D03*
%TO.P,PIC1,13*%
%TO.N,Net-(PIC1-Pad13)*%
X132820000Y-139000000D03*
%TO.P,PIC1,14*%
%TO.N,VCC*%
X132820000Y-136460000D03*
%TO.P,PIC1,15*%
%TO.N,Net-(C6-Pad1)*%
X132820000Y-133920000D03*
%TO.P,PIC1,16*%
%TO.N,Net-(C5-Pad1)*%
X132820000Y-131380000D03*
%TO.P,PIC1,17*%
%TO.N,/clockmeter/C3*%
X132820000Y-128840000D03*
%TO.P,PIC1,18*%
%TO.N,Net-(PIC1-Pad18)*%
X132820000Y-126300000D03*
%TD*%
D15*
%TO.P,EXT6526,1*%
%TO.N,GND*%
X125900000Y-56300000D03*
D16*
%TO.P,EXT6526,2*%
%TO.N,/peripherals/SERCLK*%
X125900000Y-53760000D03*
%TO.P,EXT6526,3*%
%TO.N,/peripherals/PA0*%
X128440000Y-56300000D03*
%TO.P,EXT6526,4*%
%TO.N,/peripherals/SERDAT*%
X128440000Y-53760000D03*
%TO.P,EXT6526,5*%
%TO.N,/peripherals/PA1*%
X130980000Y-56300000D03*
%TO.P,EXT6526,6*%
%TO.N,/bootstrap/A0*%
X130980000Y-53760000D03*
%TO.P,EXT6526,7*%
%TO.N,/peripherals/PA2*%
X133520000Y-56300000D03*
%TO.P,EXT6526,8*%
%TO.N,/bootstrap/A1*%
X133520000Y-53760000D03*
%TO.P,EXT6526,9*%
%TO.N,/peripherals/PA3*%
X136060000Y-56300000D03*
%TO.P,EXT6526,10*%
%TO.N,/bootstrap/A2*%
X136060000Y-53760000D03*
%TO.P,EXT6526,11*%
%TO.N,/peripherals/PA4*%
X138600000Y-56300000D03*
%TO.P,EXT6526,12*%
%TO.N,/bootstrap/A3*%
X138600000Y-53760000D03*
%TO.P,EXT6526,13*%
%TO.N,/peripherals/PA5*%
X141140000Y-56300000D03*
%TO.P,EXT6526,14*%
%TO.N,/peripherals/~CIARES*%
X141140000Y-53760000D03*
%TO.P,EXT6526,15*%
%TO.N,/peripherals/PA6*%
X143680000Y-56300000D03*
%TO.P,EXT6526,16*%
%TO.N,/bootstrap/D0*%
X143680000Y-53760000D03*
%TO.P,EXT6526,17*%
%TO.N,/peripherals/PA7*%
X146220000Y-56300000D03*
%TO.P,EXT6526,18*%
%TO.N,/bootstrap/D1*%
X146220000Y-53760000D03*
%TO.P,EXT6526,19*%
%TO.N,/io/PB0*%
X148760000Y-56300000D03*
%TO.P,EXT6526,20*%
%TO.N,/bootstrap/D2*%
X148760000Y-53760000D03*
%TO.P,EXT6526,21*%
%TO.N,/io/PB1*%
X151300000Y-56300000D03*
%TO.P,EXT6526,22*%
%TO.N,/bootstrap/D3*%
X151300000Y-53760000D03*
%TO.P,EXT6526,23*%
%TO.N,/io/PB2*%
X153840000Y-56300000D03*
%TO.P,EXT6526,24*%
%TO.N,/bootstrap/D4*%
X153840000Y-53760000D03*
%TO.P,EXT6526,25*%
%TO.N,/io/PB3*%
X156380000Y-56300000D03*
%TO.P,EXT6526,26*%
%TO.N,/bootstrap/D5*%
X156380000Y-53760000D03*
%TO.P,EXT6526,27*%
%TO.N,/io/PB4*%
X158920000Y-56300000D03*
%TO.P,EXT6526,28*%
%TO.N,/bootstrap/D6*%
X158920000Y-53760000D03*
%TO.P,EXT6526,29*%
%TO.N,/io/PB5*%
X161460000Y-56300000D03*
%TO.P,EXT6526,30*%
%TO.N,/bootstrap/D7*%
X161460000Y-53760000D03*
%TO.P,EXT6526,31*%
%TO.N,/io/PB6*%
X164000000Y-56300000D03*
%TO.P,EXT6526,32*%
%TO.N,/PHI2*%
X164000000Y-53760000D03*
%TO.P,EXT6526,33*%
%TO.N,/io/PB7*%
X166540000Y-56300000D03*
%TO.P,EXT6526,34*%
%TO.N,/peripherals/~EXTPC*%
X166540000Y-53760000D03*
%TO.P,EXT6526,35*%
%TO.N,/peripherals/~EXTFLAG*%
X169080000Y-56300000D03*
%TO.P,EXT6526,36*%
%TO.N,/memory/~CIAEXT*%
X169080000Y-53760000D03*
%TO.P,EXT6526,37*%
%TO.N,/TOD*%
X171620000Y-56300000D03*
%TO.P,EXT6526,38*%
%TO.N,/R~W*%
X171620000Y-53760000D03*
%TO.P,EXT6526,39*%
%TO.N,VCC*%
X174160000Y-56300000D03*
%TO.P,EXT6526,40*%
%TO.N,/~IRQ*%
X174160000Y-53760000D03*
%TD*%
D11*
%TO.P,U2,1*%
%TO.N,GND*%
X102700000Y-101700000D03*
D12*
%TO.P,U2,2*%
%TO.N,/peripherals/~CIARES*%
X105240000Y-101700000D03*
%TO.P,U2,3*%
%TO.N,/peripherals/LCD_RS*%
X107780000Y-101700000D03*
%TO.P,U2,4*%
%TO.N,/peripherals/LCD_RW*%
X110320000Y-101700000D03*
%TO.P,U2,5*%
%TO.N,/peripherals/LCD_E*%
X112860000Y-101700000D03*
%TO.P,U2,6*%
%TO.N,/peripherals/LCD_D4*%
X115400000Y-101700000D03*
%TO.P,U2,7*%
%TO.N,/peripherals/LCD_D5*%
X117940000Y-101700000D03*
%TO.P,U2,8*%
%TO.N,/peripherals/LCD_D6*%
X120480000Y-101700000D03*
%TO.P,U2,9*%
%TO.N,/peripherals/LCD_D7*%
X123020000Y-101700000D03*
%TO.P,U2,10*%
%TO.N,/TODENABLE*%
X125560000Y-101700000D03*
%TO.P,U2,11*%
%TO.N,/TOD*%
X128100000Y-101700000D03*
%TO.P,U2,12*%
%TO.N,Net-(U2-Pad12)*%
X130640000Y-101700000D03*
%TO.P,U2,13*%
%TO.N,Net-(U2-Pad13)*%
X133180000Y-101700000D03*
%TO.P,U2,14*%
%TO.N,/io/VPB4*%
X135720000Y-101700000D03*
%TO.P,U2,15*%
%TO.N,/io/VPB5*%
X138260000Y-101700000D03*
%TO.P,U2,16*%
%TO.N,/io/VPB6*%
X140800000Y-101700000D03*
%TO.P,U2,17*%
%TO.N,/io/VPB7*%
X143340000Y-101700000D03*
%TO.P,U2,18*%
%TO.N,Net-(U2-Pad18)*%
X145880000Y-101700000D03*
%TO.P,U2,19*%
%TO.N,Net-(U2-Pad19)*%
X148420000Y-101700000D03*
%TO.P,U2,20*%
%TO.N,VCC*%
X150960000Y-101700000D03*
%TO.P,U2,21*%
%TO.N,/~VIAIRQ*%
X150960000Y-86460000D03*
%TO.P,U2,22*%
%TO.N,/R~W*%
X148420000Y-86460000D03*
%TO.P,U2,23*%
%TO.N,/memory/~VIA*%
X145880000Y-86460000D03*
%TO.P,U2,24*%
%TO.N,VCC*%
X143340000Y-86460000D03*
%TO.P,U2,25*%
%TO.N,/PHI2*%
X140800000Y-86460000D03*
%TO.P,U2,26*%
%TO.N,/bootstrap/D7*%
X138260000Y-86460000D03*
%TO.P,U2,27*%
%TO.N,/bootstrap/D6*%
X135720000Y-86460000D03*
%TO.P,U2,28*%
%TO.N,/bootstrap/D5*%
X133180000Y-86460000D03*
%TO.P,U2,29*%
%TO.N,/bootstrap/D4*%
X130640000Y-86460000D03*
%TO.P,U2,30*%
%TO.N,/bootstrap/D3*%
X128100000Y-86460000D03*
%TO.P,U2,31*%
%TO.N,/bootstrap/D2*%
X125560000Y-86460000D03*
%TO.P,U2,32*%
%TO.N,/bootstrap/D1*%
X123020000Y-86460000D03*
%TO.P,U2,33*%
%TO.N,/bootstrap/D0*%
X120480000Y-86460000D03*
%TO.P,U2,34*%
%TO.N,/~RES*%
X117940000Y-86460000D03*
%TO.P,U2,35*%
%TO.N,/bootstrap/A3*%
X115400000Y-86460000D03*
%TO.P,U2,36*%
%TO.N,/bootstrap/A2*%
X112860000Y-86460000D03*
%TO.P,U2,37*%
%TO.N,/bootstrap/A1*%
X110320000Y-86460000D03*
%TO.P,U2,38*%
%TO.N,/bootstrap/A0*%
X107780000Y-86460000D03*
%TO.P,U2,39*%
%TO.N,Net-(U2-Pad39)*%
X105240000Y-86460000D03*
%TO.P,U2,40*%
%TO.N,Net-(U2-Pad40)*%
X102700000Y-86460000D03*
%TD*%
D19*
%TO.P,SW1,1*%
%TO.N,GND*%
X181420000Y-125490000D03*
%TO.P,SW1,2*%
X187920000Y-125490000D03*
%TO.P,SW1,3*%
%TO.N,/io/VPB7*%
X181420000Y-129990000D03*
%TO.P,SW1,4*%
X187920000Y-129990000D03*
%TD*%
%TO.P,SW2,1*%
%TO.N,GND*%
X181440000Y-134050000D03*
%TO.P,SW2,2*%
X187940000Y-134050000D03*
%TO.P,SW2,3*%
%TO.N,/io/VPB6*%
X181440000Y-138550000D03*
%TO.P,SW2,4*%
X187940000Y-138550000D03*
%TD*%
%TO.P,SW3,1*%
%TO.N,GND*%
X191400000Y-133970000D03*
%TO.P,SW3,2*%
X197900000Y-133970000D03*
%TO.P,SW3,3*%
%TO.N,/io/VPB5*%
X191400000Y-138470000D03*
%TO.P,SW3,4*%
X197900000Y-138470000D03*
%TD*%
%TO.P,SW4,1*%
%TO.N,GND*%
X191420000Y-125450000D03*
%TO.P,SW4,2*%
X197920000Y-125450000D03*
%TO.P,SW4,3*%
%TO.N,/io/VPB4*%
X191420000Y-129950000D03*
%TO.P,SW4,4*%
X197920000Y-129950000D03*
%TD*%
%TO.P,SW5,1*%
%TO.N,Net-(R13-Pad2)*%
X197600000Y-56800000D03*
%TO.P,SW5,2*%
X191100000Y-56800000D03*
%TO.P,SW5,3*%
%TO.N,VCC*%
X197600000Y-52300000D03*
%TO.P,SW5,4*%
X191100000Y-52300000D03*
%TD*%
D20*
%TO.P,LCD1,*%
%TO.N,GND*%
X103425000Y-116925000D03*
X196425000Y-116925000D03*
X196425000Y-61925000D03*
X103425000Y-61925000D03*
D14*
%TO.P,LCD1,1*%
X110935000Y-61965000D03*
%TO.P,LCD1,2*%
%TO.N,VCC*%
X113475000Y-61965000D03*
%TO.P,LCD1,3*%
%TO.N,Net-(LCD1-Pad3)*%
X116015000Y-61965000D03*
%TO.P,LCD1,4*%
%TO.N,/peripherals/LCD_RS*%
X118555000Y-61965000D03*
%TO.P,LCD1,5*%
%TO.N,/peripherals/LCD_RW*%
X121095000Y-61965000D03*
%TO.P,LCD1,6*%
%TO.N,/peripherals/LCD_E*%
X123635000Y-61965000D03*
%TO.P,LCD1,11*%
%TO.N,/peripherals/LCD_D4*%
X126175000Y-61965000D03*
%TO.P,LCD1,12*%
%TO.N,/peripherals/LCD_D5*%
X128715000Y-61965000D03*
%TO.P,LCD1,13*%
%TO.N,/peripherals/LCD_D6*%
X131255000Y-61965000D03*
%TO.P,LCD1,14*%
%TO.N,/peripherals/LCD_D7*%
X133795000Y-61965000D03*
%TO.P,LCD1,15*%
%TO.N,Net-(LCD1-Pad15)*%
X136335000Y-61965000D03*
%TO.P,LCD1,16*%
%TO.N,GND*%
X138875000Y-61965000D03*
%TD*%
D11*
%TO.P,U1,1*%
%TO.N,GND*%
X102700000Y-83850000D03*
D12*
%TO.P,U1,2*%
%TO.N,/peripherals/PA0*%
X105240000Y-83850000D03*
%TO.P,U1,3*%
%TO.N,/peripherals/PA1*%
X107780000Y-83850000D03*
%TO.P,U1,4*%
%TO.N,/peripherals/PA2*%
X110320000Y-83850000D03*
%TO.P,U1,5*%
%TO.N,/peripherals/PA3*%
X112860000Y-83850000D03*
%TO.P,U1,6*%
%TO.N,/peripherals/PA4*%
X115400000Y-83850000D03*
%TO.P,U1,7*%
%TO.N,/peripherals/PA5*%
X117940000Y-83850000D03*
%TO.P,U1,8*%
%TO.N,/peripherals/PA6*%
X120480000Y-83850000D03*
%TO.P,U1,9*%
%TO.N,/peripherals/PA7*%
X123020000Y-83850000D03*
%TO.P,U1,10*%
%TO.N,/io/PB0*%
X125560000Y-83850000D03*
%TO.P,U1,11*%
%TO.N,/io/PB1*%
X128100000Y-83850000D03*
%TO.P,U1,12*%
%TO.N,/io/PB2*%
X130640000Y-83850000D03*
%TO.P,U1,13*%
%TO.N,/io/PB3*%
X133180000Y-83850000D03*
%TO.P,U1,14*%
%TO.N,/io/PB4*%
X135720000Y-83850000D03*
%TO.P,U1,15*%
%TO.N,/io/PB5*%
X138260000Y-83850000D03*
%TO.P,U1,16*%
%TO.N,/io/PB6*%
X140800000Y-83850000D03*
%TO.P,U1,17*%
%TO.N,/io/PB7*%
X143340000Y-83850000D03*
%TO.P,U1,18*%
%TO.N,/peripherals/~EXTPC*%
X145880000Y-83850000D03*
%TO.P,U1,19*%
%TO.N,/TOD*%
X148420000Y-83850000D03*
%TO.P,U1,20*%
%TO.N,VCC*%
X150960000Y-83850000D03*
%TO.P,U1,21*%
%TO.N,/~IRQ*%
X150960000Y-68610000D03*
%TO.P,U1,22*%
%TO.N,/R~W*%
X148420000Y-68610000D03*
%TO.P,U1,23*%
%TO.N,/memory/~CIA*%
X145880000Y-68610000D03*
%TO.P,U1,24*%
%TO.N,/peripherals/~EXTFLAG*%
X143340000Y-68610000D03*
%TO.P,U1,25*%
%TO.N,/PHI2*%
X140800000Y-68610000D03*
%TO.P,U1,26*%
%TO.N,/peripherals/DB7*%
X138260000Y-68610000D03*
%TO.P,U1,27*%
%TO.N,/peripherals/DB6*%
X135720000Y-68610000D03*
%TO.P,U1,28*%
%TO.N,/peripherals/DB5*%
X133180000Y-68610000D03*
%TO.P,U1,29*%
%TO.N,/peripherals/DB4*%
X130640000Y-68610000D03*
%TO.P,U1,30*%
%TO.N,/peripherals/DB3*%
X128100000Y-68610000D03*
%TO.P,U1,31*%
%TO.N,/peripherals/DB2*%
X125560000Y-68610000D03*
%TO.P,U1,32*%
%TO.N,/peripherals/DB1*%
X123020000Y-68610000D03*
%TO.P,U1,33*%
%TO.N,/peripherals/DB0*%
X120480000Y-68610000D03*
%TO.P,U1,34*%
%TO.N,/peripherals/~CIARES*%
X117940000Y-68610000D03*
%TO.P,U1,35*%
%TO.N,/bootstrap/A3*%
X115400000Y-68610000D03*
%TO.P,U1,36*%
%TO.N,/bootstrap/A2*%
X112860000Y-68610000D03*
%TO.P,U1,37*%
%TO.N,/bootstrap/A1*%
X110320000Y-68610000D03*
%TO.P,U1,38*%
%TO.N,/bootstrap/A0*%
X107780000Y-68610000D03*
%TO.P,U1,39*%
%TO.N,/peripherals/SERDAT*%
X105240000Y-68610000D03*
%TO.P,U1,40*%
%TO.N,/peripherals/SERCLK*%
X102700000Y-68610000D03*
%TD*%
D20*
%TO.P,,*%
%TO.N,GND*%
X196425000Y-146050000D03*
%TD*%
%TO.P,,*%
%TO.N,GND*%
X103425000Y-146050000D03*
%TD*%
D21*
%TO.P,C1,1*%
%TO.N,VCC*%
X150964900Y-80324200D03*
%TO.P,C1,2*%
%TO.N,GND*%
X150964900Y-78249200D03*
%TD*%
%TO.P,C3,1*%
%TO.N,VCC*%
X128100000Y-117925000D03*
%TO.P,C3,2*%
%TO.N,GND*%
X128100000Y-115850000D03*
%TD*%
%TO.P,C11,1*%
%TO.N,VCC*%
X140800000Y-77050000D03*
%TO.P,C11,2*%
%TO.N,GND*%
X140800000Y-74975000D03*
%TD*%
D22*
%TO.P,R10,1*%
%TO.N,VCC*%
X143675000Y-61975000D03*
%TO.P,R10,2*%
%TO.N,Net-(LCD1-Pad15)*%
X141675000Y-61975000D03*
%TD*%
D23*
%TO.P,R11,1*%
%TO.N,Net-(R11-Pad1)*%
X112875000Y-118250000D03*
%TO.P,R11,2*%
%TO.N,VCC*%
X112875000Y-116250000D03*
%TD*%
D24*
%TO.P,R15,1*%
%TO.N,VCC*%
X183480000Y-127820000D03*
%TO.P,R15,2*%
%TO.N,/io/VPB7*%
X185480000Y-127820000D03*
%TD*%
%TO.P,R16,1*%
%TO.N,VCC*%
X183810000Y-136340000D03*
%TO.P,R16,2*%
%TO.N,/io/VPB6*%
X185810000Y-136340000D03*
%TD*%
%TO.P,R17,1*%
%TO.N,VCC*%
X193620000Y-136210000D03*
%TO.P,R17,2*%
%TO.N,/io/VPB5*%
X195620000Y-136210000D03*
%TD*%
%TO.P,R18,1*%
%TO.N,VCC*%
X193640000Y-127680000D03*
%TO.P,R18,2*%
%TO.N,/io/VPB4*%
X195640000Y-127680000D03*
%TD*%
D25*
%TO.P,R19,1*%
%TO.N,/~IRQ*%
X150975000Y-71125000D03*
%TO.P,R19,2*%
%TO.N,VCC*%
X150975000Y-73125000D03*
%TD*%
D21*
%TO.P,C2,1*%
%TO.N,VCC*%
X150950000Y-98525000D03*
%TO.P,C2,2*%
%TO.N,GND*%
X150950000Y-96450000D03*
%TD*%
%TO.P,C6,1*%
%TO.N,Net-(C6-Pad1)*%
X139850000Y-137275000D03*
%TO.P,C6,2*%
%TO.N,GND*%
X139850000Y-135200000D03*
%TD*%
D26*
%TO.P,C5,1*%
%TO.N,Net-(C5-Pad1)*%
X139850000Y-131112500D03*
%TO.P,C5,2*%
%TO.N,GND*%
X139850000Y-133187500D03*
%TD*%
D25*
%TO.P,R2,1*%
%TO.N,Net-(PIC1-Pad7)*%
X110600000Y-137300000D03*
%TO.P,R2,2*%
%TO.N,/clockmeter/DP*%
X110600000Y-139300000D03*
%TD*%
D24*
%TO.P,R5,1*%
%TO.N,Net-(PIC1-Pad10)*%
X111200000Y-133600000D03*
%TO.P,R5,2*%
%TO.N,/clockmeter/F*%
X113200000Y-133600000D03*
%TD*%
%TO.P,R1,1*%
%TO.N,Net-(PIC1-Pad6)*%
X106100000Y-138900000D03*
%TO.P,R1,2*%
%TO.N,/clockmeter/D*%
X108100000Y-138900000D03*
%TD*%
D25*
%TO.P,R6,1*%
%TO.N,Net-(PIC1-Pad11)*%
X118600000Y-139500000D03*
%TO.P,R6,2*%
%TO.N,/clockmeter/G*%
X118600000Y-141500000D03*
%TD*%
D22*
%TO.P,R3,1*%
%TO.N,Net-(PIC1-Pad8)*%
X115062000Y-139200000D03*
%TO.P,R3,2*%
%TO.N,/clockmeter/C*%
X113062000Y-139200000D03*
%TD*%
%TO.P,R7,1*%
%TO.N,Net-(PIC1-Pad12)*%
X117800000Y-133600000D03*
%TO.P,R7,2*%
%TO.N,/clockmeter/A*%
X115800000Y-133600000D03*
%TD*%
D23*
%TO.P,R8,1*%
%TO.N,Net-(PIC1-Pad13)*%
X103200000Y-133300000D03*
%TO.P,R8,2*%
%TO.N,/clockmeter/B*%
X103200000Y-131300000D03*
%TD*%
%TO.P,R9,1*%
%TO.N,VCC*%
X129000000Y-136100000D03*
%TO.P,R9,2*%
%TO.N,Net-(PIC1-Pad4)*%
X129000000Y-134100000D03*
%TD*%
D25*
%TO.P,R4,1*%
%TO.N,Net-(PIC1-Pad9)*%
X103378000Y-139500000D03*
%TO.P,R4,2*%
%TO.N,/clockmeter/E*%
X103378000Y-141500000D03*
%TD*%
D27*
%TO.P,CEXT1,1*%
%TO.N,VCC*%
X174137500Y-59075000D03*
%TO.P,CEXT1,2*%
%TO.N,GND*%
X176212500Y-59075000D03*
%TD*%
D28*
%TO.N,GND*%
X170110000Y-114987000D03*
X168840000Y-106351000D03*
X173850000Y-97550000D03*
X139850000Y-134175000D03*
X151550000Y-143750000D03*
X166300000Y-110161000D03*
X166175000Y-133550000D03*
X186750000Y-97150000D03*
X150275000Y-148725000D03*
X152750000Y-144950000D03*
X142325000Y-74975000D03*
X143650000Y-129250000D03*
X166300000Y-119305000D03*
X168500000Y-143400000D03*
X128075000Y-114250000D03*
X156575000Y-143625000D03*
X161425000Y-129300000D03*
X152625000Y-78225000D03*
X172650000Y-119305000D03*
X167570000Y-114987000D03*
X176625000Y-122625000D03*
X152575000Y-96475000D03*
X181037500Y-109362500D03*
X142675000Y-143650000D03*
X176200000Y-60675000D03*
%TO.N,/memory/RAMCE*%
X160073195Y-135561000D03*
X145218000Y-139625000D03*
%TO.N,VCC*%
X142375000Y-77050000D03*
X170110000Y-119305000D03*
X172600000Y-92175000D03*
X152625000Y-80325000D03*
X181600000Y-136375000D03*
X173920000Y-119305000D03*
X168500000Y-148525000D03*
X191550000Y-127750000D03*
X191575000Y-136225000D03*
X125775000Y-117925000D03*
X177500000Y-109400000D03*
X174125000Y-60775000D03*
X154100000Y-148425000D03*
X168840000Y-127941000D03*
X185475000Y-92150000D03*
X185950000Y-110875000D03*
X176625000Y-127475000D03*
X166225000Y-138675000D03*
X152575000Y-98525000D03*
X145225000Y-61975000D03*
X176587090Y-94047954D03*
X164950000Y-92200000D03*
X172650000Y-127941000D03*
X181600000Y-127800000D03*
X152625000Y-73125000D03*
X112875000Y-114775000D03*
%TO.N,/memory/~VIA*%
X161645400Y-144907062D03*
%TO.N,/memory/~CIA*%
X162890000Y-144960000D03*
%TO.N,/bootstrap/BE*%
X168779149Y-97339843D03*
%TO.N,/~VIAIRQ*%
X124320961Y-103631252D03*
%TO.N,/~RES*%
X161004183Y-104742417D03*
X123444000Y-108204000D03*
%TO.N,/PHI2*%
X157480000Y-116586000D03*
%TO.N,/TODENABLE*%
X124390000Y-91365000D03*
%TO.N,/~CE*%
X150021865Y-138960072D03*
%TO.N,/bootstrap/D0*%
X124390000Y-90349000D03*
%TO.N,/bootstrap/A11*%
X180524000Y-101271000D03*
%TO.N,/bootstrap/A10*%
X179254000Y-101271000D03*
%TO.N,/bootstrap/A9*%
X177984000Y-101271000D03*
%TO.N,/bootstrap/A8*%
X176714000Y-101271000D03*
%TO.N,/bootstrap/A7*%
X172650000Y-101271000D03*
%TO.N,/bootstrap/A6*%
X171380000Y-101271000D03*
%TO.N,/bootstrap/A5*%
X170110000Y-101271000D03*
%TO.N,/bootstrap/A4*%
X168840000Y-101271000D03*
%TO.N,/bootstrap/A15*%
X185604000Y-101271000D03*
%TO.N,/bootstrap/A14*%
X184334000Y-101271000D03*
%TO.N,/bootstrap/A13*%
X183064000Y-101271000D03*
%TO.N,/bootstrap/A12*%
X181794000Y-101271000D03*
%TO.N,/bootstrap/A0*%
X163506000Y-101271000D03*
%TO.N,/bootstrap/A1*%
X165030000Y-101271000D03*
%TO.N,/bootstrap/A2*%
X166300000Y-101271000D03*
%TO.N,/bootstrap/A3*%
X167570000Y-101271000D03*
%TO.N,/memory/~CIAEXT*%
X166300000Y-148743600D03*
%TD*%
D29*
%TO.N,GND*%
X139850000Y-134175000D02*
X139850000Y-135200000D01*
D30*
X176212500Y-59075000D02*
X176212500Y-60662500D01*
D29*
X128075000Y-114250000D02*
X128075000Y-115825000D01*
X140800000Y-74975000D02*
X142325000Y-74975000D01*
X139850000Y-133187500D02*
X139850000Y-134175000D01*
X150964900Y-78249200D02*
X152600800Y-78249200D01*
X128075000Y-115825000D02*
X128100000Y-115850000D01*
X152600800Y-78249200D02*
X152625000Y-78225000D01*
X152550000Y-96450000D02*
X152575000Y-96475000D01*
X150950000Y-96450000D02*
X152550000Y-96450000D01*
D30*
X176212500Y-60662500D02*
X176200000Y-60675000D01*
D31*
%TO.N,/memory/RAMCE*%
X145218000Y-139625000D02*
X149282000Y-135561000D01*
X149282000Y-135561000D02*
X160073195Y-135561000D01*
D32*
%TO.N,VCC*%
X143675000Y-61975000D02*
X145225000Y-61975000D01*
D29*
X128105000Y-117930000D02*
X128100000Y-117925000D01*
X150964900Y-80324200D02*
X152624200Y-80324200D01*
X152624200Y-80324200D02*
X152625000Y-80325000D01*
X197600000Y-67575000D02*
X197600000Y-90400000D01*
X128105000Y-121690000D02*
X128105000Y-117930000D01*
X125775000Y-117925000D02*
X126500000Y-117925000D01*
X140800000Y-79877000D02*
X140843000Y-79920000D01*
X126500000Y-117925000D02*
X128100000Y-117925000D01*
D32*
X181620000Y-127820000D02*
X181600000Y-127800000D01*
D29*
X150964900Y-83845100D02*
X150960000Y-83850000D01*
X140800000Y-77050000D02*
X140800000Y-79877000D01*
X140800000Y-77050000D02*
X142375000Y-77050000D01*
X167120000Y-67960000D02*
X168905000Y-66175000D01*
X150975000Y-73125000D02*
X152625000Y-73125000D01*
D32*
X181635000Y-136340000D02*
X181600000Y-136375000D01*
D29*
X150950000Y-98525000D02*
X152575000Y-98525000D01*
X150964900Y-80324200D02*
X150964900Y-83845100D01*
D32*
X183480000Y-127820000D02*
X181620000Y-127820000D01*
D30*
X174137500Y-60762500D02*
X174125000Y-60775000D01*
D32*
X191620000Y-127680000D02*
X191550000Y-127750000D01*
D30*
X174137500Y-59075000D02*
X174137500Y-60762500D01*
D32*
X193620000Y-136210000D02*
X191590000Y-136210000D01*
D29*
X129000000Y-136100000D02*
X132460000Y-136100000D01*
X150960000Y-98535000D02*
X150950000Y-98525000D01*
D30*
X174137500Y-56322500D02*
X174160000Y-56300000D01*
D29*
X112875000Y-116250000D02*
X112875000Y-114775000D01*
D32*
X191590000Y-136210000D02*
X191575000Y-136225000D01*
D30*
X174137500Y-59075000D02*
X174137500Y-56322500D01*
D29*
X196200000Y-66175000D02*
X197600000Y-67575000D01*
X132460000Y-136100000D02*
X132820000Y-136460000D01*
D32*
X183810000Y-136340000D02*
X181635000Y-136340000D01*
D29*
X197600000Y-90400000D02*
X196000000Y-92000000D01*
D32*
X193640000Y-127680000D02*
X191620000Y-127680000D01*
D29*
X168905000Y-66175000D02*
X196200000Y-66175000D01*
X150960000Y-101700000D02*
X150960000Y-98535000D01*
D32*
%TO.N,Net-(LCD1-Pad3)*%
X183360000Y-54000000D02*
X180260000Y-50900000D01*
X127080000Y-50900000D02*
X116015000Y-61965000D01*
X180260000Y-50900000D02*
X127080000Y-50900000D01*
D31*
%TO.N,/memory/~VIA*%
X162136231Y-144416231D02*
X161645400Y-144907062D01*
X148019892Y-84840501D02*
X156647990Y-84840501D01*
X146400393Y-86460000D02*
X148019892Y-84840501D01*
X156647991Y-84866215D02*
X162235990Y-90454214D01*
X156647990Y-84840501D02*
X156647991Y-84866215D01*
X162235991Y-102138215D02*
X162235991Y-144316471D01*
X162235990Y-90454214D02*
X162235991Y-102138215D01*
X162235991Y-144316471D02*
X162136231Y-144416231D01*
X145880000Y-86460000D02*
X146400393Y-86460000D01*
X162235991Y-102138215D02*
X162240000Y-102142224D01*
%TO.N,/memory/~CIA*%
X162494009Y-102037009D02*
X162494009Y-144294009D01*
X156902000Y-69267000D02*
X154108000Y-66473000D01*
X162490000Y-90349000D02*
X156902000Y-84761000D01*
X143915000Y-70575000D02*
X145880000Y-68610000D01*
X139525000Y-73750000D02*
X139525000Y-71550000D01*
X138303000Y-74972000D02*
X139525000Y-73750000D01*
X138303000Y-79920000D02*
X138303000Y-74972000D01*
X139525000Y-71550000D02*
X140500000Y-70575000D01*
X156902000Y-84761000D02*
X156902000Y-69267000D01*
X154108000Y-66473000D02*
X148017000Y-66473000D01*
X140500000Y-70575000D02*
X143915000Y-70575000D01*
X162490000Y-102033000D02*
X162494009Y-102037009D01*
X162490000Y-102033000D02*
X162490000Y-90349000D01*
X162494009Y-144564009D02*
X162890000Y-144960000D01*
X162494009Y-144294009D02*
X162494009Y-144564009D01*
X148017000Y-66473000D02*
X145880000Y-68610000D01*
D29*
%TO.N,Net-(R11-Pad1)*%
X112875000Y-118250000D02*
X112875000Y-121680000D01*
X112875000Y-121680000D02*
X112865000Y-121690000D01*
D31*
%TO.N,/~IRQ*%
X117945000Y-119036763D02*
X112371247Y-113463010D01*
X112371247Y-113463010D02*
X112337256Y-113463009D01*
X112337256Y-113463009D02*
X101530000Y-102655753D01*
D29*
X150975000Y-68625000D02*
X150960000Y-68610000D01*
D31*
X101530000Y-102655753D02*
X101530000Y-83077098D01*
X139753942Y-82475000D02*
X150975000Y-71253942D01*
X102132098Y-82475000D02*
X139753942Y-82475000D01*
X150975000Y-71253942D02*
X150975000Y-71125000D01*
D29*
X150975000Y-71125000D02*
X150975000Y-68625000D01*
D31*
X101530000Y-83077098D02*
X102132098Y-82475000D01*
X117945000Y-121690000D02*
X117945000Y-119036763D01*
%TO.N,/~VIAIRQ*%
X149606000Y-103122504D02*
X149606000Y-87814000D01*
X149097252Y-103631252D02*
X149606000Y-103122504D01*
X149606000Y-87814000D02*
X150960000Y-86460000D01*
X124320961Y-103631252D02*
X149097252Y-103631252D01*
%TO.N,/~RES*%
X159188000Y-107621000D02*
X160963500Y-105845500D01*
X161004183Y-105804817D02*
X161004183Y-104742417D01*
X158605000Y-108204000D02*
X160963500Y-105845500D01*
X160963500Y-105845500D02*
X161004183Y-105804817D01*
X123444000Y-108204000D02*
X158605000Y-108204000D01*
%TO.N,/PHI2*%
X124644000Y-88317000D02*
X138943000Y-88317000D01*
X121744758Y-91216242D02*
X124644000Y-88317000D01*
X133604000Y-116586000D02*
X129210961Y-112192961D01*
X129210961Y-112192961D02*
X128194961Y-112192961D01*
X117945000Y-106450000D02*
X121744758Y-102650242D01*
X117945000Y-106450000D02*
X123687961Y-112192961D01*
X157480000Y-116586000D02*
X133604000Y-116586000D01*
X121744758Y-102650242D02*
X121744758Y-91216242D01*
X123687961Y-112192961D02*
X128194961Y-112192961D01*
X138943000Y-88317000D02*
X140800000Y-86460000D01*
D29*
%TO.N,/clockmeter/C1*%
X120710000Y-128840000D02*
X118270000Y-131280000D01*
X125200000Y-128840000D02*
X120710000Y-128840000D01*
%TO.N,/clockmeter/F*%
X113200000Y-131290000D02*
X113190000Y-131280000D01*
X113200000Y-133600000D02*
X113200000Y-131290000D01*
%TO.N,/clockmeter/G*%
X118600000Y-141500000D02*
X115790000Y-141500000D01*
X115790000Y-141500000D02*
X115730000Y-141440000D01*
%TO.N,/clockmeter/E*%
X103378000Y-141500000D02*
X105510000Y-141500000D01*
X105510000Y-141500000D02*
X105570000Y-141440000D01*
%TO.N,/clockmeter/D*%
X108100000Y-141430000D02*
X108110000Y-141440000D01*
X108100000Y-138900000D02*
X108100000Y-141430000D01*
%TO.N,/clockmeter/DP*%
X110600000Y-139300000D02*
X110600000Y-141390000D01*
X110600000Y-141390000D02*
X110650000Y-141440000D01*
%TO.N,/clockmeter/C*%
X113062000Y-139200000D02*
X113062000Y-141312000D01*
X113062000Y-141312000D02*
X113190000Y-141440000D01*
%TO.N,/clockmeter/B*%
X103200000Y-131300000D02*
X105550000Y-131300000D01*
X105550000Y-131300000D02*
X105570000Y-131280000D01*
%TO.N,/clockmeter/A*%
X115800000Y-131350000D02*
X115730000Y-131280000D01*
X115800000Y-133600000D02*
X115800000Y-131350000D01*
%TO.N,/clockmeter/C2*%
X115630000Y-126300000D02*
X110650000Y-131280000D01*
X125200000Y-126300000D02*
X115630000Y-126300000D01*
%TO.N,/clockmeter/C3*%
X126314402Y-124900000D02*
X130254402Y-128840000D01*
X130254402Y-128840000D02*
X132820000Y-128840000D01*
X108110000Y-131280000D02*
X114490000Y-124900000D01*
X114490000Y-124900000D02*
X126314402Y-124900000D01*
D31*
%TO.N,/~CE*%
X172720000Y-149352000D02*
X179070000Y-143002000D01*
X189980000Y-109486000D02*
X189980000Y-83200000D01*
X150021865Y-138960072D02*
X160413793Y-149352000D01*
X179070000Y-120396000D02*
X189980000Y-109486000D01*
X179070000Y-143002000D02*
X179070000Y-120396000D01*
X160413793Y-149352000D02*
X172720000Y-149352000D01*
D32*
%TO.N,/io/VPB7*%
X185480000Y-127820000D02*
X185750000Y-127820000D01*
X187920000Y-129990000D02*
X181420000Y-129990000D01*
X185750000Y-127820000D02*
X187920000Y-129990000D01*
%TO.N,/io/VPB6*%
X185810000Y-136340000D02*
X185810000Y-136420000D01*
X185810000Y-136420000D02*
X187940000Y-138550000D01*
X181440000Y-138550000D02*
X187940000Y-138550000D01*
%TO.N,/io/VPB5*%
X195640000Y-136210000D02*
X195620000Y-136210000D01*
X197900000Y-138470000D02*
X195640000Y-136210000D01*
X191400000Y-138470000D02*
X197900000Y-138470000D01*
D29*
%TO.N,Net-(C5-Pad1)*%
X137787500Y-131112500D02*
X137300000Y-131600000D01*
X139850000Y-131112500D02*
X137787500Y-131112500D01*
X133040000Y-131600000D02*
X132820000Y-131380000D01*
X137300000Y-131600000D02*
X133040000Y-131600000D01*
%TO.N,Net-(C6-Pad1)*%
X137300000Y-136680000D02*
X135445000Y-134825000D01*
X134540000Y-133920000D02*
X135445000Y-134825000D01*
X139850000Y-137275000D02*
X137895000Y-137275000D01*
X132820000Y-133920000D02*
X134540000Y-133920000D01*
X137895000Y-137275000D02*
X137300000Y-136680000D01*
D32*
%TO.N,Net-(PIC1-Pad10)*%
X118687173Y-147674001D02*
X114016831Y-143003659D01*
X131765999Y-147674001D02*
X118687173Y-147674001D01*
X132820000Y-146620000D02*
X131765999Y-147674001D01*
X101593990Y-138956010D02*
X101860000Y-138690000D01*
X101860000Y-138690000D02*
X106950000Y-133600000D01*
X101593990Y-142264819D02*
X101593990Y-138956010D01*
X106950000Y-133600000D02*
X111200000Y-133600000D01*
X102332830Y-143003659D02*
X101593990Y-142264819D01*
X114016831Y-143003659D02*
X102332830Y-143003659D01*
%TO.N,Net-(PIC1-Pad11)*%
X119225000Y-139500000D02*
X122575000Y-142850000D01*
X118600000Y-139500000D02*
X119225000Y-139500000D01*
X131590000Y-142850000D02*
X132820000Y-144080000D01*
X122575000Y-142850000D02*
X131590000Y-142850000D01*
%TO.N,Net-(PIC1-Pad12)*%
X117800000Y-133600000D02*
X118475000Y-133600000D01*
X118475000Y-133600000D02*
X122650000Y-137775000D01*
X122650000Y-137775000D02*
X129055000Y-137775000D01*
X129055000Y-137775000D02*
X132820000Y-141540000D01*
D29*
%TO.N,Net-(PIC1-Pad4)*%
X125380000Y-134100000D02*
X125200000Y-133920000D01*
X129000000Y-134100000D02*
X125380000Y-134100000D01*
D32*
%TO.N,Net-(PIC1-Pad13)*%
X134000000Y-140180000D02*
X132820000Y-139000000D01*
X103200000Y-133300000D02*
X102500000Y-133300000D01*
X118529354Y-148055011D02*
X132944911Y-148055011D01*
X101168990Y-134631010D02*
X101168990Y-142378647D01*
X102175011Y-143384669D02*
X113859013Y-143384669D01*
X134000000Y-146999922D02*
X134000000Y-140180000D01*
X101168990Y-142378647D02*
X102175011Y-143384669D01*
X102500000Y-133300000D02*
X101168990Y-134631010D01*
X132944911Y-148055011D02*
X134000000Y-146999922D01*
X113859013Y-143384669D02*
X118529354Y-148055011D01*
%TO.N,Net-(PIC1-Pad6)*%
X119100000Y-136100000D02*
X108900000Y-136100000D01*
X108900000Y-136100000D02*
X106100000Y-138900000D01*
X122000000Y-139000000D02*
X119100000Y-136100000D01*
X125200000Y-139000000D02*
X122000000Y-139000000D01*
%TO.N,Net-(PIC1-Pad7)*%
X118775000Y-137300000D02*
X110600000Y-137300000D01*
X123015000Y-141540000D02*
X118775000Y-137300000D01*
X125200000Y-141540000D02*
X123015000Y-141540000D01*
%TO.N,Net-(PIC1-Pad8)*%
X115062000Y-139200000D02*
X114450000Y-139812000D01*
X116330000Y-144080000D02*
X125200000Y-144080000D01*
X114450000Y-139812000D02*
X114450000Y-142200000D01*
X114450000Y-142200000D02*
X116330000Y-144080000D01*
%TO.N,Net-(PIC1-Pad9)*%
X114174649Y-142622649D02*
X102490649Y-142622649D01*
X125200000Y-146620000D02*
X118172000Y-146620000D01*
X118172000Y-146620000D02*
X114174649Y-142622649D01*
X101975000Y-142107000D02*
X101975000Y-140903000D01*
X102490649Y-142622649D02*
X101975000Y-142107000D01*
X101975000Y-140903000D02*
X103378000Y-139500000D01*
D31*
%TO.N,/bootstrap/A0*%
X103690501Y-95300499D02*
X103690501Y-104457030D01*
X107780000Y-86460000D02*
X107780000Y-91211000D01*
X112442471Y-113209000D02*
X128706067Y-113209000D01*
X128706067Y-113209000D02*
X130645000Y-115147933D01*
X107780000Y-91211000D02*
X103690501Y-95300499D01*
X130645000Y-115147933D02*
X130645000Y-121690000D01*
X103690501Y-104457030D02*
X112442471Y-113209000D01*
%TO.N,/bootstrap/A1*%
X128811281Y-112954990D02*
X112547685Y-112954990D01*
X103944511Y-95405713D02*
X110320000Y-89030224D01*
X110320000Y-89030224D02*
X110320000Y-86460000D01*
X112547685Y-112954990D02*
X103944511Y-104351816D01*
X133185000Y-117328709D02*
X128811281Y-112954990D01*
X103944511Y-104351816D02*
X103944511Y-95405713D01*
X133185000Y-121690000D02*
X133185000Y-117328709D01*
%TO.N,/bootstrap/A2*%
X104198521Y-95510927D02*
X104198521Y-104246602D01*
X128916496Y-112700981D02*
X135725000Y-119509485D01*
X112860000Y-86460000D02*
X112860000Y-86849448D01*
X112652899Y-112700980D02*
X128916496Y-112700981D01*
X112860000Y-86849448D02*
X104198521Y-95510927D01*
X135725000Y-119509485D02*
X135725000Y-121690000D01*
X104198521Y-104246602D02*
X112652899Y-112700980D01*
%TO.N,/bootstrap/A3*%
X112264885Y-87803787D02*
X114056213Y-87803787D01*
X106271519Y-93797153D02*
X112264885Y-87803787D01*
X112758114Y-112446971D02*
X106271519Y-105960376D01*
X138265000Y-121690000D02*
X129021971Y-112446971D01*
X129021971Y-112446971D02*
X112758114Y-112446971D01*
X106271519Y-105960376D02*
X106271519Y-93797153D01*
X114056213Y-87803787D02*
X115400000Y-86460000D01*
%TO.N,/R~W*%
X148510000Y-86460000D02*
X149770000Y-85200000D01*
X153490000Y-86900000D02*
X153490000Y-103310000D01*
X140843000Y-72300000D02*
X144730000Y-72300000D01*
X144730000Y-72300000D02*
X148420000Y-68610000D01*
X151790000Y-85200000D02*
X153490000Y-86900000D01*
X152210000Y-104590000D02*
X127425000Y-104590000D01*
X127425000Y-104590000D02*
X125565000Y-106450000D01*
X148420000Y-86460000D02*
X148510000Y-86460000D01*
X153490000Y-103310000D02*
X152210000Y-104590000D01*
X149770000Y-85200000D02*
X151790000Y-85200000D01*
%TO.N,/TOD*%
X145370000Y-85080000D02*
X144580000Y-85870000D01*
X148410000Y-83850000D02*
X147180000Y-85080000D01*
X144580000Y-85870000D02*
X144580000Y-86685942D01*
X132485942Y-98780000D02*
X131020000Y-98780000D01*
X131020000Y-98780000D02*
X128100000Y-101700000D01*
X147180000Y-85080000D02*
X145370000Y-85080000D01*
X144580000Y-86685942D02*
X132485942Y-98780000D01*
X148420000Y-83850000D02*
X148410000Y-83850000D01*
D32*
%TO.N,/io/VPB4*%
X191420000Y-129950000D02*
X197920000Y-129950000D01*
X195650000Y-127680000D02*
X195640000Y-127680000D01*
X197920000Y-129950000D02*
X195650000Y-127680000D01*
%TO.N,Net-(LCD1-Pad15)*%
X141675000Y-61975000D02*
X140425000Y-60725000D01*
X137575000Y-60725000D02*
X136335000Y-61965000D01*
X140425000Y-60725000D02*
X137575000Y-60725000D01*
D31*
%TO.N,/memory/~CIAEXT*%
X169080000Y-53760000D02*
X167808034Y-55031966D01*
X165850160Y-98715896D02*
X166946541Y-99812277D01*
X166946541Y-148097059D02*
X166300000Y-148743600D01*
X167808034Y-55031966D02*
X167808034Y-64513811D01*
X165850160Y-66471685D02*
X165850160Y-98715896D01*
X167808034Y-64513811D02*
X165850160Y-66471685D01*
X166946541Y-99812277D02*
X166946541Y-148097059D01*
%TD*%
M02*
