%TF.GenerationSoftware,KiCad,Pcbnew,(5.99.0-7833-g0d57f90982)*%
%TF.CreationDate,2021-09-05T20:23:01+02:00*%
%TF.ProjectId,sbc6526,73626336-3532-4362-9e6b-696361645f70,rev?*%
%TF.SameCoordinates,Original*%
%TF.FileFunction,Soldermask,Top*%
%TF.FilePolarity,Negative*%
%FSLAX46Y46*%
G04 Gerber Fmt 4.6, Leading zero omitted, Abs format (unit mm)*
G04 Created by KiCad (PCBNEW (5.99.0-7833-g0d57f90982)) date 2021-09-05 20:23:01*
%MOMM*%
%LPD*%
G01*
G04 APERTURE LIST*
G04 Aperture macros list*
%AMRoundRect*
0 Rectangle with rounded corners*
0 $1 Rounding radius*
0 $2 $3 $4 $5 $6 $7 $8 $9 X,Y pos of 4 corners*
0 Add a 4 corners polygon primitive as box body*
4,1,4,$2,$3,$4,$5,$6,$7,$8,$9,$2,$3,0*
0 Add four circle primitives for the rounded corners*
1,1,$1+$1,$2,$3,0*
1,1,$1+$1,$4,$5,0*
1,1,$1+$1,$6,$7,0*
1,1,$1+$1,$8,$9,0*
0 Add four rect primitives between the rounded corners*
20,1,$1+$1,$2,$3,$4,$5,0*
20,1,$1+$1,$4,$5,$6,$7,0*
20,1,$1+$1,$6,$7,$8,$9,0*
20,1,$1+$1,$8,$9,$2,$3,0*%
G04 Aperture macros list end*
%ADD10RoundRect,0.250000X0.475000X-0.337500X0.475000X0.337500X-0.475000X0.337500X-0.475000X-0.337500X0*%
%ADD11RoundRect,0.250000X-0.337500X-0.475000X0.337500X-0.475000X0.337500X0.475000X-0.337500X0.475000X0*%
%ADD12RoundRect,0.250000X0.337500X0.475000X-0.337500X0.475000X-0.337500X-0.475000X0.337500X-0.475000X0*%
%ADD13C,1.440000*%
%ADD14RoundRect,0.249999X-0.350001X-0.450001X0.350001X-0.450001X0.350001X0.450001X-0.350001X0.450001X0*%
%ADD15RoundRect,0.249999X0.350001X0.450001X-0.350001X0.450001X-0.350001X-0.450001X0.350001X-0.450001X0*%
%ADD16RoundRect,0.150000X-0.150000X0.700000X-0.150000X-0.700000X0.150000X-0.700000X0.150000X0.700000X0*%
%ADD17RoundRect,0.150000X0.150000X-0.825000X0.150000X0.825000X-0.150000X0.825000X-0.150000X-0.825000X0*%
%ADD18RoundRect,0.150000X-0.150000X0.825000X-0.150000X-0.825000X0.150000X-0.825000X0.150000X0.825000X0*%
%ADD19R,1.600000X1.600000*%
%ADD20O,1.600000X1.600000*%
%ADD21C,1.600000*%
%ADD22C,1.524000*%
%ADD23R,1.700000X1.700000*%
%ADD24O,1.700000X1.700000*%
%ADD25C,1.400000*%
%ADD26O,1.400000X1.400000*%
%ADD27C,1.700000*%
%ADD28C,3.400000*%
G04 APERTURE END LIST*
D10*
%TO.C,C4*%
X166200000Y-137100000D03*
X166200000Y-135025000D03*
%TD*%
%TO.C,C7*%
X176600000Y-126100000D03*
X176600000Y-124025000D03*
%TD*%
D11*
%TO.C,C8*%
X177472500Y-110885000D03*
X179547500Y-110885000D03*
%TD*%
D10*
%TO.C,C9*%
X154100000Y-147000000D03*
X154100000Y-144925000D03*
%TD*%
D12*
%TO.C,C12*%
X184500000Y-110875000D03*
X182425000Y-110875000D03*
%TD*%
D13*
%TO.C,P2*%
X185900000Y-54000000D03*
X183360000Y-54000000D03*
X180820000Y-54000000D03*
%TD*%
D14*
%TO.C,R12*%
X177500000Y-113515000D03*
X179500000Y-113515000D03*
%TD*%
%TO.C,R13*%
X182425000Y-113525000D03*
X184425000Y-113525000D03*
%TD*%
D15*
%TO.C,R14*%
X184450000Y-107950000D03*
X182450000Y-107950000D03*
%TD*%
D16*
%TO.C,U4*%
X162695000Y-127700000D03*
X161425000Y-127700000D03*
X160155000Y-127700000D03*
X158885000Y-127700000D03*
X157615000Y-127700000D03*
X156345000Y-127700000D03*
X155075000Y-127700000D03*
X153805000Y-127700000D03*
X152535000Y-127700000D03*
X151265000Y-127700000D03*
X149995000Y-127700000D03*
X148725000Y-127700000D03*
X147455000Y-127700000D03*
X146185000Y-127700000D03*
X144915000Y-127700000D03*
X143645000Y-127700000D03*
X143645000Y-137100000D03*
X144915000Y-137100000D03*
X146185000Y-137100000D03*
X147455000Y-137100000D03*
X148725000Y-137100000D03*
X149995000Y-137100000D03*
X151265000Y-137100000D03*
X152535000Y-137100000D03*
X153805000Y-137100000D03*
X155075000Y-137100000D03*
X156345000Y-137100000D03*
X157615000Y-137100000D03*
X158885000Y-137100000D03*
X160155000Y-137100000D03*
X161425000Y-137100000D03*
X162695000Y-137100000D03*
%TD*%
D17*
%TO.C,U6*%
X177855000Y-98975000D03*
X179125000Y-98975000D03*
X180395000Y-98975000D03*
X181665000Y-98975000D03*
X182935000Y-98975000D03*
X184205000Y-98975000D03*
X185475000Y-98975000D03*
X186745000Y-98975000D03*
X186745000Y-94025000D03*
X185475000Y-94025000D03*
X184205000Y-94025000D03*
X182935000Y-94025000D03*
X181665000Y-94025000D03*
X180395000Y-94025000D03*
X179125000Y-94025000D03*
X177855000Y-94025000D03*
%TD*%
D18*
%TO.C,U10*%
X165445000Y-142025000D03*
X164175000Y-142025000D03*
X162905000Y-142025000D03*
X161635000Y-142025000D03*
X160365000Y-142025000D03*
X159095000Y-142025000D03*
X157825000Y-142025000D03*
X156555000Y-142025000D03*
X156555000Y-146975000D03*
X157825000Y-146975000D03*
X159095000Y-146975000D03*
X160365000Y-146975000D03*
X161635000Y-146975000D03*
X162905000Y-146975000D03*
X164175000Y-146975000D03*
X165445000Y-146975000D03*
%TD*%
D19*
%TO.C,NANO1*%
X159500000Y-83200000D03*
D20*
X162040000Y-83200000D03*
X164580000Y-83200000D03*
X167120000Y-83200000D03*
X169660000Y-83200000D03*
X172200000Y-83200000D03*
X174740000Y-83200000D03*
X177280000Y-83200000D03*
X179820000Y-83200000D03*
X182360000Y-83200000D03*
X184900000Y-83200000D03*
X187440000Y-83200000D03*
X189980000Y-83200000D03*
X192520000Y-83200000D03*
X195060000Y-83200000D03*
X195060000Y-67960000D03*
X192520000Y-67960000D03*
X189980000Y-67960000D03*
X187440000Y-67960000D03*
X184900000Y-67960000D03*
X182360000Y-67960000D03*
X179820000Y-67960000D03*
X177280000Y-67960000D03*
X174740000Y-67960000D03*
X172200000Y-67960000D03*
X169660000Y-67960000D03*
X167120000Y-67960000D03*
X164580000Y-67960000D03*
X162040000Y-67960000D03*
X159500000Y-67960000D03*
%TD*%
D19*
%TO.C,U11*%
X140843000Y-72300000D03*
D20*
X138303000Y-72300000D03*
X135763000Y-72300000D03*
X133223000Y-72300000D03*
X130683000Y-72300000D03*
X128143000Y-72300000D03*
X125603000Y-72300000D03*
X123063000Y-72300000D03*
X120523000Y-72300000D03*
X117983000Y-72300000D03*
X117983000Y-79920000D03*
X120523000Y-79920000D03*
X123063000Y-79920000D03*
X125603000Y-79920000D03*
X128143000Y-79920000D03*
X130683000Y-79920000D03*
X133223000Y-79920000D03*
X135763000Y-79920000D03*
X138303000Y-79920000D03*
X140843000Y-79920000D03*
%TD*%
D18*
%TO.C,U9*%
X151545000Y-142025000D03*
X150275000Y-142025000D03*
X149005000Y-142025000D03*
X147735000Y-142025000D03*
X146465000Y-142025000D03*
X145195000Y-142025000D03*
X143925000Y-142025000D03*
X142655000Y-142025000D03*
X142655000Y-146975000D03*
X143925000Y-146975000D03*
X145195000Y-146975000D03*
X146465000Y-146975000D03*
X147735000Y-146975000D03*
X149005000Y-146975000D03*
X150275000Y-146975000D03*
X151545000Y-146975000D03*
%TD*%
%TO.C,U7*%
X173950000Y-121145000D03*
X172680000Y-121145000D03*
X171410000Y-121145000D03*
X170140000Y-121145000D03*
X168870000Y-121145000D03*
X167600000Y-121145000D03*
X166330000Y-121145000D03*
X166330000Y-126095000D03*
X167600000Y-126095000D03*
X168870000Y-126095000D03*
X170140000Y-126095000D03*
X171410000Y-126095000D03*
X172680000Y-126095000D03*
X173950000Y-126095000D03*
%TD*%
%TO.C,U8*%
X173850000Y-108235000D03*
X172580000Y-108235000D03*
X171310000Y-108235000D03*
X170040000Y-108235000D03*
X168770000Y-108235000D03*
X167500000Y-108235000D03*
X166230000Y-108235000D03*
X166230000Y-113185000D03*
X167500000Y-113185000D03*
X168770000Y-113185000D03*
X170040000Y-113185000D03*
X171310000Y-113185000D03*
X172580000Y-113185000D03*
X173850000Y-113185000D03*
%TD*%
D13*
%TO.C,P1*%
X175133000Y-134112000D03*
X175133000Y-136652000D03*
X175133000Y-139192000D03*
%TD*%
D19*
%TO.C,C14*%
X196000000Y-92000000D03*
D21*
X193500000Y-92000000D03*
%TD*%
D19*
%TO.C,U3*%
X110325000Y-121690000D03*
D20*
X112865000Y-121690000D03*
X115405000Y-121690000D03*
X117945000Y-121690000D03*
X120485000Y-121690000D03*
X123025000Y-121690000D03*
X125565000Y-121690000D03*
X128105000Y-121690000D03*
X130645000Y-121690000D03*
X133185000Y-121690000D03*
X135725000Y-121690000D03*
X138265000Y-121690000D03*
X140805000Y-121690000D03*
X143345000Y-121690000D03*
X145885000Y-121690000D03*
X148425000Y-121690000D03*
X150965000Y-121690000D03*
X153505000Y-121690000D03*
X156045000Y-121690000D03*
X158585000Y-121690000D03*
X158585000Y-106450000D03*
X156045000Y-106450000D03*
X153505000Y-106450000D03*
X150965000Y-106450000D03*
X148425000Y-106450000D03*
X145885000Y-106450000D03*
X143345000Y-106450000D03*
X140805000Y-106450000D03*
X138265000Y-106450000D03*
X135725000Y-106450000D03*
X133185000Y-106450000D03*
X130645000Y-106450000D03*
X128105000Y-106450000D03*
X125565000Y-106450000D03*
X123025000Y-106450000D03*
X120485000Y-106450000D03*
X117945000Y-106450000D03*
X115405000Y-106450000D03*
X112865000Y-106450000D03*
X110325000Y-106450000D03*
%TD*%
D22*
%TO.C,LED1*%
X105570000Y-141440000D03*
X108110000Y-141440000D03*
X110650000Y-141440000D03*
X113190000Y-141440000D03*
X115730000Y-141440000D03*
X105570000Y-131280000D03*
X108110000Y-131280000D03*
X110650000Y-131280000D03*
X113190000Y-131280000D03*
X115730000Y-131280000D03*
X118270000Y-131280000D03*
%TD*%
D23*
%TO.C,J1*%
X106800000Y-53700000D03*
D24*
X106800000Y-56240000D03*
X109340000Y-53700000D03*
X109340000Y-56240000D03*
X111880000Y-53700000D03*
X111880000Y-56240000D03*
X114420000Y-53700000D03*
X114420000Y-56240000D03*
X116960000Y-53700000D03*
X116960000Y-56240000D03*
%TD*%
D10*
%TO.C,C10*%
X168500000Y-146975000D03*
X168500000Y-144900000D03*
%TD*%
D25*
%TO.C,Y1*%
X137300000Y-131600000D03*
D26*
X137300000Y-136680000D03*
%TD*%
D19*
%TO.C,PIC1*%
X125200000Y-126300000D03*
D20*
X125200000Y-128840000D03*
X125200000Y-131380000D03*
X125200000Y-133920000D03*
X125200000Y-136460000D03*
X125200000Y-139000000D03*
X125200000Y-141540000D03*
X125200000Y-144080000D03*
X125200000Y-146620000D03*
X132820000Y-146620000D03*
X132820000Y-144080000D03*
X132820000Y-141540000D03*
X132820000Y-139000000D03*
X132820000Y-136460000D03*
X132820000Y-133920000D03*
X132820000Y-131380000D03*
X132820000Y-128840000D03*
X132820000Y-126300000D03*
%TD*%
D11*
%TO.C,C13*%
X177462500Y-107950000D03*
X179537500Y-107950000D03*
%TD*%
D23*
%TO.C,EXT6526*%
X125900000Y-56300000D03*
D24*
X125900000Y-53760000D03*
X128440000Y-56300000D03*
X128440000Y-53760000D03*
X130980000Y-56300000D03*
X130980000Y-53760000D03*
X133520000Y-56300000D03*
X133520000Y-53760000D03*
X136060000Y-56300000D03*
X136060000Y-53760000D03*
X138600000Y-56300000D03*
X138600000Y-53760000D03*
X141140000Y-56300000D03*
X141140000Y-53760000D03*
X143680000Y-56300000D03*
X143680000Y-53760000D03*
X146220000Y-56300000D03*
X146220000Y-53760000D03*
X148760000Y-56300000D03*
X148760000Y-53760000D03*
X151300000Y-56300000D03*
X151300000Y-53760000D03*
X153840000Y-56300000D03*
X153840000Y-53760000D03*
X156380000Y-56300000D03*
X156380000Y-53760000D03*
X158920000Y-56300000D03*
X158920000Y-53760000D03*
X161460000Y-56300000D03*
X161460000Y-53760000D03*
X164000000Y-56300000D03*
X164000000Y-53760000D03*
X166540000Y-56300000D03*
X166540000Y-53760000D03*
X169080000Y-56300000D03*
X169080000Y-53760000D03*
X171620000Y-56300000D03*
X171620000Y-53760000D03*
X174160000Y-56300000D03*
X174160000Y-53760000D03*
%TD*%
D19*
%TO.C,U2*%
X102700000Y-101700000D03*
D20*
X105240000Y-101700000D03*
X107780000Y-101700000D03*
X110320000Y-101700000D03*
X112860000Y-101700000D03*
X115400000Y-101700000D03*
X117940000Y-101700000D03*
X120480000Y-101700000D03*
X123020000Y-101700000D03*
X125560000Y-101700000D03*
X128100000Y-101700000D03*
X130640000Y-101700000D03*
X133180000Y-101700000D03*
X135720000Y-101700000D03*
X138260000Y-101700000D03*
X140800000Y-101700000D03*
X143340000Y-101700000D03*
X145880000Y-101700000D03*
X148420000Y-101700000D03*
X150960000Y-101700000D03*
X150960000Y-86460000D03*
X148420000Y-86460000D03*
X145880000Y-86460000D03*
X143340000Y-86460000D03*
X140800000Y-86460000D03*
X138260000Y-86460000D03*
X135720000Y-86460000D03*
X133180000Y-86460000D03*
X130640000Y-86460000D03*
X128100000Y-86460000D03*
X125560000Y-86460000D03*
X123020000Y-86460000D03*
X120480000Y-86460000D03*
X117940000Y-86460000D03*
X115400000Y-86460000D03*
X112860000Y-86460000D03*
X110320000Y-86460000D03*
X107780000Y-86460000D03*
X105240000Y-86460000D03*
X102700000Y-86460000D03*
%TD*%
D27*
%TO.C,SW1*%
X181420000Y-125490000D03*
X187920000Y-125490000D03*
X181420000Y-129990000D03*
X187920000Y-129990000D03*
%TD*%
%TO.C,SW2*%
X181440000Y-134050000D03*
X187940000Y-134050000D03*
X181440000Y-138550000D03*
X187940000Y-138550000D03*
%TD*%
%TO.C,SW3*%
X191400000Y-133970000D03*
X197900000Y-133970000D03*
X191400000Y-138470000D03*
X197900000Y-138470000D03*
%TD*%
%TO.C,SW4*%
X191420000Y-125450000D03*
X197920000Y-125450000D03*
X191420000Y-129950000D03*
X197920000Y-129950000D03*
%TD*%
%TO.C,SW5*%
X197600000Y-56800000D03*
X191100000Y-56800000D03*
X197600000Y-52300000D03*
X191100000Y-52300000D03*
%TD*%
D28*
%TO.C,LCD1*%
X103425000Y-116925000D03*
X196425000Y-116925000D03*
X196425000Y-61925000D03*
X103425000Y-61925000D03*
D22*
X110935000Y-61965000D03*
X113475000Y-61965000D03*
X116015000Y-61965000D03*
X118555000Y-61965000D03*
X121095000Y-61965000D03*
X123635000Y-61965000D03*
X126175000Y-61965000D03*
X128715000Y-61965000D03*
X131255000Y-61965000D03*
X133795000Y-61965000D03*
X136335000Y-61965000D03*
X138875000Y-61965000D03*
%TD*%
D19*
%TO.C,U1*%
X102700000Y-83850000D03*
D20*
X105240000Y-83850000D03*
X107780000Y-83850000D03*
X110320000Y-83850000D03*
X112860000Y-83850000D03*
X115400000Y-83850000D03*
X117940000Y-83850000D03*
X120480000Y-83850000D03*
X123020000Y-83850000D03*
X125560000Y-83850000D03*
X128100000Y-83850000D03*
X130640000Y-83850000D03*
X133180000Y-83850000D03*
X135720000Y-83850000D03*
X138260000Y-83850000D03*
X140800000Y-83850000D03*
X143340000Y-83850000D03*
X145880000Y-83850000D03*
X148420000Y-83850000D03*
X150960000Y-83850000D03*
X150960000Y-68610000D03*
X148420000Y-68610000D03*
X145880000Y-68610000D03*
X143340000Y-68610000D03*
X140800000Y-68610000D03*
X138260000Y-68610000D03*
X135720000Y-68610000D03*
X133180000Y-68610000D03*
X130640000Y-68610000D03*
X128100000Y-68610000D03*
X125560000Y-68610000D03*
X123020000Y-68610000D03*
X120480000Y-68610000D03*
X117940000Y-68610000D03*
X115400000Y-68610000D03*
X112860000Y-68610000D03*
X110320000Y-68610000D03*
X107780000Y-68610000D03*
X105240000Y-68610000D03*
X102700000Y-68610000D03*
%TD*%
D17*
%TO.C,U5*%
X164955000Y-99075000D03*
X166225000Y-99075000D03*
X167495000Y-99075000D03*
X168765000Y-99075000D03*
X170035000Y-99075000D03*
X171305000Y-99075000D03*
X172575000Y-99075000D03*
X173845000Y-99075000D03*
X173845000Y-94125000D03*
X172575000Y-94125000D03*
X171305000Y-94125000D03*
X170035000Y-94125000D03*
X168765000Y-94125000D03*
X167495000Y-94125000D03*
X166225000Y-94125000D03*
X164955000Y-94125000D03*
%TD*%
D28*
%TO.C,*%
X196425000Y-146050000D03*
%TD*%
%TO.C,*%
X103425000Y-146050000D03*
%TD*%
M02*
