M48
; DRILL file {KiCad (5.1.7)-1} date 12/26/20 11:56:26
; FORMAT={-:-/ absolute / inch / decimal}
; #@! TF.CreationDate,2020-12-26T11:56:26+01:00
; #@! TF.GenerationSoftware,Kicad,Pcbnew,(5.1.7)-1
FMAT,2
INCH
T1C0.0130
T2C0.0276
T3C0.0300
T4C0.0315
T5C0.0394
T6C0.1181
T7C0.1142
%
G90
G05
T1
X4.4439Y-4.5187
X4.86Y-4.26
X4.8945Y-4.08
X4.8972Y-3.557
X4.8972Y-3.597
X4.9518Y-4.6427
X5.0423Y-4.498
X5.5059Y-5.2825
X5.6033Y-2.9518
X5.6053Y-3.0335
X5.6171Y-5.6555
X5.6555Y-5.0886
X5.7172Y-5.497
X5.7175Y-2.44
X5.79Y-4.239
X5.9064Y-5.4709
X5.9163Y-5.8553
X5.9665Y-5.6594
X6.0069Y-3.7982
X6.0069Y-3.8789
X6.0089Y-2.8789
X6.0089Y-3.0797
X6.0089Y-3.1624
X6.0138Y-5.7067
X6.0669Y-5.8435
X6.1644Y-5.6545
X6.2Y-4.59
X6.3021Y-5.337
X6.3387Y-4.1237
X6.3553Y-5.0906
X6.364Y-5.705
X6.4272Y-5.717
X6.4372Y-3.987
X6.4941Y-3.6299
X6.4972Y-3.987
X6.5423Y-5.2579
X6.5443Y-5.4596
X6.5472Y-3.987
X6.5472Y-4.337
X6.5472Y-4.697
X6.5472Y-5.856
X6.5972Y-3.987
X6.5972Y-4.527
X6.6339Y-5.6457
X6.6339Y-5.8474
X6.6448Y-3.8323
X6.6472Y-3.987
X6.6472Y-4.187
X6.6472Y-5.037
X6.6972Y-3.987
X6.6972Y-4.527
X6.6972Y-4.697
X6.7472Y-3.987
X6.7953Y-3.6289
X6.7972Y-3.987
X6.7972Y-4.697
X6.7972Y-5.037
X6.8445Y-3.8406
X6.8472Y-4.697
X6.8553Y-2.3927
X6.937Y-2.3888
X6.9522Y-3.7027
X6.9537Y-4.8278
X6.9537Y-5.0187
X6.9572Y-3.987
X6.9882Y-4.3071
X7.0072Y-3.987
X7.0572Y-3.987
X7.1072Y-3.987
X7.1275Y-4.3056
X7.1496Y-5.0315
X7.1496Y-5.3691
X7.1572Y-3.987
X7.2072Y-3.987
X7.2572Y-3.987
X7.3022Y-3.628
X7.3072Y-3.987
X7.3209Y-4.3652
X7.3524Y-3.8248
X7.5413Y-5.0295
X7.5423Y-5.3632
T2
X5.4055Y-5.1811
X5.4055Y-5.3811
T3
X4.3675Y-2.4396
X4.4675Y-2.4396
X4.5675Y-2.4396
X4.6675Y-2.4396
X4.7675Y-2.4396
X4.8675Y-2.4396
X4.9675Y-2.4396
X5.0675Y-2.4396
X5.1675Y-2.4396
X5.2675Y-2.4396
X5.3675Y-2.4396
X5.4675Y-2.4396
X4.1563Y-5.1685
X4.1563Y-5.5685
X4.2563Y-5.1685
X4.2563Y-5.5685
X4.3563Y-5.1685
X4.3563Y-5.5685
X4.4563Y-5.1685
X4.4563Y-5.5685
X4.5563Y-5.1685
X4.5563Y-5.5685
X4.6563Y-5.1685
T4
X6.895Y-5.28
X6.895Y-5.38
X6.895Y-5.48
X4.0433Y-3.4039
X4.0433Y-4.0039
X4.1433Y-3.4039
X4.1433Y-4.0039
X4.2433Y-3.4039
X4.2433Y-4.0039
X4.3433Y-3.4039
X4.3433Y-4.0039
X4.4433Y-3.4039
X4.4433Y-4.0039
X4.5433Y-3.4039
X4.5433Y-4.0039
X4.6433Y-3.4039
X4.6433Y-4.0039
X4.7433Y-3.4039
X4.7433Y-4.0039
X4.8433Y-3.4039
X4.8433Y-4.0039
X4.9433Y-3.4039
X4.9433Y-4.0039
X5.0433Y-3.4039
X5.0433Y-4.0039
X5.1433Y-3.4039
X5.1433Y-4.0039
X5.2433Y-3.4039
X5.2433Y-4.0039
X5.3433Y-3.4039
X5.3433Y-4.0039
X5.4433Y-3.4039
X5.4433Y-4.0039
X5.5433Y-3.4039
X5.5433Y-4.0039
X5.6433Y-3.4039
X5.6433Y-4.0039
X5.7433Y-3.4039
X5.7433Y-4.0039
X5.8433Y-3.4039
X5.8433Y-4.0039
X5.9433Y-3.4039
X5.9433Y-4.0039
X4.645Y-2.8465
X4.645Y-3.1465
X4.745Y-2.8465
X4.745Y-3.1465
X4.845Y-2.8465
X4.845Y-3.1465
X4.945Y-2.8465
X4.945Y-3.1465
X5.045Y-2.8465
X5.045Y-3.1465
X5.145Y-2.8465
X5.145Y-3.1465
X5.245Y-2.8465
X5.245Y-3.1465
X5.345Y-2.8465
X5.345Y-3.1465
X5.445Y-2.8465
X5.445Y-3.1465
X5.545Y-2.8465
X5.545Y-3.1465
X4.3435Y-4.1909
X4.3435Y-4.7909
X4.4435Y-4.1909
X4.4435Y-4.7909
X4.5435Y-4.1909
X4.5435Y-4.7909
X4.6435Y-4.1909
X4.6435Y-4.7909
X4.7435Y-4.1909
X4.7435Y-4.7909
X4.8435Y-4.1909
X4.8435Y-4.7909
X4.9435Y-4.1909
X4.9435Y-4.7909
X5.0435Y-4.1909
X5.0435Y-4.7909
X5.1435Y-4.1909
X5.1435Y-4.7909
X5.2435Y-4.1909
X5.2435Y-4.7909
X5.3435Y-4.1909
X5.3435Y-4.7909
X5.4435Y-4.1909
X5.4435Y-4.7909
X5.5435Y-4.1909
X5.5435Y-4.7909
X5.6435Y-4.1909
X5.6435Y-4.7909
X5.7435Y-4.1909
X5.7435Y-4.7909
X5.8435Y-4.1909
X5.8435Y-4.7909
X5.9435Y-4.1909
X5.9435Y-4.7909
X6.0435Y-4.1909
X6.0435Y-4.7909
X6.1435Y-4.1909
X6.1435Y-4.7909
X6.2435Y-4.1909
X6.2435Y-4.7909
X4.0433Y-2.7012
X4.0433Y-3.3012
X4.1433Y-2.7012
X4.1433Y-3.3012
X4.2433Y-2.7012
X4.2433Y-3.3012
X4.3433Y-2.7012
X4.3433Y-3.3012
X4.4433Y-2.7012
X4.4433Y-3.3012
X4.5433Y-2.7012
X4.5433Y-3.3012
X4.6433Y-2.7012
X4.6433Y-3.3012
X4.7433Y-2.7012
X4.7433Y-3.3012
X4.8433Y-2.7012
X4.8433Y-3.3012
X4.9433Y-2.7012
X4.9433Y-3.3012
X5.0433Y-2.7012
X5.0433Y-3.3012
X5.1433Y-2.7012
X5.1433Y-3.3012
X5.2433Y-2.7012
X5.2433Y-3.3012
X5.3433Y-2.7012
X5.3433Y-3.3012
X5.4433Y-2.7012
X5.4433Y-3.3012
X5.5433Y-2.7012
X5.5433Y-3.3012
X5.6433Y-2.7012
X5.6433Y-3.3012
X5.7433Y-2.7012
X5.7433Y-3.3012
X5.8433Y-2.7012
X5.8433Y-3.3012
X5.9433Y-2.7012
X5.9433Y-3.3012
X4.9291Y-4.9724
X4.9291Y-5.0724
X4.9291Y-5.1724
X4.9291Y-5.2724
X4.9291Y-5.3724
X4.9291Y-5.4724
X4.9291Y-5.5724
X4.9291Y-5.6724
X4.9291Y-5.7724
X5.2291Y-4.9724
X5.2291Y-5.0724
X5.2291Y-5.1724
X5.2291Y-5.2724
X5.2291Y-5.3724
X5.2291Y-5.4724
X5.2291Y-5.5724
X5.2291Y-5.6724
X5.2291Y-5.7724
X7.1189Y-2.126
X7.2189Y-2.126
X7.3189Y-2.126
X7.6181Y-3.622
X7.7165Y-3.622
T5
X4.2047Y-2.1142
X4.2047Y-2.2142
X4.3047Y-2.1142
X4.3047Y-2.2142
X4.4047Y-2.1142
X4.4047Y-2.2142
X4.5047Y-2.1142
X4.5047Y-2.2142
X4.6047Y-2.1142
X4.6047Y-2.2142
X7.5236Y-2.0591
X7.5236Y-2.2362
X7.7795Y-2.0591
X7.7795Y-2.2362
X7.5354Y-5.2744
X7.5354Y-5.4516
X7.7913Y-5.2744
X7.7913Y-5.4516
X4.9567Y-2.1165
X4.9567Y-2.2165
X5.0567Y-2.1165
X5.0567Y-2.2165
X5.1567Y-2.1165
X5.1567Y-2.2165
X5.2567Y-2.1165
X5.2567Y-2.2165
X5.3567Y-2.1165
X5.3567Y-2.2165
X5.4567Y-2.1165
X5.4567Y-2.2165
X5.5567Y-2.1165
X5.5567Y-2.2165
X5.6567Y-2.1165
X5.6567Y-2.2165
X5.7567Y-2.1165
X5.7567Y-2.2165
X5.8567Y-2.1165
X5.8567Y-2.2165
X5.9567Y-2.1165
X5.9567Y-2.2165
X6.0567Y-2.1165
X6.0567Y-2.2165
X6.1567Y-2.1165
X6.1567Y-2.2165
X6.2567Y-2.1165
X6.2567Y-2.2165
X6.3567Y-2.1165
X6.3567Y-2.2165
X6.4567Y-2.1165
X6.4567Y-2.2165
X6.5567Y-2.1165
X6.5567Y-2.2165
X6.6567Y-2.1165
X6.6567Y-2.2165
X6.7567Y-2.1165
X6.7567Y-2.2165
X6.8567Y-2.1165
X6.8567Y-2.2165
X7.1425Y-4.9406
X7.1425Y-5.1177
X7.3984Y-4.9406
X7.3984Y-5.1177
X7.5362Y-4.939
X7.5362Y-5.1161
X7.7921Y-4.939
X7.7921Y-5.1161
X6.2795Y-2.6756
X6.2795Y-3.2756
X6.3795Y-2.6756
X6.3795Y-3.2756
X6.4795Y-2.6756
X6.4795Y-3.2756
X6.5795Y-2.6756
X6.5795Y-3.2756
X6.6795Y-2.6756
X6.6795Y-3.2756
X6.7795Y-2.6756
X6.7795Y-3.2756
X6.8795Y-2.6756
X6.8795Y-3.2756
X6.9795Y-2.6756
X6.9795Y-3.2756
X7.0795Y-2.6756
X7.0795Y-3.2756
X7.1795Y-2.6756
X7.1795Y-3.2756
X7.2795Y-2.6756
X7.2795Y-3.2756
X7.3795Y-2.6756
X7.3795Y-3.2756
X7.4795Y-2.6756
X7.4795Y-3.2756
X7.5795Y-2.6756
X7.5795Y-3.2756
X7.6795Y-2.6756
X7.6795Y-3.2756
X7.1433Y-5.2776
X7.1433Y-5.4547
X7.3992Y-5.2776
X7.3992Y-5.4547
T6
X4.07Y-5.75
X7.73Y-5.76
T7
X4.0719Y-2.438
X4.0719Y-4.6033
X7.7333Y-2.438
X7.7333Y-4.6033
T0
M30
