%TF.GenerationSoftware,KiCad,Pcbnew,(5.1.7)-1*%
%TF.CreationDate,2020-12-26T11:55:58+01:00*%
%TF.ProjectId,sbc6526,73626336-3532-4362-9e6b-696361645f70,rev?*%
%TF.SameCoordinates,Original*%
%TF.FileFunction,Copper,L1,Top*%
%TF.FilePolarity,Positive*%
%FSLAX46Y46*%
G04 Gerber Fmt 4.6, Leading zero omitted, Abs format (unit mm)*
G04 Created by KiCad (PCBNEW (5.1.7)-1) date 2020-12-26 11:55:58*
%MOMM*%
%LPD*%
G01*
G04 APERTURE LIST*
%TA.AperFunction,ComponentPad*%
%ADD10O,1.600000X1.600000*%
%TD*%
%TA.AperFunction,ComponentPad*%
%ADD11R,1.600000X1.600000*%
%TD*%
%TA.AperFunction,WasherPad*%
%ADD12C,3.400000*%
%TD*%
%TA.AperFunction,ComponentPad*%
%ADD13C,1.524000*%
%TD*%
%TA.AperFunction,ComponentPad*%
%ADD14O,1.700000X1.700000*%
%TD*%
%TA.AperFunction,ComponentPad*%
%ADD15R,1.700000X1.700000*%
%TD*%
%TA.AperFunction,ComponentPad*%
%ADD16C,1.440000*%
%TD*%
%TA.AperFunction,ComponentPad*%
%ADD17C,1.600000*%
%TD*%
%TA.AperFunction,ComponentPad*%
%ADD18O,1.400000X1.400000*%
%TD*%
%TA.AperFunction,ComponentPad*%
%ADD19C,1.400000*%
%TD*%
%TA.AperFunction,ComponentPad*%
%ADD20C,1.700000*%
%TD*%
%TA.AperFunction,ViaPad*%
%ADD21C,4.000000*%
%TD*%
%TA.AperFunction,ViaPad*%
%ADD22C,0.685800*%
%TD*%
%TA.AperFunction,Conductor*%
%ADD23C,0.254000*%
%TD*%
%TA.AperFunction,Conductor*%
%ADD24C,0.127000*%
%TD*%
G04 APERTURE END LIST*
D10*
%TO.P,U3,40*%
%TO.N,/~RES*%
X110325000Y-106450000D03*
%TO.P,U3,20*%
%TO.N,/bootstrap/A11*%
X158585000Y-121690000D03*
%TO.P,U3,39*%
%TO.N,Net-(U3-Pad39)*%
X112865000Y-106450000D03*
%TO.P,U3,19*%
%TO.N,/bootstrap/A10*%
X156045000Y-121690000D03*
%TO.P,U3,38*%
%TO.N,VCC*%
X115405000Y-106450000D03*
%TO.P,U3,18*%
%TO.N,/bootstrap/A9*%
X153505000Y-121690000D03*
%TO.P,U3,37*%
%TO.N,/PHI2*%
X117945000Y-106450000D03*
%TO.P,U3,17*%
%TO.N,/bootstrap/A8*%
X150965000Y-121690000D03*
%TO.P,U3,36*%
%TO.N,/bootstrap/BE*%
X120485000Y-106450000D03*
%TO.P,U3,16*%
%TO.N,/bootstrap/A7*%
X148425000Y-121690000D03*
%TO.P,U3,35*%
%TO.N,Net-(U3-Pad35)*%
X123025000Y-106450000D03*
%TO.P,U3,15*%
%TO.N,/bootstrap/A6*%
X145885000Y-121690000D03*
%TO.P,U3,34*%
%TO.N,/R~W*%
X125565000Y-106450000D03*
%TO.P,U3,14*%
%TO.N,/bootstrap/A5*%
X143345000Y-121690000D03*
%TO.P,U3,33*%
%TO.N,/bootstrap/D0*%
X128105000Y-106450000D03*
%TO.P,U3,13*%
%TO.N,/bootstrap/A4*%
X140805000Y-121690000D03*
%TO.P,U3,32*%
%TO.N,/bootstrap/D1*%
X130645000Y-106450000D03*
%TO.P,U3,12*%
%TO.N,/bootstrap/A3*%
X138265000Y-121690000D03*
%TO.P,U3,31*%
%TO.N,/bootstrap/D2*%
X133185000Y-106450000D03*
%TO.P,U3,11*%
%TO.N,/bootstrap/A2*%
X135725000Y-121690000D03*
%TO.P,U3,30*%
%TO.N,/bootstrap/D3*%
X135725000Y-106450000D03*
%TO.P,U3,10*%
%TO.N,/bootstrap/A1*%
X133185000Y-121690000D03*
%TO.P,U3,29*%
%TO.N,/bootstrap/D4*%
X138265000Y-106450000D03*
%TO.P,U3,9*%
%TO.N,/bootstrap/A0*%
X130645000Y-121690000D03*
%TO.P,U3,28*%
%TO.N,/bootstrap/D5*%
X140805000Y-106450000D03*
%TO.P,U3,8*%
%TO.N,VCC*%
X128105000Y-121690000D03*
%TO.P,U3,27*%
%TO.N,/bootstrap/D6*%
X143345000Y-106450000D03*
%TO.P,U3,7*%
%TO.N,Net-(U3-Pad7)*%
X125565000Y-121690000D03*
%TO.P,U3,26*%
%TO.N,/bootstrap/D7*%
X145885000Y-106450000D03*
%TO.P,U3,6*%
%TO.N,/~VIAIRQ*%
X123025000Y-121690000D03*
%TO.P,U3,25*%
%TO.N,/bootstrap/A15*%
X148425000Y-106450000D03*
%TO.P,U3,5*%
%TO.N,Net-(U3-Pad5)*%
X120485000Y-121690000D03*
%TO.P,U3,24*%
%TO.N,/bootstrap/A14*%
X150965000Y-106450000D03*
%TO.P,U3,4*%
%TO.N,/~IRQ*%
X117945000Y-121690000D03*
%TO.P,U3,23*%
%TO.N,/bootstrap/A13*%
X153505000Y-106450000D03*
%TO.P,U3,3*%
%TO.N,Net-(U3-Pad3)*%
X115405000Y-121690000D03*
%TO.P,U3,22*%
%TO.N,/bootstrap/A12*%
X156045000Y-106450000D03*
%TO.P,U3,2*%
%TO.N,Net-(R11-Pad1)*%
X112865000Y-121690000D03*
%TO.P,U3,21*%
%TO.N,GND*%
X158585000Y-106450000D03*
D11*
%TO.P,U3,1*%
%TO.N,Net-(U3-Pad1)*%
X110325000Y-121690000D03*
%TD*%
D12*
%TO.P,LCD1,*%
%TO.N,*%
X196425000Y-61925000D03*
X196425000Y-116925000D03*
X103425000Y-116925000D03*
X103425000Y-61925000D03*
D13*
%TO.P,LCD1,16*%
%TO.N,GND*%
X138875000Y-61965000D03*
%TO.P,LCD1,15*%
%TO.N,Net-(LCD1-Pad15)*%
X136335000Y-61965000D03*
%TO.P,LCD1,14*%
%TO.N,/peripherals/LCD_D7*%
X133795000Y-61965000D03*
%TO.P,LCD1,13*%
%TO.N,/peripherals/LCD_D6*%
X131255000Y-61965000D03*
%TO.P,LCD1,12*%
%TO.N,/peripherals/LCD_D5*%
X128715000Y-61965000D03*
%TO.P,LCD1,11*%
%TO.N,/peripherals/LCD_D4*%
X126175000Y-61965000D03*
%TO.P,LCD1,6*%
%TO.N,/peripherals/LCD_E*%
X123635000Y-61965000D03*
%TO.P,LCD1,5*%
%TO.N,/peripherals/LCD_RW*%
X121095000Y-61965000D03*
%TO.P,LCD1,4*%
%TO.N,/peripherals/LCD_RS*%
X118555000Y-61965000D03*
%TO.P,LCD1,3*%
%TO.N,Net-(LCD1-Pad3)*%
X116015000Y-61965000D03*
%TO.P,LCD1,2*%
%TO.N,VCC*%
X113475000Y-61965000D03*
%TO.P,LCD1,1*%
%TO.N,GND*%
X110935000Y-61965000D03*
%TD*%
D10*
%TO.P,U2,40*%
%TO.N,Net-(U2-Pad40)*%
X102700000Y-86460000D03*
%TO.P,U2,20*%
%TO.N,VCC*%
X150960000Y-101700000D03*
%TO.P,U2,39*%
%TO.N,Net-(U2-Pad39)*%
X105240000Y-86460000D03*
%TO.P,U2,19*%
%TO.N,Net-(U2-Pad19)*%
X148420000Y-101700000D03*
%TO.P,U2,38*%
%TO.N,/bootstrap/A0*%
X107780000Y-86460000D03*
%TO.P,U2,18*%
%TO.N,Net-(U2-Pad18)*%
X145880000Y-101700000D03*
%TO.P,U2,37*%
%TO.N,/bootstrap/A1*%
X110320000Y-86460000D03*
%TO.P,U2,17*%
%TO.N,/io/VPB7*%
X143340000Y-101700000D03*
%TO.P,U2,36*%
%TO.N,/bootstrap/A2*%
X112860000Y-86460000D03*
%TO.P,U2,16*%
%TO.N,/io/VPB6*%
X140800000Y-101700000D03*
%TO.P,U2,35*%
%TO.N,/bootstrap/A3*%
X115400000Y-86460000D03*
%TO.P,U2,15*%
%TO.N,/io/VPB5*%
X138260000Y-101700000D03*
%TO.P,U2,34*%
%TO.N,/~RES*%
X117940000Y-86460000D03*
%TO.P,U2,14*%
%TO.N,/io/VPB4*%
X135720000Y-101700000D03*
%TO.P,U2,33*%
%TO.N,/bootstrap/D0*%
X120480000Y-86460000D03*
%TO.P,U2,13*%
%TO.N,Net-(U2-Pad13)*%
X133180000Y-101700000D03*
%TO.P,U2,32*%
%TO.N,/bootstrap/D1*%
X123020000Y-86460000D03*
%TO.P,U2,12*%
%TO.N,Net-(U2-Pad12)*%
X130640000Y-101700000D03*
%TO.P,U2,31*%
%TO.N,/bootstrap/D2*%
X125560000Y-86460000D03*
%TO.P,U2,11*%
%TO.N,/TOD*%
X128100000Y-101700000D03*
%TO.P,U2,30*%
%TO.N,/bootstrap/D3*%
X128100000Y-86460000D03*
%TO.P,U2,10*%
%TO.N,/TODENABLE*%
X125560000Y-101700000D03*
%TO.P,U2,29*%
%TO.N,/bootstrap/D4*%
X130640000Y-86460000D03*
%TO.P,U2,9*%
%TO.N,/peripherals/LCD_D7*%
X123020000Y-101700000D03*
%TO.P,U2,28*%
%TO.N,/bootstrap/D5*%
X133180000Y-86460000D03*
%TO.P,U2,8*%
%TO.N,/peripherals/LCD_D6*%
X120480000Y-101700000D03*
%TO.P,U2,27*%
%TO.N,/bootstrap/D6*%
X135720000Y-86460000D03*
%TO.P,U2,7*%
%TO.N,/peripherals/LCD_D5*%
X117940000Y-101700000D03*
%TO.P,U2,26*%
%TO.N,/bootstrap/D7*%
X138260000Y-86460000D03*
%TO.P,U2,6*%
%TO.N,/peripherals/LCD_D4*%
X115400000Y-101700000D03*
%TO.P,U2,25*%
%TO.N,/PHI2*%
X140800000Y-86460000D03*
%TO.P,U2,5*%
%TO.N,/peripherals/LCD_E*%
X112860000Y-101700000D03*
%TO.P,U2,24*%
%TO.N,VCC*%
X143340000Y-86460000D03*
%TO.P,U2,4*%
%TO.N,/peripherals/LCD_RW*%
X110320000Y-101700000D03*
%TO.P,U2,23*%
%TO.N,/memory/~VIA*%
X145880000Y-86460000D03*
%TO.P,U2,3*%
%TO.N,/peripherals/LCD_RS*%
X107780000Y-101700000D03*
%TO.P,U2,22*%
%TO.N,/R~W*%
X148420000Y-86460000D03*
%TO.P,U2,2*%
%TO.N,/peripherals/~CIARES*%
X105240000Y-101700000D03*
%TO.P,U2,21*%
%TO.N,/~VIAIRQ*%
X150960000Y-86460000D03*
D11*
%TO.P,U2,1*%
%TO.N,GND*%
X102700000Y-101700000D03*
%TD*%
D14*
%TO.P,EXT6526,40*%
%TO.N,/~IRQ*%
X174160000Y-53760000D03*
%TO.P,EXT6526,39*%
%TO.N,VCC*%
X174160000Y-56300000D03*
%TO.P,EXT6526,38*%
%TO.N,/R~W*%
X171620000Y-53760000D03*
%TO.P,EXT6526,37*%
%TO.N,/TOD*%
X171620000Y-56300000D03*
%TO.P,EXT6526,36*%
%TO.N,/memory/~CIAEXT*%
X169080000Y-53760000D03*
%TO.P,EXT6526,35*%
%TO.N,/peripherals/~EXTFLAG*%
X169080000Y-56300000D03*
%TO.P,EXT6526,34*%
%TO.N,/peripherals/~EXTPC*%
X166540000Y-53760000D03*
%TO.P,EXT6526,33*%
%TO.N,/io/PB7*%
X166540000Y-56300000D03*
%TO.P,EXT6526,32*%
%TO.N,/PHI2*%
X164000000Y-53760000D03*
%TO.P,EXT6526,31*%
%TO.N,/io/PB6*%
X164000000Y-56300000D03*
%TO.P,EXT6526,30*%
%TO.N,/bootstrap/D7*%
X161460000Y-53760000D03*
%TO.P,EXT6526,29*%
%TO.N,/io/PB5*%
X161460000Y-56300000D03*
%TO.P,EXT6526,28*%
%TO.N,/bootstrap/D6*%
X158920000Y-53760000D03*
%TO.P,EXT6526,27*%
%TO.N,/io/PB4*%
X158920000Y-56300000D03*
%TO.P,EXT6526,26*%
%TO.N,/bootstrap/D5*%
X156380000Y-53760000D03*
%TO.P,EXT6526,25*%
%TO.N,/io/PB3*%
X156380000Y-56300000D03*
%TO.P,EXT6526,24*%
%TO.N,/bootstrap/D4*%
X153840000Y-53760000D03*
%TO.P,EXT6526,23*%
%TO.N,/io/PB2*%
X153840000Y-56300000D03*
%TO.P,EXT6526,22*%
%TO.N,/bootstrap/D3*%
X151300000Y-53760000D03*
%TO.P,EXT6526,21*%
%TO.N,/io/PB1*%
X151300000Y-56300000D03*
%TO.P,EXT6526,20*%
%TO.N,/bootstrap/D2*%
X148760000Y-53760000D03*
%TO.P,EXT6526,19*%
%TO.N,/io/PB0*%
X148760000Y-56300000D03*
%TO.P,EXT6526,18*%
%TO.N,/bootstrap/D1*%
X146220000Y-53760000D03*
%TO.P,EXT6526,17*%
%TO.N,/peripherals/PA7*%
X146220000Y-56300000D03*
%TO.P,EXT6526,16*%
%TO.N,/bootstrap/D0*%
X143680000Y-53760000D03*
%TO.P,EXT6526,15*%
%TO.N,/peripherals/PA6*%
X143680000Y-56300000D03*
%TO.P,EXT6526,14*%
%TO.N,/peripherals/~CIARES*%
X141140000Y-53760000D03*
%TO.P,EXT6526,13*%
%TO.N,/peripherals/PA5*%
X141140000Y-56300000D03*
%TO.P,EXT6526,12*%
%TO.N,/bootstrap/A3*%
X138600000Y-53760000D03*
%TO.P,EXT6526,11*%
%TO.N,/peripherals/PA4*%
X138600000Y-56300000D03*
%TO.P,EXT6526,10*%
%TO.N,/bootstrap/A2*%
X136060000Y-53760000D03*
%TO.P,EXT6526,9*%
%TO.N,/peripherals/PA3*%
X136060000Y-56300000D03*
%TO.P,EXT6526,8*%
%TO.N,/bootstrap/A1*%
X133520000Y-53760000D03*
%TO.P,EXT6526,7*%
%TO.N,/peripherals/PA2*%
X133520000Y-56300000D03*
%TO.P,EXT6526,6*%
%TO.N,/bootstrap/A0*%
X130980000Y-53760000D03*
%TO.P,EXT6526,5*%
%TO.N,/peripherals/PA1*%
X130980000Y-56300000D03*
%TO.P,EXT6526,4*%
%TO.N,/peripherals/SERDAT*%
X128440000Y-53760000D03*
%TO.P,EXT6526,3*%
%TO.N,/peripherals/PA0*%
X128440000Y-56300000D03*
%TO.P,EXT6526,2*%
%TO.N,/peripherals/SERCLK*%
X125900000Y-53760000D03*
D15*
%TO.P,EXT6526,1*%
%TO.N,GND*%
X125900000Y-56300000D03*
%TD*%
D13*
%TO.P,LED1,11*%
%TO.N,/clockmeter/A*%
X115730000Y-131280000D03*
%TO.P,LED1,10*%
%TO.N,/clockmeter/F*%
X113190000Y-131280000D03*
%TO.P,LED1,9*%
%TO.N,/clockmeter/C2*%
X110650000Y-131280000D03*
%TO.P,LED1,8*%
%TO.N,/clockmeter/C3*%
X108110000Y-131280000D03*
%TO.P,LED1,7*%
%TO.N,/clockmeter/B*%
X105570000Y-131280000D03*
%TO.P,LED1,12*%
%TO.N,/clockmeter/C1*%
X118270000Y-131280000D03*
%TO.P,LED1,5*%
%TO.N,/clockmeter/G*%
X115730000Y-141440000D03*
%TO.P,LED1,4*%
%TO.N,/clockmeter/C*%
X113190000Y-141440000D03*
%TO.P,LED1,3*%
%TO.N,/clockmeter/DP*%
X110650000Y-141440000D03*
%TO.P,LED1,2*%
%TO.N,/clockmeter/D*%
X108110000Y-141440000D03*
%TO.P,LED1,1*%
%TO.N,/clockmeter/E*%
X105570000Y-141440000D03*
%TD*%
D16*
%TO.P,P1,3*%
%TO.N,Net-(P1-Pad3)*%
X175133000Y-139192000D03*
%TO.P,P1,2*%
%TO.N,Net-(P1-Pad2)*%
X175133000Y-136652000D03*
%TO.P,P1,1*%
%TO.N,Net-(C13-Pad1)*%
X175133000Y-134112000D03*
%TD*%
%TO.P,C12,2*%
%TO.N,Net-(C12-Pad2)*%
%TA.AperFunction,SMDPad,CuDef*%
G36*
G01*
X183012500Y-110400000D02*
X183012500Y-111350000D01*
G75*
G02*
X182762500Y-111600000I-250000J0D01*
G01*
X182087500Y-111600000D01*
G75*
G02*
X181837500Y-111350000I0J250000D01*
G01*
X181837500Y-110400000D01*
G75*
G02*
X182087500Y-110150000I250000J0D01*
G01*
X182762500Y-110150000D01*
G75*
G02*
X183012500Y-110400000I0J-250000D01*
G01*
G37*
%TD.AperFunction*%
%TO.P,C12,1*%
%TO.N,VCC*%
%TA.AperFunction,SMDPad,CuDef*%
G36*
G01*
X185087500Y-110400000D02*
X185087500Y-111350000D01*
G75*
G02*
X184837500Y-111600000I-250000J0D01*
G01*
X184162500Y-111600000D01*
G75*
G02*
X183912500Y-111350000I0J250000D01*
G01*
X183912500Y-110400000D01*
G75*
G02*
X184162500Y-110150000I250000J0D01*
G01*
X184837500Y-110150000D01*
G75*
G02*
X185087500Y-110400000I0J-250000D01*
G01*
G37*
%TD.AperFunction*%
%TD*%
%TO.P,R13,2*%
%TO.N,Net-(R13-Pad2)*%
%TA.AperFunction,SMDPad,CuDef*%
G36*
G01*
X183825000Y-113975001D02*
X183825000Y-113074999D01*
G75*
G02*
X184074999Y-112825000I249999J0D01*
G01*
X184775001Y-112825000D01*
G75*
G02*
X185025000Y-113074999I0J-249999D01*
G01*
X185025000Y-113975001D01*
G75*
G02*
X184775001Y-114225000I-249999J0D01*
G01*
X184074999Y-114225000D01*
G75*
G02*
X183825000Y-113975001I0J249999D01*
G01*
G37*
%TD.AperFunction*%
%TO.P,R13,1*%
%TO.N,Net-(C12-Pad2)*%
%TA.AperFunction,SMDPad,CuDef*%
G36*
G01*
X181825000Y-113975001D02*
X181825000Y-113074999D01*
G75*
G02*
X182074999Y-112825000I249999J0D01*
G01*
X182775001Y-112825000D01*
G75*
G02*
X183025000Y-113074999I0J-249999D01*
G01*
X183025000Y-113975001D01*
G75*
G02*
X182775001Y-114225000I-249999J0D01*
G01*
X182074999Y-114225000D01*
G75*
G02*
X181825000Y-113975001I0J249999D01*
G01*
G37*
%TD.AperFunction*%
%TD*%
%TO.P,R14,2*%
%TO.N,GND*%
%TA.AperFunction,SMDPad,CuDef*%
G36*
G01*
X183050000Y-107499999D02*
X183050000Y-108400001D01*
G75*
G02*
X182800001Y-108650000I-249999J0D01*
G01*
X182099999Y-108650000D01*
G75*
G02*
X181850000Y-108400001I0J249999D01*
G01*
X181850000Y-107499999D01*
G75*
G02*
X182099999Y-107250000I249999J0D01*
G01*
X182800001Y-107250000D01*
G75*
G02*
X183050000Y-107499999I0J-249999D01*
G01*
G37*
%TD.AperFunction*%
%TO.P,R14,1*%
%TO.N,Net-(R13-Pad2)*%
%TA.AperFunction,SMDPad,CuDef*%
G36*
G01*
X185050000Y-107499999D02*
X185050000Y-108400001D01*
G75*
G02*
X184800001Y-108650000I-249999J0D01*
G01*
X184099999Y-108650000D01*
G75*
G02*
X183850000Y-108400001I0J249999D01*
G01*
X183850000Y-107499999D01*
G75*
G02*
X184099999Y-107250000I249999J0D01*
G01*
X184800001Y-107250000D01*
G75*
G02*
X185050000Y-107499999I0J-249999D01*
G01*
G37*
%TD.AperFunction*%
%TD*%
%TO.P,R12,2*%
%TO.N,Net-(C12-Pad2)*%
%TA.AperFunction,SMDPad,CuDef*%
G36*
G01*
X178900000Y-113965001D02*
X178900000Y-113064999D01*
G75*
G02*
X179149999Y-112815000I249999J0D01*
G01*
X179850001Y-112815000D01*
G75*
G02*
X180100000Y-113064999I0J-249999D01*
G01*
X180100000Y-113965001D01*
G75*
G02*
X179850001Y-114215000I-249999J0D01*
G01*
X179149999Y-114215000D01*
G75*
G02*
X178900000Y-113965001I0J249999D01*
G01*
G37*
%TD.AperFunction*%
%TO.P,R12,1*%
%TO.N,/bootstrap/RESET*%
%TA.AperFunction,SMDPad,CuDef*%
G36*
G01*
X176900000Y-113965001D02*
X176900000Y-113064999D01*
G75*
G02*
X177149999Y-112815000I249999J0D01*
G01*
X177850001Y-112815000D01*
G75*
G02*
X178100000Y-113064999I0J-249999D01*
G01*
X178100000Y-113965001D01*
G75*
G02*
X177850001Y-114215000I-249999J0D01*
G01*
X177149999Y-114215000D01*
G75*
G02*
X176900000Y-113965001I0J249999D01*
G01*
G37*
%TD.AperFunction*%
%TD*%
%TO.P,C4,2*%
%TO.N,GND*%
%TA.AperFunction,SMDPad,CuDef*%
G36*
G01*
X166675000Y-135612500D02*
X165725000Y-135612500D01*
G75*
G02*
X165475000Y-135362500I0J250000D01*
G01*
X165475000Y-134687500D01*
G75*
G02*
X165725000Y-134437500I250000J0D01*
G01*
X166675000Y-134437500D01*
G75*
G02*
X166925000Y-134687500I0J-250000D01*
G01*
X166925000Y-135362500D01*
G75*
G02*
X166675000Y-135612500I-250000J0D01*
G01*
G37*
%TD.AperFunction*%
%TO.P,C4,1*%
%TO.N,VCC*%
%TA.AperFunction,SMDPad,CuDef*%
G36*
G01*
X166675000Y-137687500D02*
X165725000Y-137687500D01*
G75*
G02*
X165475000Y-137437500I0J250000D01*
G01*
X165475000Y-136762500D01*
G75*
G02*
X165725000Y-136512500I250000J0D01*
G01*
X166675000Y-136512500D01*
G75*
G02*
X166925000Y-136762500I0J-250000D01*
G01*
X166925000Y-137437500D01*
G75*
G02*
X166675000Y-137687500I-250000J0D01*
G01*
G37*
%TD.AperFunction*%
%TD*%
%TO.P,C7,2*%
%TO.N,GND*%
%TA.AperFunction,SMDPad,CuDef*%
G36*
G01*
X177075000Y-124612500D02*
X176125000Y-124612500D01*
G75*
G02*
X175875000Y-124362500I0J250000D01*
G01*
X175875000Y-123687500D01*
G75*
G02*
X176125000Y-123437500I250000J0D01*
G01*
X177075000Y-123437500D01*
G75*
G02*
X177325000Y-123687500I0J-250000D01*
G01*
X177325000Y-124362500D01*
G75*
G02*
X177075000Y-124612500I-250000J0D01*
G01*
G37*
%TD.AperFunction*%
%TO.P,C7,1*%
%TO.N,VCC*%
%TA.AperFunction,SMDPad,CuDef*%
G36*
G01*
X177075000Y-126687500D02*
X176125000Y-126687500D01*
G75*
G02*
X175875000Y-126437500I0J250000D01*
G01*
X175875000Y-125762500D01*
G75*
G02*
X176125000Y-125512500I250000J0D01*
G01*
X177075000Y-125512500D01*
G75*
G02*
X177325000Y-125762500I0J-250000D01*
G01*
X177325000Y-126437500D01*
G75*
G02*
X177075000Y-126687500I-250000J0D01*
G01*
G37*
%TD.AperFunction*%
%TD*%
%TO.P,C8,2*%
%TO.N,GND*%
%TA.AperFunction,SMDPad,CuDef*%
G36*
G01*
X178960000Y-111360000D02*
X178960000Y-110410000D01*
G75*
G02*
X179210000Y-110160000I250000J0D01*
G01*
X179885000Y-110160000D01*
G75*
G02*
X180135000Y-110410000I0J-250000D01*
G01*
X180135000Y-111360000D01*
G75*
G02*
X179885000Y-111610000I-250000J0D01*
G01*
X179210000Y-111610000D01*
G75*
G02*
X178960000Y-111360000I0J250000D01*
G01*
G37*
%TD.AperFunction*%
%TO.P,C8,1*%
%TO.N,VCC*%
%TA.AperFunction,SMDPad,CuDef*%
G36*
G01*
X176885000Y-111360000D02*
X176885000Y-110410000D01*
G75*
G02*
X177135000Y-110160000I250000J0D01*
G01*
X177810000Y-110160000D01*
G75*
G02*
X178060000Y-110410000I0J-250000D01*
G01*
X178060000Y-111360000D01*
G75*
G02*
X177810000Y-111610000I-250000J0D01*
G01*
X177135000Y-111610000D01*
G75*
G02*
X176885000Y-111360000I0J250000D01*
G01*
G37*
%TD.AperFunction*%
%TD*%
%TO.P,C9,2*%
%TO.N,GND*%
%TA.AperFunction,SMDPad,CuDef*%
G36*
G01*
X154575000Y-145512500D02*
X153625000Y-145512500D01*
G75*
G02*
X153375000Y-145262500I0J250000D01*
G01*
X153375000Y-144587500D01*
G75*
G02*
X153625000Y-144337500I250000J0D01*
G01*
X154575000Y-144337500D01*
G75*
G02*
X154825000Y-144587500I0J-250000D01*
G01*
X154825000Y-145262500D01*
G75*
G02*
X154575000Y-145512500I-250000J0D01*
G01*
G37*
%TD.AperFunction*%
%TO.P,C9,1*%
%TO.N,VCC*%
%TA.AperFunction,SMDPad,CuDef*%
G36*
G01*
X154575000Y-147587500D02*
X153625000Y-147587500D01*
G75*
G02*
X153375000Y-147337500I0J250000D01*
G01*
X153375000Y-146662500D01*
G75*
G02*
X153625000Y-146412500I250000J0D01*
G01*
X154575000Y-146412500D01*
G75*
G02*
X154825000Y-146662500I0J-250000D01*
G01*
X154825000Y-147337500D01*
G75*
G02*
X154575000Y-147587500I-250000J0D01*
G01*
G37*
%TD.AperFunction*%
%TD*%
%TO.P,C10,2*%
%TO.N,GND*%
%TA.AperFunction,SMDPad,CuDef*%
G36*
G01*
X168975000Y-145487500D02*
X168025000Y-145487500D01*
G75*
G02*
X167775000Y-145237500I0J250000D01*
G01*
X167775000Y-144562500D01*
G75*
G02*
X168025000Y-144312500I250000J0D01*
G01*
X168975000Y-144312500D01*
G75*
G02*
X169225000Y-144562500I0J-250000D01*
G01*
X169225000Y-145237500D01*
G75*
G02*
X168975000Y-145487500I-250000J0D01*
G01*
G37*
%TD.AperFunction*%
%TO.P,C10,1*%
%TO.N,VCC*%
%TA.AperFunction,SMDPad,CuDef*%
G36*
G01*
X168975000Y-147562500D02*
X168025000Y-147562500D01*
G75*
G02*
X167775000Y-147312500I0J250000D01*
G01*
X167775000Y-146637500D01*
G75*
G02*
X168025000Y-146387500I250000J0D01*
G01*
X168975000Y-146387500D01*
G75*
G02*
X169225000Y-146637500I0J-250000D01*
G01*
X169225000Y-147312500D01*
G75*
G02*
X168975000Y-147562500I-250000J0D01*
G01*
G37*
%TD.AperFunction*%
%TD*%
%TO.P,C13,2*%
%TO.N,GND*%
%TA.AperFunction,SMDPad,CuDef*%
G36*
G01*
X178950000Y-108425000D02*
X178950000Y-107475000D01*
G75*
G02*
X179200000Y-107225000I250000J0D01*
G01*
X179875000Y-107225000D01*
G75*
G02*
X180125000Y-107475000I0J-250000D01*
G01*
X180125000Y-108425000D01*
G75*
G02*
X179875000Y-108675000I-250000J0D01*
G01*
X179200000Y-108675000D01*
G75*
G02*
X178950000Y-108425000I0J250000D01*
G01*
G37*
%TD.AperFunction*%
%TO.P,C13,1*%
%TO.N,Net-(C13-Pad1)*%
%TA.AperFunction,SMDPad,CuDef*%
G36*
G01*
X176875000Y-108425000D02*
X176875000Y-107475000D01*
G75*
G02*
X177125000Y-107225000I250000J0D01*
G01*
X177800000Y-107225000D01*
G75*
G02*
X178050000Y-107475000I0J-250000D01*
G01*
X178050000Y-108425000D01*
G75*
G02*
X177800000Y-108675000I-250000J0D01*
G01*
X177125000Y-108675000D01*
G75*
G02*
X176875000Y-108425000I0J250000D01*
G01*
G37*
%TD.AperFunction*%
%TD*%
D17*
%TO.P,C14,2*%
%TO.N,GND*%
X193500000Y-92000000D03*
D11*
%TO.P,C14,1*%
%TO.N,VCC*%
X196000000Y-92000000D03*
%TD*%
D10*
%TO.P,NANO1,16*%
%TO.N,/TOD*%
X195060000Y-67960000D03*
%TO.P,NANO1,15*%
%TO.N,/R~W*%
X195060000Y-83200000D03*
%TO.P,NANO1,30*%
%TO.N,Net-(NANO1-Pad30)*%
X159500000Y-67960000D03*
%TO.P,NANO1,14*%
%TO.N,/bootstrap/RESET*%
X192520000Y-83200000D03*
%TO.P,NANO1,29*%
%TO.N,GND*%
X162040000Y-67960000D03*
%TO.P,NANO1,13*%
%TO.N,/~CE*%
X189980000Y-83200000D03*
%TO.P,NANO1,28*%
%TO.N,Net-(NANO1-Pad28)*%
X164580000Y-67960000D03*
%TO.P,NANO1,12*%
%TO.N,/bootstrap/D0*%
X187440000Y-83200000D03*
%TO.P,NANO1,27*%
%TO.N,VCC*%
X167120000Y-67960000D03*
%TO.P,NANO1,11*%
%TO.N,/bootstrap/D1*%
X184900000Y-83200000D03*
%TO.P,NANO1,26*%
%TO.N,/TODENABLE*%
X169660000Y-67960000D03*
%TO.P,NANO1,10*%
%TO.N,/bootstrap/D2*%
X182360000Y-83200000D03*
%TO.P,NANO1,25*%
%TO.N,Net-(NANO1-Pad25)*%
X172200000Y-67960000D03*
%TO.P,NANO1,9*%
%TO.N,/bootstrap/D3*%
X179820000Y-83200000D03*
%TO.P,NANO1,24*%
%TO.N,Net-(NANO1-Pad24)*%
X174740000Y-67960000D03*
%TO.P,NANO1,8*%
%TO.N,/bootstrap/D4*%
X177280000Y-83200000D03*
%TO.P,NANO1,23*%
%TO.N,/bootstrap/DS*%
X177280000Y-67960000D03*
%TO.P,NANO1,7*%
%TO.N,/bootstrap/D5*%
X174740000Y-83200000D03*
%TO.P,NANO1,22*%
%TO.N,Net-(NANO1-Pad22)*%
X179820000Y-67960000D03*
%TO.P,NANO1,6*%
%TO.N,/bootstrap/D6*%
X172200000Y-83200000D03*
%TO.P,NANO1,21*%
%TO.N,/bootstrap/BE*%
X182360000Y-67960000D03*
%TO.P,NANO1,5*%
%TO.N,/bootstrap/D7*%
X169660000Y-83200000D03*
%TO.P,NANO1,20*%
%TO.N,/bootstrap/LATCH*%
X184900000Y-67960000D03*
%TO.P,NANO1,4*%
%TO.N,GND*%
X167120000Y-83200000D03*
%TO.P,NANO1,19*%
%TO.N,/bootstrap/CLOCK*%
X187440000Y-67960000D03*
%TO.P,NANO1,3*%
%TO.N,Net-(NANO1-Pad3)*%
X164580000Y-83200000D03*
%TO.P,NANO1,18*%
%TO.N,Net-(NANO1-Pad18)*%
X189980000Y-67960000D03*
%TO.P,NANO1,2*%
%TO.N,Net-(NANO1-Pad2)*%
X162040000Y-83200000D03*
%TO.P,NANO1,17*%
%TO.N,Net-(NANO1-Pad17)*%
X192520000Y-67960000D03*
D11*
%TO.P,NANO1,1*%
%TO.N,Net-(NANO1-Pad1)*%
X159500000Y-83200000D03*
%TD*%
D16*
%TO.P,P2,3*%
%TO.N,VCC*%
X180820000Y-54000000D03*
%TO.P,P2,2*%
%TO.N,Net-(LCD1-Pad3)*%
X183360000Y-54000000D03*
%TO.P,P2,1*%
%TO.N,GND*%
X185900000Y-54000000D03*
%TD*%
D10*
%TO.P,PIC1,18*%
%TO.N,Net-(PIC1-Pad18)*%
X132820000Y-126300000D03*
%TO.P,PIC1,9*%
%TO.N,Net-(PIC1-Pad9)*%
X125200000Y-146620000D03*
%TO.P,PIC1,17*%
%TO.N,/clockmeter/C3*%
X132820000Y-128840000D03*
%TO.P,PIC1,8*%
%TO.N,Net-(PIC1-Pad8)*%
X125200000Y-144080000D03*
%TO.P,PIC1,16*%
%TO.N,Net-(C5-Pad1)*%
X132820000Y-131380000D03*
%TO.P,PIC1,7*%
%TO.N,Net-(PIC1-Pad7)*%
X125200000Y-141540000D03*
%TO.P,PIC1,15*%
%TO.N,Net-(C6-Pad1)*%
X132820000Y-133920000D03*
%TO.P,PIC1,6*%
%TO.N,Net-(PIC1-Pad6)*%
X125200000Y-139000000D03*
%TO.P,PIC1,14*%
%TO.N,VCC*%
X132820000Y-136460000D03*
%TO.P,PIC1,5*%
%TO.N,GND*%
X125200000Y-136460000D03*
%TO.P,PIC1,13*%
%TO.N,Net-(PIC1-Pad13)*%
X132820000Y-139000000D03*
%TO.P,PIC1,4*%
%TO.N,Net-(PIC1-Pad4)*%
X125200000Y-133920000D03*
%TO.P,PIC1,12*%
%TO.N,Net-(PIC1-Pad12)*%
X132820000Y-141540000D03*
%TO.P,PIC1,3*%
%TO.N,/clock/~PHI2*%
X125200000Y-131380000D03*
%TO.P,PIC1,11*%
%TO.N,Net-(PIC1-Pad11)*%
X132820000Y-144080000D03*
%TO.P,PIC1,2*%
%TO.N,/clockmeter/C1*%
X125200000Y-128840000D03*
%TO.P,PIC1,10*%
%TO.N,Net-(PIC1-Pad10)*%
X132820000Y-146620000D03*
D11*
%TO.P,PIC1,1*%
%TO.N,/clockmeter/C2*%
X125200000Y-126300000D03*
%TD*%
%TO.P,U4,1*%
%TO.N,Net-(U4-Pad1)*%
%TA.AperFunction,SMDPad,CuDef*%
G36*
G01*
X162545000Y-126850000D02*
X162845000Y-126850000D01*
G75*
G02*
X162995000Y-127000000I0J-150000D01*
G01*
X162995000Y-128400000D01*
G75*
G02*
X162845000Y-128550000I-150000J0D01*
G01*
X162545000Y-128550000D01*
G75*
G02*
X162395000Y-128400000I0J150000D01*
G01*
X162395000Y-127000000D01*
G75*
G02*
X162545000Y-126850000I150000J0D01*
G01*
G37*
%TD.AperFunction*%
%TO.P,U4,2*%
%TO.N,GND*%
%TA.AperFunction,SMDPad,CuDef*%
G36*
G01*
X161275000Y-126850000D02*
X161575000Y-126850000D01*
G75*
G02*
X161725000Y-127000000I0J-150000D01*
G01*
X161725000Y-128400000D01*
G75*
G02*
X161575000Y-128550000I-150000J0D01*
G01*
X161275000Y-128550000D01*
G75*
G02*
X161125000Y-128400000I0J150000D01*
G01*
X161125000Y-127000000D01*
G75*
G02*
X161275000Y-126850000I150000J0D01*
G01*
G37*
%TD.AperFunction*%
%TO.P,U4,3*%
%TO.N,/bootstrap/A11*%
%TA.AperFunction,SMDPad,CuDef*%
G36*
G01*
X160005000Y-126850000D02*
X160305000Y-126850000D01*
G75*
G02*
X160455000Y-127000000I0J-150000D01*
G01*
X160455000Y-128400000D01*
G75*
G02*
X160305000Y-128550000I-150000J0D01*
G01*
X160005000Y-128550000D01*
G75*
G02*
X159855000Y-128400000I0J150000D01*
G01*
X159855000Y-127000000D01*
G75*
G02*
X160005000Y-126850000I150000J0D01*
G01*
G37*
%TD.AperFunction*%
%TO.P,U4,4*%
%TO.N,/bootstrap/A10*%
%TA.AperFunction,SMDPad,CuDef*%
G36*
G01*
X158735000Y-126850000D02*
X159035000Y-126850000D01*
G75*
G02*
X159185000Y-127000000I0J-150000D01*
G01*
X159185000Y-128400000D01*
G75*
G02*
X159035000Y-128550000I-150000J0D01*
G01*
X158735000Y-128550000D01*
G75*
G02*
X158585000Y-128400000I0J150000D01*
G01*
X158585000Y-127000000D01*
G75*
G02*
X158735000Y-126850000I150000J0D01*
G01*
G37*
%TD.AperFunction*%
%TO.P,U4,5*%
%TO.N,/bootstrap/A9*%
%TA.AperFunction,SMDPad,CuDef*%
G36*
G01*
X157465000Y-126850000D02*
X157765000Y-126850000D01*
G75*
G02*
X157915000Y-127000000I0J-150000D01*
G01*
X157915000Y-128400000D01*
G75*
G02*
X157765000Y-128550000I-150000J0D01*
G01*
X157465000Y-128550000D01*
G75*
G02*
X157315000Y-128400000I0J150000D01*
G01*
X157315000Y-127000000D01*
G75*
G02*
X157465000Y-126850000I150000J0D01*
G01*
G37*
%TD.AperFunction*%
%TO.P,U4,6*%
%TO.N,/bootstrap/A8*%
%TA.AperFunction,SMDPad,CuDef*%
G36*
G01*
X156195000Y-126850000D02*
X156495000Y-126850000D01*
G75*
G02*
X156645000Y-127000000I0J-150000D01*
G01*
X156645000Y-128400000D01*
G75*
G02*
X156495000Y-128550000I-150000J0D01*
G01*
X156195000Y-128550000D01*
G75*
G02*
X156045000Y-128400000I0J150000D01*
G01*
X156045000Y-127000000D01*
G75*
G02*
X156195000Y-126850000I150000J0D01*
G01*
G37*
%TD.AperFunction*%
%TO.P,U4,7*%
%TO.N,/bootstrap/A7*%
%TA.AperFunction,SMDPad,CuDef*%
G36*
G01*
X154925000Y-126850000D02*
X155225000Y-126850000D01*
G75*
G02*
X155375000Y-127000000I0J-150000D01*
G01*
X155375000Y-128400000D01*
G75*
G02*
X155225000Y-128550000I-150000J0D01*
G01*
X154925000Y-128550000D01*
G75*
G02*
X154775000Y-128400000I0J150000D01*
G01*
X154775000Y-127000000D01*
G75*
G02*
X154925000Y-126850000I150000J0D01*
G01*
G37*
%TD.AperFunction*%
%TO.P,U4,8*%
%TO.N,/bootstrap/A5*%
%TA.AperFunction,SMDPad,CuDef*%
G36*
G01*
X153655000Y-126850000D02*
X153955000Y-126850000D01*
G75*
G02*
X154105000Y-127000000I0J-150000D01*
G01*
X154105000Y-128400000D01*
G75*
G02*
X153955000Y-128550000I-150000J0D01*
G01*
X153655000Y-128550000D01*
G75*
G02*
X153505000Y-128400000I0J150000D01*
G01*
X153505000Y-127000000D01*
G75*
G02*
X153655000Y-126850000I150000J0D01*
G01*
G37*
%TD.AperFunction*%
%TO.P,U4,9*%
%TO.N,/bootstrap/A3*%
%TA.AperFunction,SMDPad,CuDef*%
G36*
G01*
X152385000Y-126850000D02*
X152685000Y-126850000D01*
G75*
G02*
X152835000Y-127000000I0J-150000D01*
G01*
X152835000Y-128400000D01*
G75*
G02*
X152685000Y-128550000I-150000J0D01*
G01*
X152385000Y-128550000D01*
G75*
G02*
X152235000Y-128400000I0J150000D01*
G01*
X152235000Y-127000000D01*
G75*
G02*
X152385000Y-126850000I150000J0D01*
G01*
G37*
%TD.AperFunction*%
%TO.P,U4,10*%
%TO.N,/bootstrap/A2*%
%TA.AperFunction,SMDPad,CuDef*%
G36*
G01*
X151115000Y-126850000D02*
X151415000Y-126850000D01*
G75*
G02*
X151565000Y-127000000I0J-150000D01*
G01*
X151565000Y-128400000D01*
G75*
G02*
X151415000Y-128550000I-150000J0D01*
G01*
X151115000Y-128550000D01*
G75*
G02*
X150965000Y-128400000I0J150000D01*
G01*
X150965000Y-127000000D01*
G75*
G02*
X151115000Y-126850000I150000J0D01*
G01*
G37*
%TD.AperFunction*%
%TO.P,U4,11*%
%TO.N,/bootstrap/A1*%
%TA.AperFunction,SMDPad,CuDef*%
G36*
G01*
X149845000Y-126850000D02*
X150145000Y-126850000D01*
G75*
G02*
X150295000Y-127000000I0J-150000D01*
G01*
X150295000Y-128400000D01*
G75*
G02*
X150145000Y-128550000I-150000J0D01*
G01*
X149845000Y-128550000D01*
G75*
G02*
X149695000Y-128400000I0J150000D01*
G01*
X149695000Y-127000000D01*
G75*
G02*
X149845000Y-126850000I150000J0D01*
G01*
G37*
%TD.AperFunction*%
%TO.P,U4,12*%
%TO.N,/bootstrap/A0*%
%TA.AperFunction,SMDPad,CuDef*%
G36*
G01*
X148575000Y-126850000D02*
X148875000Y-126850000D01*
G75*
G02*
X149025000Y-127000000I0J-150000D01*
G01*
X149025000Y-128400000D01*
G75*
G02*
X148875000Y-128550000I-150000J0D01*
G01*
X148575000Y-128550000D01*
G75*
G02*
X148425000Y-128400000I0J150000D01*
G01*
X148425000Y-127000000D01*
G75*
G02*
X148575000Y-126850000I150000J0D01*
G01*
G37*
%TD.AperFunction*%
%TO.P,U4,13*%
%TO.N,/bootstrap/D5*%
%TA.AperFunction,SMDPad,CuDef*%
G36*
G01*
X147305000Y-126850000D02*
X147605000Y-126850000D01*
G75*
G02*
X147755000Y-127000000I0J-150000D01*
G01*
X147755000Y-128400000D01*
G75*
G02*
X147605000Y-128550000I-150000J0D01*
G01*
X147305000Y-128550000D01*
G75*
G02*
X147155000Y-128400000I0J150000D01*
G01*
X147155000Y-127000000D01*
G75*
G02*
X147305000Y-126850000I150000J0D01*
G01*
G37*
%TD.AperFunction*%
%TO.P,U4,14*%
%TO.N,/bootstrap/D6*%
%TA.AperFunction,SMDPad,CuDef*%
G36*
G01*
X146035000Y-126850000D02*
X146335000Y-126850000D01*
G75*
G02*
X146485000Y-127000000I0J-150000D01*
G01*
X146485000Y-128400000D01*
G75*
G02*
X146335000Y-128550000I-150000J0D01*
G01*
X146035000Y-128550000D01*
G75*
G02*
X145885000Y-128400000I0J150000D01*
G01*
X145885000Y-127000000D01*
G75*
G02*
X146035000Y-126850000I150000J0D01*
G01*
G37*
%TD.AperFunction*%
%TO.P,U4,15*%
%TO.N,/bootstrap/D7*%
%TA.AperFunction,SMDPad,CuDef*%
G36*
G01*
X144765000Y-126850000D02*
X145065000Y-126850000D01*
G75*
G02*
X145215000Y-127000000I0J-150000D01*
G01*
X145215000Y-128400000D01*
G75*
G02*
X145065000Y-128550000I-150000J0D01*
G01*
X144765000Y-128550000D01*
G75*
G02*
X144615000Y-128400000I0J150000D01*
G01*
X144615000Y-127000000D01*
G75*
G02*
X144765000Y-126850000I150000J0D01*
G01*
G37*
%TD.AperFunction*%
%TO.P,U4,16*%
%TO.N,GND*%
%TA.AperFunction,SMDPad,CuDef*%
G36*
G01*
X143495000Y-126850000D02*
X143795000Y-126850000D01*
G75*
G02*
X143945000Y-127000000I0J-150000D01*
G01*
X143945000Y-128400000D01*
G75*
G02*
X143795000Y-128550000I-150000J0D01*
G01*
X143495000Y-128550000D01*
G75*
G02*
X143345000Y-128400000I0J150000D01*
G01*
X143345000Y-127000000D01*
G75*
G02*
X143495000Y-126850000I150000J0D01*
G01*
G37*
%TD.AperFunction*%
%TO.P,U4,17*%
%TO.N,/bootstrap/D0*%
%TA.AperFunction,SMDPad,CuDef*%
G36*
G01*
X143495000Y-136250000D02*
X143795000Y-136250000D01*
G75*
G02*
X143945000Y-136400000I0J-150000D01*
G01*
X143945000Y-137800000D01*
G75*
G02*
X143795000Y-137950000I-150000J0D01*
G01*
X143495000Y-137950000D01*
G75*
G02*
X143345000Y-137800000I0J150000D01*
G01*
X143345000Y-136400000D01*
G75*
G02*
X143495000Y-136250000I150000J0D01*
G01*
G37*
%TD.AperFunction*%
%TO.P,U4,18*%
%TO.N,/bootstrap/D1*%
%TA.AperFunction,SMDPad,CuDef*%
G36*
G01*
X144765000Y-136250000D02*
X145065000Y-136250000D01*
G75*
G02*
X145215000Y-136400000I0J-150000D01*
G01*
X145215000Y-137800000D01*
G75*
G02*
X145065000Y-137950000I-150000J0D01*
G01*
X144765000Y-137950000D01*
G75*
G02*
X144615000Y-137800000I0J150000D01*
G01*
X144615000Y-136400000D01*
G75*
G02*
X144765000Y-136250000I150000J0D01*
G01*
G37*
%TD.AperFunction*%
%TO.P,U4,19*%
%TO.N,/bootstrap/D2*%
%TA.AperFunction,SMDPad,CuDef*%
G36*
G01*
X146035000Y-136250000D02*
X146335000Y-136250000D01*
G75*
G02*
X146485000Y-136400000I0J-150000D01*
G01*
X146485000Y-137800000D01*
G75*
G02*
X146335000Y-137950000I-150000J0D01*
G01*
X146035000Y-137950000D01*
G75*
G02*
X145885000Y-137800000I0J150000D01*
G01*
X145885000Y-136400000D01*
G75*
G02*
X146035000Y-136250000I150000J0D01*
G01*
G37*
%TD.AperFunction*%
%TO.P,U4,20*%
%TO.N,/bootstrap/D3*%
%TA.AperFunction,SMDPad,CuDef*%
G36*
G01*
X147305000Y-136250000D02*
X147605000Y-136250000D01*
G75*
G02*
X147755000Y-136400000I0J-150000D01*
G01*
X147755000Y-137800000D01*
G75*
G02*
X147605000Y-137950000I-150000J0D01*
G01*
X147305000Y-137950000D01*
G75*
G02*
X147155000Y-137800000I0J150000D01*
G01*
X147155000Y-136400000D01*
G75*
G02*
X147305000Y-136250000I150000J0D01*
G01*
G37*
%TD.AperFunction*%
%TO.P,U4,21*%
%TO.N,/bootstrap/D4*%
%TA.AperFunction,SMDPad,CuDef*%
G36*
G01*
X148575000Y-136250000D02*
X148875000Y-136250000D01*
G75*
G02*
X149025000Y-136400000I0J-150000D01*
G01*
X149025000Y-137800000D01*
G75*
G02*
X148875000Y-137950000I-150000J0D01*
G01*
X148575000Y-137950000D01*
G75*
G02*
X148425000Y-137800000I0J150000D01*
G01*
X148425000Y-136400000D01*
G75*
G02*
X148575000Y-136250000I150000J0D01*
G01*
G37*
%TD.AperFunction*%
%TO.P,U4,22*%
%TO.N,/~CE*%
%TA.AperFunction,SMDPad,CuDef*%
G36*
G01*
X149845000Y-136250000D02*
X150145000Y-136250000D01*
G75*
G02*
X150295000Y-136400000I0J-150000D01*
G01*
X150295000Y-137800000D01*
G75*
G02*
X150145000Y-137950000I-150000J0D01*
G01*
X149845000Y-137950000D01*
G75*
G02*
X149695000Y-137800000I0J150000D01*
G01*
X149695000Y-136400000D01*
G75*
G02*
X149845000Y-136250000I150000J0D01*
G01*
G37*
%TD.AperFunction*%
%TO.P,U4,23*%
%TO.N,/bootstrap/A4*%
%TA.AperFunction,SMDPad,CuDef*%
G36*
G01*
X151115000Y-136250000D02*
X151415000Y-136250000D01*
G75*
G02*
X151565000Y-136400000I0J-150000D01*
G01*
X151565000Y-137800000D01*
G75*
G02*
X151415000Y-137950000I-150000J0D01*
G01*
X151115000Y-137950000D01*
G75*
G02*
X150965000Y-137800000I0J150000D01*
G01*
X150965000Y-136400000D01*
G75*
G02*
X151115000Y-136250000I150000J0D01*
G01*
G37*
%TD.AperFunction*%
%TO.P,U4,24*%
%TO.N,/memory/~OE*%
%TA.AperFunction,SMDPad,CuDef*%
G36*
G01*
X152385000Y-136250000D02*
X152685000Y-136250000D01*
G75*
G02*
X152835000Y-136400000I0J-150000D01*
G01*
X152835000Y-137800000D01*
G75*
G02*
X152685000Y-137950000I-150000J0D01*
G01*
X152385000Y-137950000D01*
G75*
G02*
X152235000Y-137800000I0J150000D01*
G01*
X152235000Y-136400000D01*
G75*
G02*
X152385000Y-136250000I150000J0D01*
G01*
G37*
%TD.AperFunction*%
%TO.P,U4,25*%
%TO.N,/bootstrap/A6*%
%TA.AperFunction,SMDPad,CuDef*%
G36*
G01*
X153655000Y-136250000D02*
X153955000Y-136250000D01*
G75*
G02*
X154105000Y-136400000I0J-150000D01*
G01*
X154105000Y-137800000D01*
G75*
G02*
X153955000Y-137950000I-150000J0D01*
G01*
X153655000Y-137950000D01*
G75*
G02*
X153505000Y-137800000I0J150000D01*
G01*
X153505000Y-136400000D01*
G75*
G02*
X153655000Y-136250000I150000J0D01*
G01*
G37*
%TD.AperFunction*%
%TO.P,U4,26*%
%TO.N,/bootstrap/A15*%
%TA.AperFunction,SMDPad,CuDef*%
G36*
G01*
X154925000Y-136250000D02*
X155225000Y-136250000D01*
G75*
G02*
X155375000Y-136400000I0J-150000D01*
G01*
X155375000Y-137800000D01*
G75*
G02*
X155225000Y-137950000I-150000J0D01*
G01*
X154925000Y-137950000D01*
G75*
G02*
X154775000Y-137800000I0J150000D01*
G01*
X154775000Y-136400000D01*
G75*
G02*
X154925000Y-136250000I150000J0D01*
G01*
G37*
%TD.AperFunction*%
%TO.P,U4,27*%
%TO.N,/bootstrap/A14*%
%TA.AperFunction,SMDPad,CuDef*%
G36*
G01*
X156195000Y-136250000D02*
X156495000Y-136250000D01*
G75*
G02*
X156645000Y-136400000I0J-150000D01*
G01*
X156645000Y-137800000D01*
G75*
G02*
X156495000Y-137950000I-150000J0D01*
G01*
X156195000Y-137950000D01*
G75*
G02*
X156045000Y-137800000I0J150000D01*
G01*
X156045000Y-136400000D01*
G75*
G02*
X156195000Y-136250000I150000J0D01*
G01*
G37*
%TD.AperFunction*%
%TO.P,U4,28*%
%TO.N,/bootstrap/A13*%
%TA.AperFunction,SMDPad,CuDef*%
G36*
G01*
X157465000Y-136250000D02*
X157765000Y-136250000D01*
G75*
G02*
X157915000Y-136400000I0J-150000D01*
G01*
X157915000Y-137800000D01*
G75*
G02*
X157765000Y-137950000I-150000J0D01*
G01*
X157465000Y-137950000D01*
G75*
G02*
X157315000Y-137800000I0J150000D01*
G01*
X157315000Y-136400000D01*
G75*
G02*
X157465000Y-136250000I150000J0D01*
G01*
G37*
%TD.AperFunction*%
%TO.P,U4,29*%
%TO.N,/memory/~WE*%
%TA.AperFunction,SMDPad,CuDef*%
G36*
G01*
X158735000Y-136250000D02*
X159035000Y-136250000D01*
G75*
G02*
X159185000Y-136400000I0J-150000D01*
G01*
X159185000Y-137800000D01*
G75*
G02*
X159035000Y-137950000I-150000J0D01*
G01*
X158735000Y-137950000D01*
G75*
G02*
X158585000Y-137800000I0J150000D01*
G01*
X158585000Y-136400000D01*
G75*
G02*
X158735000Y-136250000I150000J0D01*
G01*
G37*
%TD.AperFunction*%
%TO.P,U4,30*%
%TO.N,/memory/RAMCE*%
%TA.AperFunction,SMDPad,CuDef*%
G36*
G01*
X160005000Y-136250000D02*
X160305000Y-136250000D01*
G75*
G02*
X160455000Y-136400000I0J-150000D01*
G01*
X160455000Y-137800000D01*
G75*
G02*
X160305000Y-137950000I-150000J0D01*
G01*
X160005000Y-137950000D01*
G75*
G02*
X159855000Y-137800000I0J150000D01*
G01*
X159855000Y-136400000D01*
G75*
G02*
X160005000Y-136250000I150000J0D01*
G01*
G37*
%TD.AperFunction*%
%TO.P,U4,31*%
%TO.N,/bootstrap/A12*%
%TA.AperFunction,SMDPad,CuDef*%
G36*
G01*
X161275000Y-136250000D02*
X161575000Y-136250000D01*
G75*
G02*
X161725000Y-136400000I0J-150000D01*
G01*
X161725000Y-137800000D01*
G75*
G02*
X161575000Y-137950000I-150000J0D01*
G01*
X161275000Y-137950000D01*
G75*
G02*
X161125000Y-137800000I0J150000D01*
G01*
X161125000Y-136400000D01*
G75*
G02*
X161275000Y-136250000I150000J0D01*
G01*
G37*
%TD.AperFunction*%
%TO.P,U4,32*%
%TO.N,VCC*%
%TA.AperFunction,SMDPad,CuDef*%
G36*
G01*
X162545000Y-136250000D02*
X162845000Y-136250000D01*
G75*
G02*
X162995000Y-136400000I0J-150000D01*
G01*
X162995000Y-137800000D01*
G75*
G02*
X162845000Y-137950000I-150000J0D01*
G01*
X162545000Y-137950000D01*
G75*
G02*
X162395000Y-137800000I0J150000D01*
G01*
X162395000Y-136400000D01*
G75*
G02*
X162545000Y-136250000I150000J0D01*
G01*
G37*
%TD.AperFunction*%
%TD*%
%TO.P,U5,16*%
%TO.N,VCC*%
%TA.AperFunction,SMDPad,CuDef*%
G36*
G01*
X165105000Y-95100000D02*
X164805000Y-95100000D01*
G75*
G02*
X164655000Y-94950000I0J150000D01*
G01*
X164655000Y-93300000D01*
G75*
G02*
X164805000Y-93150000I150000J0D01*
G01*
X165105000Y-93150000D01*
G75*
G02*
X165255000Y-93300000I0J-150000D01*
G01*
X165255000Y-94950000D01*
G75*
G02*
X165105000Y-95100000I-150000J0D01*
G01*
G37*
%TD.AperFunction*%
%TO.P,U5,15*%
%TO.N,/bootstrap/A0*%
%TA.AperFunction,SMDPad,CuDef*%
G36*
G01*
X166375000Y-95100000D02*
X166075000Y-95100000D01*
G75*
G02*
X165925000Y-94950000I0J150000D01*
G01*
X165925000Y-93300000D01*
G75*
G02*
X166075000Y-93150000I150000J0D01*
G01*
X166375000Y-93150000D01*
G75*
G02*
X166525000Y-93300000I0J-150000D01*
G01*
X166525000Y-94950000D01*
G75*
G02*
X166375000Y-95100000I-150000J0D01*
G01*
G37*
%TD.AperFunction*%
%TO.P,U5,14*%
%TO.N,/bootstrap/DS*%
%TA.AperFunction,SMDPad,CuDef*%
G36*
G01*
X167645000Y-95100000D02*
X167345000Y-95100000D01*
G75*
G02*
X167195000Y-94950000I0J150000D01*
G01*
X167195000Y-93300000D01*
G75*
G02*
X167345000Y-93150000I150000J0D01*
G01*
X167645000Y-93150000D01*
G75*
G02*
X167795000Y-93300000I0J-150000D01*
G01*
X167795000Y-94950000D01*
G75*
G02*
X167645000Y-95100000I-150000J0D01*
G01*
G37*
%TD.AperFunction*%
%TO.P,U5,13*%
%TO.N,/bootstrap/BE*%
%TA.AperFunction,SMDPad,CuDef*%
G36*
G01*
X168915000Y-95100000D02*
X168615000Y-95100000D01*
G75*
G02*
X168465000Y-94950000I0J150000D01*
G01*
X168465000Y-93300000D01*
G75*
G02*
X168615000Y-93150000I150000J0D01*
G01*
X168915000Y-93150000D01*
G75*
G02*
X169065000Y-93300000I0J-150000D01*
G01*
X169065000Y-94950000D01*
G75*
G02*
X168915000Y-95100000I-150000J0D01*
G01*
G37*
%TD.AperFunction*%
%TO.P,U5,12*%
%TO.N,/bootstrap/LATCH*%
%TA.AperFunction,SMDPad,CuDef*%
G36*
G01*
X170185000Y-95100000D02*
X169885000Y-95100000D01*
G75*
G02*
X169735000Y-94950000I0J150000D01*
G01*
X169735000Y-93300000D01*
G75*
G02*
X169885000Y-93150000I150000J0D01*
G01*
X170185000Y-93150000D01*
G75*
G02*
X170335000Y-93300000I0J-150000D01*
G01*
X170335000Y-94950000D01*
G75*
G02*
X170185000Y-95100000I-150000J0D01*
G01*
G37*
%TD.AperFunction*%
%TO.P,U5,11*%
%TO.N,/bootstrap/CLOCK*%
%TA.AperFunction,SMDPad,CuDef*%
G36*
G01*
X171455000Y-95100000D02*
X171155000Y-95100000D01*
G75*
G02*
X171005000Y-94950000I0J150000D01*
G01*
X171005000Y-93300000D01*
G75*
G02*
X171155000Y-93150000I150000J0D01*
G01*
X171455000Y-93150000D01*
G75*
G02*
X171605000Y-93300000I0J-150000D01*
G01*
X171605000Y-94950000D01*
G75*
G02*
X171455000Y-95100000I-150000J0D01*
G01*
G37*
%TD.AperFunction*%
%TO.P,U5,10*%
%TO.N,VCC*%
%TA.AperFunction,SMDPad,CuDef*%
G36*
G01*
X172725000Y-95100000D02*
X172425000Y-95100000D01*
G75*
G02*
X172275000Y-94950000I0J150000D01*
G01*
X172275000Y-93300000D01*
G75*
G02*
X172425000Y-93150000I150000J0D01*
G01*
X172725000Y-93150000D01*
G75*
G02*
X172875000Y-93300000I0J-150000D01*
G01*
X172875000Y-94950000D01*
G75*
G02*
X172725000Y-95100000I-150000J0D01*
G01*
G37*
%TD.AperFunction*%
%TO.P,U5,9*%
%TO.N,Net-(U5-Pad9)*%
%TA.AperFunction,SMDPad,CuDef*%
G36*
G01*
X173995000Y-95100000D02*
X173695000Y-95100000D01*
G75*
G02*
X173545000Y-94950000I0J150000D01*
G01*
X173545000Y-93300000D01*
G75*
G02*
X173695000Y-93150000I150000J0D01*
G01*
X173995000Y-93150000D01*
G75*
G02*
X174145000Y-93300000I0J-150000D01*
G01*
X174145000Y-94950000D01*
G75*
G02*
X173995000Y-95100000I-150000J0D01*
G01*
G37*
%TD.AperFunction*%
%TO.P,U5,8*%
%TO.N,GND*%
%TA.AperFunction,SMDPad,CuDef*%
G36*
G01*
X173995000Y-100050000D02*
X173695000Y-100050000D01*
G75*
G02*
X173545000Y-99900000I0J150000D01*
G01*
X173545000Y-98250000D01*
G75*
G02*
X173695000Y-98100000I150000J0D01*
G01*
X173995000Y-98100000D01*
G75*
G02*
X174145000Y-98250000I0J-150000D01*
G01*
X174145000Y-99900000D01*
G75*
G02*
X173995000Y-100050000I-150000J0D01*
G01*
G37*
%TD.AperFunction*%
%TO.P,U5,7*%
%TO.N,/bootstrap/A7*%
%TA.AperFunction,SMDPad,CuDef*%
G36*
G01*
X172725000Y-100050000D02*
X172425000Y-100050000D01*
G75*
G02*
X172275000Y-99900000I0J150000D01*
G01*
X172275000Y-98250000D01*
G75*
G02*
X172425000Y-98100000I150000J0D01*
G01*
X172725000Y-98100000D01*
G75*
G02*
X172875000Y-98250000I0J-150000D01*
G01*
X172875000Y-99900000D01*
G75*
G02*
X172725000Y-100050000I-150000J0D01*
G01*
G37*
%TD.AperFunction*%
%TO.P,U5,6*%
%TO.N,/bootstrap/A6*%
%TA.AperFunction,SMDPad,CuDef*%
G36*
G01*
X171455000Y-100050000D02*
X171155000Y-100050000D01*
G75*
G02*
X171005000Y-99900000I0J150000D01*
G01*
X171005000Y-98250000D01*
G75*
G02*
X171155000Y-98100000I150000J0D01*
G01*
X171455000Y-98100000D01*
G75*
G02*
X171605000Y-98250000I0J-150000D01*
G01*
X171605000Y-99900000D01*
G75*
G02*
X171455000Y-100050000I-150000J0D01*
G01*
G37*
%TD.AperFunction*%
%TO.P,U5,5*%
%TO.N,/bootstrap/A5*%
%TA.AperFunction,SMDPad,CuDef*%
G36*
G01*
X170185000Y-100050000D02*
X169885000Y-100050000D01*
G75*
G02*
X169735000Y-99900000I0J150000D01*
G01*
X169735000Y-98250000D01*
G75*
G02*
X169885000Y-98100000I150000J0D01*
G01*
X170185000Y-98100000D01*
G75*
G02*
X170335000Y-98250000I0J-150000D01*
G01*
X170335000Y-99900000D01*
G75*
G02*
X170185000Y-100050000I-150000J0D01*
G01*
G37*
%TD.AperFunction*%
%TO.P,U5,4*%
%TO.N,/bootstrap/A4*%
%TA.AperFunction,SMDPad,CuDef*%
G36*
G01*
X168915000Y-100050000D02*
X168615000Y-100050000D01*
G75*
G02*
X168465000Y-99900000I0J150000D01*
G01*
X168465000Y-98250000D01*
G75*
G02*
X168615000Y-98100000I150000J0D01*
G01*
X168915000Y-98100000D01*
G75*
G02*
X169065000Y-98250000I0J-150000D01*
G01*
X169065000Y-99900000D01*
G75*
G02*
X168915000Y-100050000I-150000J0D01*
G01*
G37*
%TD.AperFunction*%
%TO.P,U5,3*%
%TO.N,/bootstrap/A3*%
%TA.AperFunction,SMDPad,CuDef*%
G36*
G01*
X167645000Y-100050000D02*
X167345000Y-100050000D01*
G75*
G02*
X167195000Y-99900000I0J150000D01*
G01*
X167195000Y-98250000D01*
G75*
G02*
X167345000Y-98100000I150000J0D01*
G01*
X167645000Y-98100000D01*
G75*
G02*
X167795000Y-98250000I0J-150000D01*
G01*
X167795000Y-99900000D01*
G75*
G02*
X167645000Y-100050000I-150000J0D01*
G01*
G37*
%TD.AperFunction*%
%TO.P,U5,2*%
%TO.N,/bootstrap/A2*%
%TA.AperFunction,SMDPad,CuDef*%
G36*
G01*
X166375000Y-100050000D02*
X166075000Y-100050000D01*
G75*
G02*
X165925000Y-99900000I0J150000D01*
G01*
X165925000Y-98250000D01*
G75*
G02*
X166075000Y-98100000I150000J0D01*
G01*
X166375000Y-98100000D01*
G75*
G02*
X166525000Y-98250000I0J-150000D01*
G01*
X166525000Y-99900000D01*
G75*
G02*
X166375000Y-100050000I-150000J0D01*
G01*
G37*
%TD.AperFunction*%
%TO.P,U5,1*%
%TO.N,/bootstrap/A1*%
%TA.AperFunction,SMDPad,CuDef*%
G36*
G01*
X165105000Y-100050000D02*
X164805000Y-100050000D01*
G75*
G02*
X164655000Y-99900000I0J150000D01*
G01*
X164655000Y-98250000D01*
G75*
G02*
X164805000Y-98100000I150000J0D01*
G01*
X165105000Y-98100000D01*
G75*
G02*
X165255000Y-98250000I0J-150000D01*
G01*
X165255000Y-99900000D01*
G75*
G02*
X165105000Y-100050000I-150000J0D01*
G01*
G37*
%TD.AperFunction*%
%TD*%
%TO.P,U6,16*%
%TO.N,VCC*%
%TA.AperFunction,SMDPad,CuDef*%
G36*
G01*
X178005000Y-95000000D02*
X177705000Y-95000000D01*
G75*
G02*
X177555000Y-94850000I0J150000D01*
G01*
X177555000Y-93200000D01*
G75*
G02*
X177705000Y-93050000I150000J0D01*
G01*
X178005000Y-93050000D01*
G75*
G02*
X178155000Y-93200000I0J-150000D01*
G01*
X178155000Y-94850000D01*
G75*
G02*
X178005000Y-95000000I-150000J0D01*
G01*
G37*
%TD.AperFunction*%
%TO.P,U6,15*%
%TO.N,/bootstrap/A8*%
%TA.AperFunction,SMDPad,CuDef*%
G36*
G01*
X179275000Y-95000000D02*
X178975000Y-95000000D01*
G75*
G02*
X178825000Y-94850000I0J150000D01*
G01*
X178825000Y-93200000D01*
G75*
G02*
X178975000Y-93050000I150000J0D01*
G01*
X179275000Y-93050000D01*
G75*
G02*
X179425000Y-93200000I0J-150000D01*
G01*
X179425000Y-94850000D01*
G75*
G02*
X179275000Y-95000000I-150000J0D01*
G01*
G37*
%TD.AperFunction*%
%TO.P,U6,14*%
%TO.N,Net-(U5-Pad9)*%
%TA.AperFunction,SMDPad,CuDef*%
G36*
G01*
X180545000Y-95000000D02*
X180245000Y-95000000D01*
G75*
G02*
X180095000Y-94850000I0J150000D01*
G01*
X180095000Y-93200000D01*
G75*
G02*
X180245000Y-93050000I150000J0D01*
G01*
X180545000Y-93050000D01*
G75*
G02*
X180695000Y-93200000I0J-150000D01*
G01*
X180695000Y-94850000D01*
G75*
G02*
X180545000Y-95000000I-150000J0D01*
G01*
G37*
%TD.AperFunction*%
%TO.P,U6,13*%
%TO.N,/bootstrap/BE*%
%TA.AperFunction,SMDPad,CuDef*%
G36*
G01*
X181815000Y-95000000D02*
X181515000Y-95000000D01*
G75*
G02*
X181365000Y-94850000I0J150000D01*
G01*
X181365000Y-93200000D01*
G75*
G02*
X181515000Y-93050000I150000J0D01*
G01*
X181815000Y-93050000D01*
G75*
G02*
X181965000Y-93200000I0J-150000D01*
G01*
X181965000Y-94850000D01*
G75*
G02*
X181815000Y-95000000I-150000J0D01*
G01*
G37*
%TD.AperFunction*%
%TO.P,U6,12*%
%TO.N,/bootstrap/LATCH*%
%TA.AperFunction,SMDPad,CuDef*%
G36*
G01*
X183085000Y-95000000D02*
X182785000Y-95000000D01*
G75*
G02*
X182635000Y-94850000I0J150000D01*
G01*
X182635000Y-93200000D01*
G75*
G02*
X182785000Y-93050000I150000J0D01*
G01*
X183085000Y-93050000D01*
G75*
G02*
X183235000Y-93200000I0J-150000D01*
G01*
X183235000Y-94850000D01*
G75*
G02*
X183085000Y-95000000I-150000J0D01*
G01*
G37*
%TD.AperFunction*%
%TO.P,U6,11*%
%TO.N,/bootstrap/CLOCK*%
%TA.AperFunction,SMDPad,CuDef*%
G36*
G01*
X184355000Y-95000000D02*
X184055000Y-95000000D01*
G75*
G02*
X183905000Y-94850000I0J150000D01*
G01*
X183905000Y-93200000D01*
G75*
G02*
X184055000Y-93050000I150000J0D01*
G01*
X184355000Y-93050000D01*
G75*
G02*
X184505000Y-93200000I0J-150000D01*
G01*
X184505000Y-94850000D01*
G75*
G02*
X184355000Y-95000000I-150000J0D01*
G01*
G37*
%TD.AperFunction*%
%TO.P,U6,10*%
%TO.N,VCC*%
%TA.AperFunction,SMDPad,CuDef*%
G36*
G01*
X185625000Y-95000000D02*
X185325000Y-95000000D01*
G75*
G02*
X185175000Y-94850000I0J150000D01*
G01*
X185175000Y-93200000D01*
G75*
G02*
X185325000Y-93050000I150000J0D01*
G01*
X185625000Y-93050000D01*
G75*
G02*
X185775000Y-93200000I0J-150000D01*
G01*
X185775000Y-94850000D01*
G75*
G02*
X185625000Y-95000000I-150000J0D01*
G01*
G37*
%TD.AperFunction*%
%TO.P,U6,9*%
%TO.N,Net-(U6-Pad9)*%
%TA.AperFunction,SMDPad,CuDef*%
G36*
G01*
X186895000Y-95000000D02*
X186595000Y-95000000D01*
G75*
G02*
X186445000Y-94850000I0J150000D01*
G01*
X186445000Y-93200000D01*
G75*
G02*
X186595000Y-93050000I150000J0D01*
G01*
X186895000Y-93050000D01*
G75*
G02*
X187045000Y-93200000I0J-150000D01*
G01*
X187045000Y-94850000D01*
G75*
G02*
X186895000Y-95000000I-150000J0D01*
G01*
G37*
%TD.AperFunction*%
%TO.P,U6,8*%
%TO.N,GND*%
%TA.AperFunction,SMDPad,CuDef*%
G36*
G01*
X186895000Y-99950000D02*
X186595000Y-99950000D01*
G75*
G02*
X186445000Y-99800000I0J150000D01*
G01*
X186445000Y-98150000D01*
G75*
G02*
X186595000Y-98000000I150000J0D01*
G01*
X186895000Y-98000000D01*
G75*
G02*
X187045000Y-98150000I0J-150000D01*
G01*
X187045000Y-99800000D01*
G75*
G02*
X186895000Y-99950000I-150000J0D01*
G01*
G37*
%TD.AperFunction*%
%TO.P,U6,7*%
%TO.N,/bootstrap/A15*%
%TA.AperFunction,SMDPad,CuDef*%
G36*
G01*
X185625000Y-99950000D02*
X185325000Y-99950000D01*
G75*
G02*
X185175000Y-99800000I0J150000D01*
G01*
X185175000Y-98150000D01*
G75*
G02*
X185325000Y-98000000I150000J0D01*
G01*
X185625000Y-98000000D01*
G75*
G02*
X185775000Y-98150000I0J-150000D01*
G01*
X185775000Y-99800000D01*
G75*
G02*
X185625000Y-99950000I-150000J0D01*
G01*
G37*
%TD.AperFunction*%
%TO.P,U6,6*%
%TO.N,/bootstrap/A14*%
%TA.AperFunction,SMDPad,CuDef*%
G36*
G01*
X184355000Y-99950000D02*
X184055000Y-99950000D01*
G75*
G02*
X183905000Y-99800000I0J150000D01*
G01*
X183905000Y-98150000D01*
G75*
G02*
X184055000Y-98000000I150000J0D01*
G01*
X184355000Y-98000000D01*
G75*
G02*
X184505000Y-98150000I0J-150000D01*
G01*
X184505000Y-99800000D01*
G75*
G02*
X184355000Y-99950000I-150000J0D01*
G01*
G37*
%TD.AperFunction*%
%TO.P,U6,5*%
%TO.N,/bootstrap/A13*%
%TA.AperFunction,SMDPad,CuDef*%
G36*
G01*
X183085000Y-99950000D02*
X182785000Y-99950000D01*
G75*
G02*
X182635000Y-99800000I0J150000D01*
G01*
X182635000Y-98150000D01*
G75*
G02*
X182785000Y-98000000I150000J0D01*
G01*
X183085000Y-98000000D01*
G75*
G02*
X183235000Y-98150000I0J-150000D01*
G01*
X183235000Y-99800000D01*
G75*
G02*
X183085000Y-99950000I-150000J0D01*
G01*
G37*
%TD.AperFunction*%
%TO.P,U6,4*%
%TO.N,/bootstrap/A12*%
%TA.AperFunction,SMDPad,CuDef*%
G36*
G01*
X181815000Y-99950000D02*
X181515000Y-99950000D01*
G75*
G02*
X181365000Y-99800000I0J150000D01*
G01*
X181365000Y-98150000D01*
G75*
G02*
X181515000Y-98000000I150000J0D01*
G01*
X181815000Y-98000000D01*
G75*
G02*
X181965000Y-98150000I0J-150000D01*
G01*
X181965000Y-99800000D01*
G75*
G02*
X181815000Y-99950000I-150000J0D01*
G01*
G37*
%TD.AperFunction*%
%TO.P,U6,3*%
%TO.N,/bootstrap/A11*%
%TA.AperFunction,SMDPad,CuDef*%
G36*
G01*
X180545000Y-99950000D02*
X180245000Y-99950000D01*
G75*
G02*
X180095000Y-99800000I0J150000D01*
G01*
X180095000Y-98150000D01*
G75*
G02*
X180245000Y-98000000I150000J0D01*
G01*
X180545000Y-98000000D01*
G75*
G02*
X180695000Y-98150000I0J-150000D01*
G01*
X180695000Y-99800000D01*
G75*
G02*
X180545000Y-99950000I-150000J0D01*
G01*
G37*
%TD.AperFunction*%
%TO.P,U6,2*%
%TO.N,/bootstrap/A10*%
%TA.AperFunction,SMDPad,CuDef*%
G36*
G01*
X179275000Y-99950000D02*
X178975000Y-99950000D01*
G75*
G02*
X178825000Y-99800000I0J150000D01*
G01*
X178825000Y-98150000D01*
G75*
G02*
X178975000Y-98000000I150000J0D01*
G01*
X179275000Y-98000000D01*
G75*
G02*
X179425000Y-98150000I0J-150000D01*
G01*
X179425000Y-99800000D01*
G75*
G02*
X179275000Y-99950000I-150000J0D01*
G01*
G37*
%TD.AperFunction*%
%TO.P,U6,1*%
%TO.N,/bootstrap/A9*%
%TA.AperFunction,SMDPad,CuDef*%
G36*
G01*
X178005000Y-99950000D02*
X177705000Y-99950000D01*
G75*
G02*
X177555000Y-99800000I0J150000D01*
G01*
X177555000Y-98150000D01*
G75*
G02*
X177705000Y-98000000I150000J0D01*
G01*
X178005000Y-98000000D01*
G75*
G02*
X178155000Y-98150000I0J-150000D01*
G01*
X178155000Y-99800000D01*
G75*
G02*
X178005000Y-99950000I-150000J0D01*
G01*
G37*
%TD.AperFunction*%
%TD*%
%TO.P,U7,14*%
%TO.N,VCC*%
%TA.AperFunction,SMDPad,CuDef*%
G36*
G01*
X173800000Y-125120000D02*
X174100000Y-125120000D01*
G75*
G02*
X174250000Y-125270000I0J-150000D01*
G01*
X174250000Y-126920000D01*
G75*
G02*
X174100000Y-127070000I-150000J0D01*
G01*
X173800000Y-127070000D01*
G75*
G02*
X173650000Y-126920000I0J150000D01*
G01*
X173650000Y-125270000D01*
G75*
G02*
X173800000Y-125120000I150000J0D01*
G01*
G37*
%TD.AperFunction*%
%TO.P,U7,13*%
%TA.AperFunction,SMDPad,CuDef*%
G36*
G01*
X172530000Y-125120000D02*
X172830000Y-125120000D01*
G75*
G02*
X172980000Y-125270000I0J-150000D01*
G01*
X172980000Y-126920000D01*
G75*
G02*
X172830000Y-127070000I-150000J0D01*
G01*
X172530000Y-127070000D01*
G75*
G02*
X172380000Y-126920000I0J150000D01*
G01*
X172380000Y-125270000D01*
G75*
G02*
X172530000Y-125120000I150000J0D01*
G01*
G37*
%TD.AperFunction*%
%TO.P,U7,12*%
%TO.N,/clock/~PHI2*%
%TA.AperFunction,SMDPad,CuDef*%
G36*
G01*
X171260000Y-125120000D02*
X171560000Y-125120000D01*
G75*
G02*
X171710000Y-125270000I0J-150000D01*
G01*
X171710000Y-126920000D01*
G75*
G02*
X171560000Y-127070000I-150000J0D01*
G01*
X171260000Y-127070000D01*
G75*
G02*
X171110000Y-126920000I0J150000D01*
G01*
X171110000Y-125270000D01*
G75*
G02*
X171260000Y-125120000I150000J0D01*
G01*
G37*
%TD.AperFunction*%
%TO.P,U7,11*%
%TO.N,Net-(U7-Pad11)*%
%TA.AperFunction,SMDPad,CuDef*%
G36*
G01*
X169990000Y-125120000D02*
X170290000Y-125120000D01*
G75*
G02*
X170440000Y-125270000I0J-150000D01*
G01*
X170440000Y-126920000D01*
G75*
G02*
X170290000Y-127070000I-150000J0D01*
G01*
X169990000Y-127070000D01*
G75*
G02*
X169840000Y-126920000I0J150000D01*
G01*
X169840000Y-125270000D01*
G75*
G02*
X169990000Y-125120000I150000J0D01*
G01*
G37*
%TD.AperFunction*%
%TO.P,U7,10*%
%TO.N,VCC*%
%TA.AperFunction,SMDPad,CuDef*%
G36*
G01*
X168720000Y-125120000D02*
X169020000Y-125120000D01*
G75*
G02*
X169170000Y-125270000I0J-150000D01*
G01*
X169170000Y-126920000D01*
G75*
G02*
X169020000Y-127070000I-150000J0D01*
G01*
X168720000Y-127070000D01*
G75*
G02*
X168570000Y-126920000I0J150000D01*
G01*
X168570000Y-125270000D01*
G75*
G02*
X168720000Y-125120000I150000J0D01*
G01*
G37*
%TD.AperFunction*%
%TO.P,U7,9*%
%TO.N,/PHI2*%
%TA.AperFunction,SMDPad,CuDef*%
G36*
G01*
X167450000Y-125120000D02*
X167750000Y-125120000D01*
G75*
G02*
X167900000Y-125270000I0J-150000D01*
G01*
X167900000Y-126920000D01*
G75*
G02*
X167750000Y-127070000I-150000J0D01*
G01*
X167450000Y-127070000D01*
G75*
G02*
X167300000Y-126920000I0J150000D01*
G01*
X167300000Y-125270000D01*
G75*
G02*
X167450000Y-125120000I150000J0D01*
G01*
G37*
%TD.AperFunction*%
%TO.P,U7,8*%
%TO.N,/clock/~PHI2*%
%TA.AperFunction,SMDPad,CuDef*%
G36*
G01*
X166180000Y-125120000D02*
X166480000Y-125120000D01*
G75*
G02*
X166630000Y-125270000I0J-150000D01*
G01*
X166630000Y-126920000D01*
G75*
G02*
X166480000Y-127070000I-150000J0D01*
G01*
X166180000Y-127070000D01*
G75*
G02*
X166030000Y-126920000I0J150000D01*
G01*
X166030000Y-125270000D01*
G75*
G02*
X166180000Y-125120000I150000J0D01*
G01*
G37*
%TD.AperFunction*%
%TO.P,U7,7*%
%TO.N,GND*%
%TA.AperFunction,SMDPad,CuDef*%
G36*
G01*
X166180000Y-120170000D02*
X166480000Y-120170000D01*
G75*
G02*
X166630000Y-120320000I0J-150000D01*
G01*
X166630000Y-121970000D01*
G75*
G02*
X166480000Y-122120000I-150000J0D01*
G01*
X166180000Y-122120000D01*
G75*
G02*
X166030000Y-121970000I0J150000D01*
G01*
X166030000Y-120320000D01*
G75*
G02*
X166180000Y-120170000I150000J0D01*
G01*
G37*
%TD.AperFunction*%
%TO.P,U7,6*%
%TO.N,Net-(U7-Pad6)*%
%TA.AperFunction,SMDPad,CuDef*%
G36*
G01*
X167450000Y-120170000D02*
X167750000Y-120170000D01*
G75*
G02*
X167900000Y-120320000I0J-150000D01*
G01*
X167900000Y-121970000D01*
G75*
G02*
X167750000Y-122120000I-150000J0D01*
G01*
X167450000Y-122120000D01*
G75*
G02*
X167300000Y-121970000I0J150000D01*
G01*
X167300000Y-120320000D01*
G75*
G02*
X167450000Y-120170000I150000J0D01*
G01*
G37*
%TD.AperFunction*%
%TO.P,U7,5*%
%TO.N,Net-(U7-Pad5)*%
%TA.AperFunction,SMDPad,CuDef*%
G36*
G01*
X168720000Y-120170000D02*
X169020000Y-120170000D01*
G75*
G02*
X169170000Y-120320000I0J-150000D01*
G01*
X169170000Y-121970000D01*
G75*
G02*
X169020000Y-122120000I-150000J0D01*
G01*
X168720000Y-122120000D01*
G75*
G02*
X168570000Y-121970000I0J150000D01*
G01*
X168570000Y-120320000D01*
G75*
G02*
X168720000Y-120170000I150000J0D01*
G01*
G37*
%TD.AperFunction*%
%TO.P,U7,4*%
%TO.N,VCC*%
%TA.AperFunction,SMDPad,CuDef*%
G36*
G01*
X169990000Y-120170000D02*
X170290000Y-120170000D01*
G75*
G02*
X170440000Y-120320000I0J-150000D01*
G01*
X170440000Y-121970000D01*
G75*
G02*
X170290000Y-122120000I-150000J0D01*
G01*
X169990000Y-122120000D01*
G75*
G02*
X169840000Y-121970000I0J150000D01*
G01*
X169840000Y-120320000D01*
G75*
G02*
X169990000Y-120170000I150000J0D01*
G01*
G37*
%TD.AperFunction*%
%TO.P,U7,3*%
%TO.N,GND*%
%TA.AperFunction,SMDPad,CuDef*%
G36*
G01*
X171260000Y-120170000D02*
X171560000Y-120170000D01*
G75*
G02*
X171710000Y-120320000I0J-150000D01*
G01*
X171710000Y-121970000D01*
G75*
G02*
X171560000Y-122120000I-150000J0D01*
G01*
X171260000Y-122120000D01*
G75*
G02*
X171110000Y-121970000I0J150000D01*
G01*
X171110000Y-120320000D01*
G75*
G02*
X171260000Y-120170000I150000J0D01*
G01*
G37*
%TD.AperFunction*%
%TO.P,U7,2*%
%TA.AperFunction,SMDPad,CuDef*%
G36*
G01*
X172530000Y-120170000D02*
X172830000Y-120170000D01*
G75*
G02*
X172980000Y-120320000I0J-150000D01*
G01*
X172980000Y-121970000D01*
G75*
G02*
X172830000Y-122120000I-150000J0D01*
G01*
X172530000Y-122120000D01*
G75*
G02*
X172380000Y-121970000I0J150000D01*
G01*
X172380000Y-120320000D01*
G75*
G02*
X172530000Y-120170000I150000J0D01*
G01*
G37*
%TD.AperFunction*%
%TO.P,U7,1*%
%TO.N,VCC*%
%TA.AperFunction,SMDPad,CuDef*%
G36*
G01*
X173800000Y-120170000D02*
X174100000Y-120170000D01*
G75*
G02*
X174250000Y-120320000I0J-150000D01*
G01*
X174250000Y-121970000D01*
G75*
G02*
X174100000Y-122120000I-150000J0D01*
G01*
X173800000Y-122120000D01*
G75*
G02*
X173650000Y-121970000I0J150000D01*
G01*
X173650000Y-120320000D01*
G75*
G02*
X173800000Y-120170000I150000J0D01*
G01*
G37*
%TD.AperFunction*%
%TD*%
%TO.P,U8,14*%
%TO.N,VCC*%
%TA.AperFunction,SMDPad,CuDef*%
G36*
G01*
X173700000Y-112210000D02*
X174000000Y-112210000D01*
G75*
G02*
X174150000Y-112360000I0J-150000D01*
G01*
X174150000Y-114010000D01*
G75*
G02*
X174000000Y-114160000I-150000J0D01*
G01*
X173700000Y-114160000D01*
G75*
G02*
X173550000Y-114010000I0J150000D01*
G01*
X173550000Y-112360000D01*
G75*
G02*
X173700000Y-112210000I150000J0D01*
G01*
G37*
%TD.AperFunction*%
%TO.P,U8,13*%
%TO.N,/bootstrap/RESET*%
%TA.AperFunction,SMDPad,CuDef*%
G36*
G01*
X172430000Y-112210000D02*
X172730000Y-112210000D01*
G75*
G02*
X172880000Y-112360000I0J-150000D01*
G01*
X172880000Y-114010000D01*
G75*
G02*
X172730000Y-114160000I-150000J0D01*
G01*
X172430000Y-114160000D01*
G75*
G02*
X172280000Y-114010000I0J150000D01*
G01*
X172280000Y-112360000D01*
G75*
G02*
X172430000Y-112210000I150000J0D01*
G01*
G37*
%TD.AperFunction*%
%TO.P,U8,12*%
%TO.N,/~RES*%
%TA.AperFunction,SMDPad,CuDef*%
G36*
G01*
X171160000Y-112210000D02*
X171460000Y-112210000D01*
G75*
G02*
X171610000Y-112360000I0J-150000D01*
G01*
X171610000Y-114010000D01*
G75*
G02*
X171460000Y-114160000I-150000J0D01*
G01*
X171160000Y-114160000D01*
G75*
G02*
X171010000Y-114010000I0J150000D01*
G01*
X171010000Y-112360000D01*
G75*
G02*
X171160000Y-112210000I150000J0D01*
G01*
G37*
%TD.AperFunction*%
%TO.P,U8,11*%
%TO.N,GND*%
%TA.AperFunction,SMDPad,CuDef*%
G36*
G01*
X169890000Y-112210000D02*
X170190000Y-112210000D01*
G75*
G02*
X170340000Y-112360000I0J-150000D01*
G01*
X170340000Y-114010000D01*
G75*
G02*
X170190000Y-114160000I-150000J0D01*
G01*
X169890000Y-114160000D01*
G75*
G02*
X169740000Y-114010000I0J150000D01*
G01*
X169740000Y-112360000D01*
G75*
G02*
X169890000Y-112210000I150000J0D01*
G01*
G37*
%TD.AperFunction*%
%TO.P,U8,10*%
%TO.N,Net-(U8-Pad10)*%
%TA.AperFunction,SMDPad,CuDef*%
G36*
G01*
X168620000Y-112210000D02*
X168920000Y-112210000D01*
G75*
G02*
X169070000Y-112360000I0J-150000D01*
G01*
X169070000Y-114010000D01*
G75*
G02*
X168920000Y-114160000I-150000J0D01*
G01*
X168620000Y-114160000D01*
G75*
G02*
X168470000Y-114010000I0J150000D01*
G01*
X168470000Y-112360000D01*
G75*
G02*
X168620000Y-112210000I150000J0D01*
G01*
G37*
%TD.AperFunction*%
%TO.P,U8,9*%
%TO.N,GND*%
%TA.AperFunction,SMDPad,CuDef*%
G36*
G01*
X167350000Y-112210000D02*
X167650000Y-112210000D01*
G75*
G02*
X167800000Y-112360000I0J-150000D01*
G01*
X167800000Y-114010000D01*
G75*
G02*
X167650000Y-114160000I-150000J0D01*
G01*
X167350000Y-114160000D01*
G75*
G02*
X167200000Y-114010000I0J150000D01*
G01*
X167200000Y-112360000D01*
G75*
G02*
X167350000Y-112210000I150000J0D01*
G01*
G37*
%TD.AperFunction*%
%TO.P,U8,8*%
%TO.N,Net-(U8-Pad8)*%
%TA.AperFunction,SMDPad,CuDef*%
G36*
G01*
X166080000Y-112210000D02*
X166380000Y-112210000D01*
G75*
G02*
X166530000Y-112360000I0J-150000D01*
G01*
X166530000Y-114010000D01*
G75*
G02*
X166380000Y-114160000I-150000J0D01*
G01*
X166080000Y-114160000D01*
G75*
G02*
X165930000Y-114010000I0J150000D01*
G01*
X165930000Y-112360000D01*
G75*
G02*
X166080000Y-112210000I150000J0D01*
G01*
G37*
%TD.AperFunction*%
%TO.P,U8,7*%
%TO.N,GND*%
%TA.AperFunction,SMDPad,CuDef*%
G36*
G01*
X166080000Y-107260000D02*
X166380000Y-107260000D01*
G75*
G02*
X166530000Y-107410000I0J-150000D01*
G01*
X166530000Y-109060000D01*
G75*
G02*
X166380000Y-109210000I-150000J0D01*
G01*
X166080000Y-109210000D01*
G75*
G02*
X165930000Y-109060000I0J150000D01*
G01*
X165930000Y-107410000D01*
G75*
G02*
X166080000Y-107260000I150000J0D01*
G01*
G37*
%TD.AperFunction*%
%TO.P,U8,6*%
%TO.N,Net-(U8-Pad6)*%
%TA.AperFunction,SMDPad,CuDef*%
G36*
G01*
X167350000Y-107260000D02*
X167650000Y-107260000D01*
G75*
G02*
X167800000Y-107410000I0J-150000D01*
G01*
X167800000Y-109060000D01*
G75*
G02*
X167650000Y-109210000I-150000J0D01*
G01*
X167350000Y-109210000D01*
G75*
G02*
X167200000Y-109060000I0J150000D01*
G01*
X167200000Y-107410000D01*
G75*
G02*
X167350000Y-107260000I150000J0D01*
G01*
G37*
%TD.AperFunction*%
%TO.P,U8,5*%
%TO.N,GND*%
%TA.AperFunction,SMDPad,CuDef*%
G36*
G01*
X168620000Y-107260000D02*
X168920000Y-107260000D01*
G75*
G02*
X169070000Y-107410000I0J-150000D01*
G01*
X169070000Y-109060000D01*
G75*
G02*
X168920000Y-109210000I-150000J0D01*
G01*
X168620000Y-109210000D01*
G75*
G02*
X168470000Y-109060000I0J150000D01*
G01*
X168470000Y-107410000D01*
G75*
G02*
X168620000Y-107260000I150000J0D01*
G01*
G37*
%TD.AperFunction*%
%TO.P,U8,4*%
%TO.N,Net-(U7-Pad11)*%
%TA.AperFunction,SMDPad,CuDef*%
G36*
G01*
X169890000Y-107260000D02*
X170190000Y-107260000D01*
G75*
G02*
X170340000Y-107410000I0J-150000D01*
G01*
X170340000Y-109060000D01*
G75*
G02*
X170190000Y-109210000I-150000J0D01*
G01*
X169890000Y-109210000D01*
G75*
G02*
X169740000Y-109060000I0J150000D01*
G01*
X169740000Y-107410000D01*
G75*
G02*
X169890000Y-107260000I150000J0D01*
G01*
G37*
%TD.AperFunction*%
%TO.P,U8,3*%
%TO.N,Net-(P1-Pad2)*%
%TA.AperFunction,SMDPad,CuDef*%
G36*
G01*
X171160000Y-107260000D02*
X171460000Y-107260000D01*
G75*
G02*
X171610000Y-107410000I0J-150000D01*
G01*
X171610000Y-109060000D01*
G75*
G02*
X171460000Y-109210000I-150000J0D01*
G01*
X171160000Y-109210000D01*
G75*
G02*
X171010000Y-109060000I0J150000D01*
G01*
X171010000Y-107410000D01*
G75*
G02*
X171160000Y-107260000I150000J0D01*
G01*
G37*
%TD.AperFunction*%
%TO.P,U8,2*%
%TA.AperFunction,SMDPad,CuDef*%
G36*
G01*
X172430000Y-107260000D02*
X172730000Y-107260000D01*
G75*
G02*
X172880000Y-107410000I0J-150000D01*
G01*
X172880000Y-109060000D01*
G75*
G02*
X172730000Y-109210000I-150000J0D01*
G01*
X172430000Y-109210000D01*
G75*
G02*
X172280000Y-109060000I0J150000D01*
G01*
X172280000Y-107410000D01*
G75*
G02*
X172430000Y-107260000I150000J0D01*
G01*
G37*
%TD.AperFunction*%
%TO.P,U8,1*%
%TO.N,Net-(C13-Pad1)*%
%TA.AperFunction,SMDPad,CuDef*%
G36*
G01*
X173700000Y-107260000D02*
X174000000Y-107260000D01*
G75*
G02*
X174150000Y-107410000I0J-150000D01*
G01*
X174150000Y-109060000D01*
G75*
G02*
X174000000Y-109210000I-150000J0D01*
G01*
X173700000Y-109210000D01*
G75*
G02*
X173550000Y-109060000I0J150000D01*
G01*
X173550000Y-107410000D01*
G75*
G02*
X173700000Y-107260000I150000J0D01*
G01*
G37*
%TD.AperFunction*%
%TD*%
%TO.P,U9,16*%
%TO.N,VCC*%
%TA.AperFunction,SMDPad,CuDef*%
G36*
G01*
X151395000Y-146000000D02*
X151695000Y-146000000D01*
G75*
G02*
X151845000Y-146150000I0J-150000D01*
G01*
X151845000Y-147800000D01*
G75*
G02*
X151695000Y-147950000I-150000J0D01*
G01*
X151395000Y-147950000D01*
G75*
G02*
X151245000Y-147800000I0J150000D01*
G01*
X151245000Y-146150000D01*
G75*
G02*
X151395000Y-146000000I150000J0D01*
G01*
G37*
%TD.AperFunction*%
%TO.P,U9,15*%
%TO.N,GND*%
%TA.AperFunction,SMDPad,CuDef*%
G36*
G01*
X150125000Y-146000000D02*
X150425000Y-146000000D01*
G75*
G02*
X150575000Y-146150000I0J-150000D01*
G01*
X150575000Y-147800000D01*
G75*
G02*
X150425000Y-147950000I-150000J0D01*
G01*
X150125000Y-147950000D01*
G75*
G02*
X149975000Y-147800000I0J150000D01*
G01*
X149975000Y-146150000D01*
G75*
G02*
X150125000Y-146000000I150000J0D01*
G01*
G37*
%TD.AperFunction*%
%TO.P,U9,14*%
%TO.N,/clock/~PHI2*%
%TA.AperFunction,SMDPad,CuDef*%
G36*
G01*
X148855000Y-146000000D02*
X149155000Y-146000000D01*
G75*
G02*
X149305000Y-146150000I0J-150000D01*
G01*
X149305000Y-147800000D01*
G75*
G02*
X149155000Y-147950000I-150000J0D01*
G01*
X148855000Y-147950000D01*
G75*
G02*
X148705000Y-147800000I0J150000D01*
G01*
X148705000Y-146150000D01*
G75*
G02*
X148855000Y-146000000I150000J0D01*
G01*
G37*
%TD.AperFunction*%
%TO.P,U9,13*%
%TO.N,/R~W*%
%TA.AperFunction,SMDPad,CuDef*%
G36*
G01*
X147585000Y-146000000D02*
X147885000Y-146000000D01*
G75*
G02*
X148035000Y-146150000I0J-150000D01*
G01*
X148035000Y-147800000D01*
G75*
G02*
X147885000Y-147950000I-150000J0D01*
G01*
X147585000Y-147950000D01*
G75*
G02*
X147435000Y-147800000I0J150000D01*
G01*
X147435000Y-146150000D01*
G75*
G02*
X147585000Y-146000000I150000J0D01*
G01*
G37*
%TD.AperFunction*%
%TO.P,U9,12*%
%TO.N,/memory/~WE*%
%TA.AperFunction,SMDPad,CuDef*%
G36*
G01*
X146315000Y-146000000D02*
X146615000Y-146000000D01*
G75*
G02*
X146765000Y-146150000I0J-150000D01*
G01*
X146765000Y-147800000D01*
G75*
G02*
X146615000Y-147950000I-150000J0D01*
G01*
X146315000Y-147950000D01*
G75*
G02*
X146165000Y-147800000I0J150000D01*
G01*
X146165000Y-146150000D01*
G75*
G02*
X146315000Y-146000000I150000J0D01*
G01*
G37*
%TD.AperFunction*%
%TO.P,U9,11*%
%TO.N,Net-(U9-Pad11)*%
%TA.AperFunction,SMDPad,CuDef*%
G36*
G01*
X145045000Y-146000000D02*
X145345000Y-146000000D01*
G75*
G02*
X145495000Y-146150000I0J-150000D01*
G01*
X145495000Y-147800000D01*
G75*
G02*
X145345000Y-147950000I-150000J0D01*
G01*
X145045000Y-147950000D01*
G75*
G02*
X144895000Y-147800000I0J150000D01*
G01*
X144895000Y-146150000D01*
G75*
G02*
X145045000Y-146000000I150000J0D01*
G01*
G37*
%TD.AperFunction*%
%TO.P,U9,10*%
%TO.N,/memory/~OE*%
%TA.AperFunction,SMDPad,CuDef*%
G36*
G01*
X143775000Y-146000000D02*
X144075000Y-146000000D01*
G75*
G02*
X144225000Y-146150000I0J-150000D01*
G01*
X144225000Y-147800000D01*
G75*
G02*
X144075000Y-147950000I-150000J0D01*
G01*
X143775000Y-147950000D01*
G75*
G02*
X143625000Y-147800000I0J150000D01*
G01*
X143625000Y-146150000D01*
G75*
G02*
X143775000Y-146000000I150000J0D01*
G01*
G37*
%TD.AperFunction*%
%TO.P,U9,9*%
%TO.N,Net-(U9-Pad9)*%
%TA.AperFunction,SMDPad,CuDef*%
G36*
G01*
X142505000Y-146000000D02*
X142805000Y-146000000D01*
G75*
G02*
X142955000Y-146150000I0J-150000D01*
G01*
X142955000Y-147800000D01*
G75*
G02*
X142805000Y-147950000I-150000J0D01*
G01*
X142505000Y-147950000D01*
G75*
G02*
X142355000Y-147800000I0J150000D01*
G01*
X142355000Y-146150000D01*
G75*
G02*
X142505000Y-146000000I150000J0D01*
G01*
G37*
%TD.AperFunction*%
%TO.P,U9,8*%
%TO.N,GND*%
%TA.AperFunction,SMDPad,CuDef*%
G36*
G01*
X142505000Y-141050000D02*
X142805000Y-141050000D01*
G75*
G02*
X142955000Y-141200000I0J-150000D01*
G01*
X142955000Y-142850000D01*
G75*
G02*
X142805000Y-143000000I-150000J0D01*
G01*
X142505000Y-143000000D01*
G75*
G02*
X142355000Y-142850000I0J150000D01*
G01*
X142355000Y-141200000D01*
G75*
G02*
X142505000Y-141050000I150000J0D01*
G01*
G37*
%TD.AperFunction*%
%TO.P,U9,7*%
%TO.N,Net-(U9-Pad7)*%
%TA.AperFunction,SMDPad,CuDef*%
G36*
G01*
X143775000Y-141050000D02*
X144075000Y-141050000D01*
G75*
G02*
X144225000Y-141200000I0J-150000D01*
G01*
X144225000Y-142850000D01*
G75*
G02*
X144075000Y-143000000I-150000J0D01*
G01*
X143775000Y-143000000D01*
G75*
G02*
X143625000Y-142850000I0J150000D01*
G01*
X143625000Y-141200000D01*
G75*
G02*
X143775000Y-141050000I150000J0D01*
G01*
G37*
%TD.AperFunction*%
%TO.P,U9,6*%
%TO.N,/memory/RAMCE*%
%TA.AperFunction,SMDPad,CuDef*%
G36*
G01*
X145045000Y-141050000D02*
X145345000Y-141050000D01*
G75*
G02*
X145495000Y-141200000I0J-150000D01*
G01*
X145495000Y-142850000D01*
G75*
G02*
X145345000Y-143000000I-150000J0D01*
G01*
X145045000Y-143000000D01*
G75*
G02*
X144895000Y-142850000I0J150000D01*
G01*
X144895000Y-141200000D01*
G75*
G02*
X145045000Y-141050000I150000J0D01*
G01*
G37*
%TD.AperFunction*%
%TO.P,U9,5*%
%TO.N,Net-(U9-Pad5)*%
%TA.AperFunction,SMDPad,CuDef*%
G36*
G01*
X146315000Y-141050000D02*
X146615000Y-141050000D01*
G75*
G02*
X146765000Y-141200000I0J-150000D01*
G01*
X146765000Y-142850000D01*
G75*
G02*
X146615000Y-143000000I-150000J0D01*
G01*
X146315000Y-143000000D01*
G75*
G02*
X146165000Y-142850000I0J150000D01*
G01*
X146165000Y-141200000D01*
G75*
G02*
X146315000Y-141050000I150000J0D01*
G01*
G37*
%TD.AperFunction*%
%TO.P,U9,4*%
%TO.N,Net-(U9-Pad4)*%
%TA.AperFunction,SMDPad,CuDef*%
G36*
G01*
X147585000Y-141050000D02*
X147885000Y-141050000D01*
G75*
G02*
X148035000Y-141200000I0J-150000D01*
G01*
X148035000Y-142850000D01*
G75*
G02*
X147885000Y-143000000I-150000J0D01*
G01*
X147585000Y-143000000D01*
G75*
G02*
X147435000Y-142850000I0J150000D01*
G01*
X147435000Y-141200000D01*
G75*
G02*
X147585000Y-141050000I150000J0D01*
G01*
G37*
%TD.AperFunction*%
%TO.P,U9,3*%
%TO.N,/bootstrap/A15*%
%TA.AperFunction,SMDPad,CuDef*%
G36*
G01*
X148855000Y-141050000D02*
X149155000Y-141050000D01*
G75*
G02*
X149305000Y-141200000I0J-150000D01*
G01*
X149305000Y-142850000D01*
G75*
G02*
X149155000Y-143000000I-150000J0D01*
G01*
X148855000Y-143000000D01*
G75*
G02*
X148705000Y-142850000I0J150000D01*
G01*
X148705000Y-141200000D01*
G75*
G02*
X148855000Y-141050000I150000J0D01*
G01*
G37*
%TD.AperFunction*%
%TO.P,U9,2*%
%TO.N,/bootstrap/A14*%
%TA.AperFunction,SMDPad,CuDef*%
G36*
G01*
X150125000Y-141050000D02*
X150425000Y-141050000D01*
G75*
G02*
X150575000Y-141200000I0J-150000D01*
G01*
X150575000Y-142850000D01*
G75*
G02*
X150425000Y-143000000I-150000J0D01*
G01*
X150125000Y-143000000D01*
G75*
G02*
X149975000Y-142850000I0J150000D01*
G01*
X149975000Y-141200000D01*
G75*
G02*
X150125000Y-141050000I150000J0D01*
G01*
G37*
%TD.AperFunction*%
%TO.P,U9,1*%
%TO.N,GND*%
%TA.AperFunction,SMDPad,CuDef*%
G36*
G01*
X151395000Y-141050000D02*
X151695000Y-141050000D01*
G75*
G02*
X151845000Y-141200000I0J-150000D01*
G01*
X151845000Y-142850000D01*
G75*
G02*
X151695000Y-143000000I-150000J0D01*
G01*
X151395000Y-143000000D01*
G75*
G02*
X151245000Y-142850000I0J150000D01*
G01*
X151245000Y-141200000D01*
G75*
G02*
X151395000Y-141050000I150000J0D01*
G01*
G37*
%TD.AperFunction*%
%TD*%
%TO.P,U10,16*%
%TO.N,VCC*%
%TA.AperFunction,SMDPad,CuDef*%
G36*
G01*
X165295000Y-146000000D02*
X165595000Y-146000000D01*
G75*
G02*
X165745000Y-146150000I0J-150000D01*
G01*
X165745000Y-147800000D01*
G75*
G02*
X165595000Y-147950000I-150000J0D01*
G01*
X165295000Y-147950000D01*
G75*
G02*
X165145000Y-147800000I0J150000D01*
G01*
X165145000Y-146150000D01*
G75*
G02*
X165295000Y-146000000I150000J0D01*
G01*
G37*
%TD.AperFunction*%
%TO.P,U10,15*%
%TO.N,Net-(U10-Pad15)*%
%TA.AperFunction,SMDPad,CuDef*%
G36*
G01*
X164025000Y-146000000D02*
X164325000Y-146000000D01*
G75*
G02*
X164475000Y-146150000I0J-150000D01*
G01*
X164475000Y-147800000D01*
G75*
G02*
X164325000Y-147950000I-150000J0D01*
G01*
X164025000Y-147950000D01*
G75*
G02*
X163875000Y-147800000I0J150000D01*
G01*
X163875000Y-146150000D01*
G75*
G02*
X164025000Y-146000000I150000J0D01*
G01*
G37*
%TD.AperFunction*%
%TO.P,U10,14*%
%TO.N,/memory/~CIA*%
%TA.AperFunction,SMDPad,CuDef*%
G36*
G01*
X162755000Y-146000000D02*
X163055000Y-146000000D01*
G75*
G02*
X163205000Y-146150000I0J-150000D01*
G01*
X163205000Y-147800000D01*
G75*
G02*
X163055000Y-147950000I-150000J0D01*
G01*
X162755000Y-147950000D01*
G75*
G02*
X162605000Y-147800000I0J150000D01*
G01*
X162605000Y-146150000D01*
G75*
G02*
X162755000Y-146000000I150000J0D01*
G01*
G37*
%TD.AperFunction*%
%TO.P,U10,13*%
%TO.N,/memory/~VIA*%
%TA.AperFunction,SMDPad,CuDef*%
G36*
G01*
X161485000Y-146000000D02*
X161785000Y-146000000D01*
G75*
G02*
X161935000Y-146150000I0J-150000D01*
G01*
X161935000Y-147800000D01*
G75*
G02*
X161785000Y-147950000I-150000J0D01*
G01*
X161485000Y-147950000D01*
G75*
G02*
X161335000Y-147800000I0J150000D01*
G01*
X161335000Y-146150000D01*
G75*
G02*
X161485000Y-146000000I150000J0D01*
G01*
G37*
%TD.AperFunction*%
%TO.P,U10,12*%
%TO.N,/memory/~CIAEXT*%
%TA.AperFunction,SMDPad,CuDef*%
G36*
G01*
X160215000Y-146000000D02*
X160515000Y-146000000D01*
G75*
G02*
X160665000Y-146150000I0J-150000D01*
G01*
X160665000Y-147800000D01*
G75*
G02*
X160515000Y-147950000I-150000J0D01*
G01*
X160215000Y-147950000D01*
G75*
G02*
X160065000Y-147800000I0J150000D01*
G01*
X160065000Y-146150000D01*
G75*
G02*
X160215000Y-146000000I150000J0D01*
G01*
G37*
%TD.AperFunction*%
%TO.P,U10,11*%
%TO.N,Net-(U10-Pad11)*%
%TA.AperFunction,SMDPad,CuDef*%
G36*
G01*
X158945000Y-146000000D02*
X159245000Y-146000000D01*
G75*
G02*
X159395000Y-146150000I0J-150000D01*
G01*
X159395000Y-147800000D01*
G75*
G02*
X159245000Y-147950000I-150000J0D01*
G01*
X158945000Y-147950000D01*
G75*
G02*
X158795000Y-147800000I0J150000D01*
G01*
X158795000Y-146150000D01*
G75*
G02*
X158945000Y-146000000I150000J0D01*
G01*
G37*
%TD.AperFunction*%
%TO.P,U10,10*%
%TO.N,Net-(U10-Pad10)*%
%TA.AperFunction,SMDPad,CuDef*%
G36*
G01*
X157675000Y-146000000D02*
X157975000Y-146000000D01*
G75*
G02*
X158125000Y-146150000I0J-150000D01*
G01*
X158125000Y-147800000D01*
G75*
G02*
X157975000Y-147950000I-150000J0D01*
G01*
X157675000Y-147950000D01*
G75*
G02*
X157525000Y-147800000I0J150000D01*
G01*
X157525000Y-146150000D01*
G75*
G02*
X157675000Y-146000000I150000J0D01*
G01*
G37*
%TD.AperFunction*%
%TO.P,U10,9*%
%TO.N,Net-(U10-Pad9)*%
%TA.AperFunction,SMDPad,CuDef*%
G36*
G01*
X156405000Y-146000000D02*
X156705000Y-146000000D01*
G75*
G02*
X156855000Y-146150000I0J-150000D01*
G01*
X156855000Y-147800000D01*
G75*
G02*
X156705000Y-147950000I-150000J0D01*
G01*
X156405000Y-147950000D01*
G75*
G02*
X156255000Y-147800000I0J150000D01*
G01*
X156255000Y-146150000D01*
G75*
G02*
X156405000Y-146000000I150000J0D01*
G01*
G37*
%TD.AperFunction*%
%TO.P,U10,8*%
%TO.N,GND*%
%TA.AperFunction,SMDPad,CuDef*%
G36*
G01*
X156405000Y-141050000D02*
X156705000Y-141050000D01*
G75*
G02*
X156855000Y-141200000I0J-150000D01*
G01*
X156855000Y-142850000D01*
G75*
G02*
X156705000Y-143000000I-150000J0D01*
G01*
X156405000Y-143000000D01*
G75*
G02*
X156255000Y-142850000I0J150000D01*
G01*
X156255000Y-141200000D01*
G75*
G02*
X156405000Y-141050000I150000J0D01*
G01*
G37*
%TD.AperFunction*%
%TO.P,U10,7*%
%TO.N,Net-(U10-Pad7)*%
%TA.AperFunction,SMDPad,CuDef*%
G36*
G01*
X157675000Y-141050000D02*
X157975000Y-141050000D01*
G75*
G02*
X158125000Y-141200000I0J-150000D01*
G01*
X158125000Y-142850000D01*
G75*
G02*
X157975000Y-143000000I-150000J0D01*
G01*
X157675000Y-143000000D01*
G75*
G02*
X157525000Y-142850000I0J150000D01*
G01*
X157525000Y-141200000D01*
G75*
G02*
X157675000Y-141050000I150000J0D01*
G01*
G37*
%TD.AperFunction*%
%TO.P,U10,6*%
%TO.N,/bootstrap/A15*%
%TA.AperFunction,SMDPad,CuDef*%
G36*
G01*
X158945000Y-141050000D02*
X159245000Y-141050000D01*
G75*
G02*
X159395000Y-141200000I0J-150000D01*
G01*
X159395000Y-142850000D01*
G75*
G02*
X159245000Y-143000000I-150000J0D01*
G01*
X158945000Y-143000000D01*
G75*
G02*
X158795000Y-142850000I0J150000D01*
G01*
X158795000Y-141200000D01*
G75*
G02*
X158945000Y-141050000I150000J0D01*
G01*
G37*
%TD.AperFunction*%
%TO.P,U10,5*%
%TO.N,/bootstrap/A14*%
%TA.AperFunction,SMDPad,CuDef*%
G36*
G01*
X160215000Y-141050000D02*
X160515000Y-141050000D01*
G75*
G02*
X160665000Y-141200000I0J-150000D01*
G01*
X160665000Y-142850000D01*
G75*
G02*
X160515000Y-143000000I-150000J0D01*
G01*
X160215000Y-143000000D01*
G75*
G02*
X160065000Y-142850000I0J150000D01*
G01*
X160065000Y-141200000D01*
G75*
G02*
X160215000Y-141050000I150000J0D01*
G01*
G37*
%TD.AperFunction*%
%TO.P,U10,4*%
%TA.AperFunction,SMDPad,CuDef*%
G36*
G01*
X161485000Y-141050000D02*
X161785000Y-141050000D01*
G75*
G02*
X161935000Y-141200000I0J-150000D01*
G01*
X161935000Y-142850000D01*
G75*
G02*
X161785000Y-143000000I-150000J0D01*
G01*
X161485000Y-143000000D01*
G75*
G02*
X161335000Y-142850000I0J150000D01*
G01*
X161335000Y-141200000D01*
G75*
G02*
X161485000Y-141050000I150000J0D01*
G01*
G37*
%TD.AperFunction*%
%TO.P,U10,3*%
%TO.N,/bootstrap/A13*%
%TA.AperFunction,SMDPad,CuDef*%
G36*
G01*
X162755000Y-141050000D02*
X163055000Y-141050000D01*
G75*
G02*
X163205000Y-141200000I0J-150000D01*
G01*
X163205000Y-142850000D01*
G75*
G02*
X163055000Y-143000000I-150000J0D01*
G01*
X162755000Y-143000000D01*
G75*
G02*
X162605000Y-142850000I0J150000D01*
G01*
X162605000Y-141200000D01*
G75*
G02*
X162755000Y-141050000I150000J0D01*
G01*
G37*
%TD.AperFunction*%
%TO.P,U10,2*%
%TO.N,/bootstrap/A12*%
%TA.AperFunction,SMDPad,CuDef*%
G36*
G01*
X164025000Y-141050000D02*
X164325000Y-141050000D01*
G75*
G02*
X164475000Y-141200000I0J-150000D01*
G01*
X164475000Y-142850000D01*
G75*
G02*
X164325000Y-143000000I-150000J0D01*
G01*
X164025000Y-143000000D01*
G75*
G02*
X163875000Y-142850000I0J150000D01*
G01*
X163875000Y-141200000D01*
G75*
G02*
X164025000Y-141050000I150000J0D01*
G01*
G37*
%TD.AperFunction*%
%TO.P,U10,1*%
%TO.N,/bootstrap/A11*%
%TA.AperFunction,SMDPad,CuDef*%
G36*
G01*
X165295000Y-141050000D02*
X165595000Y-141050000D01*
G75*
G02*
X165745000Y-141200000I0J-150000D01*
G01*
X165745000Y-142850000D01*
G75*
G02*
X165595000Y-143000000I-150000J0D01*
G01*
X165295000Y-143000000D01*
G75*
G02*
X165145000Y-142850000I0J150000D01*
G01*
X165145000Y-141200000D01*
G75*
G02*
X165295000Y-141050000I150000J0D01*
G01*
G37*
%TD.AperFunction*%
%TD*%
D10*
%TO.P,U11,20*%
%TO.N,VCC*%
X140843000Y-79920000D03*
%TO.P,U11,10*%
%TO.N,GND*%
X117983000Y-72300000D03*
%TO.P,U11,19*%
%TO.N,/memory/~CIA*%
X138303000Y-79920000D03*
%TO.P,U11,9*%
%TO.N,/peripherals/DB0*%
X120523000Y-72300000D03*
%TO.P,U11,18*%
%TO.N,/bootstrap/D7*%
X135763000Y-79920000D03*
%TO.P,U11,8*%
%TO.N,/peripherals/DB1*%
X123063000Y-72300000D03*
%TO.P,U11,17*%
%TO.N,/bootstrap/D6*%
X133223000Y-79920000D03*
%TO.P,U11,7*%
%TO.N,/peripherals/DB2*%
X125603000Y-72300000D03*
%TO.P,U11,16*%
%TO.N,/bootstrap/D5*%
X130683000Y-79920000D03*
%TO.P,U11,6*%
%TO.N,/peripherals/DB3*%
X128143000Y-72300000D03*
%TO.P,U11,15*%
%TO.N,/bootstrap/D4*%
X128143000Y-79920000D03*
%TO.P,U11,5*%
%TO.N,/peripherals/DB4*%
X130683000Y-72300000D03*
%TO.P,U11,14*%
%TO.N,/bootstrap/D3*%
X125603000Y-79920000D03*
%TO.P,U11,4*%
%TO.N,/peripherals/DB5*%
X133223000Y-72300000D03*
%TO.P,U11,13*%
%TO.N,/bootstrap/D2*%
X123063000Y-79920000D03*
%TO.P,U11,3*%
%TO.N,/peripherals/DB6*%
X135763000Y-72300000D03*
%TO.P,U11,12*%
%TO.N,/bootstrap/D1*%
X120523000Y-79920000D03*
%TO.P,U11,2*%
%TO.N,/peripherals/DB7*%
X138303000Y-72300000D03*
%TO.P,U11,11*%
%TO.N,/bootstrap/D0*%
X117983000Y-79920000D03*
D11*
%TO.P,U11,1*%
%TO.N,/R~W*%
X140843000Y-72300000D03*
%TD*%
D18*
%TO.P,Y1,2*%
%TO.N,Net-(C6-Pad1)*%
X137300000Y-136680000D03*
D19*
%TO.P,Y1,1*%
%TO.N,Net-(C5-Pad1)*%
X137300000Y-131600000D03*
%TD*%
D14*
%TO.P,J1,10*%
%TO.N,GND*%
X116960000Y-56240000D03*
%TO.P,J1,9*%
%TO.N,/io/PB0*%
X116960000Y-53700000D03*
%TO.P,J1,8*%
%TO.N,/io/PB1*%
X114420000Y-56240000D03*
%TO.P,J1,7*%
%TO.N,/io/PB2*%
X114420000Y-53700000D03*
%TO.P,J1,6*%
%TO.N,/io/PB3*%
X111880000Y-56240000D03*
%TO.P,J1,5*%
%TO.N,/io/PB4*%
X111880000Y-53700000D03*
%TO.P,J1,4*%
%TO.N,/io/PB5*%
X109340000Y-56240000D03*
%TO.P,J1,3*%
%TO.N,/io/PB6*%
X109340000Y-53700000D03*
%TO.P,J1,2*%
%TO.N,/io/PB7*%
X106800000Y-56240000D03*
D15*
%TO.P,J1,1*%
%TO.N,VCC*%
X106800000Y-53700000D03*
%TD*%
D20*
%TO.P,SW1,1*%
%TO.N,GND*%
X181420000Y-125490000D03*
%TO.P,SW1,2*%
X187920000Y-125490000D03*
%TO.P,SW1,3*%
%TO.N,/io/VPB7*%
X181420000Y-129990000D03*
%TO.P,SW1,4*%
X187920000Y-129990000D03*
%TD*%
%TO.P,SW2,1*%
%TO.N,GND*%
X181440000Y-134050000D03*
%TO.P,SW2,2*%
X187940000Y-134050000D03*
%TO.P,SW2,3*%
%TO.N,/io/VPB6*%
X181440000Y-138550000D03*
%TO.P,SW2,4*%
X187940000Y-138550000D03*
%TD*%
%TO.P,SW3,1*%
%TO.N,GND*%
X191400000Y-133970000D03*
%TO.P,SW3,2*%
X197900000Y-133970000D03*
%TO.P,SW3,3*%
%TO.N,/io/VPB5*%
X191400000Y-138470000D03*
%TO.P,SW3,4*%
X197900000Y-138470000D03*
%TD*%
%TO.P,SW4,1*%
%TO.N,GND*%
X191420000Y-125450000D03*
%TO.P,SW4,2*%
X197920000Y-125450000D03*
%TO.P,SW4,3*%
%TO.N,/io/VPB4*%
X191420000Y-129950000D03*
%TO.P,SW4,4*%
X197920000Y-129950000D03*
%TD*%
%TO.P,SW5,1*%
%TO.N,Net-(R13-Pad2)*%
X197600000Y-56800000D03*
%TO.P,SW5,2*%
X191100000Y-56800000D03*
%TO.P,SW5,3*%
%TO.N,VCC*%
X197600000Y-52300000D03*
%TO.P,SW5,4*%
X191100000Y-52300000D03*
%TD*%
D11*
%TO.P,U1,1*%
%TO.N,GND*%
X102700000Y-83850000D03*
D10*
%TO.P,U1,21*%
%TO.N,/~IRQ*%
X150960000Y-68610000D03*
%TO.P,U1,2*%
%TO.N,/peripherals/PA0*%
X105240000Y-83850000D03*
%TO.P,U1,22*%
%TO.N,/R~W*%
X148420000Y-68610000D03*
%TO.P,U1,3*%
%TO.N,/peripherals/PA1*%
X107780000Y-83850000D03*
%TO.P,U1,23*%
%TO.N,/memory/~CIA*%
X145880000Y-68610000D03*
%TO.P,U1,4*%
%TO.N,/peripherals/PA2*%
X110320000Y-83850000D03*
%TO.P,U1,24*%
%TO.N,/peripherals/~EXTFLAG*%
X143340000Y-68610000D03*
%TO.P,U1,5*%
%TO.N,/peripherals/PA3*%
X112860000Y-83850000D03*
%TO.P,U1,25*%
%TO.N,/PHI2*%
X140800000Y-68610000D03*
%TO.P,U1,6*%
%TO.N,/peripherals/PA4*%
X115400000Y-83850000D03*
%TO.P,U1,26*%
%TO.N,/peripherals/DB7*%
X138260000Y-68610000D03*
%TO.P,U1,7*%
%TO.N,/peripherals/PA5*%
X117940000Y-83850000D03*
%TO.P,U1,27*%
%TO.N,/peripherals/DB6*%
X135720000Y-68610000D03*
%TO.P,U1,8*%
%TO.N,/peripherals/PA6*%
X120480000Y-83850000D03*
%TO.P,U1,28*%
%TO.N,/peripherals/DB5*%
X133180000Y-68610000D03*
%TO.P,U1,9*%
%TO.N,/peripherals/PA7*%
X123020000Y-83850000D03*
%TO.P,U1,29*%
%TO.N,/peripherals/DB4*%
X130640000Y-68610000D03*
%TO.P,U1,10*%
%TO.N,/io/PB0*%
X125560000Y-83850000D03*
%TO.P,U1,30*%
%TO.N,/peripherals/DB3*%
X128100000Y-68610000D03*
%TO.P,U1,11*%
%TO.N,/io/PB1*%
X128100000Y-83850000D03*
%TO.P,U1,31*%
%TO.N,/peripherals/DB2*%
X125560000Y-68610000D03*
%TO.P,U1,12*%
%TO.N,/io/PB2*%
X130640000Y-83850000D03*
%TO.P,U1,32*%
%TO.N,/peripherals/DB1*%
X123020000Y-68610000D03*
%TO.P,U1,13*%
%TO.N,/io/PB3*%
X133180000Y-83850000D03*
%TO.P,U1,33*%
%TO.N,/peripherals/DB0*%
X120480000Y-68610000D03*
%TO.P,U1,14*%
%TO.N,/io/PB4*%
X135720000Y-83850000D03*
%TO.P,U1,34*%
%TO.N,/peripherals/~CIARES*%
X117940000Y-68610000D03*
%TO.P,U1,15*%
%TO.N,/io/PB5*%
X138260000Y-83850000D03*
%TO.P,U1,35*%
%TO.N,/bootstrap/A3*%
X115400000Y-68610000D03*
%TO.P,U1,16*%
%TO.N,/io/PB6*%
X140800000Y-83850000D03*
%TO.P,U1,36*%
%TO.N,/bootstrap/A2*%
X112860000Y-68610000D03*
%TO.P,U1,17*%
%TO.N,/io/PB7*%
X143340000Y-83850000D03*
%TO.P,U1,37*%
%TO.N,/bootstrap/A1*%
X110320000Y-68610000D03*
%TO.P,U1,18*%
%TO.N,/peripherals/~EXTPC*%
X145880000Y-83850000D03*
%TO.P,U1,38*%
%TO.N,/bootstrap/A0*%
X107780000Y-68610000D03*
%TO.P,U1,19*%
%TO.N,/TOD*%
X148420000Y-83850000D03*
%TO.P,U1,39*%
%TO.N,/peripherals/SERDAT*%
X105240000Y-68610000D03*
%TO.P,U1,20*%
%TO.N,VCC*%
X150960000Y-83850000D03*
%TO.P,U1,40*%
%TO.N,/peripherals/SERCLK*%
X102700000Y-68610000D03*
%TD*%
D21*
%TO.N,*%
X196342000Y-146304000D03*
X103378000Y-146050000D03*
D22*
%TO.N,GND*%
X152575000Y-96475000D03*
X139850000Y-134175000D03*
X152625000Y-78225000D03*
X142325000Y-74975000D03*
X181037500Y-109362500D03*
X176625000Y-122625000D03*
X168500000Y-143400000D03*
X150275000Y-148725000D03*
X176200000Y-60675000D03*
X143650000Y-129250000D03*
X161425000Y-129300000D03*
X166175000Y-133550000D03*
X186750000Y-97150000D03*
X173850000Y-97550000D03*
X151550000Y-143750000D03*
X156575000Y-143625000D03*
X142675000Y-143650000D03*
X152750000Y-144950000D03*
X128075000Y-114250000D03*
X172650000Y-119305000D03*
X166300000Y-119305000D03*
X168840000Y-106351000D03*
X167570000Y-114987000D03*
X170110000Y-114987000D03*
X166300000Y-110161000D03*
%TO.N,/memory/RAMCE*%
X145218000Y-139625000D03*
X160073195Y-135561000D03*
%TO.N,VCC*%
X112875000Y-114775000D03*
X152575000Y-98525000D03*
X152625000Y-80325000D03*
X142375000Y-77050000D03*
X152625000Y-73125000D03*
X154100000Y-148425000D03*
X168500000Y-148525000D03*
X166225000Y-138675000D03*
X176625000Y-127475000D03*
X177500000Y-109400000D03*
X185950000Y-110875000D03*
X172600000Y-92175000D03*
X185475000Y-92150000D03*
X164950000Y-92200000D03*
X145225000Y-61975000D03*
X174125000Y-60775000D03*
X191575000Y-136225000D03*
X181600000Y-136375000D03*
X181600000Y-127800000D03*
X191550000Y-127750000D03*
X125775000Y-117925000D03*
X176587090Y-94047954D03*
X173920000Y-119305000D03*
X168840000Y-127941000D03*
X172650000Y-127941000D03*
X170110000Y-119305000D03*
%TO.N,/memory/~VIA*%
X161645400Y-144907062D03*
%TO.N,/memory/~CIA*%
X163252000Y-145213000D03*
%TO.N,/bootstrap/BE*%
X168779149Y-97339843D03*
%TO.N,/~VIAIRQ*%
X124320961Y-103631252D03*
%TO.N,/~RES*%
X161004183Y-104742417D03*
X123444000Y-108204000D03*
%TO.N,/PHI2*%
X157480000Y-116586000D03*
%TO.N,/TODENABLE*%
X124390000Y-91365000D03*
%TO.N,/~CE*%
X150021865Y-138960072D03*
%TO.N,/bootstrap/D0*%
X124390000Y-90349000D03*
%TO.N,/bootstrap/A11*%
X180524000Y-101271000D03*
%TO.N,/bootstrap/A10*%
X179254000Y-101271000D03*
%TO.N,/bootstrap/A9*%
X177984000Y-101271000D03*
%TO.N,/bootstrap/A8*%
X176714000Y-101271000D03*
%TO.N,/bootstrap/A7*%
X172650000Y-101271000D03*
%TO.N,/bootstrap/A6*%
X171380000Y-101271000D03*
%TO.N,/bootstrap/A5*%
X170110000Y-101271000D03*
%TO.N,/bootstrap/A4*%
X168840000Y-101271000D03*
%TO.N,/bootstrap/A15*%
X185604000Y-101271000D03*
%TO.N,/bootstrap/A14*%
X184334000Y-101271000D03*
%TO.N,/bootstrap/A13*%
X183064000Y-101271000D03*
%TO.N,/bootstrap/A12*%
X181794000Y-101271000D03*
%TO.N,/bootstrap/A0*%
X163506000Y-101271000D03*
%TO.N,/bootstrap/A1*%
X165030000Y-101271000D03*
%TO.N,/bootstrap/A2*%
X166300000Y-101271000D03*
%TO.N,/bootstrap/A3*%
X167570000Y-101271000D03*
%TO.N,/R~W*%
X147066000Y-107670600D03*
%TO.N,/memory/~CIAEXT*%
X166300000Y-148743600D03*
%TD*%
D23*
%TO.N,GND*%
X179547500Y-110852500D02*
X181037500Y-109362500D01*
X179547500Y-110885000D02*
X179547500Y-110852500D01*
X181037500Y-109362500D02*
X182450000Y-107950000D01*
X176600000Y-122650000D02*
X176625000Y-122625000D01*
X176600000Y-124025000D02*
X176600000Y-122650000D01*
X168500000Y-144900000D02*
X168500000Y-143400000D01*
X150275000Y-146975000D02*
X150275000Y-148725000D01*
D24*
X143645000Y-129245000D02*
X143650000Y-129250000D01*
X143645000Y-127700000D02*
X143645000Y-129245000D01*
X161425000Y-127700000D02*
X161425000Y-129300000D01*
D23*
X166200000Y-133575000D02*
X166175000Y-133550000D01*
X166200000Y-135025000D02*
X166200000Y-133575000D01*
X186745000Y-97155000D02*
X186750000Y-97150000D01*
X186745000Y-98975000D02*
X186745000Y-97155000D01*
X173845000Y-97555000D02*
X173850000Y-97550000D01*
X173845000Y-99075000D02*
X173845000Y-97555000D01*
X151545000Y-143745000D02*
X151550000Y-143750000D01*
X151545000Y-142025000D02*
X151545000Y-143745000D01*
X156555000Y-143605000D02*
X156575000Y-143625000D01*
X156555000Y-142025000D02*
X156555000Y-143605000D01*
X142655000Y-143630000D02*
X142675000Y-143650000D01*
X142655000Y-142025000D02*
X142655000Y-143630000D01*
X152775000Y-144925000D02*
X152750000Y-144950000D01*
X154100000Y-144925000D02*
X152775000Y-144925000D01*
X171410000Y-121145000D02*
X172680000Y-121145000D01*
X172680000Y-119335000D02*
X172650000Y-119305000D01*
X172680000Y-121145000D02*
X172680000Y-119335000D01*
X166330000Y-119335000D02*
X166300000Y-119305000D01*
X166330000Y-121145000D02*
X166330000Y-119335000D01*
X168770000Y-106421000D02*
X168840000Y-106351000D01*
X168770000Y-108235000D02*
X168770000Y-106421000D01*
X167500000Y-114917000D02*
X167570000Y-114987000D01*
X167500000Y-113185000D02*
X167500000Y-114917000D01*
X170040000Y-114917000D02*
X170110000Y-114987000D01*
X170040000Y-113185000D02*
X170040000Y-114917000D01*
X166230000Y-110091000D02*
X166300000Y-110161000D01*
X166230000Y-108235000D02*
X166230000Y-110091000D01*
D24*
X179625000Y-107950000D02*
X181037500Y-109362500D01*
X179537500Y-107950000D02*
X179625000Y-107950000D01*
%TO.N,/memory/~OE*%
X152535000Y-137950000D02*
X150368020Y-140116980D01*
X152535000Y-137100000D02*
X152535000Y-137950000D01*
X149456464Y-140116980D02*
X148375000Y-141198444D01*
X150368020Y-140116980D02*
X149456464Y-140116980D01*
X148375000Y-141198444D02*
X148375000Y-143600000D01*
X148375000Y-143600000D02*
X147300000Y-144675000D01*
X147300000Y-144675000D02*
X145025000Y-144675000D01*
X143925000Y-145775000D02*
X143925000Y-146975000D01*
X145025000Y-144675000D02*
X143925000Y-145775000D01*
%TO.N,/memory/~WE*%
X158885000Y-137100000D02*
X158885000Y-137885000D01*
X158951556Y-137885000D02*
X162125510Y-141058954D01*
X158885000Y-137885000D02*
X158951556Y-137885000D01*
X162125510Y-141058954D02*
X162125510Y-142991046D01*
X162125510Y-142991046D02*
X160970778Y-144145778D01*
X160970778Y-144145778D02*
X160916556Y-144200000D01*
X146465000Y-146000000D02*
X146465000Y-146975000D01*
X159375000Y-145725000D02*
X146740000Y-145725000D01*
X160954222Y-144145778D02*
X159375000Y-145725000D01*
X146740000Y-145725000D02*
X146465000Y-146000000D01*
X160970778Y-144145778D02*
X160954222Y-144145778D01*
%TO.N,/memory/RAMCE*%
X145195000Y-139648000D02*
X145218000Y-139625000D01*
X145195000Y-142025000D02*
X145195000Y-139648000D01*
X160073195Y-137018195D02*
X160155000Y-137100000D01*
X160073195Y-135561000D02*
X160073195Y-137018195D01*
D23*
%TO.N,VCC*%
X151570000Y-147000000D02*
X151545000Y-146975000D01*
X154100000Y-147000000D02*
X151570000Y-147000000D01*
X168500000Y-146975000D02*
X165445000Y-146975000D01*
X166200000Y-137100000D02*
X162695000Y-137100000D01*
X173955000Y-126100000D02*
X173950000Y-126095000D01*
X176600000Y-126100000D02*
X173955000Y-126100000D01*
X174025000Y-113360000D02*
X173850000Y-113185000D01*
X154100000Y-147000000D02*
X154100000Y-148425000D01*
X168500000Y-146975000D02*
X168500000Y-148525000D01*
X166200000Y-138650000D02*
X166225000Y-138675000D01*
X166200000Y-137100000D02*
X166200000Y-138650000D01*
X176600000Y-127450000D02*
X176625000Y-127475000D01*
X176600000Y-126100000D02*
X176600000Y-127450000D01*
X177472500Y-109427500D02*
X177500000Y-109400000D01*
X177472500Y-110885000D02*
X177472500Y-109427500D01*
X184500000Y-110875000D02*
X185950000Y-110875000D01*
X177472500Y-110885000D02*
X174790000Y-110885000D01*
X173850000Y-111825000D02*
X173850000Y-113185000D01*
X174790000Y-110885000D02*
X173850000Y-111825000D01*
X172575000Y-92200000D02*
X172600000Y-92175000D01*
X172575000Y-94125000D02*
X172575000Y-92200000D01*
X185475000Y-94025000D02*
X185475000Y-92150000D01*
X164955000Y-92205000D02*
X164950000Y-92200000D01*
X164955000Y-94125000D02*
X164955000Y-92205000D01*
X176610044Y-94025000D02*
X176587090Y-94047954D01*
X177855000Y-94025000D02*
X176610044Y-94025000D01*
X173950000Y-119335000D02*
X173920000Y-119305000D01*
X173950000Y-121145000D02*
X173950000Y-119335000D01*
X168870000Y-127911000D02*
X168840000Y-127941000D01*
X168870000Y-126095000D02*
X168870000Y-127911000D01*
X172680000Y-127911000D02*
X172650000Y-127941000D01*
X172680000Y-126095000D02*
X172680000Y-127911000D01*
X170140000Y-119335000D02*
X170110000Y-119305000D01*
X170140000Y-121145000D02*
X170140000Y-119335000D01*
D24*
%TO.N,Net-(U5-Pad9)*%
X173845000Y-94125000D02*
X173845000Y-92710000D01*
X173845000Y-94125000D02*
X173845000Y-92456000D01*
X173845000Y-92456000D02*
X174636489Y-91664511D01*
X174636489Y-91664511D02*
X179632374Y-91664511D01*
X180395000Y-92427137D02*
X180395000Y-94025000D01*
X179632374Y-91664511D02*
X180395000Y-92427137D01*
%TO.N,Net-(U7-Pad11)*%
X170140000Y-126095000D02*
X170140000Y-123847000D01*
X170140000Y-123847000D02*
X170789162Y-123197838D01*
X170789162Y-123197838D02*
X170789162Y-117754487D01*
X170789162Y-117754487D02*
X169402763Y-116368088D01*
X169402763Y-116368088D02*
X169402763Y-110230959D01*
X170040000Y-109593722D02*
X170040000Y-108235000D01*
X169402763Y-110230959D02*
X170040000Y-109593722D01*
D23*
%TO.N,Net-(C13-Pad1)*%
X173837400Y-108222400D02*
X173850000Y-108235000D01*
X174135000Y-107950000D02*
X173850000Y-108235000D01*
X177462500Y-107950000D02*
X174135000Y-107950000D01*
D24*
X175133000Y-134112000D02*
X178492000Y-130753000D01*
X178492000Y-130753000D02*
X178492000Y-121591000D01*
X178492000Y-121591000D02*
X171935863Y-115034863D01*
X171935863Y-115034863D02*
X171935863Y-111891137D01*
X173850000Y-109977000D02*
X173850000Y-108235000D01*
X171935863Y-111891137D02*
X173850000Y-109977000D01*
%TO.N,Net-(P1-Pad2)*%
X171310000Y-108235000D02*
X172580000Y-108235000D01*
X171310000Y-108235000D02*
X171310000Y-109256884D01*
X171310000Y-109256884D02*
X170610930Y-109955954D01*
X170643401Y-109988425D02*
X170643401Y-114101625D01*
X170610930Y-109955954D02*
X170643401Y-109988425D01*
X170643401Y-114101625D02*
X178237990Y-121696214D01*
X178237990Y-121696214D02*
X178237990Y-128703010D01*
X178237990Y-128703010D02*
X173666000Y-133275000D01*
X173666000Y-135185000D02*
X175133000Y-136652000D01*
X173666000Y-133275000D02*
X173666000Y-135185000D01*
%TO.N,/clock/~PHI2*%
X166330000Y-126095000D02*
X166330000Y-127463000D01*
X166330000Y-127463000D02*
X167570000Y-128703000D01*
X167570000Y-128703000D02*
X170364000Y-128703000D01*
X171410000Y-127657000D02*
X171410000Y-126095000D01*
X170364000Y-128703000D02*
X171410000Y-127657000D01*
X170364000Y-128703000D02*
X170364000Y-148261000D01*
X170364000Y-148261000D02*
X169348000Y-149277000D01*
X169348000Y-149277000D02*
X149536000Y-149277000D01*
X149005000Y-148746000D02*
X149005000Y-146975000D01*
X149536000Y-149277000D02*
X149005000Y-148746000D01*
X123374000Y-148261000D02*
X123374000Y-133206000D01*
X124390000Y-149277000D02*
X123374000Y-148261000D01*
X123374000Y-133206000D02*
X125200000Y-131380000D01*
X148520000Y-149277000D02*
X124390000Y-149277000D01*
X149005000Y-148792000D02*
X148520000Y-149277000D01*
X149005000Y-148746000D02*
X149005000Y-148792000D01*
%TO.N,/memory/~VIA*%
X161645400Y-146964600D02*
X161635000Y-146975000D01*
X161645400Y-144907062D02*
X161645400Y-146964600D01*
%TO.N,/memory/~CIA*%
X162905000Y-145560000D02*
X163252000Y-145213000D01*
X162905000Y-146975000D02*
X162905000Y-145560000D01*
D23*
%TO.N,/bootstrap/RESET*%
X177500000Y-113515000D02*
X177500000Y-113875000D01*
X190225000Y-85495000D02*
X192520000Y-83200000D01*
X190225000Y-100662220D02*
X190225000Y-85495000D01*
X183425000Y-107462220D02*
X190225000Y-100662220D01*
X183425000Y-114425000D02*
X183425000Y-107462220D01*
X183025000Y-114825000D02*
X183425000Y-114425000D01*
X172580000Y-114380000D02*
X173025000Y-114825000D01*
X172580000Y-113185000D02*
X172580000Y-114380000D01*
X177500000Y-114750000D02*
X177575000Y-114825000D01*
X177500000Y-113515000D02*
X177500000Y-114750000D01*
X177575000Y-114825000D02*
X183025000Y-114825000D01*
X173025000Y-114825000D02*
X177575000Y-114825000D01*
%TO.N,Net-(R13-Pad2)*%
X185725000Y-113525000D02*
X184425000Y-113525000D01*
X186750000Y-112500000D02*
X185725000Y-113525000D01*
X186725000Y-107950000D02*
X186750000Y-107925000D01*
X184450000Y-107950000D02*
X186725000Y-107950000D01*
X186750000Y-107925000D02*
X186750000Y-112500000D01*
X186750000Y-107925000D02*
X186800000Y-107925000D01*
X186800000Y-107925000D02*
X190606010Y-104118990D01*
X190606010Y-104118990D02*
X190606010Y-90643990D01*
X190606010Y-90643990D02*
X198475000Y-82775000D01*
X198475000Y-57675000D02*
X197600000Y-56800000D01*
X198475000Y-82775000D02*
X198475000Y-57675000D01*
D24*
X191100000Y-56800000D02*
X197600000Y-56800000D01*
%TO.N,/peripherals/LCD_D7*%
X133383150Y-61965000D02*
X133795000Y-61965000D01*
X123020000Y-101700000D02*
X121495991Y-100175991D01*
X121495991Y-100175991D02*
X121495991Y-83195991D01*
X130427804Y-63458018D02*
X131890132Y-63458018D01*
X125718664Y-64524054D02*
X129361768Y-64524054D01*
X121495991Y-83195991D02*
X119279010Y-80979010D01*
X119279010Y-75607216D02*
X121767511Y-73118715D01*
X129361768Y-64524054D02*
X130427804Y-63458018D01*
X119279010Y-80979010D02*
X119279010Y-75607216D01*
X121767511Y-73118715D02*
X121767511Y-67012879D01*
X125031637Y-65211081D02*
X125718664Y-64524054D01*
X121767511Y-67012879D02*
X123569308Y-65211082D01*
X123569308Y-65211082D02*
X125031637Y-65211081D01*
X131890132Y-63458018D02*
X133383150Y-61965000D01*
%TO.N,/peripherals/LCD_D6*%
X120480000Y-101700000D02*
X119325000Y-100545000D01*
X119325000Y-100545000D02*
X119325000Y-85664224D01*
X119325000Y-85664224D02*
X118945990Y-85285214D01*
X118945990Y-82970990D02*
X118945990Y-83470990D01*
X116670050Y-80695050D02*
X118945990Y-82970990D01*
X118945990Y-85285214D02*
X118945990Y-83470990D01*
X118945990Y-83470990D02*
X118945990Y-83170990D01*
X129046123Y-63762027D02*
X125403018Y-63762028D01*
X121153486Y-65211082D02*
X119184511Y-67180057D01*
X130843150Y-61965000D02*
X129046123Y-63762027D01*
X125403018Y-63762028D02*
X124715992Y-64449054D01*
X124715992Y-64449054D02*
X123253664Y-64449054D01*
X123253664Y-64449054D02*
X122491637Y-65211081D01*
X131255000Y-61965000D02*
X130843150Y-61965000D01*
X119184511Y-67180057D02*
X119184511Y-69190655D01*
X119184511Y-69190655D02*
X116670050Y-71705116D01*
X122491637Y-65211081D02*
X121153486Y-65211082D01*
X116670050Y-71705116D02*
X116670050Y-80695050D01*
%TO.N,/peripherals/LCD_D5*%
X117940000Y-101700000D02*
X117940000Y-101365000D01*
X115908020Y-70785428D02*
X116949499Y-69743949D01*
X125087374Y-63000000D02*
X127680000Y-63000000D01*
X115908020Y-82423796D02*
X115908020Y-70785428D01*
X116949499Y-67212397D02*
X118958313Y-65203583D01*
X118958313Y-65203583D02*
X120083313Y-65203583D01*
X124400347Y-63687027D02*
X125087374Y-63000000D01*
X127680000Y-63000000D02*
X128715000Y-61965000D01*
X120083313Y-65203583D02*
X120837842Y-64449054D01*
X120837842Y-64449054D02*
X122175992Y-64449054D01*
X122175992Y-64449054D02*
X122938018Y-63687028D01*
X116949499Y-69743949D02*
X116949499Y-67212397D01*
X122938018Y-63687028D02*
X124400347Y-63687027D01*
X115908020Y-82423796D02*
X116644511Y-83160287D01*
X116644511Y-100170989D02*
X117224261Y-100750739D01*
X116644511Y-83160287D02*
X116644511Y-100170989D01*
X117224261Y-100750739D02*
X116898521Y-100425000D01*
X117940000Y-101466479D02*
X117224261Y-100750739D01*
%TO.N,/peripherals/LCD_D4*%
X115400000Y-101700000D02*
X116250000Y-100850000D01*
X124295132Y-63433018D02*
X125763150Y-61965000D01*
X122832804Y-63433018D02*
X124295132Y-63433018D01*
X122070777Y-64195045D02*
X122832804Y-63433018D01*
X120732626Y-64195046D02*
X122070777Y-64195045D01*
X119978098Y-64949574D02*
X120732626Y-64195046D01*
X125763150Y-61965000D02*
X126175000Y-61965000D01*
X116644512Y-67158160D02*
X118853097Y-64949575D01*
X116644511Y-69689713D02*
X116644512Y-67158160D01*
X118853097Y-64949575D02*
X119978098Y-64949574D01*
X115654010Y-70680214D02*
X116644511Y-69689713D01*
X115654010Y-82529010D02*
X115654010Y-70680214D01*
X115654010Y-82529010D02*
X116390501Y-83265501D01*
X116390501Y-100709499D02*
X116300000Y-100800000D01*
X116390501Y-83265501D02*
X116390501Y-100709499D01*
X116300000Y-100800000D02*
X115400000Y-101700000D01*
%TO.N,/peripherals/LCD_E*%
X112860000Y-101700000D02*
X113900000Y-100660000D01*
X114155489Y-100404511D02*
X112860000Y-101700000D01*
X114155489Y-84975000D02*
X114155489Y-100404511D01*
X114155489Y-84975000D02*
X114155489Y-67619511D01*
X114155489Y-67619511D02*
X114155489Y-67519511D01*
X123223150Y-61965000D02*
X123635000Y-61965000D01*
X120416982Y-63433018D02*
X121755132Y-63433018D01*
X118200944Y-64524056D02*
X118537453Y-64187547D01*
X115095346Y-64524056D02*
X118200944Y-64524056D01*
X119662453Y-64187547D02*
X120416982Y-63433018D01*
X118537453Y-64187547D02*
X119662453Y-64187547D01*
X114155489Y-65463913D02*
X115095346Y-64524056D01*
X121755132Y-63433018D02*
X123223150Y-61965000D01*
X114155489Y-67619511D02*
X114155489Y-65463913D01*
%TO.N,/peripherals/LCD_RW*%
X110320000Y-101700000D02*
X111400000Y-100620000D01*
X121095000Y-61965000D02*
X120753448Y-61965000D01*
X120753448Y-61965000D02*
X119292927Y-63425519D01*
X118172153Y-63425519D02*
X117835644Y-63762028D01*
X119292927Y-63425519D02*
X118172153Y-63425519D01*
X117835644Y-63762028D02*
X114779702Y-63762028D01*
X114779702Y-63762028D02*
X111615489Y-66926241D01*
X111615489Y-100404511D02*
X110320000Y-101700000D01*
X111615489Y-66926241D02*
X111615489Y-100404511D01*
%TO.N,/peripherals/LCD_RS*%
X109075489Y-100404511D02*
X107780000Y-101700000D01*
X109075489Y-68388569D02*
X109075489Y-100404511D01*
X118555000Y-61965000D02*
X117520000Y-63000000D01*
X114464058Y-63000000D02*
X113982029Y-63482029D01*
X117520000Y-63000000D02*
X114464058Y-63000000D01*
X113982029Y-63482029D02*
X109075489Y-68388569D01*
%TO.N,/bootstrap/BE*%
X182360000Y-67960000D02*
X182360000Y-81040000D01*
X182360000Y-81040000D02*
X180810501Y-82589499D01*
X181665000Y-92265000D02*
X181665000Y-94025000D01*
X180810501Y-91410501D02*
X181665000Y-92265000D01*
X168765000Y-94125000D02*
X168765000Y-92560000D01*
X168765000Y-92560000D02*
X169914499Y-91410501D01*
X169914499Y-91410501D02*
X169922270Y-91410501D01*
X173491270Y-87841501D02*
X180810501Y-87841501D01*
X169922270Y-91410501D02*
X173491270Y-87841501D01*
X180810501Y-87841501D02*
X180810501Y-91410501D01*
X180810501Y-82589499D02*
X180810501Y-87841501D01*
X168779149Y-94139149D02*
X168765000Y-94125000D01*
X168779149Y-97339843D02*
X168779149Y-94139149D01*
%TO.N,/~IRQ*%
X172875000Y-55045000D02*
X174160000Y-53760000D01*
X172875000Y-57150000D02*
X172875000Y-55045000D01*
X172500000Y-57525000D02*
X165650000Y-64375000D01*
X172425000Y-57600000D02*
X172500000Y-57525000D01*
X172500000Y-57525000D02*
X172875000Y-57150000D01*
X155195000Y-64375000D02*
X150960000Y-68610000D01*
X165650000Y-64375000D02*
X155195000Y-64375000D01*
%TO.N,/~VIAIRQ*%
X123025000Y-121690000D02*
X123025000Y-110147000D01*
X123025000Y-110147000D02*
X124314910Y-108857090D01*
X124314910Y-103637303D02*
X124320961Y-103631252D01*
X124314910Y-108857090D02*
X124314910Y-103637303D01*
%TO.N,/~RES*%
X110325000Y-106450000D02*
X112850000Y-103925000D01*
X117100000Y-103925000D02*
X117540166Y-103925000D01*
X112850000Y-103925000D02*
X117100000Y-103925000D01*
X117100000Y-103925000D02*
X117180942Y-103925000D01*
X117540166Y-103925000D02*
X119184511Y-102280655D01*
X117940000Y-99519224D02*
X117940000Y-86460000D01*
X119184511Y-100763735D02*
X117940000Y-99519224D01*
X119184511Y-102280655D02*
X119184511Y-100763735D01*
X171310000Y-113185000D02*
X171310000Y-111490000D01*
X171310000Y-111490000D02*
X171339359Y-111490000D01*
X171339359Y-111490000D02*
X173205063Y-109624296D01*
X170543973Y-104742417D02*
X161004183Y-104742417D01*
X173205063Y-107403507D02*
X170543973Y-104742417D01*
X173205063Y-109624296D02*
X173205063Y-107403507D01*
X112079000Y-108204000D02*
X123444000Y-108204000D01*
X110325000Y-106450000D02*
X112079000Y-108204000D01*
%TO.N,/PHI2*%
X140800000Y-86460000D02*
X139325000Y-84985000D01*
X139325000Y-84985000D02*
X139325000Y-80550000D01*
X139547511Y-69862489D02*
X139892500Y-69517500D01*
X139892500Y-69517500D02*
X140800000Y-68610000D01*
X139325000Y-80550000D02*
X139325000Y-73103166D01*
X139325000Y-73103166D02*
X139547511Y-72880655D01*
X139547511Y-69862489D02*
X139692500Y-69717500D01*
X139547511Y-72880655D02*
X139547511Y-69862489D01*
X139692500Y-69717500D02*
X139892500Y-69517500D01*
X139600000Y-69810000D02*
X139692500Y-69717500D01*
X162754511Y-57020489D02*
X162754511Y-55005489D01*
X159760430Y-58133018D02*
X160293448Y-57600000D01*
X157953878Y-58133018D02*
X159760430Y-58133018D01*
X157470860Y-58616036D02*
X157953878Y-58133018D01*
X140800000Y-64598792D02*
X144342666Y-61056126D01*
X144342666Y-61056126D02*
X145748010Y-61056126D01*
X145748010Y-61056126D02*
X146281028Y-60523108D01*
X162754511Y-55005489D02*
X164000000Y-53760000D01*
X162175000Y-57600000D02*
X162754511Y-57020489D01*
X146281028Y-60523108D02*
X148037580Y-60523108D01*
X148037580Y-60523108D02*
X148470598Y-60090090D01*
X148470598Y-60090090D02*
X150377150Y-60090090D01*
X160293448Y-57600000D02*
X162175000Y-57600000D01*
X150377150Y-60090090D02*
X150810168Y-59657072D01*
X152791720Y-59657072D02*
X153299738Y-59149054D01*
X140800000Y-68610000D02*
X140800000Y-64598792D01*
X150810168Y-59657072D02*
X152791720Y-59657072D01*
X153299738Y-59149054D02*
X155156290Y-59149054D01*
X155156290Y-59149054D02*
X155689308Y-58616036D01*
X155689308Y-58616036D02*
X157470860Y-58616036D01*
X167600000Y-126095000D02*
X167600000Y-124928000D01*
X159258000Y-116586000D02*
X157480000Y-116586000D01*
X167600000Y-124928000D02*
X159258000Y-116586000D01*
%TO.N,/peripherals/PA0*%
X128302126Y-56300000D02*
X128440000Y-56300000D01*
X126998117Y-57604009D02*
X128302126Y-56300000D01*
X122774438Y-57604010D02*
X126998117Y-57604009D01*
X122103448Y-58275000D02*
X122774438Y-57604010D01*
X110100000Y-58275000D02*
X122103448Y-58275000D01*
X106535489Y-61839511D02*
X110100000Y-58275000D01*
X106535489Y-82554511D02*
X106535489Y-61839511D01*
X105240000Y-83850000D02*
X106535489Y-82554511D01*
%TO.N,/TODENABLE*%
X125560000Y-92535000D02*
X124390000Y-91365000D01*
X125560000Y-101700000D02*
X125560000Y-92535000D01*
%TO.N,/~CE*%
X149995000Y-138933207D02*
X150021865Y-138960072D01*
X149995000Y-137100000D02*
X149995000Y-138933207D01*
%TO.N,/bootstrap/D7*%
X138260000Y-86460000D02*
X144525000Y-92725000D01*
X144525000Y-105090000D02*
X145885000Y-106450000D01*
X144525000Y-92725000D02*
X144525000Y-105090000D01*
X138260000Y-86460000D02*
X136950000Y-85150000D01*
X136950000Y-81107000D02*
X135763000Y-79920000D01*
X136950000Y-85150000D02*
X136950000Y-81107000D01*
X135763000Y-79920000D02*
X135763000Y-74721224D01*
X135763000Y-74721224D02*
X137054010Y-73430214D01*
X137054010Y-73430214D02*
X137054010Y-65888708D01*
X138268664Y-64674054D02*
X140006290Y-64674054D01*
X137054010Y-65888708D02*
X138268664Y-64674054D01*
X144132236Y-60548108D02*
X145537580Y-60548108D01*
X140006290Y-64674054D02*
X144132236Y-60548108D01*
X146070598Y-60015090D02*
X147827150Y-60015090D01*
X145537580Y-60548108D02*
X146070598Y-60015090D01*
X148260168Y-59582072D02*
X150166720Y-59582072D01*
X147827150Y-60015090D02*
X148260168Y-59582072D01*
X150599738Y-59149054D02*
X152581290Y-59149054D01*
X150166720Y-59582072D02*
X150599738Y-59149054D01*
X153089308Y-58641036D02*
X154945860Y-58641036D01*
X152581290Y-59149054D02*
X153089308Y-58641036D01*
X155478878Y-58108018D02*
X157260430Y-58108018D01*
X154945860Y-58641036D02*
X155478878Y-58108018D01*
X157260430Y-58108018D02*
X157743448Y-57625000D01*
X157743448Y-57625000D02*
X159550000Y-57625000D01*
X160419499Y-54800501D02*
X161460000Y-53760000D01*
X160419499Y-56755501D02*
X160419499Y-54800501D01*
X159550000Y-57625000D02*
X160419499Y-56755501D01*
X144915000Y-130740000D02*
X144915000Y-127700000D01*
X145475000Y-131300000D02*
X144915000Y-130740000D01*
X145885000Y-106450000D02*
X139814499Y-112520501D01*
X139814499Y-122165441D02*
X140699058Y-123050000D01*
X139814499Y-112520501D02*
X139814499Y-122165441D01*
X141805776Y-123050000D02*
X142059786Y-123304010D01*
X140699058Y-123050000D02*
X141805776Y-123050000D01*
X144240562Y-123304010D02*
X144498582Y-123562030D01*
X142059786Y-123304010D02*
X144240562Y-123304010D01*
X148860134Y-123562030D02*
X149114144Y-123816040D01*
X144498582Y-123562030D02*
X148860134Y-123562030D01*
X149114144Y-123816040D02*
X151294920Y-123816040D01*
X151294920Y-123816040D02*
X153060480Y-125581600D01*
X153060480Y-130264520D02*
X152025000Y-131300000D01*
X153060480Y-125581600D02*
X153060480Y-130264520D01*
X152025000Y-131300000D02*
X145475000Y-131300000D01*
%TO.N,/bootstrap/D6*%
X142050000Y-105155000D02*
X143345000Y-106450000D01*
X142050000Y-92790000D02*
X142050000Y-105155000D01*
X135720000Y-86460000D02*
X134400000Y-85140000D01*
X134400000Y-81097000D02*
X133223000Y-79920000D01*
X134400000Y-85140000D02*
X134400000Y-81097000D01*
X157674511Y-55005489D02*
X158920000Y-53760000D01*
X157674511Y-56975489D02*
X157674511Y-55005489D01*
X157050000Y-57600000D02*
X157674511Y-56975489D01*
X154735430Y-58133018D02*
X155268448Y-57600000D01*
X152878878Y-58133018D02*
X154735430Y-58133018D01*
X152370860Y-58641036D02*
X152878878Y-58133018D01*
X143921806Y-60040090D02*
X145327150Y-60040090D01*
X149956290Y-59074054D02*
X150389308Y-58641036D01*
X150389308Y-58641036D02*
X152370860Y-58641036D01*
X133223000Y-79920000D02*
X133223000Y-74661224D01*
X133223000Y-74661224D02*
X134479010Y-73405214D01*
X134479010Y-73405214D02*
X134479010Y-67745260D01*
X134479010Y-67745260D02*
X138058234Y-64166036D01*
X145860168Y-59507072D02*
X147616720Y-59507072D01*
X138058234Y-64166036D02*
X139795860Y-64166036D01*
X155268448Y-57600000D02*
X157050000Y-57600000D01*
X139795860Y-64166036D02*
X143921806Y-60040090D01*
X145327150Y-60040090D02*
X145860168Y-59507072D01*
X147616720Y-59507072D02*
X148049738Y-59074054D01*
X148049738Y-59074054D02*
X149956290Y-59074054D01*
X135720000Y-86460000D02*
X142050000Y-92790000D01*
X146185000Y-130410000D02*
X146185000Y-127700000D01*
X146820990Y-131045990D02*
X146185000Y-130410000D01*
X151679010Y-131045990D02*
X146820990Y-131045990D01*
X152044490Y-130680510D02*
X151679010Y-131045990D01*
X152044490Y-125284058D02*
X152044490Y-130680510D01*
X143345000Y-106450000D02*
X137200000Y-112595000D01*
X141849358Y-123812030D02*
X144030134Y-123812030D01*
X137200000Y-112595000D02*
X137200000Y-122090942D01*
X137200000Y-122090942D02*
X138009058Y-122900000D01*
X148903716Y-124324060D02*
X151084492Y-124324060D01*
X138009058Y-122900000D02*
X139115776Y-122900000D01*
X139115776Y-122900000D02*
X139773796Y-123558020D01*
X139773796Y-123558020D02*
X141595348Y-123558020D01*
X141595348Y-123558020D02*
X141849358Y-123812030D01*
X144288154Y-124070050D02*
X148649706Y-124070050D01*
X144030134Y-123812030D02*
X144288154Y-124070050D01*
X148649706Y-124070050D02*
X148903716Y-124324060D01*
X151084492Y-124324060D02*
X152044490Y-125284058D01*
%TO.N,/bootstrap/D5*%
X139500000Y-105145000D02*
X140805000Y-106450000D01*
X139500000Y-92780000D02*
X139500000Y-105145000D01*
X133180000Y-86460000D02*
X131850000Y-85130000D01*
X131850000Y-81087000D02*
X130683000Y-79920000D01*
X131850000Y-85130000D02*
X131850000Y-81087000D01*
X155150000Y-54990000D02*
X156380000Y-53760000D01*
X152668448Y-57625000D02*
X154525000Y-57625000D01*
X150178878Y-58133018D02*
X152160430Y-58133018D01*
X149745860Y-58566036D02*
X150178878Y-58133018D01*
X152160430Y-58133018D02*
X152668448Y-57625000D01*
X130683000Y-79920000D02*
X130683000Y-75301224D01*
X137847804Y-63658018D02*
X139585430Y-63658018D01*
X143711376Y-59532072D02*
X145116720Y-59532072D01*
X130683000Y-75301224D02*
X132029010Y-73955214D01*
X145116720Y-59532072D02*
X145649738Y-58999054D01*
X154525000Y-57625000D02*
X155150000Y-57000000D01*
X132029010Y-73955214D02*
X132029010Y-67705214D01*
X132029010Y-67705214D02*
X133990124Y-65744100D01*
X155150000Y-57000000D02*
X155150000Y-54990000D01*
X133990124Y-65744100D02*
X135761723Y-65744099D01*
X135761723Y-65744099D02*
X137847804Y-63658018D01*
X139585430Y-63658018D02*
X143711376Y-59532072D01*
X145649738Y-58999054D02*
X147406290Y-58999054D01*
X147839308Y-58566036D02*
X149745860Y-58566036D01*
X147406290Y-58999054D02*
X147839308Y-58566036D01*
X133180000Y-86460000D02*
X139500000Y-92780000D01*
X140805000Y-106450000D02*
X136945990Y-110309010D01*
X136945991Y-122196157D02*
X137903844Y-123154010D01*
X136945990Y-110309010D02*
X136945991Y-122196157D01*
X139010562Y-123154010D02*
X139668582Y-123812030D01*
X137903844Y-123154010D02*
X139010562Y-123154010D01*
X141490134Y-123812030D02*
X141744144Y-124066040D01*
X139668582Y-123812030D02*
X141490134Y-123812030D01*
X143924920Y-124066040D02*
X144182940Y-124324060D01*
X141744144Y-124066040D02*
X143924920Y-124066040D01*
X148544492Y-124324060D02*
X148798502Y-124578070D01*
X144182940Y-124324060D02*
X148544492Y-124324060D01*
X148798502Y-124578070D02*
X150979278Y-124578070D01*
X150979278Y-124578070D02*
X151790480Y-125389272D01*
X151755510Y-126944490D02*
X151755510Y-129894490D01*
X151790480Y-126909520D02*
X151755510Y-126944490D01*
X151790480Y-125389272D02*
X151790480Y-126909520D01*
X151755510Y-129894490D02*
X150858020Y-130791980D01*
X150858020Y-130791980D02*
X148216980Y-130791980D01*
X147455000Y-130030000D02*
X147455000Y-127700000D01*
X148216980Y-130791980D02*
X147455000Y-130030000D01*
%TO.N,/bootstrap/D4*%
X130640000Y-86460000D02*
X136925000Y-92745000D01*
X136925000Y-105110000D02*
X138265000Y-106450000D01*
X136925000Y-92745000D02*
X136925000Y-105110000D01*
X130640000Y-86460000D02*
X129300000Y-85120000D01*
X129300000Y-81077000D02*
X128143000Y-79920000D01*
X129300000Y-85120000D02*
X129300000Y-81077000D01*
X152594511Y-55005489D02*
X153840000Y-53760000D01*
X152594511Y-56980489D02*
X152594511Y-55005489D01*
X151950000Y-57625000D02*
X152594511Y-56980489D01*
X149968448Y-57625000D02*
X151950000Y-57625000D01*
X149535430Y-58058018D02*
X149968448Y-57625000D01*
X128143000Y-79920000D02*
X128143000Y-74441224D01*
X128143000Y-74441224D02*
X129404010Y-73180214D01*
X139375000Y-63150000D02*
X143500946Y-59024054D01*
X129404010Y-73180214D02*
X129404010Y-66996380D01*
X129404010Y-66996380D02*
X131164308Y-65236082D01*
X147628878Y-58058018D02*
X149535430Y-58058018D01*
X131164308Y-65236082D02*
X135551293Y-65236081D01*
X135551293Y-65236081D02*
X137637374Y-63150000D01*
X137637374Y-63150000D02*
X139375000Y-63150000D01*
X143500946Y-59024054D02*
X144906290Y-59024054D01*
X144906290Y-59024054D02*
X145439308Y-58491036D01*
X145439308Y-58491036D02*
X147195860Y-58491036D01*
X147195860Y-58491036D02*
X147628878Y-58058018D01*
X138265000Y-106450000D02*
X129654499Y-115060501D01*
X129654499Y-115060501D02*
X129654499Y-122165441D01*
X148725000Y-135625000D02*
X148725000Y-137100000D01*
X136408020Y-123308020D02*
X148725000Y-135625000D01*
X134084572Y-123308020D02*
X136408020Y-123308020D01*
X133830562Y-123054010D02*
X134084572Y-123308020D01*
X131649786Y-123054010D02*
X133830562Y-123054010D01*
X131395776Y-122800000D02*
X131649786Y-123054010D01*
X130289058Y-122800000D02*
X131395776Y-122800000D01*
X129654499Y-122165441D02*
X130289058Y-122800000D01*
%TO.N,/bootstrap/D3*%
X128100000Y-86460000D02*
X134450000Y-92810000D01*
X134450000Y-105175000D02*
X135725000Y-106450000D01*
X134450000Y-92810000D02*
X134450000Y-105175000D01*
X128100000Y-86460000D02*
X126825000Y-85185000D01*
X126825000Y-81142000D02*
X125603000Y-79920000D01*
X126825000Y-85185000D02*
X126825000Y-81142000D01*
X150054510Y-55005490D02*
X151300000Y-53760000D01*
X150054510Y-56820490D02*
X150054510Y-55005490D01*
X147418448Y-57550000D02*
X149325000Y-57550000D01*
X145228878Y-57983018D02*
X146985430Y-57983018D01*
X146985430Y-57983018D02*
X147418448Y-57550000D01*
X144695860Y-58516036D02*
X145228878Y-57983018D01*
X142281290Y-58924054D02*
X142689308Y-58516036D01*
X125603000Y-79920000D02*
X125603000Y-74756224D01*
X125603000Y-74756224D02*
X126929010Y-73430214D01*
X149325000Y-57550000D02*
X150054510Y-56820490D01*
X137935168Y-59557072D02*
X140041720Y-59557072D01*
X126929010Y-73430214D02*
X126929010Y-67730214D01*
X130953878Y-64728064D02*
X135340863Y-64728063D01*
X126929010Y-67730214D02*
X128865124Y-65794100D01*
X128865124Y-65794100D02*
X129887843Y-65794099D01*
X129887843Y-65794099D02*
X130953878Y-64728064D01*
X135340863Y-64728063D02*
X137541511Y-62527415D01*
X137541511Y-59950729D02*
X137935168Y-59557072D01*
X137541511Y-62527415D02*
X137541511Y-59950729D01*
X140041720Y-59557072D02*
X140674738Y-58924054D01*
X142689308Y-58516036D02*
X144695860Y-58516036D01*
X140674738Y-58924054D02*
X142281290Y-58924054D01*
X135725000Y-106450000D02*
X129400489Y-112774511D01*
X129400490Y-122270656D02*
X130183844Y-123054010D01*
X129400489Y-112774511D02*
X129400490Y-122270656D01*
X131290562Y-123054010D02*
X131544572Y-123308020D01*
X130183844Y-123054010D02*
X131290562Y-123054010D01*
X133725348Y-123308020D02*
X133979358Y-123562030D01*
X131544572Y-123308020D02*
X133725348Y-123308020D01*
X133979358Y-123562030D02*
X136302806Y-123562030D01*
X136302806Y-123562030D02*
X147450000Y-134709224D01*
X147450000Y-137095000D02*
X147455000Y-137100000D01*
X147450000Y-134709224D02*
X147450000Y-137095000D01*
%TO.N,/bootstrap/DS*%
X177280000Y-67960000D02*
X177280000Y-80970000D01*
X177280000Y-80970000D02*
X176025000Y-82225000D01*
X176025000Y-82225000D02*
X176025000Y-84375000D01*
X167495000Y-92905000D02*
X167495000Y-94125000D01*
X176025000Y-84375000D02*
X167495000Y-92905000D01*
%TO.N,/bootstrap/D2*%
X133185000Y-106450000D02*
X131925000Y-105190000D01*
X131925000Y-105190000D02*
X131925000Y-92825000D01*
X125560000Y-86460000D02*
X124250000Y-85150000D01*
X124250000Y-81107000D02*
X123063000Y-79920000D01*
X124250000Y-85150000D02*
X124250000Y-81107000D01*
X147525000Y-54995000D02*
X148760000Y-53760000D01*
X144485430Y-58008018D02*
X145018448Y-57475000D01*
X142478878Y-58008018D02*
X144485430Y-58008018D01*
X147525000Y-56725000D02*
X147525000Y-54995000D01*
X140464308Y-58416036D02*
X142070860Y-58416036D01*
X123063000Y-79920000D02*
X123063000Y-74996224D01*
X123063000Y-74996224D02*
X124307511Y-73751713D01*
X124307511Y-67012879D02*
X126034308Y-65286082D01*
X142070860Y-58416036D02*
X142478878Y-58008018D01*
X139831290Y-59049054D02*
X140464308Y-58416036D01*
X130743448Y-64220046D02*
X133668105Y-64220045D01*
X126034308Y-65286082D02*
X129677413Y-65286081D01*
X133668105Y-64220045D02*
X135258020Y-62630130D01*
X129677413Y-65286081D02*
X130743448Y-64220046D01*
X146775000Y-57475000D02*
X147525000Y-56725000D01*
X135486376Y-59507072D02*
X137266720Y-59507072D01*
X137266720Y-59507072D02*
X137724736Y-59049056D01*
X137724736Y-59049056D02*
X139831290Y-59049054D01*
X135258020Y-62630130D02*
X135258020Y-59735428D01*
X145018448Y-57475000D02*
X146775000Y-57475000D01*
X124307511Y-73751713D02*
X124307511Y-67012879D01*
X135258020Y-59735428D02*
X135486376Y-59507072D01*
X131925000Y-92825000D02*
X125560000Y-86460000D01*
X133185000Y-106450000D02*
X129146481Y-110488519D01*
X129146481Y-122375871D02*
X130078630Y-123308020D01*
X129146481Y-110488519D02*
X129146481Y-122375871D01*
X131185348Y-123308020D02*
X131439358Y-123562030D01*
X130078630Y-123308020D02*
X131185348Y-123308020D01*
X133620134Y-123562030D02*
X133874144Y-123816040D01*
X131439358Y-123562030D02*
X133620134Y-123562030D01*
X133874144Y-123816040D02*
X136197592Y-123816040D01*
X136197592Y-123816040D02*
X146200000Y-133818448D01*
X146200000Y-137085000D02*
X146185000Y-137100000D01*
X146200000Y-133818448D02*
X146200000Y-137085000D01*
%TO.N,/bootstrap/D1*%
X123020000Y-86460000D02*
X129375000Y-92815000D01*
X129375000Y-105180000D02*
X130645000Y-106450000D01*
X129375000Y-92815000D02*
X129375000Y-105180000D01*
X123020000Y-86460000D02*
X121750000Y-85190000D01*
X121750000Y-81147000D02*
X120523000Y-79920000D01*
X121750000Y-85190000D02*
X121750000Y-81147000D01*
X144975000Y-55005000D02*
X146220000Y-53760000D01*
X144975000Y-56800000D02*
X144975000Y-55005000D01*
X141860430Y-57908018D02*
X142268448Y-57500000D01*
X144275000Y-57500000D02*
X144975000Y-56800000D01*
X140253878Y-57908018D02*
X141860430Y-57908018D01*
X139620860Y-58541036D02*
X140253878Y-57908018D01*
X142268448Y-57500000D02*
X144275000Y-57500000D01*
X137514308Y-58541036D02*
X138933964Y-58541036D01*
X137056290Y-58999054D02*
X137514308Y-58541036D01*
X135275946Y-58999054D02*
X137056290Y-58999054D01*
X137733964Y-58541036D02*
X138933964Y-58541036D01*
X122021521Y-67118093D02*
X123674524Y-65465090D01*
X138933964Y-58541036D02*
X139620860Y-58541036D01*
X120523000Y-79920000D02*
X120523000Y-74722450D01*
X134750000Y-62419702D02*
X134750000Y-59525000D01*
X120523000Y-74722450D02*
X122021521Y-73223929D01*
X130533018Y-63712028D02*
X133457675Y-63712027D01*
X122021521Y-73223929D02*
X122021521Y-67118093D01*
X129466983Y-64778063D02*
X130533018Y-63712028D01*
X123674524Y-65465090D02*
X125136852Y-65465090D01*
X125136852Y-65465090D02*
X125823878Y-64778064D01*
X125823878Y-64778064D02*
X129466983Y-64778063D01*
X134750000Y-59525000D02*
X135275946Y-58999054D01*
X133457675Y-63712027D02*
X134750000Y-62419702D01*
X130645000Y-106450000D02*
X127114499Y-109980501D01*
X127114499Y-122165441D02*
X128511088Y-123562030D01*
X127114499Y-109980501D02*
X127114499Y-122165441D01*
X131080134Y-123562030D02*
X131334144Y-123816040D01*
X128511088Y-123562030D02*
X131080134Y-123562030D01*
X133514920Y-123816040D02*
X133768930Y-124070050D01*
X131334144Y-123816040D02*
X133514920Y-123816040D01*
X133768930Y-124070050D02*
X136092378Y-124070050D01*
X144915000Y-132892672D02*
X144915000Y-137100000D01*
X136092378Y-124070050D02*
X144915000Y-132892672D01*
%TO.N,/bootstrap/D0*%
X119438521Y-69295869D02*
X119438521Y-67285271D01*
X121258702Y-65465090D02*
X122596852Y-65465090D01*
X119438521Y-67285271D02*
X121258702Y-65465090D01*
X123358878Y-64703064D02*
X124821207Y-64703063D01*
X122596852Y-65465090D02*
X123358878Y-64703064D01*
X125508234Y-64016036D02*
X129151338Y-64016036D01*
X124821207Y-64703063D02*
X125508234Y-64016036D01*
X129151338Y-64016036D02*
X130217374Y-62950000D01*
X131679702Y-62950000D02*
X132207501Y-62422201D01*
X130217374Y-62950000D02*
X131679702Y-62950000D01*
X132207501Y-62422201D02*
X132207501Y-59566291D01*
X132899738Y-58874054D02*
X134653618Y-58874054D01*
X132207501Y-59566291D02*
X132899738Y-58874054D01*
X135036636Y-58491036D02*
X136845860Y-58491036D01*
X134653618Y-58874054D02*
X135036636Y-58491036D01*
X137303878Y-58033018D02*
X139410430Y-58033018D01*
X136845860Y-58491036D02*
X137303878Y-58033018D01*
X139410430Y-58033018D02*
X140043448Y-57400000D01*
X140043448Y-57400000D02*
X141650000Y-57400000D01*
X141650000Y-57400000D02*
X142375000Y-56675000D01*
X142375000Y-55065000D02*
X143680000Y-53760000D01*
X142375000Y-56675000D02*
X142375000Y-55065000D01*
X117983000Y-79920000D02*
X116925000Y-78862000D01*
X116925000Y-72800000D02*
X116924060Y-72799060D01*
X116925000Y-78862000D02*
X116925000Y-72800000D01*
X116924060Y-72799060D02*
X116924060Y-71810330D01*
X116924060Y-71810330D02*
X118742195Y-69992195D01*
X118742195Y-69992195D02*
X119438521Y-69295869D01*
X118476372Y-70258018D02*
X118742195Y-69992195D01*
X117983000Y-81648776D02*
X117983000Y-79920000D01*
X119199999Y-82865775D02*
X117983000Y-81648776D01*
X119200000Y-85180000D02*
X119199999Y-82865775D01*
X120480000Y-86460000D02*
X119200000Y-85180000D01*
X128105000Y-106450000D02*
X126860489Y-107694511D01*
X126860490Y-122270656D02*
X128405874Y-123816040D01*
X126860489Y-107694511D02*
X126860490Y-122270656D01*
X130974920Y-123816040D02*
X131228930Y-124070050D01*
X128405874Y-123816040D02*
X130974920Y-123816040D01*
X133409706Y-124070050D02*
X133663716Y-124324060D01*
X131228930Y-124070050D02*
X133409706Y-124070050D01*
X133663716Y-124324060D02*
X135987164Y-124324060D01*
X143645000Y-131981896D02*
X143645000Y-137100000D01*
X135987164Y-124324060D02*
X143645000Y-131981896D01*
X128105000Y-106450000D02*
X126881668Y-105226668D01*
X126881668Y-92840668D02*
X124390000Y-90349000D01*
X126881668Y-105226668D02*
X126881668Y-92840668D01*
%TO.N,/bootstrap/LATCH*%
X184900000Y-67960000D02*
X184900000Y-81150000D01*
X184900000Y-81150000D02*
X183625000Y-82425000D01*
X183625000Y-82425000D02*
X183625000Y-91600000D01*
X182935000Y-92290000D02*
X182935000Y-94025000D01*
X183625000Y-91600000D02*
X182935000Y-92290000D01*
X170035000Y-93150000D02*
X170035000Y-94125000D01*
X171774499Y-91410501D02*
X170035000Y-93150000D01*
X181039231Y-92712144D02*
X179737589Y-91410502D01*
X181039231Y-95097599D02*
X181039231Y-92712144D01*
X179737589Y-91410502D02*
X171774499Y-91410501D01*
X181370632Y-95429000D02*
X181039231Y-95097599D01*
X182556000Y-95429000D02*
X181370632Y-95429000D01*
X182935000Y-95050000D02*
X182556000Y-95429000D01*
X182935000Y-94025000D02*
X182935000Y-95050000D01*
%TO.N,/bootstrap/CLOCK*%
X187440000Y-67960000D02*
X187440000Y-81210000D01*
X185890501Y-82759499D02*
X185890501Y-90584499D01*
X187440000Y-81210000D02*
X185890501Y-82759499D01*
X184205000Y-92270000D02*
X184205000Y-94025000D01*
X185890501Y-90584499D02*
X184205000Y-92270000D01*
X171305000Y-94125000D02*
X171305000Y-94846000D01*
X171305000Y-94846000D02*
X171888000Y-95429000D01*
X173997556Y-95429000D02*
X176791556Y-92635000D01*
X171888000Y-95429000D02*
X173997556Y-95429000D01*
X176791556Y-92635000D02*
X179254000Y-92635000D01*
X179254000Y-92635000D02*
X179745257Y-93126257D01*
X179745257Y-93126257D02*
X179745257Y-94904257D01*
X179745257Y-94904257D02*
X180778000Y-95937000D01*
X180778000Y-95937000D02*
X183572000Y-95937000D01*
X184205000Y-95304000D02*
X184205000Y-94025000D01*
X183572000Y-95937000D02*
X184205000Y-95304000D01*
%TO.N,/bootstrap/A11*%
X158585000Y-121690000D02*
X160150000Y-123255000D01*
X160150000Y-127695000D02*
X160155000Y-127700000D01*
X160150000Y-123255000D02*
X160150000Y-127695000D01*
X180395000Y-101142000D02*
X180524000Y-101271000D01*
X180395000Y-98975000D02*
X180395000Y-101142000D01*
X160155000Y-127700000D02*
X160155000Y-134750000D01*
X160155000Y-134750000D02*
X160934490Y-135529490D01*
X160934490Y-135529490D02*
X160934490Y-138207239D01*
X160934490Y-138207239D02*
X162187433Y-139460182D01*
X163649428Y-142955984D02*
X164254344Y-143560900D01*
X164254344Y-143560900D02*
X164904100Y-143560900D01*
X165445000Y-143020000D02*
X165445000Y-142025000D01*
X164904100Y-143560900D02*
X165445000Y-143020000D01*
X162187433Y-139460182D02*
X162190419Y-139460182D01*
X162190419Y-139460182D02*
X163649428Y-140919191D01*
X163649428Y-140919191D02*
X163649428Y-141292428D01*
X163649428Y-141292428D02*
X163649428Y-142955984D01*
%TO.N,/bootstrap/A10*%
X158885000Y-124530000D02*
X156045000Y-121690000D01*
X158885000Y-127700000D02*
X158885000Y-124530000D01*
X179125000Y-101142000D02*
X179254000Y-101271000D01*
X179125000Y-98975000D02*
X179125000Y-101142000D01*
%TO.N,/bootstrap/A9*%
X157615000Y-125800000D02*
X153505000Y-121690000D01*
X157615000Y-127700000D02*
X157615000Y-125800000D01*
X177855000Y-101142000D02*
X177984000Y-101271000D01*
X177855000Y-98975000D02*
X177855000Y-101142000D01*
%TO.N,/bootstrap/A8*%
X156345000Y-127070000D02*
X150965000Y-121690000D01*
X156345000Y-127700000D02*
X156345000Y-127070000D01*
X179125000Y-94025000D02*
X179125000Y-95304000D01*
X176714000Y-97715000D02*
X176714000Y-101271000D01*
X179125000Y-95304000D02*
X176714000Y-97715000D01*
%TO.N,/bootstrap/A7*%
X148425000Y-121690000D02*
X149535000Y-122800000D01*
X149535000Y-122800000D02*
X151715776Y-122800000D01*
X155075000Y-126159224D02*
X155075000Y-127700000D01*
X151715776Y-122800000D02*
X155075000Y-126159224D01*
X172575000Y-101196000D02*
X172650000Y-101271000D01*
X172575000Y-99075000D02*
X172575000Y-101196000D01*
%TO.N,/bootstrap/A6*%
X145885000Y-121690000D02*
X146995000Y-122800000D01*
X149175776Y-122800000D02*
X149429786Y-123054010D01*
X146995000Y-122800000D02*
X149175776Y-122800000D01*
X149429786Y-123054010D02*
X151610562Y-123054010D01*
X151610562Y-123054010D02*
X154450000Y-125893448D01*
X154450000Y-125893448D02*
X154450000Y-135125000D01*
X153805000Y-135770000D02*
X153805000Y-137100000D01*
X154450000Y-135125000D02*
X153805000Y-135770000D01*
X171305000Y-101196000D02*
X171380000Y-101271000D01*
X171305000Y-99075000D02*
X171305000Y-101196000D01*
%TO.N,/bootstrap/A5*%
X143345000Y-121690000D02*
X144709010Y-123054010D01*
X149070562Y-123054010D02*
X149324572Y-123308020D01*
X144709010Y-123054010D02*
X149070562Y-123054010D01*
X149324572Y-123308020D02*
X151505348Y-123308020D01*
X153805000Y-125607672D02*
X153805000Y-127700000D01*
X151505348Y-123308020D02*
X153805000Y-125607672D01*
X170035000Y-101196000D02*
X170110000Y-101271000D01*
X170035000Y-99075000D02*
X170035000Y-101196000D01*
%TO.N,/bootstrap/A4*%
X140805000Y-121690000D02*
X142165000Y-123050000D01*
X144345776Y-123050000D02*
X144603796Y-123308020D01*
X142165000Y-123050000D02*
X144345776Y-123050000D01*
X148965348Y-123308020D02*
X149219358Y-123562030D01*
X144603796Y-123308020D02*
X148965348Y-123308020D01*
X149219358Y-123562030D02*
X151400134Y-123562030D01*
X151400134Y-123562030D02*
X153314490Y-125476386D01*
X153314490Y-133710510D02*
X153314490Y-130460510D01*
X153314490Y-130460510D02*
X153314490Y-130605266D01*
X153314490Y-125476386D02*
X153314490Y-130460510D01*
X151265000Y-135760000D02*
X151650000Y-135375000D01*
X151265000Y-137100000D02*
X151265000Y-135760000D01*
X151650000Y-135375000D02*
X153314490Y-133710510D01*
X151565000Y-135460000D02*
X151650000Y-135375000D01*
X168765000Y-101196000D02*
X168840000Y-101271000D01*
X168765000Y-99075000D02*
X168765000Y-101196000D01*
%TO.N,/bootstrap/A15*%
X148425000Y-106450000D02*
X148425000Y-115600000D01*
X148425000Y-115600000D02*
X152250000Y-119425000D01*
X156975000Y-126725000D02*
X152250000Y-122000000D01*
X152250000Y-122000000D02*
X152250000Y-121375000D01*
X156975000Y-133850000D02*
X156975000Y-126725000D01*
X155075000Y-135750000D02*
X156975000Y-133850000D01*
X155075000Y-137100000D02*
X155075000Y-135750000D01*
X152250000Y-119425000D02*
X152250000Y-121375000D01*
X155075000Y-137950000D02*
X156729010Y-139604010D01*
X155075000Y-137100000D02*
X155075000Y-137950000D01*
X156729010Y-139604010D02*
X157979010Y-139604010D01*
X159095000Y-140720000D02*
X159095000Y-142025000D01*
X157979010Y-139604010D02*
X159095000Y-140720000D01*
X149005000Y-141050000D02*
X149684010Y-140370990D01*
X149005000Y-142025000D02*
X149005000Y-141050000D01*
X155962030Y-140370990D02*
X156729010Y-139604010D01*
X149684010Y-140370990D02*
X155962030Y-140370990D01*
X185475000Y-101142000D02*
X185604000Y-101271000D01*
X185475000Y-98975000D02*
X185475000Y-101142000D01*
%TO.N,/bootstrap/A14*%
X150965000Y-106450000D02*
X150965000Y-115615000D01*
X150965000Y-115615000D02*
X154750000Y-119400000D01*
X154750000Y-119400000D02*
X154750000Y-122575776D01*
X154750000Y-122575776D02*
X158250000Y-126075776D01*
X158250000Y-126075776D02*
X158250000Y-133850000D01*
X156345000Y-135755000D02*
X156345000Y-137100000D01*
X158250000Y-133850000D02*
X156345000Y-135755000D01*
X161635000Y-142025000D02*
X160365000Y-142025000D01*
X156345000Y-137100000D02*
X156345000Y-137645000D01*
X156345000Y-137645000D02*
X158050000Y-139350000D01*
X158050000Y-139350000D02*
X158975000Y-139350000D01*
X160365000Y-140740000D02*
X160365000Y-142025000D01*
X158975000Y-139350000D02*
X160365000Y-140740000D01*
X150275000Y-141050000D02*
X150700000Y-140625000D01*
X150275000Y-142025000D02*
X150275000Y-141050000D01*
X150700000Y-140625000D02*
X158175000Y-140625000D01*
X158175000Y-140625000D02*
X158450000Y-140900000D01*
X158450000Y-140900000D02*
X158450000Y-143150000D01*
X158450000Y-143150000D02*
X158900000Y-143600000D01*
X158900000Y-143600000D02*
X160050000Y-143600000D01*
X160365000Y-143285000D02*
X160365000Y-142025000D01*
X160050000Y-143600000D02*
X160365000Y-143285000D01*
X184205000Y-101142000D02*
X184334000Y-101271000D01*
X184205000Y-98975000D02*
X184205000Y-101142000D01*
%TO.N,/bootstrap/A13*%
X153505000Y-106450000D02*
X153505000Y-116455000D01*
X153505000Y-116455000D02*
X157350000Y-120300000D01*
X157350000Y-120300000D02*
X157350000Y-122635776D01*
X157615000Y-135810000D02*
X157615000Y-137100000D01*
X159525000Y-133900000D02*
X157615000Y-135810000D01*
X182935000Y-101142000D02*
X183064000Y-101271000D01*
X182935000Y-98975000D02*
X182935000Y-101142000D01*
X161844524Y-140294000D02*
X159539795Y-137989271D01*
X159539795Y-124825571D02*
X159016612Y-124302388D01*
X159539795Y-133626795D02*
X159539795Y-124825571D01*
X159016612Y-124302388D02*
X159525000Y-124810776D01*
X157350000Y-122635776D02*
X159016612Y-124302388D01*
X159539795Y-137989271D02*
X159539795Y-133626795D01*
X159539795Y-133626795D02*
X159539795Y-133460795D01*
X161844524Y-140294000D02*
X162196091Y-140294000D01*
X162905000Y-141002909D02*
X162905000Y-142025000D01*
X162196091Y-140294000D02*
X162905000Y-141002909D01*
%TO.N,/bootstrap/A12*%
X156045000Y-106450000D02*
X156045000Y-117295000D01*
X156045000Y-117295000D02*
X160750000Y-122000000D01*
X160750000Y-122000000D02*
X160750000Y-134950000D01*
X161425000Y-135625000D02*
X161425000Y-137100000D01*
X160750000Y-134950000D02*
X161425000Y-135625000D01*
X161425000Y-137950000D02*
X164150000Y-140675000D01*
X161425000Y-137100000D02*
X161425000Y-137950000D01*
X164150000Y-142000000D02*
X164175000Y-142025000D01*
X164150000Y-140675000D02*
X164150000Y-142000000D01*
X181665000Y-101142000D02*
X181794000Y-101271000D01*
X181665000Y-98975000D02*
X181665000Y-101142000D01*
D23*
%TO.N,Net-(C12-Pad2)*%
X182415000Y-113515000D02*
X182425000Y-113525000D01*
X179500000Y-113515000D02*
X182415000Y-113515000D01*
X182425000Y-113525000D02*
X182425000Y-110875000D01*
D24*
%TO.N,/peripherals/SERCLK*%
X106027470Y-65282530D02*
X102700000Y-68610000D01*
X106027471Y-61629081D02*
X106027470Y-65282530D01*
X109889572Y-57766980D02*
X106027471Y-61629081D01*
X121893020Y-57766980D02*
X109889572Y-57766980D01*
X125900000Y-53760000D02*
X121893020Y-57766980D01*
%TO.N,/peripherals/SERDAT*%
X127150000Y-55050000D02*
X128440000Y-53760000D01*
X127150000Y-57092902D02*
X127150000Y-56025000D01*
X126892902Y-57350000D02*
X127150000Y-57092902D01*
X122669224Y-57350000D02*
X126892902Y-57350000D01*
X121998235Y-58020989D02*
X122669224Y-57350000D01*
X109994786Y-58020990D02*
X121998235Y-58020989D01*
X106281480Y-61734296D02*
X109994786Y-58020990D01*
X106281479Y-67568521D02*
X106281480Y-61734296D01*
X105240000Y-68610000D02*
X106281479Y-67568521D01*
X127150000Y-56025000D02*
X127150000Y-55050000D01*
%TO.N,/bootstrap/A0*%
X106789499Y-69600501D02*
X107780000Y-68610000D01*
X106789499Y-85469499D02*
X106789499Y-69600501D01*
X107780000Y-86460000D02*
X106789499Y-85469499D01*
X107780000Y-68610000D02*
X106789499Y-67619499D01*
X106789499Y-67619499D02*
X106789499Y-61944725D01*
X106789499Y-61944725D02*
X110205214Y-58529010D01*
X129700000Y-55040000D02*
X130980000Y-53760000D01*
X110205214Y-58529010D02*
X122208663Y-58529009D01*
X122208663Y-58529009D02*
X122879654Y-57858018D01*
X122879654Y-57858018D02*
X127103332Y-57858018D01*
X127103332Y-57858018D02*
X127586350Y-57375000D01*
X129700000Y-56579942D02*
X129700000Y-56550000D01*
X127586350Y-57375000D02*
X128904942Y-57375000D01*
X128904942Y-57375000D02*
X129700000Y-56579942D01*
X129700000Y-56550000D02*
X129700000Y-55040000D01*
X148725000Y-126650000D02*
X148725000Y-127700000D01*
X130645000Y-121690000D02*
X131755000Y-122800000D01*
X131755000Y-122800000D02*
X133935776Y-122800000D01*
X133935776Y-122800000D02*
X134189786Y-123054010D01*
X139352940Y-124574060D02*
X141174492Y-124574060D01*
X141174492Y-124574060D02*
X141428502Y-124828070D01*
X134189786Y-123054010D02*
X136726172Y-123054010D01*
X137588202Y-123916040D02*
X138694920Y-123916040D01*
X138694920Y-123916040D02*
X139352940Y-124574060D01*
X143867298Y-125086090D02*
X147161090Y-125086090D01*
X141428502Y-124828070D02*
X143609278Y-124828070D01*
X143609278Y-124828070D02*
X143867298Y-125086090D01*
X136726172Y-123054010D02*
X137588202Y-123916040D01*
X147161090Y-125086090D02*
X148725000Y-126650000D01*
X166225000Y-94125000D02*
X166225000Y-94996000D01*
X163506000Y-97715000D02*
X163506000Y-101271000D01*
X166225000Y-94996000D02*
X163506000Y-97715000D01*
%TO.N,/bootstrap/A1*%
X109329499Y-69600501D02*
X110320000Y-68610000D01*
X109329499Y-85469499D02*
X109329499Y-69600501D01*
X110320000Y-86460000D02*
X109329499Y-85469499D01*
X110320000Y-68610000D02*
X110320000Y-67503282D01*
X110320000Y-67503282D02*
X114569272Y-63254010D01*
X114569272Y-63254010D02*
X117625215Y-63254009D01*
X117625215Y-63254009D02*
X117961723Y-62917501D01*
X117961723Y-62917501D02*
X119082499Y-62917501D01*
X119082499Y-62917501D02*
X119750000Y-62250000D01*
X119750000Y-62250000D02*
X119750000Y-61200000D01*
X119750000Y-61200000D02*
X121912972Y-59037028D01*
X132250000Y-55030000D02*
X133520000Y-53760000D01*
X121912972Y-59037028D02*
X122419093Y-59037027D01*
X122419093Y-59037027D02*
X123090084Y-58366036D01*
X123090084Y-58366036D02*
X127313762Y-58366036D01*
X127796780Y-57883018D02*
X129115372Y-57883018D01*
X127313762Y-58366036D02*
X127796780Y-57883018D01*
X129115372Y-57883018D02*
X129623390Y-57375000D01*
X131525000Y-57375000D02*
X132250000Y-56650000D01*
X129623390Y-57375000D02*
X131525000Y-57375000D01*
X132250000Y-56650000D02*
X132250000Y-55030000D01*
X133185000Y-121690000D02*
X134295000Y-122800000D01*
X134295000Y-122800000D02*
X136831386Y-122800000D01*
X136831386Y-122800000D02*
X137693416Y-123662030D01*
X138800134Y-123662030D02*
X139458154Y-124320050D01*
X137693416Y-123662030D02*
X138800134Y-123662030D01*
X141279706Y-124320050D02*
X141533716Y-124574060D01*
X139458154Y-124320050D02*
X141279706Y-124320050D01*
X143714492Y-124574060D02*
X143972512Y-124832080D01*
X141533716Y-124574060D02*
X143714492Y-124574060D01*
X148334064Y-124832080D02*
X148588074Y-125086090D01*
X143972512Y-124832080D02*
X148334064Y-124832080D01*
X148588074Y-125086090D02*
X148588074Y-125088074D01*
X149995000Y-126495000D02*
X149995000Y-127700000D01*
X148588074Y-125088074D02*
X149995000Y-126495000D01*
X164955000Y-101196000D02*
X165030000Y-101271000D01*
X164955000Y-99075000D02*
X164955000Y-101196000D01*
%TO.N,/bootstrap/A2*%
X111869499Y-69600501D02*
X112860000Y-68610000D01*
X111869499Y-85469499D02*
X111869499Y-69600501D01*
X112860000Y-86460000D02*
X111869499Y-85469499D01*
X134775000Y-55045000D02*
X136060000Y-53760000D01*
X131735430Y-57883018D02*
X132268448Y-57350000D01*
X129833820Y-57883018D02*
X131735430Y-57883018D01*
X129325802Y-58391036D02*
X129833820Y-57883018D01*
X128007210Y-58391036D02*
X129325802Y-58391036D01*
X127524192Y-58874054D02*
X128007210Y-58391036D01*
X134775000Y-56450000D02*
X134775000Y-55045000D01*
X112860000Y-68610000D02*
X112860000Y-66040954D01*
X132268448Y-57350000D02*
X134009942Y-57350000D01*
X119398142Y-63679528D02*
X120152670Y-62925000D01*
X112860000Y-66040954D02*
X114884916Y-64016038D01*
X134009942Y-57350000D02*
X134775000Y-56584942D01*
X114884916Y-64016038D02*
X117940859Y-64016037D01*
X118277367Y-63679529D02*
X119398142Y-63679528D01*
X134775000Y-56584942D02*
X134775000Y-56450000D01*
X122047501Y-62422201D02*
X122047501Y-60127067D01*
X120152670Y-62925000D02*
X121544702Y-62925000D01*
X117940859Y-64016037D02*
X118277367Y-63679529D01*
X123300514Y-58874054D02*
X127524192Y-58874054D01*
X121544702Y-62925000D02*
X122047501Y-62422201D01*
X122047501Y-60127067D02*
X123300514Y-58874054D01*
X135725000Y-121690000D02*
X136080610Y-121690000D01*
X136080610Y-121690000D02*
X137798630Y-123408020D01*
X138905348Y-123408020D02*
X139563368Y-124066040D01*
X137798630Y-123408020D02*
X138905348Y-123408020D01*
X141384920Y-124066040D02*
X141638930Y-124320050D01*
X139563368Y-124066040D02*
X141384920Y-124066040D01*
X143819706Y-124320050D02*
X144077726Y-124578070D01*
X141638930Y-124320050D02*
X143819706Y-124320050D01*
X148439278Y-124578070D02*
X148693288Y-124832080D01*
X144077726Y-124578070D02*
X148439278Y-124578070D01*
X148693288Y-124832080D02*
X150874064Y-124832080D01*
X151265000Y-125223016D02*
X151265000Y-127700000D01*
X150874064Y-124832080D02*
X151265000Y-125223016D01*
X166225000Y-101196000D02*
X166300000Y-101271000D01*
X166225000Y-99075000D02*
X166225000Y-101196000D01*
%TO.N,/bootstrap/A3*%
X114409499Y-69600501D02*
X115400000Y-68610000D01*
X114409499Y-85469499D02*
X114409499Y-69600501D01*
X115400000Y-86460000D02*
X114409499Y-85469499D01*
X137325000Y-56575000D02*
X137325000Y-55035000D01*
X134603390Y-57475000D02*
X136425000Y-57475000D01*
X134220372Y-57858018D02*
X134603390Y-57475000D01*
X132478878Y-57858018D02*
X134220372Y-57858018D01*
X129536232Y-58899054D02*
X130044250Y-58391036D01*
X130044250Y-58391036D02*
X131945860Y-58391036D01*
X128217640Y-58899054D02*
X129536232Y-58899054D01*
X131945860Y-58391036D02*
X132478878Y-57858018D01*
X127734622Y-59382072D02*
X128217640Y-58899054D01*
X118642667Y-64441557D02*
X119767668Y-64441556D01*
X119767668Y-64441556D02*
X120522196Y-63687028D01*
X137325000Y-55035000D02*
X138600000Y-53760000D01*
X124650000Y-62359702D02*
X124650000Y-60325000D01*
X121860347Y-63687027D02*
X122622374Y-62925000D01*
X122622374Y-62925000D02*
X124084702Y-62925000D01*
X125592928Y-59382072D02*
X127734622Y-59382072D01*
X124084702Y-62925000D02*
X124650000Y-62359702D01*
X136425000Y-57475000D02*
X137325000Y-56575000D01*
X120522196Y-63687028D02*
X121860347Y-63687027D01*
X124650000Y-60325000D02*
X125592928Y-59382072D01*
X118504612Y-64579612D02*
X118642667Y-64441557D01*
X118306159Y-64778065D02*
X118504612Y-64579612D01*
X115400000Y-67684224D02*
X118642667Y-64441557D01*
X115400000Y-68610000D02*
X115400000Y-67684224D01*
X138265000Y-121690000D02*
X139879010Y-123304010D01*
X141700562Y-123304010D02*
X141954572Y-123558020D01*
X139879010Y-123304010D02*
X141700562Y-123304010D01*
X144135348Y-123558020D02*
X144393368Y-123816040D01*
X141954572Y-123558020D02*
X144135348Y-123558020D01*
X148754920Y-123816040D02*
X149008930Y-124070050D01*
X144393368Y-123816040D02*
X148754920Y-123816040D01*
X149008930Y-124070050D02*
X151189706Y-124070050D01*
X152535000Y-125415344D02*
X152535000Y-127700000D01*
X151189706Y-124070050D02*
X152535000Y-125415344D01*
X167495000Y-101196000D02*
X167570000Y-101271000D01*
X167495000Y-99075000D02*
X167495000Y-101196000D01*
%TO.N,/io/PB0*%
X149800501Y-55259499D02*
X148760000Y-56300000D01*
X149800501Y-53260559D02*
X149800501Y-55259499D01*
X149164942Y-52625000D02*
X149800501Y-53260559D01*
X118035000Y-52625000D02*
X149164942Y-52625000D01*
X116960000Y-53700000D02*
X118035000Y-52625000D01*
X148309224Y-56300000D02*
X148760000Y-56300000D01*
X146880215Y-57729009D02*
X148309224Y-56300000D01*
X144590645Y-58262027D02*
X145123662Y-57729010D01*
X142176075Y-58670045D02*
X142584092Y-58262028D01*
X125560000Y-83850000D02*
X124504010Y-82794010D01*
X124504010Y-75495990D02*
X126675000Y-73325000D01*
X124504010Y-82794010D02*
X124504010Y-75495990D01*
X142584092Y-58262028D02*
X144590645Y-58262027D01*
X130848664Y-64474054D02*
X135235648Y-64474054D01*
X145123662Y-57729010D02*
X146880215Y-57729009D01*
X135235648Y-64474054D02*
X137287501Y-62422201D01*
X126675000Y-67625000D02*
X128759910Y-65540090D01*
X128759910Y-65540090D02*
X129782628Y-65540090D01*
X140569522Y-58670046D02*
X142176075Y-58670045D01*
X129782628Y-65540090D02*
X130848664Y-64474054D01*
X137287501Y-62422201D02*
X137287501Y-59845515D01*
X126675000Y-73325000D02*
X126675000Y-67625000D01*
X139936505Y-59303063D02*
X140569522Y-58670046D01*
X137287501Y-59845515D02*
X137829952Y-59303064D01*
X137829952Y-59303064D02*
X139936505Y-59303063D01*
%TO.N,/io/PB1*%
X152340501Y-53260559D02*
X151450932Y-52370990D01*
X152340501Y-55259499D02*
X152340501Y-53260559D01*
X151300000Y-56300000D02*
X152340501Y-55259499D01*
X151450932Y-52370990D02*
X116229010Y-52370990D01*
X115460501Y-55199499D02*
X114420000Y-56240000D01*
X115460501Y-53139499D02*
X115460501Y-55199499D01*
X116229010Y-52370990D02*
X115460501Y-53139499D01*
X150934224Y-56300000D02*
X151300000Y-56300000D01*
X149430215Y-57804009D02*
X150934224Y-56300000D01*
X145334092Y-58237028D02*
X147090645Y-58237027D01*
X144801075Y-58770045D02*
X145334092Y-58237028D01*
X142794522Y-58770046D02*
X144801075Y-58770045D01*
X142386505Y-59178063D02*
X142794522Y-58770046D01*
X140779952Y-59178064D02*
X142386505Y-59178063D01*
X128100000Y-83850000D02*
X127079010Y-82829010D01*
X147090645Y-58237027D02*
X147523662Y-57804010D01*
X127079010Y-82829010D02*
X127079010Y-80445990D01*
X127079010Y-80445990D02*
X127075000Y-80441980D01*
X147523662Y-57804010D02*
X149430215Y-57804009D01*
X127075000Y-80441980D02*
X127075000Y-75150000D01*
X127075000Y-75150000D02*
X129150000Y-73075000D01*
X135446078Y-64982072D02*
X137795521Y-62632629D01*
X129150000Y-66891166D02*
X131059094Y-64982072D01*
X129150000Y-73075000D02*
X129150000Y-66891166D01*
X137795521Y-62632629D02*
X137795521Y-60055943D01*
X131059094Y-64982072D02*
X135446078Y-64982072D01*
X140146935Y-59811081D02*
X140779952Y-59178064D01*
X137795521Y-60055943D02*
X138040382Y-59811082D01*
X138040382Y-59811082D02*
X140146935Y-59811081D01*
%TO.N,/io/PB2*%
X114420000Y-53700000D02*
X116003020Y-52116980D01*
X154880501Y-53260559D02*
X154880501Y-55259499D01*
X153736922Y-52116980D02*
X154880501Y-53260559D01*
X154880501Y-55259499D02*
X153840000Y-56300000D01*
X116003020Y-52116980D02*
X153736922Y-52116980D01*
X152055215Y-57879009D02*
X153634224Y-56300000D01*
X150073662Y-57879010D02*
X152055215Y-57879009D01*
X149640645Y-58312027D02*
X150073662Y-57879010D01*
X147734092Y-58312028D02*
X149640645Y-58312027D01*
X129554010Y-76070990D02*
X131775000Y-73850000D01*
X131775000Y-73850000D02*
X131775000Y-67600000D01*
X135656508Y-65490090D02*
X137742588Y-63404010D01*
X131775000Y-67600000D02*
X133884910Y-65490090D01*
X153634224Y-56300000D02*
X153840000Y-56300000D01*
X129554010Y-82764010D02*
X129554010Y-76070990D01*
X145544522Y-58745046D02*
X147301075Y-58745045D01*
X133884910Y-65490090D02*
X135656508Y-65490090D01*
X139480215Y-63404009D02*
X143606160Y-59278064D01*
X137742588Y-63404010D02*
X139480215Y-63404009D01*
X143606160Y-59278064D02*
X145011505Y-59278063D01*
X147301075Y-58745045D02*
X147734092Y-58312028D01*
X130640000Y-83850000D02*
X129554010Y-82764010D01*
X145011505Y-59278063D02*
X145544522Y-58745046D01*
%TO.N,/io/PB3*%
X113100000Y-55020000D02*
X111880000Y-56240000D01*
X113100000Y-52900000D02*
X113100000Y-55020000D01*
X156022912Y-51862970D02*
X114137030Y-51862970D01*
X157420501Y-53260559D02*
X156022912Y-51862970D01*
X114137030Y-51862970D02*
X113100000Y-52900000D01*
X157420501Y-55259499D02*
X157420501Y-53260559D01*
X156380000Y-56300000D02*
X157420501Y-55259499D01*
X133180000Y-83850000D02*
X132104010Y-82774010D01*
X132104010Y-82774010D02*
X132104010Y-75420990D01*
X132104010Y-75420990D02*
X134225000Y-73300000D01*
X134225000Y-73300000D02*
X134225000Y-67640046D01*
X137953018Y-63912028D02*
X139690645Y-63912027D01*
X134225000Y-67640046D02*
X137953018Y-63912028D01*
X143816590Y-59786082D02*
X145221935Y-59786081D01*
X139690645Y-63912027D02*
X143816590Y-59786082D01*
X145754952Y-59253064D02*
X147511505Y-59253063D01*
X145221935Y-59786081D02*
X145754952Y-59253064D01*
X147944522Y-58820046D02*
X149851075Y-58820045D01*
X147511505Y-59253063D02*
X147944522Y-58820046D01*
X150284092Y-58387028D02*
X152265645Y-58387027D01*
X149851075Y-58820045D02*
X150284092Y-58387028D01*
X152773662Y-57879010D02*
X154630215Y-57879009D01*
X152265645Y-58387027D02*
X152773662Y-57879010D01*
X156209224Y-56300000D02*
X156380000Y-56300000D01*
X154630215Y-57879009D02*
X156209224Y-56300000D01*
%TO.N,/io/PB4*%
X111880000Y-53700000D02*
X113971040Y-51608960D01*
X159960501Y-55259499D02*
X158920000Y-56300000D01*
X159960501Y-52801561D02*
X159960501Y-55259499D01*
X158767900Y-51608960D02*
X159960501Y-52801561D01*
X113971040Y-51608960D02*
X158767900Y-51608960D01*
X135720000Y-83850000D02*
X134654010Y-82784010D01*
X134654010Y-82784010D02*
X134654010Y-75470990D01*
X134654010Y-75470990D02*
X136800000Y-73325000D01*
X136800000Y-73325000D02*
X136800000Y-65783494D01*
X138163448Y-64420046D02*
X139901075Y-64420045D01*
X136800000Y-65783494D02*
X138163448Y-64420046D01*
X144027020Y-60294100D02*
X145432365Y-60294099D01*
X139901075Y-64420045D02*
X144027020Y-60294100D01*
X145965382Y-59761082D02*
X147721935Y-59761081D01*
X145432365Y-60294099D02*
X145965382Y-59761082D01*
X148154952Y-59328064D02*
X150061505Y-59328063D01*
X147721935Y-59761081D02*
X148154952Y-59328064D01*
X150494522Y-58895046D02*
X152476075Y-58895045D01*
X150061505Y-59328063D02*
X150494522Y-58895046D01*
X152984092Y-58387028D02*
X154840645Y-58387027D01*
X152476075Y-58895045D02*
X152984092Y-58387028D01*
X155373662Y-57854010D02*
X157155215Y-57854009D01*
X154840645Y-58387027D02*
X155373662Y-57854010D01*
X158709224Y-56300000D02*
X158920000Y-56300000D01*
X157155215Y-57854009D02*
X158709224Y-56300000D01*
%TO.N,/io/PB5*%
X110380501Y-55199499D02*
X109340000Y-56240000D01*
X110380501Y-53019499D02*
X110380501Y-55199499D01*
X112045050Y-51354950D02*
X110380501Y-53019499D01*
X160594892Y-51354950D02*
X112045050Y-51354950D01*
X162500501Y-53260559D02*
X160594892Y-51354950D01*
X162500501Y-55259499D02*
X162500501Y-53260559D01*
X161460000Y-56300000D02*
X162500501Y-55259499D01*
X161234224Y-56300000D02*
X161460000Y-56300000D01*
X159655215Y-57879009D02*
X161234224Y-56300000D01*
X157848662Y-57879010D02*
X159655215Y-57879009D01*
X153194522Y-58895046D02*
X155051075Y-58895045D01*
X152686505Y-59403063D02*
X153194522Y-58895046D01*
X155051075Y-58895045D02*
X155584092Y-58362028D01*
X138260000Y-83850000D02*
X137204010Y-82794010D01*
X146175812Y-60269100D02*
X147932365Y-60269099D01*
X148365382Y-59836082D02*
X150271935Y-59836081D01*
X157365645Y-58362027D02*
X157848662Y-57879010D01*
X137204010Y-74845990D02*
X137222952Y-74845990D01*
X144237450Y-60802118D02*
X145642795Y-60802117D01*
X155584092Y-58362028D02*
X157365645Y-58362027D01*
X137222952Y-74845990D02*
X139293501Y-72775441D01*
X139293501Y-72775441D02*
X139293501Y-65746067D01*
X139293501Y-65746067D02*
X144237450Y-60802118D01*
X145642795Y-60802117D02*
X146175812Y-60269100D01*
X137204010Y-82794010D02*
X137204010Y-74845990D01*
X147932365Y-60269099D02*
X148365382Y-59836082D01*
X150271935Y-59836081D02*
X150704952Y-59403064D01*
X150704952Y-59403064D02*
X152686505Y-59403063D01*
%TO.N,/io/PB6*%
X109340000Y-53700000D02*
X111939060Y-51100940D01*
X165040501Y-55259499D02*
X164000000Y-56300000D01*
X165040501Y-53260559D02*
X165040501Y-55259499D01*
X162880882Y-51100940D02*
X165040501Y-53260559D01*
X111939060Y-51100940D02*
X162880882Y-51100940D01*
X163834224Y-56300000D02*
X164000000Y-56300000D01*
X162280215Y-57854009D02*
X163834224Y-56300000D01*
X159865645Y-58387027D02*
X160398662Y-57854010D01*
X158059092Y-58387028D02*
X159865645Y-58387027D01*
X155794522Y-58870046D02*
X157576075Y-58870045D01*
X155261505Y-59403063D02*
X155794522Y-58870046D01*
X157576075Y-58870045D02*
X158059092Y-58387028D01*
X152896935Y-59911081D02*
X153404952Y-59403064D01*
X150915382Y-59911082D02*
X152896935Y-59911081D01*
X160398662Y-57854010D02*
X162280215Y-57854009D01*
X140800000Y-83850000D02*
X139854010Y-82904010D01*
X139854010Y-82904010D02*
X139854010Y-80396952D01*
X139854010Y-80396952D02*
X139852499Y-80395441D01*
X139852499Y-80395441D02*
X139852499Y-71197501D01*
X153404952Y-59403064D02*
X155261505Y-59403063D01*
X145853225Y-61310135D02*
X146386242Y-60777118D01*
X144447880Y-61310136D02*
X145853225Y-61310135D01*
X148142795Y-60777117D02*
X148575812Y-60344100D01*
X146386242Y-60777118D02*
X148142795Y-60777117D01*
X148575812Y-60344100D02*
X150482365Y-60344099D01*
X150482365Y-60344099D02*
X150915382Y-59911082D01*
X139852499Y-71197501D02*
X141790501Y-69259499D01*
X141790501Y-63967515D02*
X142316508Y-63441508D01*
X141790501Y-69259499D02*
X141790501Y-63967515D01*
X142316508Y-63441508D02*
X144447880Y-61310136D01*
X141850000Y-63908016D02*
X142316508Y-63441508D01*
%TO.N,/io/PB7*%
X167580501Y-53260559D02*
X165166872Y-50846930D01*
X167580501Y-55259499D02*
X167580501Y-53260559D01*
X166540000Y-56300000D02*
X167580501Y-55259499D01*
X165166872Y-50846930D02*
X110103070Y-50846930D01*
X107840501Y-55199499D02*
X106800000Y-56240000D01*
X107840501Y-53109499D02*
X107840501Y-55199499D01*
X110103070Y-50846930D02*
X107840501Y-53109499D01*
X143340000Y-83850000D02*
X143340000Y-71555776D01*
X166384224Y-56300000D02*
X166540000Y-56300000D01*
X143340000Y-71555776D02*
X142298521Y-70514297D01*
X142298521Y-70514297D02*
X142298521Y-68100000D01*
X142298521Y-68100000D02*
X147039561Y-63358960D01*
X147039561Y-63358960D02*
X162966040Y-63358960D01*
X166540000Y-59785000D02*
X166540000Y-56300000D01*
X162966040Y-63358960D02*
X166540000Y-59785000D01*
%TO.N,/R~W*%
X147429499Y-85469499D02*
X148420000Y-86460000D01*
X147429499Y-69600501D02*
X147429499Y-85469499D01*
X148420000Y-68610000D02*
X147429499Y-69600501D01*
X173509010Y-51870990D02*
X175230215Y-51870991D01*
X171620000Y-53760000D02*
X173509010Y-51870990D01*
X196050501Y-82209499D02*
X195060000Y-83200000D01*
X196050501Y-67484559D02*
X196050501Y-82209499D01*
X192936932Y-64370990D02*
X196050501Y-67484559D01*
X187730214Y-64370990D02*
X192936932Y-64370990D01*
X175230215Y-51870991D02*
X187730214Y-64370990D01*
X148420000Y-68610000D02*
X153163020Y-63866980D01*
X153163020Y-63866980D02*
X165439572Y-63866980D01*
X165439572Y-63866980D02*
X170350000Y-58956552D01*
X170350000Y-55030000D02*
X171620000Y-53760000D01*
X170350000Y-58956552D02*
X170350000Y-55030000D01*
X147735000Y-147950000D02*
X146916000Y-148769000D01*
X147735000Y-146975000D02*
X147735000Y-147950000D01*
X146916000Y-148769000D02*
X142424000Y-148769000D01*
X142424000Y-148769000D02*
X141662000Y-148007000D01*
X141662000Y-148007000D02*
X141662000Y-130358120D01*
X135881950Y-124578070D02*
X133558501Y-124578069D01*
X141662000Y-130358120D02*
X135881950Y-124578070D01*
X133304492Y-124324060D02*
X131123715Y-124324059D01*
X133558501Y-124578069D02*
X133304492Y-124324060D01*
X130869706Y-124070050D02*
X128300659Y-124070049D01*
X128300659Y-124070049D02*
X126606481Y-122375869D01*
X131123715Y-124324059D02*
X130869706Y-124070050D01*
X126606481Y-122375869D02*
X126606481Y-107703662D01*
X125565000Y-106662181D02*
X125565000Y-106450000D01*
X126606481Y-107703662D02*
X125565000Y-106662181D01*
X148420000Y-86460000D02*
X147169226Y-87710774D01*
X147169226Y-107567374D02*
X147066000Y-107670600D01*
X147169226Y-87710774D02*
X147169226Y-107567374D01*
%TO.N,/TOD*%
X195060000Y-67960000D02*
X191725000Y-64625000D01*
X191725000Y-64625000D02*
X187625000Y-64625000D01*
X187625000Y-64625000D02*
X175125000Y-52125000D01*
X175125000Y-52125000D02*
X173850000Y-52125000D01*
X171620000Y-55940776D02*
X171620000Y-56300000D01*
X172660501Y-54900275D02*
X171620000Y-55940776D01*
X172660501Y-53314499D02*
X172660501Y-54900275D01*
X173850000Y-52125000D02*
X172660501Y-53314499D01*
X171620000Y-56300000D02*
X171620000Y-58045776D01*
X171620000Y-58045776D02*
X165544786Y-64120990D01*
X165544786Y-64120990D02*
X153268234Y-64120990D01*
X153268234Y-64120990D02*
X149700000Y-67689224D01*
X149700000Y-82570000D02*
X148420000Y-83850000D01*
X149700000Y-67689224D02*
X149700000Y-82570000D01*
%TO.N,/peripherals/~CIARES*%
X117940000Y-67710000D02*
X117940000Y-68610000D01*
X122281207Y-64703063D02*
X120943056Y-64703064D01*
X123043234Y-63941036D02*
X122281207Y-64703063D01*
X124505562Y-63941036D02*
X123043234Y-63941036D01*
X125192588Y-63254010D02*
X124505562Y-63941036D01*
X128835693Y-63254009D02*
X125192588Y-63254010D01*
X141140000Y-53760000D02*
X139875000Y-55025000D01*
X139875000Y-55025000D02*
X139875000Y-56850000D01*
X139875000Y-56850000D02*
X139200000Y-57525000D01*
X139200000Y-57525000D02*
X137093448Y-57525000D01*
X118676491Y-66973509D02*
X117940000Y-67710000D01*
X120943056Y-64703064D02*
X118676491Y-66969629D01*
X137093448Y-57525000D02*
X136635430Y-57983018D01*
X136635430Y-57983018D02*
X134826206Y-57983018D01*
X129667501Y-62422201D02*
X128835693Y-63254009D01*
X134443188Y-58366036D02*
X132689308Y-58366036D01*
X132689308Y-58366036D02*
X132156290Y-58899054D01*
X130254680Y-58899054D02*
X129667501Y-59486233D01*
X118676491Y-66969629D02*
X118676491Y-66973509D01*
X132156290Y-58899054D02*
X130254680Y-58899054D01*
X134826206Y-57983018D02*
X134443188Y-58366036D01*
X129667501Y-59486233D02*
X129667501Y-62422201D01*
X106515000Y-102975000D02*
X105240000Y-101700000D01*
X118130942Y-102975000D02*
X106515000Y-102975000D01*
X116898521Y-98973521D02*
X118930501Y-101005501D01*
X118930501Y-102175441D02*
X118130942Y-102975000D01*
X116898521Y-83055073D02*
X116898521Y-98973521D01*
X116162030Y-82318582D02*
X116898521Y-83055073D01*
X116162030Y-70890642D02*
X116162030Y-82318582D01*
X117940000Y-69112672D02*
X116162030Y-70890642D01*
X118930501Y-101005501D02*
X118930501Y-102175441D01*
X117940000Y-68610000D02*
X117940000Y-69112672D01*
%TO.N,/peripherals/DB0*%
X120480000Y-72257000D02*
X120523000Y-72300000D01*
X120480000Y-68610000D02*
X120480000Y-72257000D01*
%TO.N,/peripherals/DB1*%
X123020000Y-72257000D02*
X123063000Y-72300000D01*
X123020000Y-68610000D02*
X123020000Y-72257000D01*
%TO.N,/peripherals/DB2*%
X125560000Y-72257000D02*
X125603000Y-72300000D01*
X125560000Y-68610000D02*
X125560000Y-72257000D01*
%TO.N,/peripherals/DB3*%
X128100000Y-72257000D02*
X128143000Y-72300000D01*
X128100000Y-68610000D02*
X128100000Y-72257000D01*
%TO.N,/peripherals/DB4*%
X130640000Y-72257000D02*
X130683000Y-72300000D01*
X130640000Y-68610000D02*
X130640000Y-72257000D01*
%TO.N,/peripherals/DB5*%
X133180000Y-72257000D02*
X133223000Y-72300000D01*
X133180000Y-68610000D02*
X133180000Y-72257000D01*
%TO.N,/peripherals/DB6*%
X135720000Y-72257000D02*
X135763000Y-72300000D01*
X135720000Y-68610000D02*
X135720000Y-72257000D01*
%TO.N,/peripherals/DB7*%
X138260000Y-72257000D02*
X138303000Y-72300000D01*
X138260000Y-68610000D02*
X138260000Y-72257000D01*
%TO.N,/peripherals/PA7*%
X140359092Y-58162028D02*
X141965645Y-58162027D01*
X139726075Y-58795045D02*
X140359092Y-58162028D01*
X142373662Y-57754010D02*
X144380215Y-57754009D01*
X141965645Y-58162027D02*
X142373662Y-57754010D01*
X145834224Y-56300000D02*
X146220000Y-56300000D01*
X144380215Y-57754009D02*
X145834224Y-56300000D01*
X138929954Y-58795046D02*
X138929955Y-58795045D01*
X137619522Y-58795046D02*
X138929954Y-58795046D01*
X137839178Y-58795046D02*
X138929955Y-58795045D01*
X138929955Y-58795045D02*
X139726075Y-58795045D01*
X135381160Y-59253064D02*
X137161505Y-59253063D01*
X135004010Y-59630214D02*
X135381160Y-59253064D01*
X137161505Y-59253063D02*
X137619522Y-58795046D01*
X123020000Y-83850000D02*
X122004010Y-82834010D01*
X124053501Y-73646499D02*
X124053501Y-66907665D01*
X129572198Y-65032072D02*
X130638234Y-63966036D01*
X122004010Y-75695990D02*
X124053501Y-73646499D01*
X124053501Y-66907665D02*
X125929094Y-65032072D01*
X125929094Y-65032072D02*
X129572198Y-65032072D01*
X130638234Y-63966036D02*
X133562890Y-63966036D01*
X133562890Y-63966036D02*
X135004010Y-62524916D01*
X122004010Y-82834010D02*
X122004010Y-75695990D01*
X135004010Y-62524916D02*
X135004010Y-59630214D01*
%TO.N,/peripherals/PA6*%
X143109224Y-56300000D02*
X143680000Y-56300000D01*
X141755215Y-57654009D02*
X143109224Y-56300000D01*
X140148662Y-57654010D02*
X141755215Y-57654009D01*
X139515645Y-58287027D02*
X140148662Y-57654010D01*
X136951075Y-58745045D02*
X137409092Y-58287028D01*
X135141850Y-58745046D02*
X136951075Y-58745045D01*
X134758833Y-59128063D02*
X135141850Y-58745046D01*
X133004952Y-59128064D02*
X134758833Y-59128063D01*
X132461511Y-59671505D02*
X133004952Y-59128064D01*
X132461511Y-62527415D02*
X132461511Y-59671505D01*
X123464094Y-64957072D02*
X124926422Y-64957072D01*
X137409092Y-58287028D02*
X139515645Y-58287027D01*
X121513501Y-66907665D02*
X123464094Y-64957072D01*
X124926422Y-64957072D02*
X125613448Y-64270046D01*
X125613448Y-64270046D02*
X129256553Y-64270045D01*
X129256553Y-64270045D02*
X130322588Y-63204010D01*
X130322588Y-63204010D02*
X131784917Y-63204009D01*
X131784917Y-63204009D02*
X132461511Y-62527415D01*
X120480000Y-83850000D02*
X120480000Y-83786552D01*
X120480000Y-83786552D02*
X119025000Y-82331552D01*
X119025000Y-82331552D02*
X119025000Y-75502002D01*
X119025000Y-75502002D02*
X121513501Y-73013501D01*
X121513501Y-73013501D02*
X121513501Y-66907665D01*
%TO.N,/peripherals/PA5*%
X117693448Y-83850000D02*
X117940000Y-83850000D01*
X140784224Y-56300000D02*
X141140000Y-56300000D01*
X137198662Y-57779010D02*
X139305215Y-57779009D01*
X134931420Y-58237028D02*
X136740645Y-58237027D01*
X139305215Y-57779009D02*
X140784224Y-56300000D01*
X134548403Y-58620045D02*
X134931420Y-58237028D01*
X132794522Y-58620046D02*
X134548403Y-58620045D01*
X132261505Y-59153063D02*
X132794522Y-58620046D01*
X117940000Y-83737328D02*
X116416040Y-82213368D01*
X130359894Y-59153064D02*
X132261505Y-59153063D01*
X116416040Y-82213368D02*
X116416040Y-71599902D01*
X117940000Y-83850000D02*
X117940000Y-83737328D01*
X116416040Y-71599902D02*
X118930501Y-69085441D01*
X136740645Y-58237027D02*
X137198662Y-57779010D01*
X121048272Y-64957072D02*
X122386422Y-64957072D01*
X125297804Y-63508018D02*
X128940908Y-63508018D01*
X118930501Y-69085441D02*
X118930501Y-67074843D01*
X128940908Y-63508018D02*
X129921511Y-62527415D01*
X118930501Y-67074843D02*
X121048272Y-64957072D01*
X122386422Y-64957072D02*
X123148448Y-64195046D01*
X123148448Y-64195046D02*
X124610777Y-64195045D01*
X124610777Y-64195045D02*
X125297804Y-63508018D01*
X129921511Y-59591447D02*
X130359894Y-59153064D01*
X129921511Y-62527415D02*
X129921511Y-59591447D01*
%TO.N,/peripherals/PA4*%
X137959224Y-56300000D02*
X138600000Y-56300000D01*
X134337973Y-58112027D02*
X134720990Y-57729010D01*
X132584092Y-58112028D02*
X134337973Y-58112027D01*
X132051075Y-58645045D02*
X132584092Y-58112028D01*
X127839837Y-59636081D02*
X128322854Y-59153064D01*
X125698142Y-59636082D02*
X127839837Y-59636081D01*
X118747883Y-64695565D02*
X119872883Y-64695565D01*
X134720990Y-57729010D02*
X136530215Y-57729009D01*
X121965562Y-63941036D02*
X122727588Y-63179010D01*
X129641447Y-59153063D02*
X130149464Y-58645046D01*
X136530215Y-57729009D02*
X137959224Y-56300000D01*
X124904010Y-62464916D02*
X124904010Y-60430214D01*
X128322854Y-59153064D02*
X129641447Y-59153063D01*
X124189917Y-63179009D02*
X124904010Y-62464916D01*
X130149464Y-58645046D02*
X132051075Y-58645045D01*
X119872883Y-64695565D02*
X120627412Y-63941036D01*
X120627412Y-63941036D02*
X121965562Y-63941036D01*
X122727588Y-63179010D02*
X124189917Y-63179009D01*
X124904010Y-60430214D02*
X125698142Y-59636082D01*
X118671724Y-64771724D02*
X118747883Y-64695565D01*
X118411374Y-65032074D02*
X118671724Y-64771724D01*
X115400000Y-83850000D02*
X115400000Y-70575000D01*
X116390501Y-69584499D02*
X116390501Y-67052947D01*
X115400000Y-70575000D02*
X116390501Y-69584499D01*
X116390501Y-67052947D02*
X118747883Y-64695565D01*
%TO.N,/peripherals/PA3*%
X135834224Y-56300000D02*
X136060000Y-56300000D01*
X134115157Y-57604009D02*
X135419166Y-56300000D01*
X132373662Y-57604010D02*
X134115157Y-57604009D01*
X131840645Y-58137027D02*
X132373662Y-57604010D01*
X129431017Y-58645045D02*
X129939034Y-58137028D01*
X128112424Y-58645046D02*
X129431017Y-58645045D01*
X127629407Y-59128063D02*
X128112424Y-58645046D01*
X123405728Y-59128064D02*
X127629407Y-59128063D01*
X135419166Y-56300000D02*
X136060000Y-56300000D01*
X113901479Y-82808521D02*
X113901479Y-67414297D01*
X113901479Y-67414297D02*
X113900000Y-67412818D01*
X121649917Y-63179009D02*
X122301511Y-62527415D01*
X112860000Y-83850000D02*
X113901479Y-82808521D01*
X113900000Y-65360178D02*
X114990132Y-64270046D01*
X119503357Y-63933537D02*
X120257884Y-63179010D01*
X114990132Y-64270046D02*
X118046074Y-64270046D01*
X122301511Y-60232281D02*
X123405728Y-59128064D01*
X129939034Y-58137028D02*
X131840645Y-58137027D01*
X118046074Y-64270046D02*
X118382583Y-63933537D01*
X118382583Y-63933537D02*
X119503357Y-63933537D01*
X113900000Y-67412818D02*
X113900000Y-65360178D01*
X120257884Y-63179010D02*
X121649917Y-63179009D01*
X122301511Y-62527415D02*
X122301511Y-60232281D01*
%TO.N,/peripherals/PA2*%
X133520000Y-56664224D02*
X133520000Y-56300000D01*
X120004010Y-62355214D02*
X120004010Y-61305214D01*
X119187714Y-63171510D02*
X120004010Y-62355214D01*
X120004010Y-61305214D02*
X122018186Y-59291038D01*
X114674488Y-63508018D02*
X117730430Y-63508018D01*
X117730430Y-63508018D02*
X118066937Y-63171511D01*
X111361479Y-66821027D02*
X114674488Y-63508018D01*
X111361479Y-82808521D02*
X111361479Y-66821027D01*
X118066937Y-63171511D02*
X119187714Y-63171510D01*
X110320000Y-83850000D02*
X111361479Y-82808521D01*
X122018186Y-59291038D02*
X122524306Y-59291038D01*
X123195298Y-58620046D02*
X127418977Y-58620045D01*
X122524306Y-59291038D02*
X123195298Y-58620046D01*
X127901994Y-58137028D02*
X129220587Y-58137027D01*
X127418977Y-58620045D02*
X127901994Y-58137028D01*
X129728604Y-57629010D02*
X131630215Y-57629009D01*
X129220587Y-58137027D02*
X129728604Y-57629010D01*
X132959224Y-56300000D02*
X133520000Y-56300000D01*
X131630215Y-57629009D02*
X132959224Y-56300000D01*
%TO.N,/peripherals/PA1*%
X114775000Y-61425000D02*
X117416980Y-58783020D01*
X114775000Y-62325000D02*
X114775000Y-61425000D01*
X114358843Y-62741157D02*
X114775000Y-62325000D01*
X114358843Y-62745991D02*
X114358843Y-62741157D01*
X130980000Y-56704224D02*
X130980000Y-56300000D01*
X108821480Y-68283354D02*
X114358843Y-62745991D01*
X108821479Y-82808521D02*
X108821480Y-68283354D01*
X107780000Y-83850000D02*
X108821479Y-82808521D01*
X117541982Y-58783018D02*
X122313878Y-58783018D01*
X117541980Y-58783020D02*
X117541982Y-58783018D01*
X117416980Y-58783020D02*
X117541980Y-58783020D01*
X122984868Y-58112028D02*
X127208547Y-58112027D01*
X122313878Y-58783018D02*
X122984868Y-58112028D01*
X127691564Y-57629010D02*
X129010157Y-57629009D01*
X127208547Y-58112027D02*
X127691564Y-57629010D01*
X130339166Y-56300000D02*
X130980000Y-56300000D01*
X129010157Y-57629009D02*
X130339166Y-56300000D01*
%TO.N,/memory/~CIAEXT*%
X166300000Y-148743600D02*
X160686600Y-148743600D01*
X160365000Y-148422000D02*
X160365000Y-146975000D01*
X160686600Y-148743600D02*
X160365000Y-148422000D01*
%TO.N,/peripherals/~EXTFLAG*%
X143340000Y-68610000D02*
X148337030Y-63612970D01*
X148337030Y-63612970D02*
X165334358Y-63612970D01*
X169080000Y-59867328D02*
X169080000Y-56300000D01*
X165334358Y-63612970D02*
X169080000Y-59867328D01*
%TO.N,/peripherals/~EXTPC*%
X145114434Y-62875000D02*
X146958308Y-61031126D01*
X143242240Y-62875000D02*
X145114434Y-62875000D01*
X146958308Y-61031126D02*
X148248010Y-61031126D01*
X148681028Y-60598108D02*
X150587580Y-60598108D01*
X148248010Y-61031126D02*
X148681028Y-60598108D01*
X151020598Y-60165090D02*
X153002150Y-60165090D01*
X150587580Y-60598108D02*
X151020598Y-60165090D01*
X153510168Y-59657072D02*
X155366720Y-59657072D01*
X153002150Y-60165090D02*
X153510168Y-59657072D01*
X155899738Y-59124054D02*
X157681290Y-59124054D01*
X155366720Y-59657072D02*
X155899738Y-59124054D01*
X158164308Y-58641036D02*
X159970860Y-58641036D01*
X157681290Y-59124054D02*
X158164308Y-58641036D01*
X160503878Y-58108018D02*
X162385430Y-58108018D01*
X159970860Y-58641036D02*
X160503878Y-58108018D01*
X162385430Y-58108018D02*
X162893448Y-57600000D01*
X162893448Y-57600000D02*
X164725000Y-57600000D01*
X164725000Y-57600000D02*
X165300000Y-57025000D01*
X165300000Y-55000000D02*
X166540000Y-53760000D01*
X165300000Y-57025000D02*
X165300000Y-55000000D01*
X142104010Y-64020990D02*
X142044511Y-64080489D01*
X142104010Y-64013230D02*
X142104010Y-64020990D01*
X142044511Y-64072729D02*
X142721120Y-63396120D01*
X142044511Y-70619511D02*
X142044511Y-64072729D01*
X142950000Y-71525000D02*
X142044511Y-70619511D01*
X142950000Y-78125000D02*
X142950000Y-71525000D01*
X142250000Y-78825000D02*
X142950000Y-78125000D01*
X142250000Y-84425000D02*
X142250000Y-78825000D01*
X142875000Y-85050000D02*
X142250000Y-84425000D01*
X144680000Y-85050000D02*
X142875000Y-85050000D01*
X145880000Y-83850000D02*
X144680000Y-85050000D01*
X142721120Y-63396120D02*
X143242240Y-62875000D01*
X142104010Y-64013230D02*
X142721120Y-63396120D01*
%TD*%
M02*
