%TF.GenerationSoftware,KiCad,Pcbnew,(5.1.7)-1*%
%TF.CreationDate,2020-12-26T11:55:58+01:00*%
%TF.ProjectId,sbc6526,73626336-3532-4362-9e6b-696361645f70,rev?*%
%TF.SameCoordinates,Original*%
%TF.FileFunction,Soldermask,Top*%
%TF.FilePolarity,Negative*%
%FSLAX46Y46*%
G04 Gerber Fmt 4.6, Leading zero omitted, Abs format (unit mm)*
G04 Created by KiCad (PCBNEW (5.1.7)-1) date 2020-12-26 11:55:58*
%MOMM*%
%LPD*%
G01*
G04 APERTURE LIST*
%ADD10O,1.600000X1.600000*%
%ADD11R,1.600000X1.600000*%
%ADD12C,3.400000*%
%ADD13C,1.524000*%
%ADD14O,1.700000X1.700000*%
%ADD15R,1.700000X1.700000*%
%ADD16C,1.440000*%
%ADD17C,1.600000*%
%ADD18O,1.400000X1.400000*%
%ADD19C,1.400000*%
%ADD20C,1.700000*%
G04 APERTURE END LIST*
D10*
%TO.C,U3*%
X110325000Y-106450000D03*
X158585000Y-121690000D03*
X112865000Y-106450000D03*
X156045000Y-121690000D03*
X115405000Y-106450000D03*
X153505000Y-121690000D03*
X117945000Y-106450000D03*
X150965000Y-121690000D03*
X120485000Y-106450000D03*
X148425000Y-121690000D03*
X123025000Y-106450000D03*
X145885000Y-121690000D03*
X125565000Y-106450000D03*
X143345000Y-121690000D03*
X128105000Y-106450000D03*
X140805000Y-121690000D03*
X130645000Y-106450000D03*
X138265000Y-121690000D03*
X133185000Y-106450000D03*
X135725000Y-121690000D03*
X135725000Y-106450000D03*
X133185000Y-121690000D03*
X138265000Y-106450000D03*
X130645000Y-121690000D03*
X140805000Y-106450000D03*
X128105000Y-121690000D03*
X143345000Y-106450000D03*
X125565000Y-121690000D03*
X145885000Y-106450000D03*
X123025000Y-121690000D03*
X148425000Y-106450000D03*
X120485000Y-121690000D03*
X150965000Y-106450000D03*
X117945000Y-121690000D03*
X153505000Y-106450000D03*
X115405000Y-121690000D03*
X156045000Y-106450000D03*
X112865000Y-121690000D03*
X158585000Y-106450000D03*
D11*
X110325000Y-121690000D03*
%TD*%
D12*
%TO.C,LCD1*%
X196425000Y-61925000D03*
X196425000Y-116925000D03*
X103425000Y-116925000D03*
X103425000Y-61925000D03*
D13*
X138875000Y-61965000D03*
X136335000Y-61965000D03*
X133795000Y-61965000D03*
X131255000Y-61965000D03*
X128715000Y-61965000D03*
X126175000Y-61965000D03*
X123635000Y-61965000D03*
X121095000Y-61965000D03*
X118555000Y-61965000D03*
X116015000Y-61965000D03*
X113475000Y-61965000D03*
X110935000Y-61965000D03*
%TD*%
D10*
%TO.C,U2*%
X102700000Y-86460000D03*
X150960000Y-101700000D03*
X105240000Y-86460000D03*
X148420000Y-101700000D03*
X107780000Y-86460000D03*
X145880000Y-101700000D03*
X110320000Y-86460000D03*
X143340000Y-101700000D03*
X112860000Y-86460000D03*
X140800000Y-101700000D03*
X115400000Y-86460000D03*
X138260000Y-101700000D03*
X117940000Y-86460000D03*
X135720000Y-101700000D03*
X120480000Y-86460000D03*
X133180000Y-101700000D03*
X123020000Y-86460000D03*
X130640000Y-101700000D03*
X125560000Y-86460000D03*
X128100000Y-101700000D03*
X128100000Y-86460000D03*
X125560000Y-101700000D03*
X130640000Y-86460000D03*
X123020000Y-101700000D03*
X133180000Y-86460000D03*
X120480000Y-101700000D03*
X135720000Y-86460000D03*
X117940000Y-101700000D03*
X138260000Y-86460000D03*
X115400000Y-101700000D03*
X140800000Y-86460000D03*
X112860000Y-101700000D03*
X143340000Y-86460000D03*
X110320000Y-101700000D03*
X145880000Y-86460000D03*
X107780000Y-101700000D03*
X148420000Y-86460000D03*
X105240000Y-101700000D03*
X150960000Y-86460000D03*
D11*
X102700000Y-101700000D03*
%TD*%
D14*
%TO.C,EXT6526*%
X174160000Y-53760000D03*
X174160000Y-56300000D03*
X171620000Y-53760000D03*
X171620000Y-56300000D03*
X169080000Y-53760000D03*
X169080000Y-56300000D03*
X166540000Y-53760000D03*
X166540000Y-56300000D03*
X164000000Y-53760000D03*
X164000000Y-56300000D03*
X161460000Y-53760000D03*
X161460000Y-56300000D03*
X158920000Y-53760000D03*
X158920000Y-56300000D03*
X156380000Y-53760000D03*
X156380000Y-56300000D03*
X153840000Y-53760000D03*
X153840000Y-56300000D03*
X151300000Y-53760000D03*
X151300000Y-56300000D03*
X148760000Y-53760000D03*
X148760000Y-56300000D03*
X146220000Y-53760000D03*
X146220000Y-56300000D03*
X143680000Y-53760000D03*
X143680000Y-56300000D03*
X141140000Y-53760000D03*
X141140000Y-56300000D03*
X138600000Y-53760000D03*
X138600000Y-56300000D03*
X136060000Y-53760000D03*
X136060000Y-56300000D03*
X133520000Y-53760000D03*
X133520000Y-56300000D03*
X130980000Y-53760000D03*
X130980000Y-56300000D03*
X128440000Y-53760000D03*
X128440000Y-56300000D03*
X125900000Y-53760000D03*
D15*
X125900000Y-56300000D03*
%TD*%
D13*
%TO.C,LED1*%
X115730000Y-131280000D03*
X113190000Y-131280000D03*
X110650000Y-131280000D03*
X108110000Y-131280000D03*
X105570000Y-131280000D03*
X118270000Y-131280000D03*
X115730000Y-141440000D03*
X113190000Y-141440000D03*
X110650000Y-141440000D03*
X108110000Y-141440000D03*
X105570000Y-141440000D03*
%TD*%
D16*
%TO.C,P1*%
X175133000Y-139192000D03*
X175133000Y-136652000D03*
X175133000Y-134112000D03*
%TD*%
%TO.C,C12*%
G36*
G01*
X183012500Y-110400000D02*
X183012500Y-111350000D01*
G75*
G02*
X182762500Y-111600000I-250000J0D01*
G01*
X182087500Y-111600000D01*
G75*
G02*
X181837500Y-111350000I0J250000D01*
G01*
X181837500Y-110400000D01*
G75*
G02*
X182087500Y-110150000I250000J0D01*
G01*
X182762500Y-110150000D01*
G75*
G02*
X183012500Y-110400000I0J-250000D01*
G01*
G37*
G36*
G01*
X185087500Y-110400000D02*
X185087500Y-111350000D01*
G75*
G02*
X184837500Y-111600000I-250000J0D01*
G01*
X184162500Y-111600000D01*
G75*
G02*
X183912500Y-111350000I0J250000D01*
G01*
X183912500Y-110400000D01*
G75*
G02*
X184162500Y-110150000I250000J0D01*
G01*
X184837500Y-110150000D01*
G75*
G02*
X185087500Y-110400000I0J-250000D01*
G01*
G37*
%TD*%
%TO.C,R13*%
G36*
G01*
X183825000Y-113975001D02*
X183825000Y-113074999D01*
G75*
G02*
X184074999Y-112825000I249999J0D01*
G01*
X184775001Y-112825000D01*
G75*
G02*
X185025000Y-113074999I0J-249999D01*
G01*
X185025000Y-113975001D01*
G75*
G02*
X184775001Y-114225000I-249999J0D01*
G01*
X184074999Y-114225000D01*
G75*
G02*
X183825000Y-113975001I0J249999D01*
G01*
G37*
G36*
G01*
X181825000Y-113975001D02*
X181825000Y-113074999D01*
G75*
G02*
X182074999Y-112825000I249999J0D01*
G01*
X182775001Y-112825000D01*
G75*
G02*
X183025000Y-113074999I0J-249999D01*
G01*
X183025000Y-113975001D01*
G75*
G02*
X182775001Y-114225000I-249999J0D01*
G01*
X182074999Y-114225000D01*
G75*
G02*
X181825000Y-113975001I0J249999D01*
G01*
G37*
%TD*%
%TO.C,R14*%
G36*
G01*
X183050000Y-107499999D02*
X183050000Y-108400001D01*
G75*
G02*
X182800001Y-108650000I-249999J0D01*
G01*
X182099999Y-108650000D01*
G75*
G02*
X181850000Y-108400001I0J249999D01*
G01*
X181850000Y-107499999D01*
G75*
G02*
X182099999Y-107250000I249999J0D01*
G01*
X182800001Y-107250000D01*
G75*
G02*
X183050000Y-107499999I0J-249999D01*
G01*
G37*
G36*
G01*
X185050000Y-107499999D02*
X185050000Y-108400001D01*
G75*
G02*
X184800001Y-108650000I-249999J0D01*
G01*
X184099999Y-108650000D01*
G75*
G02*
X183850000Y-108400001I0J249999D01*
G01*
X183850000Y-107499999D01*
G75*
G02*
X184099999Y-107250000I249999J0D01*
G01*
X184800001Y-107250000D01*
G75*
G02*
X185050000Y-107499999I0J-249999D01*
G01*
G37*
%TD*%
%TO.C,R12*%
G36*
G01*
X178900000Y-113965001D02*
X178900000Y-113064999D01*
G75*
G02*
X179149999Y-112815000I249999J0D01*
G01*
X179850001Y-112815000D01*
G75*
G02*
X180100000Y-113064999I0J-249999D01*
G01*
X180100000Y-113965001D01*
G75*
G02*
X179850001Y-114215000I-249999J0D01*
G01*
X179149999Y-114215000D01*
G75*
G02*
X178900000Y-113965001I0J249999D01*
G01*
G37*
G36*
G01*
X176900000Y-113965001D02*
X176900000Y-113064999D01*
G75*
G02*
X177149999Y-112815000I249999J0D01*
G01*
X177850001Y-112815000D01*
G75*
G02*
X178100000Y-113064999I0J-249999D01*
G01*
X178100000Y-113965001D01*
G75*
G02*
X177850001Y-114215000I-249999J0D01*
G01*
X177149999Y-114215000D01*
G75*
G02*
X176900000Y-113965001I0J249999D01*
G01*
G37*
%TD*%
%TO.C,C4*%
G36*
G01*
X166675000Y-135612500D02*
X165725000Y-135612500D01*
G75*
G02*
X165475000Y-135362500I0J250000D01*
G01*
X165475000Y-134687500D01*
G75*
G02*
X165725000Y-134437500I250000J0D01*
G01*
X166675000Y-134437500D01*
G75*
G02*
X166925000Y-134687500I0J-250000D01*
G01*
X166925000Y-135362500D01*
G75*
G02*
X166675000Y-135612500I-250000J0D01*
G01*
G37*
G36*
G01*
X166675000Y-137687500D02*
X165725000Y-137687500D01*
G75*
G02*
X165475000Y-137437500I0J250000D01*
G01*
X165475000Y-136762500D01*
G75*
G02*
X165725000Y-136512500I250000J0D01*
G01*
X166675000Y-136512500D01*
G75*
G02*
X166925000Y-136762500I0J-250000D01*
G01*
X166925000Y-137437500D01*
G75*
G02*
X166675000Y-137687500I-250000J0D01*
G01*
G37*
%TD*%
%TO.C,C7*%
G36*
G01*
X177075000Y-124612500D02*
X176125000Y-124612500D01*
G75*
G02*
X175875000Y-124362500I0J250000D01*
G01*
X175875000Y-123687500D01*
G75*
G02*
X176125000Y-123437500I250000J0D01*
G01*
X177075000Y-123437500D01*
G75*
G02*
X177325000Y-123687500I0J-250000D01*
G01*
X177325000Y-124362500D01*
G75*
G02*
X177075000Y-124612500I-250000J0D01*
G01*
G37*
G36*
G01*
X177075000Y-126687500D02*
X176125000Y-126687500D01*
G75*
G02*
X175875000Y-126437500I0J250000D01*
G01*
X175875000Y-125762500D01*
G75*
G02*
X176125000Y-125512500I250000J0D01*
G01*
X177075000Y-125512500D01*
G75*
G02*
X177325000Y-125762500I0J-250000D01*
G01*
X177325000Y-126437500D01*
G75*
G02*
X177075000Y-126687500I-250000J0D01*
G01*
G37*
%TD*%
%TO.C,C8*%
G36*
G01*
X178960000Y-111360000D02*
X178960000Y-110410000D01*
G75*
G02*
X179210000Y-110160000I250000J0D01*
G01*
X179885000Y-110160000D01*
G75*
G02*
X180135000Y-110410000I0J-250000D01*
G01*
X180135000Y-111360000D01*
G75*
G02*
X179885000Y-111610000I-250000J0D01*
G01*
X179210000Y-111610000D01*
G75*
G02*
X178960000Y-111360000I0J250000D01*
G01*
G37*
G36*
G01*
X176885000Y-111360000D02*
X176885000Y-110410000D01*
G75*
G02*
X177135000Y-110160000I250000J0D01*
G01*
X177810000Y-110160000D01*
G75*
G02*
X178060000Y-110410000I0J-250000D01*
G01*
X178060000Y-111360000D01*
G75*
G02*
X177810000Y-111610000I-250000J0D01*
G01*
X177135000Y-111610000D01*
G75*
G02*
X176885000Y-111360000I0J250000D01*
G01*
G37*
%TD*%
%TO.C,C9*%
G36*
G01*
X154575000Y-145512500D02*
X153625000Y-145512500D01*
G75*
G02*
X153375000Y-145262500I0J250000D01*
G01*
X153375000Y-144587500D01*
G75*
G02*
X153625000Y-144337500I250000J0D01*
G01*
X154575000Y-144337500D01*
G75*
G02*
X154825000Y-144587500I0J-250000D01*
G01*
X154825000Y-145262500D01*
G75*
G02*
X154575000Y-145512500I-250000J0D01*
G01*
G37*
G36*
G01*
X154575000Y-147587500D02*
X153625000Y-147587500D01*
G75*
G02*
X153375000Y-147337500I0J250000D01*
G01*
X153375000Y-146662500D01*
G75*
G02*
X153625000Y-146412500I250000J0D01*
G01*
X154575000Y-146412500D01*
G75*
G02*
X154825000Y-146662500I0J-250000D01*
G01*
X154825000Y-147337500D01*
G75*
G02*
X154575000Y-147587500I-250000J0D01*
G01*
G37*
%TD*%
%TO.C,C10*%
G36*
G01*
X168975000Y-145487500D02*
X168025000Y-145487500D01*
G75*
G02*
X167775000Y-145237500I0J250000D01*
G01*
X167775000Y-144562500D01*
G75*
G02*
X168025000Y-144312500I250000J0D01*
G01*
X168975000Y-144312500D01*
G75*
G02*
X169225000Y-144562500I0J-250000D01*
G01*
X169225000Y-145237500D01*
G75*
G02*
X168975000Y-145487500I-250000J0D01*
G01*
G37*
G36*
G01*
X168975000Y-147562500D02*
X168025000Y-147562500D01*
G75*
G02*
X167775000Y-147312500I0J250000D01*
G01*
X167775000Y-146637500D01*
G75*
G02*
X168025000Y-146387500I250000J0D01*
G01*
X168975000Y-146387500D01*
G75*
G02*
X169225000Y-146637500I0J-250000D01*
G01*
X169225000Y-147312500D01*
G75*
G02*
X168975000Y-147562500I-250000J0D01*
G01*
G37*
%TD*%
%TO.C,C13*%
G36*
G01*
X178950000Y-108425000D02*
X178950000Y-107475000D01*
G75*
G02*
X179200000Y-107225000I250000J0D01*
G01*
X179875000Y-107225000D01*
G75*
G02*
X180125000Y-107475000I0J-250000D01*
G01*
X180125000Y-108425000D01*
G75*
G02*
X179875000Y-108675000I-250000J0D01*
G01*
X179200000Y-108675000D01*
G75*
G02*
X178950000Y-108425000I0J250000D01*
G01*
G37*
G36*
G01*
X176875000Y-108425000D02*
X176875000Y-107475000D01*
G75*
G02*
X177125000Y-107225000I250000J0D01*
G01*
X177800000Y-107225000D01*
G75*
G02*
X178050000Y-107475000I0J-250000D01*
G01*
X178050000Y-108425000D01*
G75*
G02*
X177800000Y-108675000I-250000J0D01*
G01*
X177125000Y-108675000D01*
G75*
G02*
X176875000Y-108425000I0J250000D01*
G01*
G37*
%TD*%
D17*
%TO.C,C14*%
X193500000Y-92000000D03*
D11*
X196000000Y-92000000D03*
%TD*%
D10*
%TO.C,NANO1*%
X195060000Y-67960000D03*
X195060000Y-83200000D03*
X159500000Y-67960000D03*
X192520000Y-83200000D03*
X162040000Y-67960000D03*
X189980000Y-83200000D03*
X164580000Y-67960000D03*
X187440000Y-83200000D03*
X167120000Y-67960000D03*
X184900000Y-83200000D03*
X169660000Y-67960000D03*
X182360000Y-83200000D03*
X172200000Y-67960000D03*
X179820000Y-83200000D03*
X174740000Y-67960000D03*
X177280000Y-83200000D03*
X177280000Y-67960000D03*
X174740000Y-83200000D03*
X179820000Y-67960000D03*
X172200000Y-83200000D03*
X182360000Y-67960000D03*
X169660000Y-83200000D03*
X184900000Y-67960000D03*
X167120000Y-83200000D03*
X187440000Y-67960000D03*
X164580000Y-83200000D03*
X189980000Y-67960000D03*
X162040000Y-83200000D03*
X192520000Y-67960000D03*
D11*
X159500000Y-83200000D03*
%TD*%
D16*
%TO.C,P2*%
X180820000Y-54000000D03*
X183360000Y-54000000D03*
X185900000Y-54000000D03*
%TD*%
D10*
%TO.C,PIC1*%
X132820000Y-126300000D03*
X125200000Y-146620000D03*
X132820000Y-128840000D03*
X125200000Y-144080000D03*
X132820000Y-131380000D03*
X125200000Y-141540000D03*
X132820000Y-133920000D03*
X125200000Y-139000000D03*
X132820000Y-136460000D03*
X125200000Y-136460000D03*
X132820000Y-139000000D03*
X125200000Y-133920000D03*
X132820000Y-141540000D03*
X125200000Y-131380000D03*
X132820000Y-144080000D03*
X125200000Y-128840000D03*
X132820000Y-146620000D03*
D11*
X125200000Y-126300000D03*
%TD*%
%TO.C,U4*%
G36*
G01*
X162545000Y-126850000D02*
X162845000Y-126850000D01*
G75*
G02*
X162995000Y-127000000I0J-150000D01*
G01*
X162995000Y-128400000D01*
G75*
G02*
X162845000Y-128550000I-150000J0D01*
G01*
X162545000Y-128550000D01*
G75*
G02*
X162395000Y-128400000I0J150000D01*
G01*
X162395000Y-127000000D01*
G75*
G02*
X162545000Y-126850000I150000J0D01*
G01*
G37*
G36*
G01*
X161275000Y-126850000D02*
X161575000Y-126850000D01*
G75*
G02*
X161725000Y-127000000I0J-150000D01*
G01*
X161725000Y-128400000D01*
G75*
G02*
X161575000Y-128550000I-150000J0D01*
G01*
X161275000Y-128550000D01*
G75*
G02*
X161125000Y-128400000I0J150000D01*
G01*
X161125000Y-127000000D01*
G75*
G02*
X161275000Y-126850000I150000J0D01*
G01*
G37*
G36*
G01*
X160005000Y-126850000D02*
X160305000Y-126850000D01*
G75*
G02*
X160455000Y-127000000I0J-150000D01*
G01*
X160455000Y-128400000D01*
G75*
G02*
X160305000Y-128550000I-150000J0D01*
G01*
X160005000Y-128550000D01*
G75*
G02*
X159855000Y-128400000I0J150000D01*
G01*
X159855000Y-127000000D01*
G75*
G02*
X160005000Y-126850000I150000J0D01*
G01*
G37*
G36*
G01*
X158735000Y-126850000D02*
X159035000Y-126850000D01*
G75*
G02*
X159185000Y-127000000I0J-150000D01*
G01*
X159185000Y-128400000D01*
G75*
G02*
X159035000Y-128550000I-150000J0D01*
G01*
X158735000Y-128550000D01*
G75*
G02*
X158585000Y-128400000I0J150000D01*
G01*
X158585000Y-127000000D01*
G75*
G02*
X158735000Y-126850000I150000J0D01*
G01*
G37*
G36*
G01*
X157465000Y-126850000D02*
X157765000Y-126850000D01*
G75*
G02*
X157915000Y-127000000I0J-150000D01*
G01*
X157915000Y-128400000D01*
G75*
G02*
X157765000Y-128550000I-150000J0D01*
G01*
X157465000Y-128550000D01*
G75*
G02*
X157315000Y-128400000I0J150000D01*
G01*
X157315000Y-127000000D01*
G75*
G02*
X157465000Y-126850000I150000J0D01*
G01*
G37*
G36*
G01*
X156195000Y-126850000D02*
X156495000Y-126850000D01*
G75*
G02*
X156645000Y-127000000I0J-150000D01*
G01*
X156645000Y-128400000D01*
G75*
G02*
X156495000Y-128550000I-150000J0D01*
G01*
X156195000Y-128550000D01*
G75*
G02*
X156045000Y-128400000I0J150000D01*
G01*
X156045000Y-127000000D01*
G75*
G02*
X156195000Y-126850000I150000J0D01*
G01*
G37*
G36*
G01*
X154925000Y-126850000D02*
X155225000Y-126850000D01*
G75*
G02*
X155375000Y-127000000I0J-150000D01*
G01*
X155375000Y-128400000D01*
G75*
G02*
X155225000Y-128550000I-150000J0D01*
G01*
X154925000Y-128550000D01*
G75*
G02*
X154775000Y-128400000I0J150000D01*
G01*
X154775000Y-127000000D01*
G75*
G02*
X154925000Y-126850000I150000J0D01*
G01*
G37*
G36*
G01*
X153655000Y-126850000D02*
X153955000Y-126850000D01*
G75*
G02*
X154105000Y-127000000I0J-150000D01*
G01*
X154105000Y-128400000D01*
G75*
G02*
X153955000Y-128550000I-150000J0D01*
G01*
X153655000Y-128550000D01*
G75*
G02*
X153505000Y-128400000I0J150000D01*
G01*
X153505000Y-127000000D01*
G75*
G02*
X153655000Y-126850000I150000J0D01*
G01*
G37*
G36*
G01*
X152385000Y-126850000D02*
X152685000Y-126850000D01*
G75*
G02*
X152835000Y-127000000I0J-150000D01*
G01*
X152835000Y-128400000D01*
G75*
G02*
X152685000Y-128550000I-150000J0D01*
G01*
X152385000Y-128550000D01*
G75*
G02*
X152235000Y-128400000I0J150000D01*
G01*
X152235000Y-127000000D01*
G75*
G02*
X152385000Y-126850000I150000J0D01*
G01*
G37*
G36*
G01*
X151115000Y-126850000D02*
X151415000Y-126850000D01*
G75*
G02*
X151565000Y-127000000I0J-150000D01*
G01*
X151565000Y-128400000D01*
G75*
G02*
X151415000Y-128550000I-150000J0D01*
G01*
X151115000Y-128550000D01*
G75*
G02*
X150965000Y-128400000I0J150000D01*
G01*
X150965000Y-127000000D01*
G75*
G02*
X151115000Y-126850000I150000J0D01*
G01*
G37*
G36*
G01*
X149845000Y-126850000D02*
X150145000Y-126850000D01*
G75*
G02*
X150295000Y-127000000I0J-150000D01*
G01*
X150295000Y-128400000D01*
G75*
G02*
X150145000Y-128550000I-150000J0D01*
G01*
X149845000Y-128550000D01*
G75*
G02*
X149695000Y-128400000I0J150000D01*
G01*
X149695000Y-127000000D01*
G75*
G02*
X149845000Y-126850000I150000J0D01*
G01*
G37*
G36*
G01*
X148575000Y-126850000D02*
X148875000Y-126850000D01*
G75*
G02*
X149025000Y-127000000I0J-150000D01*
G01*
X149025000Y-128400000D01*
G75*
G02*
X148875000Y-128550000I-150000J0D01*
G01*
X148575000Y-128550000D01*
G75*
G02*
X148425000Y-128400000I0J150000D01*
G01*
X148425000Y-127000000D01*
G75*
G02*
X148575000Y-126850000I150000J0D01*
G01*
G37*
G36*
G01*
X147305000Y-126850000D02*
X147605000Y-126850000D01*
G75*
G02*
X147755000Y-127000000I0J-150000D01*
G01*
X147755000Y-128400000D01*
G75*
G02*
X147605000Y-128550000I-150000J0D01*
G01*
X147305000Y-128550000D01*
G75*
G02*
X147155000Y-128400000I0J150000D01*
G01*
X147155000Y-127000000D01*
G75*
G02*
X147305000Y-126850000I150000J0D01*
G01*
G37*
G36*
G01*
X146035000Y-126850000D02*
X146335000Y-126850000D01*
G75*
G02*
X146485000Y-127000000I0J-150000D01*
G01*
X146485000Y-128400000D01*
G75*
G02*
X146335000Y-128550000I-150000J0D01*
G01*
X146035000Y-128550000D01*
G75*
G02*
X145885000Y-128400000I0J150000D01*
G01*
X145885000Y-127000000D01*
G75*
G02*
X146035000Y-126850000I150000J0D01*
G01*
G37*
G36*
G01*
X144765000Y-126850000D02*
X145065000Y-126850000D01*
G75*
G02*
X145215000Y-127000000I0J-150000D01*
G01*
X145215000Y-128400000D01*
G75*
G02*
X145065000Y-128550000I-150000J0D01*
G01*
X144765000Y-128550000D01*
G75*
G02*
X144615000Y-128400000I0J150000D01*
G01*
X144615000Y-127000000D01*
G75*
G02*
X144765000Y-126850000I150000J0D01*
G01*
G37*
G36*
G01*
X143495000Y-126850000D02*
X143795000Y-126850000D01*
G75*
G02*
X143945000Y-127000000I0J-150000D01*
G01*
X143945000Y-128400000D01*
G75*
G02*
X143795000Y-128550000I-150000J0D01*
G01*
X143495000Y-128550000D01*
G75*
G02*
X143345000Y-128400000I0J150000D01*
G01*
X143345000Y-127000000D01*
G75*
G02*
X143495000Y-126850000I150000J0D01*
G01*
G37*
G36*
G01*
X143495000Y-136250000D02*
X143795000Y-136250000D01*
G75*
G02*
X143945000Y-136400000I0J-150000D01*
G01*
X143945000Y-137800000D01*
G75*
G02*
X143795000Y-137950000I-150000J0D01*
G01*
X143495000Y-137950000D01*
G75*
G02*
X143345000Y-137800000I0J150000D01*
G01*
X143345000Y-136400000D01*
G75*
G02*
X143495000Y-136250000I150000J0D01*
G01*
G37*
G36*
G01*
X144765000Y-136250000D02*
X145065000Y-136250000D01*
G75*
G02*
X145215000Y-136400000I0J-150000D01*
G01*
X145215000Y-137800000D01*
G75*
G02*
X145065000Y-137950000I-150000J0D01*
G01*
X144765000Y-137950000D01*
G75*
G02*
X144615000Y-137800000I0J150000D01*
G01*
X144615000Y-136400000D01*
G75*
G02*
X144765000Y-136250000I150000J0D01*
G01*
G37*
G36*
G01*
X146035000Y-136250000D02*
X146335000Y-136250000D01*
G75*
G02*
X146485000Y-136400000I0J-150000D01*
G01*
X146485000Y-137800000D01*
G75*
G02*
X146335000Y-137950000I-150000J0D01*
G01*
X146035000Y-137950000D01*
G75*
G02*
X145885000Y-137800000I0J150000D01*
G01*
X145885000Y-136400000D01*
G75*
G02*
X146035000Y-136250000I150000J0D01*
G01*
G37*
G36*
G01*
X147305000Y-136250000D02*
X147605000Y-136250000D01*
G75*
G02*
X147755000Y-136400000I0J-150000D01*
G01*
X147755000Y-137800000D01*
G75*
G02*
X147605000Y-137950000I-150000J0D01*
G01*
X147305000Y-137950000D01*
G75*
G02*
X147155000Y-137800000I0J150000D01*
G01*
X147155000Y-136400000D01*
G75*
G02*
X147305000Y-136250000I150000J0D01*
G01*
G37*
G36*
G01*
X148575000Y-136250000D02*
X148875000Y-136250000D01*
G75*
G02*
X149025000Y-136400000I0J-150000D01*
G01*
X149025000Y-137800000D01*
G75*
G02*
X148875000Y-137950000I-150000J0D01*
G01*
X148575000Y-137950000D01*
G75*
G02*
X148425000Y-137800000I0J150000D01*
G01*
X148425000Y-136400000D01*
G75*
G02*
X148575000Y-136250000I150000J0D01*
G01*
G37*
G36*
G01*
X149845000Y-136250000D02*
X150145000Y-136250000D01*
G75*
G02*
X150295000Y-136400000I0J-150000D01*
G01*
X150295000Y-137800000D01*
G75*
G02*
X150145000Y-137950000I-150000J0D01*
G01*
X149845000Y-137950000D01*
G75*
G02*
X149695000Y-137800000I0J150000D01*
G01*
X149695000Y-136400000D01*
G75*
G02*
X149845000Y-136250000I150000J0D01*
G01*
G37*
G36*
G01*
X151115000Y-136250000D02*
X151415000Y-136250000D01*
G75*
G02*
X151565000Y-136400000I0J-150000D01*
G01*
X151565000Y-137800000D01*
G75*
G02*
X151415000Y-137950000I-150000J0D01*
G01*
X151115000Y-137950000D01*
G75*
G02*
X150965000Y-137800000I0J150000D01*
G01*
X150965000Y-136400000D01*
G75*
G02*
X151115000Y-136250000I150000J0D01*
G01*
G37*
G36*
G01*
X152385000Y-136250000D02*
X152685000Y-136250000D01*
G75*
G02*
X152835000Y-136400000I0J-150000D01*
G01*
X152835000Y-137800000D01*
G75*
G02*
X152685000Y-137950000I-150000J0D01*
G01*
X152385000Y-137950000D01*
G75*
G02*
X152235000Y-137800000I0J150000D01*
G01*
X152235000Y-136400000D01*
G75*
G02*
X152385000Y-136250000I150000J0D01*
G01*
G37*
G36*
G01*
X153655000Y-136250000D02*
X153955000Y-136250000D01*
G75*
G02*
X154105000Y-136400000I0J-150000D01*
G01*
X154105000Y-137800000D01*
G75*
G02*
X153955000Y-137950000I-150000J0D01*
G01*
X153655000Y-137950000D01*
G75*
G02*
X153505000Y-137800000I0J150000D01*
G01*
X153505000Y-136400000D01*
G75*
G02*
X153655000Y-136250000I150000J0D01*
G01*
G37*
G36*
G01*
X154925000Y-136250000D02*
X155225000Y-136250000D01*
G75*
G02*
X155375000Y-136400000I0J-150000D01*
G01*
X155375000Y-137800000D01*
G75*
G02*
X155225000Y-137950000I-150000J0D01*
G01*
X154925000Y-137950000D01*
G75*
G02*
X154775000Y-137800000I0J150000D01*
G01*
X154775000Y-136400000D01*
G75*
G02*
X154925000Y-136250000I150000J0D01*
G01*
G37*
G36*
G01*
X156195000Y-136250000D02*
X156495000Y-136250000D01*
G75*
G02*
X156645000Y-136400000I0J-150000D01*
G01*
X156645000Y-137800000D01*
G75*
G02*
X156495000Y-137950000I-150000J0D01*
G01*
X156195000Y-137950000D01*
G75*
G02*
X156045000Y-137800000I0J150000D01*
G01*
X156045000Y-136400000D01*
G75*
G02*
X156195000Y-136250000I150000J0D01*
G01*
G37*
G36*
G01*
X157465000Y-136250000D02*
X157765000Y-136250000D01*
G75*
G02*
X157915000Y-136400000I0J-150000D01*
G01*
X157915000Y-137800000D01*
G75*
G02*
X157765000Y-137950000I-150000J0D01*
G01*
X157465000Y-137950000D01*
G75*
G02*
X157315000Y-137800000I0J150000D01*
G01*
X157315000Y-136400000D01*
G75*
G02*
X157465000Y-136250000I150000J0D01*
G01*
G37*
G36*
G01*
X158735000Y-136250000D02*
X159035000Y-136250000D01*
G75*
G02*
X159185000Y-136400000I0J-150000D01*
G01*
X159185000Y-137800000D01*
G75*
G02*
X159035000Y-137950000I-150000J0D01*
G01*
X158735000Y-137950000D01*
G75*
G02*
X158585000Y-137800000I0J150000D01*
G01*
X158585000Y-136400000D01*
G75*
G02*
X158735000Y-136250000I150000J0D01*
G01*
G37*
G36*
G01*
X160005000Y-136250000D02*
X160305000Y-136250000D01*
G75*
G02*
X160455000Y-136400000I0J-150000D01*
G01*
X160455000Y-137800000D01*
G75*
G02*
X160305000Y-137950000I-150000J0D01*
G01*
X160005000Y-137950000D01*
G75*
G02*
X159855000Y-137800000I0J150000D01*
G01*
X159855000Y-136400000D01*
G75*
G02*
X160005000Y-136250000I150000J0D01*
G01*
G37*
G36*
G01*
X161275000Y-136250000D02*
X161575000Y-136250000D01*
G75*
G02*
X161725000Y-136400000I0J-150000D01*
G01*
X161725000Y-137800000D01*
G75*
G02*
X161575000Y-137950000I-150000J0D01*
G01*
X161275000Y-137950000D01*
G75*
G02*
X161125000Y-137800000I0J150000D01*
G01*
X161125000Y-136400000D01*
G75*
G02*
X161275000Y-136250000I150000J0D01*
G01*
G37*
G36*
G01*
X162545000Y-136250000D02*
X162845000Y-136250000D01*
G75*
G02*
X162995000Y-136400000I0J-150000D01*
G01*
X162995000Y-137800000D01*
G75*
G02*
X162845000Y-137950000I-150000J0D01*
G01*
X162545000Y-137950000D01*
G75*
G02*
X162395000Y-137800000I0J150000D01*
G01*
X162395000Y-136400000D01*
G75*
G02*
X162545000Y-136250000I150000J0D01*
G01*
G37*
%TD*%
%TO.C,U5*%
G36*
G01*
X165105000Y-95100000D02*
X164805000Y-95100000D01*
G75*
G02*
X164655000Y-94950000I0J150000D01*
G01*
X164655000Y-93300000D01*
G75*
G02*
X164805000Y-93150000I150000J0D01*
G01*
X165105000Y-93150000D01*
G75*
G02*
X165255000Y-93300000I0J-150000D01*
G01*
X165255000Y-94950000D01*
G75*
G02*
X165105000Y-95100000I-150000J0D01*
G01*
G37*
G36*
G01*
X166375000Y-95100000D02*
X166075000Y-95100000D01*
G75*
G02*
X165925000Y-94950000I0J150000D01*
G01*
X165925000Y-93300000D01*
G75*
G02*
X166075000Y-93150000I150000J0D01*
G01*
X166375000Y-93150000D01*
G75*
G02*
X166525000Y-93300000I0J-150000D01*
G01*
X166525000Y-94950000D01*
G75*
G02*
X166375000Y-95100000I-150000J0D01*
G01*
G37*
G36*
G01*
X167645000Y-95100000D02*
X167345000Y-95100000D01*
G75*
G02*
X167195000Y-94950000I0J150000D01*
G01*
X167195000Y-93300000D01*
G75*
G02*
X167345000Y-93150000I150000J0D01*
G01*
X167645000Y-93150000D01*
G75*
G02*
X167795000Y-93300000I0J-150000D01*
G01*
X167795000Y-94950000D01*
G75*
G02*
X167645000Y-95100000I-150000J0D01*
G01*
G37*
G36*
G01*
X168915000Y-95100000D02*
X168615000Y-95100000D01*
G75*
G02*
X168465000Y-94950000I0J150000D01*
G01*
X168465000Y-93300000D01*
G75*
G02*
X168615000Y-93150000I150000J0D01*
G01*
X168915000Y-93150000D01*
G75*
G02*
X169065000Y-93300000I0J-150000D01*
G01*
X169065000Y-94950000D01*
G75*
G02*
X168915000Y-95100000I-150000J0D01*
G01*
G37*
G36*
G01*
X170185000Y-95100000D02*
X169885000Y-95100000D01*
G75*
G02*
X169735000Y-94950000I0J150000D01*
G01*
X169735000Y-93300000D01*
G75*
G02*
X169885000Y-93150000I150000J0D01*
G01*
X170185000Y-93150000D01*
G75*
G02*
X170335000Y-93300000I0J-150000D01*
G01*
X170335000Y-94950000D01*
G75*
G02*
X170185000Y-95100000I-150000J0D01*
G01*
G37*
G36*
G01*
X171455000Y-95100000D02*
X171155000Y-95100000D01*
G75*
G02*
X171005000Y-94950000I0J150000D01*
G01*
X171005000Y-93300000D01*
G75*
G02*
X171155000Y-93150000I150000J0D01*
G01*
X171455000Y-93150000D01*
G75*
G02*
X171605000Y-93300000I0J-150000D01*
G01*
X171605000Y-94950000D01*
G75*
G02*
X171455000Y-95100000I-150000J0D01*
G01*
G37*
G36*
G01*
X172725000Y-95100000D02*
X172425000Y-95100000D01*
G75*
G02*
X172275000Y-94950000I0J150000D01*
G01*
X172275000Y-93300000D01*
G75*
G02*
X172425000Y-93150000I150000J0D01*
G01*
X172725000Y-93150000D01*
G75*
G02*
X172875000Y-93300000I0J-150000D01*
G01*
X172875000Y-94950000D01*
G75*
G02*
X172725000Y-95100000I-150000J0D01*
G01*
G37*
G36*
G01*
X173995000Y-95100000D02*
X173695000Y-95100000D01*
G75*
G02*
X173545000Y-94950000I0J150000D01*
G01*
X173545000Y-93300000D01*
G75*
G02*
X173695000Y-93150000I150000J0D01*
G01*
X173995000Y-93150000D01*
G75*
G02*
X174145000Y-93300000I0J-150000D01*
G01*
X174145000Y-94950000D01*
G75*
G02*
X173995000Y-95100000I-150000J0D01*
G01*
G37*
G36*
G01*
X173995000Y-100050000D02*
X173695000Y-100050000D01*
G75*
G02*
X173545000Y-99900000I0J150000D01*
G01*
X173545000Y-98250000D01*
G75*
G02*
X173695000Y-98100000I150000J0D01*
G01*
X173995000Y-98100000D01*
G75*
G02*
X174145000Y-98250000I0J-150000D01*
G01*
X174145000Y-99900000D01*
G75*
G02*
X173995000Y-100050000I-150000J0D01*
G01*
G37*
G36*
G01*
X172725000Y-100050000D02*
X172425000Y-100050000D01*
G75*
G02*
X172275000Y-99900000I0J150000D01*
G01*
X172275000Y-98250000D01*
G75*
G02*
X172425000Y-98100000I150000J0D01*
G01*
X172725000Y-98100000D01*
G75*
G02*
X172875000Y-98250000I0J-150000D01*
G01*
X172875000Y-99900000D01*
G75*
G02*
X172725000Y-100050000I-150000J0D01*
G01*
G37*
G36*
G01*
X171455000Y-100050000D02*
X171155000Y-100050000D01*
G75*
G02*
X171005000Y-99900000I0J150000D01*
G01*
X171005000Y-98250000D01*
G75*
G02*
X171155000Y-98100000I150000J0D01*
G01*
X171455000Y-98100000D01*
G75*
G02*
X171605000Y-98250000I0J-150000D01*
G01*
X171605000Y-99900000D01*
G75*
G02*
X171455000Y-100050000I-150000J0D01*
G01*
G37*
G36*
G01*
X170185000Y-100050000D02*
X169885000Y-100050000D01*
G75*
G02*
X169735000Y-99900000I0J150000D01*
G01*
X169735000Y-98250000D01*
G75*
G02*
X169885000Y-98100000I150000J0D01*
G01*
X170185000Y-98100000D01*
G75*
G02*
X170335000Y-98250000I0J-150000D01*
G01*
X170335000Y-99900000D01*
G75*
G02*
X170185000Y-100050000I-150000J0D01*
G01*
G37*
G36*
G01*
X168915000Y-100050000D02*
X168615000Y-100050000D01*
G75*
G02*
X168465000Y-99900000I0J150000D01*
G01*
X168465000Y-98250000D01*
G75*
G02*
X168615000Y-98100000I150000J0D01*
G01*
X168915000Y-98100000D01*
G75*
G02*
X169065000Y-98250000I0J-150000D01*
G01*
X169065000Y-99900000D01*
G75*
G02*
X168915000Y-100050000I-150000J0D01*
G01*
G37*
G36*
G01*
X167645000Y-100050000D02*
X167345000Y-100050000D01*
G75*
G02*
X167195000Y-99900000I0J150000D01*
G01*
X167195000Y-98250000D01*
G75*
G02*
X167345000Y-98100000I150000J0D01*
G01*
X167645000Y-98100000D01*
G75*
G02*
X167795000Y-98250000I0J-150000D01*
G01*
X167795000Y-99900000D01*
G75*
G02*
X167645000Y-100050000I-150000J0D01*
G01*
G37*
G36*
G01*
X166375000Y-100050000D02*
X166075000Y-100050000D01*
G75*
G02*
X165925000Y-99900000I0J150000D01*
G01*
X165925000Y-98250000D01*
G75*
G02*
X166075000Y-98100000I150000J0D01*
G01*
X166375000Y-98100000D01*
G75*
G02*
X166525000Y-98250000I0J-150000D01*
G01*
X166525000Y-99900000D01*
G75*
G02*
X166375000Y-100050000I-150000J0D01*
G01*
G37*
G36*
G01*
X165105000Y-100050000D02*
X164805000Y-100050000D01*
G75*
G02*
X164655000Y-99900000I0J150000D01*
G01*
X164655000Y-98250000D01*
G75*
G02*
X164805000Y-98100000I150000J0D01*
G01*
X165105000Y-98100000D01*
G75*
G02*
X165255000Y-98250000I0J-150000D01*
G01*
X165255000Y-99900000D01*
G75*
G02*
X165105000Y-100050000I-150000J0D01*
G01*
G37*
%TD*%
%TO.C,U6*%
G36*
G01*
X178005000Y-95000000D02*
X177705000Y-95000000D01*
G75*
G02*
X177555000Y-94850000I0J150000D01*
G01*
X177555000Y-93200000D01*
G75*
G02*
X177705000Y-93050000I150000J0D01*
G01*
X178005000Y-93050000D01*
G75*
G02*
X178155000Y-93200000I0J-150000D01*
G01*
X178155000Y-94850000D01*
G75*
G02*
X178005000Y-95000000I-150000J0D01*
G01*
G37*
G36*
G01*
X179275000Y-95000000D02*
X178975000Y-95000000D01*
G75*
G02*
X178825000Y-94850000I0J150000D01*
G01*
X178825000Y-93200000D01*
G75*
G02*
X178975000Y-93050000I150000J0D01*
G01*
X179275000Y-93050000D01*
G75*
G02*
X179425000Y-93200000I0J-150000D01*
G01*
X179425000Y-94850000D01*
G75*
G02*
X179275000Y-95000000I-150000J0D01*
G01*
G37*
G36*
G01*
X180545000Y-95000000D02*
X180245000Y-95000000D01*
G75*
G02*
X180095000Y-94850000I0J150000D01*
G01*
X180095000Y-93200000D01*
G75*
G02*
X180245000Y-93050000I150000J0D01*
G01*
X180545000Y-93050000D01*
G75*
G02*
X180695000Y-93200000I0J-150000D01*
G01*
X180695000Y-94850000D01*
G75*
G02*
X180545000Y-95000000I-150000J0D01*
G01*
G37*
G36*
G01*
X181815000Y-95000000D02*
X181515000Y-95000000D01*
G75*
G02*
X181365000Y-94850000I0J150000D01*
G01*
X181365000Y-93200000D01*
G75*
G02*
X181515000Y-93050000I150000J0D01*
G01*
X181815000Y-93050000D01*
G75*
G02*
X181965000Y-93200000I0J-150000D01*
G01*
X181965000Y-94850000D01*
G75*
G02*
X181815000Y-95000000I-150000J0D01*
G01*
G37*
G36*
G01*
X183085000Y-95000000D02*
X182785000Y-95000000D01*
G75*
G02*
X182635000Y-94850000I0J150000D01*
G01*
X182635000Y-93200000D01*
G75*
G02*
X182785000Y-93050000I150000J0D01*
G01*
X183085000Y-93050000D01*
G75*
G02*
X183235000Y-93200000I0J-150000D01*
G01*
X183235000Y-94850000D01*
G75*
G02*
X183085000Y-95000000I-150000J0D01*
G01*
G37*
G36*
G01*
X184355000Y-95000000D02*
X184055000Y-95000000D01*
G75*
G02*
X183905000Y-94850000I0J150000D01*
G01*
X183905000Y-93200000D01*
G75*
G02*
X184055000Y-93050000I150000J0D01*
G01*
X184355000Y-93050000D01*
G75*
G02*
X184505000Y-93200000I0J-150000D01*
G01*
X184505000Y-94850000D01*
G75*
G02*
X184355000Y-95000000I-150000J0D01*
G01*
G37*
G36*
G01*
X185625000Y-95000000D02*
X185325000Y-95000000D01*
G75*
G02*
X185175000Y-94850000I0J150000D01*
G01*
X185175000Y-93200000D01*
G75*
G02*
X185325000Y-93050000I150000J0D01*
G01*
X185625000Y-93050000D01*
G75*
G02*
X185775000Y-93200000I0J-150000D01*
G01*
X185775000Y-94850000D01*
G75*
G02*
X185625000Y-95000000I-150000J0D01*
G01*
G37*
G36*
G01*
X186895000Y-95000000D02*
X186595000Y-95000000D01*
G75*
G02*
X186445000Y-94850000I0J150000D01*
G01*
X186445000Y-93200000D01*
G75*
G02*
X186595000Y-93050000I150000J0D01*
G01*
X186895000Y-93050000D01*
G75*
G02*
X187045000Y-93200000I0J-150000D01*
G01*
X187045000Y-94850000D01*
G75*
G02*
X186895000Y-95000000I-150000J0D01*
G01*
G37*
G36*
G01*
X186895000Y-99950000D02*
X186595000Y-99950000D01*
G75*
G02*
X186445000Y-99800000I0J150000D01*
G01*
X186445000Y-98150000D01*
G75*
G02*
X186595000Y-98000000I150000J0D01*
G01*
X186895000Y-98000000D01*
G75*
G02*
X187045000Y-98150000I0J-150000D01*
G01*
X187045000Y-99800000D01*
G75*
G02*
X186895000Y-99950000I-150000J0D01*
G01*
G37*
G36*
G01*
X185625000Y-99950000D02*
X185325000Y-99950000D01*
G75*
G02*
X185175000Y-99800000I0J150000D01*
G01*
X185175000Y-98150000D01*
G75*
G02*
X185325000Y-98000000I150000J0D01*
G01*
X185625000Y-98000000D01*
G75*
G02*
X185775000Y-98150000I0J-150000D01*
G01*
X185775000Y-99800000D01*
G75*
G02*
X185625000Y-99950000I-150000J0D01*
G01*
G37*
G36*
G01*
X184355000Y-99950000D02*
X184055000Y-99950000D01*
G75*
G02*
X183905000Y-99800000I0J150000D01*
G01*
X183905000Y-98150000D01*
G75*
G02*
X184055000Y-98000000I150000J0D01*
G01*
X184355000Y-98000000D01*
G75*
G02*
X184505000Y-98150000I0J-150000D01*
G01*
X184505000Y-99800000D01*
G75*
G02*
X184355000Y-99950000I-150000J0D01*
G01*
G37*
G36*
G01*
X183085000Y-99950000D02*
X182785000Y-99950000D01*
G75*
G02*
X182635000Y-99800000I0J150000D01*
G01*
X182635000Y-98150000D01*
G75*
G02*
X182785000Y-98000000I150000J0D01*
G01*
X183085000Y-98000000D01*
G75*
G02*
X183235000Y-98150000I0J-150000D01*
G01*
X183235000Y-99800000D01*
G75*
G02*
X183085000Y-99950000I-150000J0D01*
G01*
G37*
G36*
G01*
X181815000Y-99950000D02*
X181515000Y-99950000D01*
G75*
G02*
X181365000Y-99800000I0J150000D01*
G01*
X181365000Y-98150000D01*
G75*
G02*
X181515000Y-98000000I150000J0D01*
G01*
X181815000Y-98000000D01*
G75*
G02*
X181965000Y-98150000I0J-150000D01*
G01*
X181965000Y-99800000D01*
G75*
G02*
X181815000Y-99950000I-150000J0D01*
G01*
G37*
G36*
G01*
X180545000Y-99950000D02*
X180245000Y-99950000D01*
G75*
G02*
X180095000Y-99800000I0J150000D01*
G01*
X180095000Y-98150000D01*
G75*
G02*
X180245000Y-98000000I150000J0D01*
G01*
X180545000Y-98000000D01*
G75*
G02*
X180695000Y-98150000I0J-150000D01*
G01*
X180695000Y-99800000D01*
G75*
G02*
X180545000Y-99950000I-150000J0D01*
G01*
G37*
G36*
G01*
X179275000Y-99950000D02*
X178975000Y-99950000D01*
G75*
G02*
X178825000Y-99800000I0J150000D01*
G01*
X178825000Y-98150000D01*
G75*
G02*
X178975000Y-98000000I150000J0D01*
G01*
X179275000Y-98000000D01*
G75*
G02*
X179425000Y-98150000I0J-150000D01*
G01*
X179425000Y-99800000D01*
G75*
G02*
X179275000Y-99950000I-150000J0D01*
G01*
G37*
G36*
G01*
X178005000Y-99950000D02*
X177705000Y-99950000D01*
G75*
G02*
X177555000Y-99800000I0J150000D01*
G01*
X177555000Y-98150000D01*
G75*
G02*
X177705000Y-98000000I150000J0D01*
G01*
X178005000Y-98000000D01*
G75*
G02*
X178155000Y-98150000I0J-150000D01*
G01*
X178155000Y-99800000D01*
G75*
G02*
X178005000Y-99950000I-150000J0D01*
G01*
G37*
%TD*%
%TO.C,U7*%
G36*
G01*
X173800000Y-125120000D02*
X174100000Y-125120000D01*
G75*
G02*
X174250000Y-125270000I0J-150000D01*
G01*
X174250000Y-126920000D01*
G75*
G02*
X174100000Y-127070000I-150000J0D01*
G01*
X173800000Y-127070000D01*
G75*
G02*
X173650000Y-126920000I0J150000D01*
G01*
X173650000Y-125270000D01*
G75*
G02*
X173800000Y-125120000I150000J0D01*
G01*
G37*
G36*
G01*
X172530000Y-125120000D02*
X172830000Y-125120000D01*
G75*
G02*
X172980000Y-125270000I0J-150000D01*
G01*
X172980000Y-126920000D01*
G75*
G02*
X172830000Y-127070000I-150000J0D01*
G01*
X172530000Y-127070000D01*
G75*
G02*
X172380000Y-126920000I0J150000D01*
G01*
X172380000Y-125270000D01*
G75*
G02*
X172530000Y-125120000I150000J0D01*
G01*
G37*
G36*
G01*
X171260000Y-125120000D02*
X171560000Y-125120000D01*
G75*
G02*
X171710000Y-125270000I0J-150000D01*
G01*
X171710000Y-126920000D01*
G75*
G02*
X171560000Y-127070000I-150000J0D01*
G01*
X171260000Y-127070000D01*
G75*
G02*
X171110000Y-126920000I0J150000D01*
G01*
X171110000Y-125270000D01*
G75*
G02*
X171260000Y-125120000I150000J0D01*
G01*
G37*
G36*
G01*
X169990000Y-125120000D02*
X170290000Y-125120000D01*
G75*
G02*
X170440000Y-125270000I0J-150000D01*
G01*
X170440000Y-126920000D01*
G75*
G02*
X170290000Y-127070000I-150000J0D01*
G01*
X169990000Y-127070000D01*
G75*
G02*
X169840000Y-126920000I0J150000D01*
G01*
X169840000Y-125270000D01*
G75*
G02*
X169990000Y-125120000I150000J0D01*
G01*
G37*
G36*
G01*
X168720000Y-125120000D02*
X169020000Y-125120000D01*
G75*
G02*
X169170000Y-125270000I0J-150000D01*
G01*
X169170000Y-126920000D01*
G75*
G02*
X169020000Y-127070000I-150000J0D01*
G01*
X168720000Y-127070000D01*
G75*
G02*
X168570000Y-126920000I0J150000D01*
G01*
X168570000Y-125270000D01*
G75*
G02*
X168720000Y-125120000I150000J0D01*
G01*
G37*
G36*
G01*
X167450000Y-125120000D02*
X167750000Y-125120000D01*
G75*
G02*
X167900000Y-125270000I0J-150000D01*
G01*
X167900000Y-126920000D01*
G75*
G02*
X167750000Y-127070000I-150000J0D01*
G01*
X167450000Y-127070000D01*
G75*
G02*
X167300000Y-126920000I0J150000D01*
G01*
X167300000Y-125270000D01*
G75*
G02*
X167450000Y-125120000I150000J0D01*
G01*
G37*
G36*
G01*
X166180000Y-125120000D02*
X166480000Y-125120000D01*
G75*
G02*
X166630000Y-125270000I0J-150000D01*
G01*
X166630000Y-126920000D01*
G75*
G02*
X166480000Y-127070000I-150000J0D01*
G01*
X166180000Y-127070000D01*
G75*
G02*
X166030000Y-126920000I0J150000D01*
G01*
X166030000Y-125270000D01*
G75*
G02*
X166180000Y-125120000I150000J0D01*
G01*
G37*
G36*
G01*
X166180000Y-120170000D02*
X166480000Y-120170000D01*
G75*
G02*
X166630000Y-120320000I0J-150000D01*
G01*
X166630000Y-121970000D01*
G75*
G02*
X166480000Y-122120000I-150000J0D01*
G01*
X166180000Y-122120000D01*
G75*
G02*
X166030000Y-121970000I0J150000D01*
G01*
X166030000Y-120320000D01*
G75*
G02*
X166180000Y-120170000I150000J0D01*
G01*
G37*
G36*
G01*
X167450000Y-120170000D02*
X167750000Y-120170000D01*
G75*
G02*
X167900000Y-120320000I0J-150000D01*
G01*
X167900000Y-121970000D01*
G75*
G02*
X167750000Y-122120000I-150000J0D01*
G01*
X167450000Y-122120000D01*
G75*
G02*
X167300000Y-121970000I0J150000D01*
G01*
X167300000Y-120320000D01*
G75*
G02*
X167450000Y-120170000I150000J0D01*
G01*
G37*
G36*
G01*
X168720000Y-120170000D02*
X169020000Y-120170000D01*
G75*
G02*
X169170000Y-120320000I0J-150000D01*
G01*
X169170000Y-121970000D01*
G75*
G02*
X169020000Y-122120000I-150000J0D01*
G01*
X168720000Y-122120000D01*
G75*
G02*
X168570000Y-121970000I0J150000D01*
G01*
X168570000Y-120320000D01*
G75*
G02*
X168720000Y-120170000I150000J0D01*
G01*
G37*
G36*
G01*
X169990000Y-120170000D02*
X170290000Y-120170000D01*
G75*
G02*
X170440000Y-120320000I0J-150000D01*
G01*
X170440000Y-121970000D01*
G75*
G02*
X170290000Y-122120000I-150000J0D01*
G01*
X169990000Y-122120000D01*
G75*
G02*
X169840000Y-121970000I0J150000D01*
G01*
X169840000Y-120320000D01*
G75*
G02*
X169990000Y-120170000I150000J0D01*
G01*
G37*
G36*
G01*
X171260000Y-120170000D02*
X171560000Y-120170000D01*
G75*
G02*
X171710000Y-120320000I0J-150000D01*
G01*
X171710000Y-121970000D01*
G75*
G02*
X171560000Y-122120000I-150000J0D01*
G01*
X171260000Y-122120000D01*
G75*
G02*
X171110000Y-121970000I0J150000D01*
G01*
X171110000Y-120320000D01*
G75*
G02*
X171260000Y-120170000I150000J0D01*
G01*
G37*
G36*
G01*
X172530000Y-120170000D02*
X172830000Y-120170000D01*
G75*
G02*
X172980000Y-120320000I0J-150000D01*
G01*
X172980000Y-121970000D01*
G75*
G02*
X172830000Y-122120000I-150000J0D01*
G01*
X172530000Y-122120000D01*
G75*
G02*
X172380000Y-121970000I0J150000D01*
G01*
X172380000Y-120320000D01*
G75*
G02*
X172530000Y-120170000I150000J0D01*
G01*
G37*
G36*
G01*
X173800000Y-120170000D02*
X174100000Y-120170000D01*
G75*
G02*
X174250000Y-120320000I0J-150000D01*
G01*
X174250000Y-121970000D01*
G75*
G02*
X174100000Y-122120000I-150000J0D01*
G01*
X173800000Y-122120000D01*
G75*
G02*
X173650000Y-121970000I0J150000D01*
G01*
X173650000Y-120320000D01*
G75*
G02*
X173800000Y-120170000I150000J0D01*
G01*
G37*
%TD*%
%TO.C,U8*%
G36*
G01*
X173700000Y-112210000D02*
X174000000Y-112210000D01*
G75*
G02*
X174150000Y-112360000I0J-150000D01*
G01*
X174150000Y-114010000D01*
G75*
G02*
X174000000Y-114160000I-150000J0D01*
G01*
X173700000Y-114160000D01*
G75*
G02*
X173550000Y-114010000I0J150000D01*
G01*
X173550000Y-112360000D01*
G75*
G02*
X173700000Y-112210000I150000J0D01*
G01*
G37*
G36*
G01*
X172430000Y-112210000D02*
X172730000Y-112210000D01*
G75*
G02*
X172880000Y-112360000I0J-150000D01*
G01*
X172880000Y-114010000D01*
G75*
G02*
X172730000Y-114160000I-150000J0D01*
G01*
X172430000Y-114160000D01*
G75*
G02*
X172280000Y-114010000I0J150000D01*
G01*
X172280000Y-112360000D01*
G75*
G02*
X172430000Y-112210000I150000J0D01*
G01*
G37*
G36*
G01*
X171160000Y-112210000D02*
X171460000Y-112210000D01*
G75*
G02*
X171610000Y-112360000I0J-150000D01*
G01*
X171610000Y-114010000D01*
G75*
G02*
X171460000Y-114160000I-150000J0D01*
G01*
X171160000Y-114160000D01*
G75*
G02*
X171010000Y-114010000I0J150000D01*
G01*
X171010000Y-112360000D01*
G75*
G02*
X171160000Y-112210000I150000J0D01*
G01*
G37*
G36*
G01*
X169890000Y-112210000D02*
X170190000Y-112210000D01*
G75*
G02*
X170340000Y-112360000I0J-150000D01*
G01*
X170340000Y-114010000D01*
G75*
G02*
X170190000Y-114160000I-150000J0D01*
G01*
X169890000Y-114160000D01*
G75*
G02*
X169740000Y-114010000I0J150000D01*
G01*
X169740000Y-112360000D01*
G75*
G02*
X169890000Y-112210000I150000J0D01*
G01*
G37*
G36*
G01*
X168620000Y-112210000D02*
X168920000Y-112210000D01*
G75*
G02*
X169070000Y-112360000I0J-150000D01*
G01*
X169070000Y-114010000D01*
G75*
G02*
X168920000Y-114160000I-150000J0D01*
G01*
X168620000Y-114160000D01*
G75*
G02*
X168470000Y-114010000I0J150000D01*
G01*
X168470000Y-112360000D01*
G75*
G02*
X168620000Y-112210000I150000J0D01*
G01*
G37*
G36*
G01*
X167350000Y-112210000D02*
X167650000Y-112210000D01*
G75*
G02*
X167800000Y-112360000I0J-150000D01*
G01*
X167800000Y-114010000D01*
G75*
G02*
X167650000Y-114160000I-150000J0D01*
G01*
X167350000Y-114160000D01*
G75*
G02*
X167200000Y-114010000I0J150000D01*
G01*
X167200000Y-112360000D01*
G75*
G02*
X167350000Y-112210000I150000J0D01*
G01*
G37*
G36*
G01*
X166080000Y-112210000D02*
X166380000Y-112210000D01*
G75*
G02*
X166530000Y-112360000I0J-150000D01*
G01*
X166530000Y-114010000D01*
G75*
G02*
X166380000Y-114160000I-150000J0D01*
G01*
X166080000Y-114160000D01*
G75*
G02*
X165930000Y-114010000I0J150000D01*
G01*
X165930000Y-112360000D01*
G75*
G02*
X166080000Y-112210000I150000J0D01*
G01*
G37*
G36*
G01*
X166080000Y-107260000D02*
X166380000Y-107260000D01*
G75*
G02*
X166530000Y-107410000I0J-150000D01*
G01*
X166530000Y-109060000D01*
G75*
G02*
X166380000Y-109210000I-150000J0D01*
G01*
X166080000Y-109210000D01*
G75*
G02*
X165930000Y-109060000I0J150000D01*
G01*
X165930000Y-107410000D01*
G75*
G02*
X166080000Y-107260000I150000J0D01*
G01*
G37*
G36*
G01*
X167350000Y-107260000D02*
X167650000Y-107260000D01*
G75*
G02*
X167800000Y-107410000I0J-150000D01*
G01*
X167800000Y-109060000D01*
G75*
G02*
X167650000Y-109210000I-150000J0D01*
G01*
X167350000Y-109210000D01*
G75*
G02*
X167200000Y-109060000I0J150000D01*
G01*
X167200000Y-107410000D01*
G75*
G02*
X167350000Y-107260000I150000J0D01*
G01*
G37*
G36*
G01*
X168620000Y-107260000D02*
X168920000Y-107260000D01*
G75*
G02*
X169070000Y-107410000I0J-150000D01*
G01*
X169070000Y-109060000D01*
G75*
G02*
X168920000Y-109210000I-150000J0D01*
G01*
X168620000Y-109210000D01*
G75*
G02*
X168470000Y-109060000I0J150000D01*
G01*
X168470000Y-107410000D01*
G75*
G02*
X168620000Y-107260000I150000J0D01*
G01*
G37*
G36*
G01*
X169890000Y-107260000D02*
X170190000Y-107260000D01*
G75*
G02*
X170340000Y-107410000I0J-150000D01*
G01*
X170340000Y-109060000D01*
G75*
G02*
X170190000Y-109210000I-150000J0D01*
G01*
X169890000Y-109210000D01*
G75*
G02*
X169740000Y-109060000I0J150000D01*
G01*
X169740000Y-107410000D01*
G75*
G02*
X169890000Y-107260000I150000J0D01*
G01*
G37*
G36*
G01*
X171160000Y-107260000D02*
X171460000Y-107260000D01*
G75*
G02*
X171610000Y-107410000I0J-150000D01*
G01*
X171610000Y-109060000D01*
G75*
G02*
X171460000Y-109210000I-150000J0D01*
G01*
X171160000Y-109210000D01*
G75*
G02*
X171010000Y-109060000I0J150000D01*
G01*
X171010000Y-107410000D01*
G75*
G02*
X171160000Y-107260000I150000J0D01*
G01*
G37*
G36*
G01*
X172430000Y-107260000D02*
X172730000Y-107260000D01*
G75*
G02*
X172880000Y-107410000I0J-150000D01*
G01*
X172880000Y-109060000D01*
G75*
G02*
X172730000Y-109210000I-150000J0D01*
G01*
X172430000Y-109210000D01*
G75*
G02*
X172280000Y-109060000I0J150000D01*
G01*
X172280000Y-107410000D01*
G75*
G02*
X172430000Y-107260000I150000J0D01*
G01*
G37*
G36*
G01*
X173700000Y-107260000D02*
X174000000Y-107260000D01*
G75*
G02*
X174150000Y-107410000I0J-150000D01*
G01*
X174150000Y-109060000D01*
G75*
G02*
X174000000Y-109210000I-150000J0D01*
G01*
X173700000Y-109210000D01*
G75*
G02*
X173550000Y-109060000I0J150000D01*
G01*
X173550000Y-107410000D01*
G75*
G02*
X173700000Y-107260000I150000J0D01*
G01*
G37*
%TD*%
%TO.C,U9*%
G36*
G01*
X151395000Y-146000000D02*
X151695000Y-146000000D01*
G75*
G02*
X151845000Y-146150000I0J-150000D01*
G01*
X151845000Y-147800000D01*
G75*
G02*
X151695000Y-147950000I-150000J0D01*
G01*
X151395000Y-147950000D01*
G75*
G02*
X151245000Y-147800000I0J150000D01*
G01*
X151245000Y-146150000D01*
G75*
G02*
X151395000Y-146000000I150000J0D01*
G01*
G37*
G36*
G01*
X150125000Y-146000000D02*
X150425000Y-146000000D01*
G75*
G02*
X150575000Y-146150000I0J-150000D01*
G01*
X150575000Y-147800000D01*
G75*
G02*
X150425000Y-147950000I-150000J0D01*
G01*
X150125000Y-147950000D01*
G75*
G02*
X149975000Y-147800000I0J150000D01*
G01*
X149975000Y-146150000D01*
G75*
G02*
X150125000Y-146000000I150000J0D01*
G01*
G37*
G36*
G01*
X148855000Y-146000000D02*
X149155000Y-146000000D01*
G75*
G02*
X149305000Y-146150000I0J-150000D01*
G01*
X149305000Y-147800000D01*
G75*
G02*
X149155000Y-147950000I-150000J0D01*
G01*
X148855000Y-147950000D01*
G75*
G02*
X148705000Y-147800000I0J150000D01*
G01*
X148705000Y-146150000D01*
G75*
G02*
X148855000Y-146000000I150000J0D01*
G01*
G37*
G36*
G01*
X147585000Y-146000000D02*
X147885000Y-146000000D01*
G75*
G02*
X148035000Y-146150000I0J-150000D01*
G01*
X148035000Y-147800000D01*
G75*
G02*
X147885000Y-147950000I-150000J0D01*
G01*
X147585000Y-147950000D01*
G75*
G02*
X147435000Y-147800000I0J150000D01*
G01*
X147435000Y-146150000D01*
G75*
G02*
X147585000Y-146000000I150000J0D01*
G01*
G37*
G36*
G01*
X146315000Y-146000000D02*
X146615000Y-146000000D01*
G75*
G02*
X146765000Y-146150000I0J-150000D01*
G01*
X146765000Y-147800000D01*
G75*
G02*
X146615000Y-147950000I-150000J0D01*
G01*
X146315000Y-147950000D01*
G75*
G02*
X146165000Y-147800000I0J150000D01*
G01*
X146165000Y-146150000D01*
G75*
G02*
X146315000Y-146000000I150000J0D01*
G01*
G37*
G36*
G01*
X145045000Y-146000000D02*
X145345000Y-146000000D01*
G75*
G02*
X145495000Y-146150000I0J-150000D01*
G01*
X145495000Y-147800000D01*
G75*
G02*
X145345000Y-147950000I-150000J0D01*
G01*
X145045000Y-147950000D01*
G75*
G02*
X144895000Y-147800000I0J150000D01*
G01*
X144895000Y-146150000D01*
G75*
G02*
X145045000Y-146000000I150000J0D01*
G01*
G37*
G36*
G01*
X143775000Y-146000000D02*
X144075000Y-146000000D01*
G75*
G02*
X144225000Y-146150000I0J-150000D01*
G01*
X144225000Y-147800000D01*
G75*
G02*
X144075000Y-147950000I-150000J0D01*
G01*
X143775000Y-147950000D01*
G75*
G02*
X143625000Y-147800000I0J150000D01*
G01*
X143625000Y-146150000D01*
G75*
G02*
X143775000Y-146000000I150000J0D01*
G01*
G37*
G36*
G01*
X142505000Y-146000000D02*
X142805000Y-146000000D01*
G75*
G02*
X142955000Y-146150000I0J-150000D01*
G01*
X142955000Y-147800000D01*
G75*
G02*
X142805000Y-147950000I-150000J0D01*
G01*
X142505000Y-147950000D01*
G75*
G02*
X142355000Y-147800000I0J150000D01*
G01*
X142355000Y-146150000D01*
G75*
G02*
X142505000Y-146000000I150000J0D01*
G01*
G37*
G36*
G01*
X142505000Y-141050000D02*
X142805000Y-141050000D01*
G75*
G02*
X142955000Y-141200000I0J-150000D01*
G01*
X142955000Y-142850000D01*
G75*
G02*
X142805000Y-143000000I-150000J0D01*
G01*
X142505000Y-143000000D01*
G75*
G02*
X142355000Y-142850000I0J150000D01*
G01*
X142355000Y-141200000D01*
G75*
G02*
X142505000Y-141050000I150000J0D01*
G01*
G37*
G36*
G01*
X143775000Y-141050000D02*
X144075000Y-141050000D01*
G75*
G02*
X144225000Y-141200000I0J-150000D01*
G01*
X144225000Y-142850000D01*
G75*
G02*
X144075000Y-143000000I-150000J0D01*
G01*
X143775000Y-143000000D01*
G75*
G02*
X143625000Y-142850000I0J150000D01*
G01*
X143625000Y-141200000D01*
G75*
G02*
X143775000Y-141050000I150000J0D01*
G01*
G37*
G36*
G01*
X145045000Y-141050000D02*
X145345000Y-141050000D01*
G75*
G02*
X145495000Y-141200000I0J-150000D01*
G01*
X145495000Y-142850000D01*
G75*
G02*
X145345000Y-143000000I-150000J0D01*
G01*
X145045000Y-143000000D01*
G75*
G02*
X144895000Y-142850000I0J150000D01*
G01*
X144895000Y-141200000D01*
G75*
G02*
X145045000Y-141050000I150000J0D01*
G01*
G37*
G36*
G01*
X146315000Y-141050000D02*
X146615000Y-141050000D01*
G75*
G02*
X146765000Y-141200000I0J-150000D01*
G01*
X146765000Y-142850000D01*
G75*
G02*
X146615000Y-143000000I-150000J0D01*
G01*
X146315000Y-143000000D01*
G75*
G02*
X146165000Y-142850000I0J150000D01*
G01*
X146165000Y-141200000D01*
G75*
G02*
X146315000Y-141050000I150000J0D01*
G01*
G37*
G36*
G01*
X147585000Y-141050000D02*
X147885000Y-141050000D01*
G75*
G02*
X148035000Y-141200000I0J-150000D01*
G01*
X148035000Y-142850000D01*
G75*
G02*
X147885000Y-143000000I-150000J0D01*
G01*
X147585000Y-143000000D01*
G75*
G02*
X147435000Y-142850000I0J150000D01*
G01*
X147435000Y-141200000D01*
G75*
G02*
X147585000Y-141050000I150000J0D01*
G01*
G37*
G36*
G01*
X148855000Y-141050000D02*
X149155000Y-141050000D01*
G75*
G02*
X149305000Y-141200000I0J-150000D01*
G01*
X149305000Y-142850000D01*
G75*
G02*
X149155000Y-143000000I-150000J0D01*
G01*
X148855000Y-143000000D01*
G75*
G02*
X148705000Y-142850000I0J150000D01*
G01*
X148705000Y-141200000D01*
G75*
G02*
X148855000Y-141050000I150000J0D01*
G01*
G37*
G36*
G01*
X150125000Y-141050000D02*
X150425000Y-141050000D01*
G75*
G02*
X150575000Y-141200000I0J-150000D01*
G01*
X150575000Y-142850000D01*
G75*
G02*
X150425000Y-143000000I-150000J0D01*
G01*
X150125000Y-143000000D01*
G75*
G02*
X149975000Y-142850000I0J150000D01*
G01*
X149975000Y-141200000D01*
G75*
G02*
X150125000Y-141050000I150000J0D01*
G01*
G37*
G36*
G01*
X151395000Y-141050000D02*
X151695000Y-141050000D01*
G75*
G02*
X151845000Y-141200000I0J-150000D01*
G01*
X151845000Y-142850000D01*
G75*
G02*
X151695000Y-143000000I-150000J0D01*
G01*
X151395000Y-143000000D01*
G75*
G02*
X151245000Y-142850000I0J150000D01*
G01*
X151245000Y-141200000D01*
G75*
G02*
X151395000Y-141050000I150000J0D01*
G01*
G37*
%TD*%
%TO.C,U10*%
G36*
G01*
X165295000Y-146000000D02*
X165595000Y-146000000D01*
G75*
G02*
X165745000Y-146150000I0J-150000D01*
G01*
X165745000Y-147800000D01*
G75*
G02*
X165595000Y-147950000I-150000J0D01*
G01*
X165295000Y-147950000D01*
G75*
G02*
X165145000Y-147800000I0J150000D01*
G01*
X165145000Y-146150000D01*
G75*
G02*
X165295000Y-146000000I150000J0D01*
G01*
G37*
G36*
G01*
X164025000Y-146000000D02*
X164325000Y-146000000D01*
G75*
G02*
X164475000Y-146150000I0J-150000D01*
G01*
X164475000Y-147800000D01*
G75*
G02*
X164325000Y-147950000I-150000J0D01*
G01*
X164025000Y-147950000D01*
G75*
G02*
X163875000Y-147800000I0J150000D01*
G01*
X163875000Y-146150000D01*
G75*
G02*
X164025000Y-146000000I150000J0D01*
G01*
G37*
G36*
G01*
X162755000Y-146000000D02*
X163055000Y-146000000D01*
G75*
G02*
X163205000Y-146150000I0J-150000D01*
G01*
X163205000Y-147800000D01*
G75*
G02*
X163055000Y-147950000I-150000J0D01*
G01*
X162755000Y-147950000D01*
G75*
G02*
X162605000Y-147800000I0J150000D01*
G01*
X162605000Y-146150000D01*
G75*
G02*
X162755000Y-146000000I150000J0D01*
G01*
G37*
G36*
G01*
X161485000Y-146000000D02*
X161785000Y-146000000D01*
G75*
G02*
X161935000Y-146150000I0J-150000D01*
G01*
X161935000Y-147800000D01*
G75*
G02*
X161785000Y-147950000I-150000J0D01*
G01*
X161485000Y-147950000D01*
G75*
G02*
X161335000Y-147800000I0J150000D01*
G01*
X161335000Y-146150000D01*
G75*
G02*
X161485000Y-146000000I150000J0D01*
G01*
G37*
G36*
G01*
X160215000Y-146000000D02*
X160515000Y-146000000D01*
G75*
G02*
X160665000Y-146150000I0J-150000D01*
G01*
X160665000Y-147800000D01*
G75*
G02*
X160515000Y-147950000I-150000J0D01*
G01*
X160215000Y-147950000D01*
G75*
G02*
X160065000Y-147800000I0J150000D01*
G01*
X160065000Y-146150000D01*
G75*
G02*
X160215000Y-146000000I150000J0D01*
G01*
G37*
G36*
G01*
X158945000Y-146000000D02*
X159245000Y-146000000D01*
G75*
G02*
X159395000Y-146150000I0J-150000D01*
G01*
X159395000Y-147800000D01*
G75*
G02*
X159245000Y-147950000I-150000J0D01*
G01*
X158945000Y-147950000D01*
G75*
G02*
X158795000Y-147800000I0J150000D01*
G01*
X158795000Y-146150000D01*
G75*
G02*
X158945000Y-146000000I150000J0D01*
G01*
G37*
G36*
G01*
X157675000Y-146000000D02*
X157975000Y-146000000D01*
G75*
G02*
X158125000Y-146150000I0J-150000D01*
G01*
X158125000Y-147800000D01*
G75*
G02*
X157975000Y-147950000I-150000J0D01*
G01*
X157675000Y-147950000D01*
G75*
G02*
X157525000Y-147800000I0J150000D01*
G01*
X157525000Y-146150000D01*
G75*
G02*
X157675000Y-146000000I150000J0D01*
G01*
G37*
G36*
G01*
X156405000Y-146000000D02*
X156705000Y-146000000D01*
G75*
G02*
X156855000Y-146150000I0J-150000D01*
G01*
X156855000Y-147800000D01*
G75*
G02*
X156705000Y-147950000I-150000J0D01*
G01*
X156405000Y-147950000D01*
G75*
G02*
X156255000Y-147800000I0J150000D01*
G01*
X156255000Y-146150000D01*
G75*
G02*
X156405000Y-146000000I150000J0D01*
G01*
G37*
G36*
G01*
X156405000Y-141050000D02*
X156705000Y-141050000D01*
G75*
G02*
X156855000Y-141200000I0J-150000D01*
G01*
X156855000Y-142850000D01*
G75*
G02*
X156705000Y-143000000I-150000J0D01*
G01*
X156405000Y-143000000D01*
G75*
G02*
X156255000Y-142850000I0J150000D01*
G01*
X156255000Y-141200000D01*
G75*
G02*
X156405000Y-141050000I150000J0D01*
G01*
G37*
G36*
G01*
X157675000Y-141050000D02*
X157975000Y-141050000D01*
G75*
G02*
X158125000Y-141200000I0J-150000D01*
G01*
X158125000Y-142850000D01*
G75*
G02*
X157975000Y-143000000I-150000J0D01*
G01*
X157675000Y-143000000D01*
G75*
G02*
X157525000Y-142850000I0J150000D01*
G01*
X157525000Y-141200000D01*
G75*
G02*
X157675000Y-141050000I150000J0D01*
G01*
G37*
G36*
G01*
X158945000Y-141050000D02*
X159245000Y-141050000D01*
G75*
G02*
X159395000Y-141200000I0J-150000D01*
G01*
X159395000Y-142850000D01*
G75*
G02*
X159245000Y-143000000I-150000J0D01*
G01*
X158945000Y-143000000D01*
G75*
G02*
X158795000Y-142850000I0J150000D01*
G01*
X158795000Y-141200000D01*
G75*
G02*
X158945000Y-141050000I150000J0D01*
G01*
G37*
G36*
G01*
X160215000Y-141050000D02*
X160515000Y-141050000D01*
G75*
G02*
X160665000Y-141200000I0J-150000D01*
G01*
X160665000Y-142850000D01*
G75*
G02*
X160515000Y-143000000I-150000J0D01*
G01*
X160215000Y-143000000D01*
G75*
G02*
X160065000Y-142850000I0J150000D01*
G01*
X160065000Y-141200000D01*
G75*
G02*
X160215000Y-141050000I150000J0D01*
G01*
G37*
G36*
G01*
X161485000Y-141050000D02*
X161785000Y-141050000D01*
G75*
G02*
X161935000Y-141200000I0J-150000D01*
G01*
X161935000Y-142850000D01*
G75*
G02*
X161785000Y-143000000I-150000J0D01*
G01*
X161485000Y-143000000D01*
G75*
G02*
X161335000Y-142850000I0J150000D01*
G01*
X161335000Y-141200000D01*
G75*
G02*
X161485000Y-141050000I150000J0D01*
G01*
G37*
G36*
G01*
X162755000Y-141050000D02*
X163055000Y-141050000D01*
G75*
G02*
X163205000Y-141200000I0J-150000D01*
G01*
X163205000Y-142850000D01*
G75*
G02*
X163055000Y-143000000I-150000J0D01*
G01*
X162755000Y-143000000D01*
G75*
G02*
X162605000Y-142850000I0J150000D01*
G01*
X162605000Y-141200000D01*
G75*
G02*
X162755000Y-141050000I150000J0D01*
G01*
G37*
G36*
G01*
X164025000Y-141050000D02*
X164325000Y-141050000D01*
G75*
G02*
X164475000Y-141200000I0J-150000D01*
G01*
X164475000Y-142850000D01*
G75*
G02*
X164325000Y-143000000I-150000J0D01*
G01*
X164025000Y-143000000D01*
G75*
G02*
X163875000Y-142850000I0J150000D01*
G01*
X163875000Y-141200000D01*
G75*
G02*
X164025000Y-141050000I150000J0D01*
G01*
G37*
G36*
G01*
X165295000Y-141050000D02*
X165595000Y-141050000D01*
G75*
G02*
X165745000Y-141200000I0J-150000D01*
G01*
X165745000Y-142850000D01*
G75*
G02*
X165595000Y-143000000I-150000J0D01*
G01*
X165295000Y-143000000D01*
G75*
G02*
X165145000Y-142850000I0J150000D01*
G01*
X165145000Y-141200000D01*
G75*
G02*
X165295000Y-141050000I150000J0D01*
G01*
G37*
%TD*%
D10*
%TO.C,U11*%
X140843000Y-79920000D03*
X117983000Y-72300000D03*
X138303000Y-79920000D03*
X120523000Y-72300000D03*
X135763000Y-79920000D03*
X123063000Y-72300000D03*
X133223000Y-79920000D03*
X125603000Y-72300000D03*
X130683000Y-79920000D03*
X128143000Y-72300000D03*
X128143000Y-79920000D03*
X130683000Y-72300000D03*
X125603000Y-79920000D03*
X133223000Y-72300000D03*
X123063000Y-79920000D03*
X135763000Y-72300000D03*
X120523000Y-79920000D03*
X138303000Y-72300000D03*
X117983000Y-79920000D03*
D11*
X140843000Y-72300000D03*
%TD*%
D18*
%TO.C,Y1*%
X137300000Y-136680000D03*
D19*
X137300000Y-131600000D03*
%TD*%
D14*
%TO.C,J1*%
X116960000Y-56240000D03*
X116960000Y-53700000D03*
X114420000Y-56240000D03*
X114420000Y-53700000D03*
X111880000Y-56240000D03*
X111880000Y-53700000D03*
X109340000Y-56240000D03*
X109340000Y-53700000D03*
X106800000Y-56240000D03*
D15*
X106800000Y-53700000D03*
%TD*%
D20*
%TO.C,SW1*%
X181420000Y-125490000D03*
X187920000Y-125490000D03*
X181420000Y-129990000D03*
X187920000Y-129990000D03*
%TD*%
%TO.C,SW2*%
X181440000Y-134050000D03*
X187940000Y-134050000D03*
X181440000Y-138550000D03*
X187940000Y-138550000D03*
%TD*%
%TO.C,SW3*%
X191400000Y-133970000D03*
X197900000Y-133970000D03*
X191400000Y-138470000D03*
X197900000Y-138470000D03*
%TD*%
%TO.C,SW4*%
X191420000Y-125450000D03*
X197920000Y-125450000D03*
X191420000Y-129950000D03*
X197920000Y-129950000D03*
%TD*%
%TO.C,SW5*%
X197600000Y-56800000D03*
X191100000Y-56800000D03*
X197600000Y-52300000D03*
X191100000Y-52300000D03*
%TD*%
D11*
%TO.C,U1*%
X102700000Y-83850000D03*
D10*
X150960000Y-68610000D03*
X105240000Y-83850000D03*
X148420000Y-68610000D03*
X107780000Y-83850000D03*
X145880000Y-68610000D03*
X110320000Y-83850000D03*
X143340000Y-68610000D03*
X112860000Y-83850000D03*
X140800000Y-68610000D03*
X115400000Y-83850000D03*
X138260000Y-68610000D03*
X117940000Y-83850000D03*
X135720000Y-68610000D03*
X120480000Y-83850000D03*
X133180000Y-68610000D03*
X123020000Y-83850000D03*
X130640000Y-68610000D03*
X125560000Y-83850000D03*
X128100000Y-68610000D03*
X128100000Y-83850000D03*
X125560000Y-68610000D03*
X130640000Y-83850000D03*
X123020000Y-68610000D03*
X133180000Y-83850000D03*
X120480000Y-68610000D03*
X135720000Y-83850000D03*
X117940000Y-68610000D03*
X138260000Y-83850000D03*
X115400000Y-68610000D03*
X140800000Y-83850000D03*
X112860000Y-68610000D03*
X143340000Y-83850000D03*
X110320000Y-68610000D03*
X145880000Y-83850000D03*
X107780000Y-68610000D03*
X148420000Y-83850000D03*
X105240000Y-68610000D03*
X150960000Y-83850000D03*
X102700000Y-68610000D03*
%TD*%
M02*
